<?xml version="1.0" encoding="UTF-8"?>
<svg xmlns="http://www.w3.org/2000/svg" xmlns:xlink="http://www.w3.org/1999/xlink" width="60px" height="61px" viewBox="0 0 60 61" version="1.1">
    <!-- Generator: Sketch 51.1 (57501) - http://www.bohemiancoding.com/sketch -->
    <title>01 - Sunny</title>
    <desc>Created with Sketch.</desc>
    <defs/>
    <g id="Page-1" stroke="none" stroke-width="1" fill="none" fill-rule="evenodd">
        <g id="01---Sunny" transform="translate(-1.000000, 0.000000)">
            <path d="M31,1.97 C14.9837423,1.97 2,14.9537423 2,30.97 C2,46.9862577 14.9837423,59.97 31,59.97 C47.0162577,59.97 60,46.9862577 60,30.97 C59.9933778,14.9564861 47.0135139,1.97662217 31,1.97 Z" id="Shape" fill="#EAAA89"/>
            <path d="M51.89,20.06 C47.5493906,12.825602 40.2750152,7.83863712 31.96218,6.39843698 C23.6493448,4.95823685 15.1213038,7.20743031 8.6,12.56 C-0.864978159,24.0885208 -0.0409401668,40.9167358 10.5051039,51.465364 C21.051148,62.0139923 37.8791605,62.8421533 49.41,53.38 C57.1851447,43.9095003 58.1774665,30.5771767 51.89,20.06 Z" id="Shape" fill="#E5956C"/>
            <path d="M56.45,17.07 C55.1191468,18.3289529 53.5751386,19.3413618 51.89,20.06 C47.259291,12.3428308 39.3094184,7.21161658 30.37,6.17 C30.3255693,4.75413437 30.487261,3.33933195 30.85,1.97 C41.5104786,1.91403065 51.341739,7.71293816 56.45,17.07 Z" id="Shape" fill="#FEF2BB"/>
            <path d="M51.89,20.06 C47.1683152,22.0742594 41.7547038,21.6131432 37.4417049,18.8293349 C33.128706,16.0455266 30.4790188,11.3022181 30.37,6.17 C39.3094184,7.21161658 47.259291,12.3428308 51.89,20.06 Z" id="Shape" fill="#FDEA8E"/>
            <path d="M45.82,22.306 C40.7300789,22.2952532 35.9302225,19.9351281 32.8138253,15.9107672 C29.6974281,11.8864063 28.613609,6.6486445 29.877,1.718 L30.071,0.969 L31,0.969 C41.9708433,0.972751246 52.0663463,6.95943205 57.332,16.584 L57.702,17.26 L57.143,17.791 C54.0894103,20.6956215 50.0344031,22.312539 45.82,22.306 Z M31.64,2.976 C30.7898175,7.2276909 31.8884183,11.6366767 34.6341544,14.9923612 C37.3798906,18.3480458 41.4841475,20.2977007 45.82,20.306 C49.2542225,20.3115361 52.5772454,19.0889445 55.189,16.859 C50.2816214,8.45709236 41.3674561,3.20186464 31.64,2.976 Z" id="Shape" fill="#464C63" fill-rule="nonzero"/>
            <path d="M57.846,34.69 C56.9082308,33.0550548 55.1046162,32.1154807 53.2273661,32.2839712 C51.350116,32.4524616 49.7426411,33.6981942 49.111,35.474 C48.0162417,35.3381839 46.9284938,35.7743883 46.2308996,36.6289666 C45.5333054,37.4835449 45.3237325,38.6366056 45.676,39.682 C45.4912695,39.9177354 45.321599,40.1648932 45.168,40.422 C43.0565989,39.251262 40.4399182,39.5164217 38.6062992,41.0869259 C36.7726803,42.6574302 36.1085702,45.2022849 36.9409484,47.4685127 C37.7733265,49.7347406 39.9267638,51.2447192 42.341,51.255 L42.341,51.266 C52.224,51.266 51.614,51.273 51.717,51.255 C56.2475843,46.6467295 59.0984542,40.6498657 59.812,34.227 C59.1261317,34.1930044 58.4446162,34.3535037 57.846,34.69 Z" id="Shape" fill="#F9FAFD"/>
            <path d="M59.812,34.227 C59.5616869,36.5600485 59.0201385,38.8525585 58.2,41.051 C57.1139201,38.7144525 54.8853186,37.1157462 52.3239454,36.8357622 C49.7625722,36.5557781 47.2412169,37.6352661 45.676,39.682 C45.3243212,38.6366411 45.5341258,37.4839288 46.23158,36.6295221 C46.9290342,35.7751153 48.0163943,35.3387536 49.111,35.474 C49.7426411,33.6981942 51.350116,32.4524616 53.2273661,32.2839712 C55.1046162,32.1154807 56.9082308,33.0550548 57.846,34.69 C58.4464502,34.358234 59.1266013,34.198056 59.812,34.227 Z" id="Shape" fill="#D3D6D9"/>
            <path d="M22.949,28.937 C23.7067622,26.6955622 23.013879,24.2187705 21.2030496,22.695897 C19.3922202,21.1730235 16.8333013,20.9151108 14.755,22.046 C13.7336028,20.273305 12.0128094,19.0127862 10.0146143,18.5735639 C8.01641931,18.1343416 5.92563862,18.5570401 4.255,19.738 C0.493926881,28.7166503 1.4798302,38.9822842 6.881,47.081 L24.4,47.081 C26.0501546,47.0327654 27.6595739,46.5572786 29.071,45.701 C30.0500782,45.1129046 30.902303,44.3358061 31.578,43.415 C32.4061626,42.320841 32.9683233,41.048961 33.22,39.7 C33.7845276,36.798133 32.9071382,33.8026709 30.8661948,31.6639625 C28.8252514,29.5252541 25.8740883,28.508769 22.949,28.937 Z" id="Shape" fill="#F9FAFD"/>
            <path d="M22.949,28.937 C21.9016818,29.0807745 20.8882544,29.4095543 19.956,29.908 C18.2038137,26.8995278 15.1822493,24.8475736 11.7396666,24.3282612 C8.29708376,23.8089487 4.80467569,24.8782724 2.243,27.236 C2.57106055,24.6566677 3.2472153,22.1337022 4.253,19.736 C5.92363862,18.5550401 8.01441931,18.1323416 10.0126143,18.5715639 C12.0108094,19.0107862 13.7316028,20.271305 14.753,22.044 C16.8318057,20.9110844 19.3925559,21.1683704 21.2044314,22.6921939 C23.0163069,24.2160175 23.708774,26.6947524 22.949,28.937 Z" id="Shape" fill="#D3D6D9"/>
            <path d="M31,60.969 C14.4314575,60.969 1,47.5375425 1,30.969 C1,14.4004575 14.4314575,0.969 31,0.969 C47.5685425,0.969 61,14.4004575 61,30.969 C60.9818129,47.5300033 47.5610033,60.9508129 31,60.969 Z M31,2.969 C15.536027,2.969 3,15.505027 3,30.969 C3,46.432973 15.536027,58.969 31,58.969 C46.463973,58.969 59,46.432973 59,30.969 C58.9818134,15.5128903 46.456111,2.98808251 31,2.971 L31,2.969 Z" id="Shape" fill="#464C63" fill-rule="nonzero"/>
            <path d="M24.4,48.081 L6.881,48.081 C6.55215943,48.0807639 6.24445257,47.918872 6.058,47.648 C0.458203677,39.2698157 -0.566314221,28.6415691 3.33,19.348 C3.40195155,19.1771332 3.51958954,19.0293937 3.67,18.921 C7.35412711,16.3134812 12.4482125,17.1392124 15.12,20.777 C17.3177963,19.9568758 19.7834628,20.3322111 21.6376781,21.7691516 C23.4918933,23.2060921 24.4706887,25.5000728 24.225,27.833 C28.9361406,27.8036321 33.0436137,31.0309703 34.1296504,35.6153167 C35.2156871,40.1996632 32.9926175,44.9267139 28.769,47.014 C28.73,47.034 28.688,47.055 28.648,47.073 C27.3170932,47.6995787 25.8705295,48.0428312 24.4,48.081 Z M7.425,46.081 C28.566,46.081 23.637,46.087 24.373,46.07 C25.5655807,46.0499807 26.7398655,45.7733775 27.816,45.259 L27.842,45.245 C31.2428077,43.5855421 33.0452664,39.7958733 32.18659,36.110501 C31.3279136,32.4251288 28.0360562,29.8224145 24.252,29.837 C23.136,29.837 22.667,30.163 22.179,29.574 C21.615,28.894 22.27,28.434 22.27,27.125 C22.2724461,25.4423106 21.38813,23.8828172 19.94285,23.0210659 C18.49757,22.1593146 16.7051687,22.1228096 15.226,22.925 C14.7504992,23.1792189 14.1590686,23.0106811 13.889,22.544 C13.029996,21.0594952 11.6013738,19.9907579 9.93473203,19.5858537 C8.26809022,19.1809494 6.50836229,19.4750892 5.064,20.4 C1.63054668,28.8353127 2.51108773,38.413108 7.425,46.081 Z" id="Shape" fill="#464C63" fill-rule="nonzero"/>
            <path d="M51.529,52.267 C41.684,52.267 42.294,52.274 42.165,52.251 C39.5055246,52.1755091 37.1365704,50.5499764 36.1093548,48.0957278 C35.0821392,45.6414792 35.586946,42.8131457 37.3997685,40.8657929 C39.2125911,38.9184402 41.9976177,38.2128007 44.519,39.062 C44.4180137,37.924129 44.7798931,36.7935794 45.5228553,35.9258491 C46.2658176,35.0581189 47.327151,34.5264512 48.467,34.451 C49.3635904,32.6850219 51.0960632,31.4956035 53.0662586,31.2934078 C55.036454,31.091212 56.9744021,31.9039452 58.211,33.451 C58.6845464,33.2939221 59.180083,33.2132455 59.679,33.212 C59.9849949,33.1799572 60.2891995,33.2870615 60.507624,33.5037417 C60.7260485,33.720422 60.8355884,34.0237581 60.806,34.33 C60.0721216,40.9780203 57.1220981,47.1855741 52.431,51.953 C52.1906393,52.1844066 51.8610999,52.2991243 51.529,52.267 Z M51.282,50.267 C55.1862047,46.1809806 57.7546327,41.003666 58.646,35.423 C58.5304946,35.4682375 58.4176469,35.5199872 58.308,35.578 C57.8318423,35.8253123 57.2453653,35.6527672 56.979,35.187 C56.2340522,33.8909698 54.8029816,33.1469737 53.3141946,33.2817123 C51.8254075,33.416451 50.551162,34.4052845 50.051,35.814 C49.8984061,36.2436665 49.4728112,36.5141998 49.019,36.47 C48.2627022,36.3665328 47.5065005,36.6603219 47.0184208,37.2472377 C46.5303412,37.8341534 46.3793635,38.6312475 46.619,39.356 C46.743461,39.7177039 46.6506804,40.118718 46.38,40.389 C46.365,40.419 46.123,40.776 46.08,40.852 C45.9617898,41.0987746 45.7481585,41.2867505 45.4883483,41.3725992 C45.2285381,41.4584479 44.9449676,41.4347616 44.703,41.307 C42.9580194,40.3291295 40.7886519,40.5414691 39.2664034,41.8391391 C37.7441548,43.136809 37.191132,45.2452229 37.8804871,47.1229815 C38.5698423,49.0007402 40.3557081,50.2505108 42.356,50.255 C43.627,50.269 38.43,50.267 51.282,50.267 Z M59.682,34.752 L59.691,34.717 L59.682,34.752 Z" id="Shape" fill="#464C63" fill-rule="nonzero"/>
        </g>
    </g>
</svg>
