<?xml version="1.0" encoding="UTF-8"?>
<svg xmlns="http://www.w3.org/2000/svg" xmlns:xlink="http://www.w3.org/1999/xlink" width="60px" height="60px" viewBox="0 0 60 60" version="1.1">
    <!-- Generator: Sketch 51.1 (57501) - http://www.bohemiancoding.com/sketch -->
    <title>10 - Cold</title>
    <desc>Created with Sketch.</desc>
    <defs/>
    <g id="Page-1" stroke="none" stroke-width="1" fill="none" fill-rule="evenodd">
        <g id="10---Cold" transform="translate(-1.000000, -1.000000)">
            <path d="M31,1.97 C14.9837423,1.97 2,14.9537423 2,30.97 C2,46.9862577 14.9837423,59.97 31,59.97 C47.0162577,59.97 60,46.9862577 60,30.97 C59.9933778,14.9564861 47.0135139,1.97662217 31,1.97 Z" id="Shape" fill="#F9FAFD"/>
            <path d="M51.89,20.06 C47.5493906,12.825602 40.2750152,7.83863712 31.96218,6.39843698 C23.6493448,4.95823685 15.1213038,7.20743031 8.6,12.56 C-0.864978159,24.0885208 -0.0409401668,40.9167358 10.5051039,51.465364 C21.051148,62.0139923 37.8791605,62.8421533 49.41,53.38 C57.1851447,43.9095003 58.1774665,30.5771767 51.89,20.06 Z" id="Shape" fill="#D3D6D9"/>
            <path d="M17.979,18.221 L15.63,19.574 L17.979,20.927 C18.4536825,20.0874511 18.4536825,19.0605489 17.979,18.221 Z M17.979,18.221 L15.63,19.574 L17.979,20.927 C18.4536825,20.0874511 18.4536825,19.0605489 17.979,18.221 Z M17.979,18.221 L15.63,19.574 L17.979,20.927 C18.4536825,20.0874511 18.4536825,19.0605489 17.979,18.221 Z M17.979,18.221 L15.63,19.574 L17.979,20.927 C18.4536825,20.0874511 18.4536825,19.0605489 17.979,18.221 Z M36.5,22.493 L29.676,26.118 L24.272,23 L31.106,19.578 L24.272,16.156 L29.672,13.014 L36.5,16.655 L37.767,14.267 L32.431,11.435 L37.322,8.6 L36.655,7.431 C15.233,19.807 18.848,17.72 15.63,19.574 C19.03,21.532 15.556,19.529 36.655,31.706 L37.322,30.536 L32.431,27.7 L37.767,24.877 L36.5,22.493 Z M19.613,20.309 C19.7030351,19.8201107 19.7030351,19.3188893 19.613,18.83 L21.469,17.766 L25.084,19.574 L21.469,21.374 L19.613,20.309 Z M17.979,18.221 L15.63,19.574 L17.979,20.927 C18.4536825,20.0874511 18.4536825,19.0605489 17.979,18.221 Z M17.979,18.221 L15.63,19.574 L17.979,20.927 C18.4536825,20.0874511 18.4536825,19.0605489 17.979,18.221 Z M17.979,18.221 L15.63,19.574 L17.979,20.927 C18.4536825,20.0874511 18.4536825,19.0605489 17.979,18.221 Z M17.979,18.221 L15.63,19.574 L17.979,20.927 C18.4536825,20.0874511 18.4536825,19.0605489 17.979,18.221 Z M17.979,18.221 L15.63,19.574 L17.979,20.927 C18.4536825,20.0874511 18.4536825,19.0605489 17.979,18.221 Z" id="Shape" fill="#7AAEDC" fill-rule="nonzero"/>
            <path d="M35.978,6.273 L31.077,9.1 L31.29,3.059 L28.59,2.959 L28.332,10.69 L22.919,13.8 L23.373,6.173 L16.983,10.388 L16.983,5.615 C16.71,5.767 15.883,6.234 15.63,6.415 L15.63,19.574 C19.03,17.615 15.641,19.574 36.655,7.433 L35.978,6.273 Z M20.115,15.427 L18.24,16.51 C17.8729612,16.1877336 17.4457466,15.941329 16.983,15.785 L16.983,13.619 L20.347,11.386 L20.115,15.427 Z" id="Shape" fill="#7AAEDC" fill-rule="nonzero"/>
            <path d="M36.655,31.706 C15.146,19.292 18.848,21.428 15.63,19.574 L15.63,6.418 C15.176,6.698 14.721,6.998 14.286,7.318 L14.286,10.391 L12.15,8.979 C10.7378085,10.1757619 9.44812936,11.5099935 8.3,12.962 L8.348,13.803 L7.865,13.523 C7.31606765,14.2418963 6.80697003,14.9903533 6.34,15.765 L7.007,16.152 L5.722,16.79 C4.90667453,18.2393689 4.21779171,19.7563163 3.663,21.324 L7.007,23 L2.522,25.587 C2.30562009,26.6949138 2.15701089,27.8149931 2.077,28.941 C2.11525607,30.594791 2.34239659,32.2387918 2.754,33.841 L2.947,28.457 L8.347,25.334 L7.9,32.962 L14.289,28.748 L14.289,35 L7.732,39.11 L9.153,41.392 L14.286,38.182 L14.286,43.837 L16.986,43.837 L16.986,38.182 L22.119,41.392 L23.54,39.11 L16.983,35 L16.983,28.748 L23.373,32.962 L22.919,25.335 L28.332,28.458 L28.593,36.181 L31.293,36.094 L31.08,30.043 L35.98,32.875 L36.655,31.706 Z M14.286,13.619 L14.286,15.785 C13.8236076,15.9414483 13.3967429,16.1878472 13.03,16.51 L11.164,15.427 L10.913,11.386 L14.286,13.619 Z M6.186,19.574 L9.8,17.766 L11.666,18.83 C11.5624625,19.3175639 11.5624625,19.8214361 11.666,20.309 L9.8,21.372 L6.186,19.574 Z M14.286,25.529 L10.913,27.752 L11.164,23.721 L13.03,22.638 C13.4015092,22.9534473 13.8270302,23.1990706 14.286,23.363 L14.286,25.529 Z M16.986,25.529 L16.986,23.363 C17.4452764,23.199079 17.8711273,22.9534609 18.243,22.638 L20.118,23.721 L20.35,27.752 L16.986,25.529 Z" id="Shape" fill="#599AD3" fill-rule="nonzero"/>
            <path d="M16.983,44.337 L14.283,44.337 C14.0068576,44.337 13.783,44.1131424 13.783,43.837 L13.783,39.084 L9.418,41.815 C9.30554828,41.8852826 9.16978257,41.9080153 9.04056993,41.878197 C8.91135728,41.8483787 8.79928219,41.768452 8.729,41.656 L7.308,39.375 C7.16232534,39.1410399 7.23344142,38.8333175 7.467,38.687 L13.786,34.725 L13.786,29.676 L8.172,33.376 C8.01397538,33.4805578 7.81042428,33.4868045 7.64628557,33.3921335 C7.48214687,33.2974625 7.38562612,33.1181421 7.397,32.929 L7.797,26.229 L3.437,28.748 L3.254,33.86 C3.24406466,34.1087799 3.05260503,34.3123431 2.80490008,34.3374908 C2.55719513,34.3626385 2.32873098,34.2017072 2.269,33.96 C1.84403405,32.3070369 1.61215249,30.6103753 1.578,28.904 C1.66042449,27.7566239 1.81169692,26.615235 2.031,25.486 C2.093,25.179 2.004,25.307 5.953,23.027 L3.438,21.771 C3.21322232,21.6583659 3.107041,21.3963378 3.19,21.159 C4.91603867,16.2870284 7.89456858,11.9554678 11.826,8.6 C11.9956597,8.45570606 12.2403043,8.44102738 12.426,8.564 L13.786,9.464 C13.786,7.144 13.718,7.116 13.986,6.916 C14.8616213,6.28646692 15.7742646,5.71009576 16.719,5.19 C16.8743298,5.10198601 17.0642895,5.10123902 17.2203067,5.18802868 C17.3763239,5.27481834 17.475866,5.43661023 17.483,5.615 L17.483,9.462 L23.098,5.762 C23.2561464,5.65789408 23.4595306,5.6520466 23.6233971,5.74689436 C23.7872635,5.84174213 23.8834992,6.02101301 23.872,6.21 L23.472,12.91 L27.842,10.4 L28.093,2.944 C28.1027702,2.66818173 28.3341743,2.45244331 28.61,2.462 L31.31,2.562 C31.5858183,2.57177018 31.8015567,2.80317425 31.792,3.079 L31.61,8.22 L35.731,5.847 C35.9694318,5.7101243 36.2736415,5.79142558 36.412,6.029 L37.759,8.363 C37.8948621,8.60172861 37.8127046,8.90535413 37.575,9.043 L33.463,11.424 L38,13.826 C38.2432065,13.9555243 38.3357815,14.2573994 38.207,14.501 C36.867,17.028 36.921,17.049 36.645,17.133 C36.369,17.217 36.826,17.396 29.686,13.583 L25.322,16.119 L31.329,19.127 C31.4981575,19.2117806 31.6049665,19.3847858 31.6049665,19.574 C31.6049665,19.7632142 31.4981575,19.9362194 31.329,20.021 L25.329,23.027 L29.69,25.546 C36.853,21.746 36.373,21.928 36.65,22.015 C36.927,22.102 36.85,22.084 38.212,24.646 C38.2744106,24.7633164 38.2875539,24.9006511 38.2485273,25.0276753 C38.2095006,25.1546995 38.1215147,25.2609634 38.004,25.323 L33.467,27.723 L37.577,30.104 C37.8147046,30.2416459 37.8968621,30.5452714 37.761,30.784 L36.415,33.126 C36.276953,33.3645349 35.9719169,33.4463847 35.733,33.309 L31.612,30.928 C31.812,36.601 31.855,36.228 31.659,36.436 C31.463,36.644 31.49,36.588 28.612,36.681 C28.4777671,36.6926897 28.3449028,36.6466989 28.2466222,36.554525 C28.1483415,36.4623512 28.0939336,36.332706 28.097,36.198 L27.846,28.752 L23.478,26.232 L23.878,32.932 C23.8890932,33.1208097 23.7926996,33.2997186 23.6289157,33.394307 C23.4651317,33.4888954 23.2619938,33.4829717 23.104,33.379 L17.489,29.679 L17.489,34.728 L23.809,38.69 C24.0425586,38.8363175 24.1136747,39.1440399 23.968,39.378 C22.456,41.805 22.516,41.816 22.235,41.878 C21.954,41.94 22.212,42.036 17.489,39.083 L17.489,43.836 C17.4892773,43.9698277 17.435894,44.0981809 17.3407946,44.1923405 C17.2456953,44.2865001 17.1168183,44.3386062 16.983,44.337 Z M14.783,43.337 L16.483,43.337 L16.483,38.182 C16.4829996,38.0002371 16.581638,37.8327908 16.7406155,37.7446777 C16.899593,37.6565647 17.0938655,37.6616656 17.248,37.758 L21.957,40.7 L22.849,39.267 L16.718,35.424 C16.5718093,35.3326305 16.4829996,35.1723952 16.483,35 L16.483,28.748 C16.4826024,28.5636998 16.5836233,28.394124 16.7458813,28.3067222 C16.9081392,28.2193203 17.1053223,28.2282656 17.259,28.33 L22.814,32 L22.42,25.37 C22.4089884,25.1863584 22.4997132,25.0115041 22.6562,24.9147706 C22.8126868,24.8180371 23.0096541,24.8150524 23.169,24.907 L28.582,28.029 C28.731559,28.115212 28.8260674,28.2724741 28.832,28.445 L29.075,35.671 L30.775,35.616 L30.58,30.066 C30.5733848,29.8841672 30.6660699,29.7130944 30.8220016,29.6193275 C30.9779333,29.5255606 31.1724935,29.5239032 31.33,29.615 L35.8,32.192 L36.646,30.72 L32.18,28.136 C32.0230083,28.0447461 31.9278315,27.8755507 31.9313629,27.6939985 C31.9348942,27.5124463 32.0365785,27.3470799 32.197,27.262 L37.09,24.673 L36.29,23.173 L29.91,26.56 C29.7578712,26.6405044 29.5750307,26.6371045 29.426,26.551 L24.026,23.429 C23.8668254,23.3368594 23.7710861,23.1647708 23.7767265,22.9809376 C23.7823668,22.7971045 23.888476,22.6312089 24.053,22.549 L29.994,19.574 L24.048,16.6 C23.8839836,16.5176202 23.778287,16.351999 23.7726519,16.1685431 C23.7670167,15.9850872 23.8623489,15.8132911 24.021,15.721 L29.421,12.579 C29.5705433,12.4921579 29.7543439,12.4887542 29.907,12.57 L36.289,15.979 L37.089,14.479 L32.194,11.879 C32.0313742,11.7941542 31.9282624,11.6270726 31.9253413,11.4436675 C31.9224202,11.2602624 32.0201587,11.0899818 32.18,11 L36.642,8.416 L35.8,6.954 L31.33,9.528 C31.1726507,9.6189884 30.9783179,9.61742005 30.8224577,9.5239039 C30.6665974,9.43038776 30.5737628,9.25965567 30.58,9.078 L30.775,3.536 L29.075,3.475 L28.832,10.708 C28.8258574,10.8807286 28.7309436,11.038036 28.581,11.124 L23.168,14.236 C23.0087135,14.3274068 22.812137,14.3241344 22.6559812,14.2274764 C22.4998254,14.1308185 22.4092264,13.9563339 22.42,13.773 L22.814,7.143 L17.259,10.808 C17.1054719,10.9096347 16.9085093,10.9186684 16.7463225,10.8315138 C16.5841356,10.7443593 16.4829713,10.5751209 16.483,10.391 L16.483,6.474 C15.983,6.774 15.244,7.248 14.783,7.574 L14.783,10.391 C14.782786,10.5747875 14.6817612,10.7436425 14.5199147,10.8307264 C14.3580682,10.9178103 14.1614929,10.9090833 14.008,10.808 L12.187,9.608 C11.707,10.0293333 11.247,10.46 10.807,10.9 C11.09,10.836 10.95,10.815 14.563,13.2 C14.7025204,13.2928439 14.7862485,13.4494116 14.786,13.617 L14.786,15.783 C14.7858367,15.9981196 14.6480968,16.1890222 14.444,16.257 C13.39,16.609 13.292,17.236 12.778,16.94 C10.785,15.783 10.688,15.811 10.665,15.456 C10.397,11.156 10.401,11.387 10.422,11.287 C7.73458177,14.1001925 5.64579204,17.4293287 4.282,21.073 L7.231,22.547 C7.39552398,22.6292089 7.50163318,22.7951045 7.50727352,22.9789376 C7.51291385,23.1627708 7.41717463,23.3348594 7.258,23.427 L2.969,25.906 C2.858,26.484 2.752,27.169 2.659,28.049 C2.759,27.978 3.434,27.599 8.102,24.902 C8.26134593,24.8100524 8.45831323,24.8130371 8.61480004,24.9097706 C8.77128685,25.0065041 8.86201162,25.1813584 8.851,25.365 L8.455,32 L14.011,28.335 C14.1646426,28.2338181 14.3614376,28.2251801 14.5233548,28.3125109 C14.6852719,28.3998417 14.7861537,28.5690331 14.786,28.753 L14.786,35 C14.7862161,35.1721983 14.6978082,35.3323905 14.552,35.424 L8.421,39.269 L9.313,40.7 L14.021,37.756 C14.1751345,37.6596656 14.369407,37.6545647 14.5283845,37.7426777 C14.687362,37.8307908 14.7860004,37.9982371 14.786,38.18 L14.783,43.337 Z M11.643,15.129 L12.981,15.906 C13.2297148,15.7222669 13.4980177,15.5666512 13.781,15.442 L13.781,13.888 L11.469,12.357 L11.643,15.129 Z M20.348,28.252 C20.138,28.252 20.36,28.359 16.708,25.946 C16.5677178,25.853617 16.4831957,25.6969693 16.483,25.529 L16.483,23.363 C16.483,22.79 17.016,23.017 17.918,22.256 C18.0789199,22.1202837 18.3076081,22.0998937 18.49,22.205 C20.501,23.366 20.59,23.335 20.614,23.692 L20.847,27.723 C20.8549817,27.8603838 20.8059869,27.9949837 20.711558,28.0950896 C20.6171291,28.1951956 20.4856155,28.2519564 20.348,28.252 Z M17.483,25.26 L19.791,26.785 L19.632,24.019 L18.282,23.24 C18.0317535,23.4205482 17.763691,23.5750192 17.482,23.701 L17.483,25.26 Z M10.912,28.252 C10.7738417,28.2522658 10.6417312,28.1953536 10.5470185,28.0947688 C10.4523059,27.994184 10.4034339,27.8588928 10.412,27.721 L10.664,23.689 C10.687,23.333 10.781,23.364 12.777,22.206 C12.9596692,22.099669 13.1894671,22.1196863 13.351,22.256 C14.236,23.003 14.785,22.79 14.785,23.363 C14.785,25.673 14.859,25.749 14.561,25.946 C10.914,28.35 11.125,28.252 10.912,28.252 Z M11.646,24.019 L11.474,26.783 L13.786,25.259 L13.786,23.7 C13.5042803,23.5740755 13.2362122,23.4196013 12.986,23.239 L11.646,24.019 Z M21.469,21.872 C21.285,21.872 21.36,21.886 19.363,20.743 C19.182608,20.6391561 19.0854177,20.4344193 19.119,20.229 C19.2015225,19.7918605 19.2015225,19.3431395 19.119,18.906 C19.0873785,18.7016977 19.1847519,18.4990021 19.364,18.396 C21.356,17.254 21.377,17.16 21.693,17.319 L25.309,19.127 C25.4787073,19.2115817 25.5859669,19.384883 25.5859669,19.5745 C25.5859669,19.764117 25.4787073,19.9374183 25.309,20.022 C21.374,21.978 21.637,21.872 21.469,21.872 Z M20.153,20.042 L21.485,20.805 L23.964,19.573 L21.484,18.333 L20.153,19.096 C20.1895006,19.4102771 20.1895006,19.7277229 20.153,20.042 Z M9.8,21.872 C9.63,21.872 9.891,21.972 5.962,20.022 C5.79229274,19.9374183 5.68503307,19.764117 5.68503307,19.5745 C5.68503307,19.384883 5.79229274,19.2115817 5.962,19.127 L9.577,17.319 C9.896,17.158 9.936,17.268 11.914,18.395 C12.1006673,18.5009764 12.1988643,18.7142732 12.158,18.925 C12.066459,19.3481053 12.066459,19.7858947 12.158,20.209 C12.2009172,20.4208103 12.1028931,20.6362214 11.915,20.743 C9.907,21.887 9.983,21.872 9.8,21.872 Z M7.305,19.572 L9.784,20.805 L11.117,20.045 C11.0780417,19.7285278 11.0780417,19.4084722 11.117,19.092 L9.784,18.332 L7.305,19.572 Z M18.24,17.01 C17.869,17.01 17.747,16.567 16.825,16.259 C16.6209032,16.1910222 16.4831633,16.0001196 16.483,15.785 C16.483,13.478 16.409,13.401 16.707,13.203 L20.071,10.97 C20.2287501,10.8651233 20.4322223,10.8584004 20.5965512,10.9526354 C20.7608801,11.0468704 20.8578438,11.2258793 20.847,11.415 L20.614,15.456 C20.6029621,15.6225348 20.509558,15.7725815 20.365,15.856 C18.347,17.025 18.426,17.01 18.24,17.01 Z M17.483,15.442 C17.7660684,15.5664817 18.0343896,15.722108 18.283,15.906 L19.629,15.129 L19.788,12.356 L17.48,13.887 L17.483,15.442 Z" id="Shape" fill="#464C63" fill-rule="nonzero"/>
            <circle id="Oval" fill="#F9FAFD" fill-rule="nonzero" cx="15.533" cy="19.4" r="1.933"/>
            <path d="M31,60.97 C18.1780755,60.9707594 6.7730164,52.8227138 2.61749051,40.69286 C-1.53803539,28.5630062 2.47468367,15.1330358 12.6035007,7.27117768 C22.7323178,-0.590680477 36.7379343,-1.14631148 47.4577299,5.88844022 C58.1775255,12.9231919 63.2415469,25.9930697 60.06,38.414 C56.6622502,51.6875715 44.7015474,60.9713158 31,60.97 Z M31,2.97 C16.4429274,2.96871974 4.31310753,14.1221643 3.09563532,28.6282364 C1.87816311,43.1343084 11.9792063,56.153555 26.3328472,58.5787062 C40.6864881,61.0038575 54.5041271,52.0258449 58.12,37.925 C60.2546726,29.5460518 58.4033964,20.650874 53.1030904,13.8193034 C47.8027845,6.98773282 39.6465829,2.98426073 31,2.97 Z" id="Shape" fill="#464C63" fill-rule="nonzero"/>
            <path d="M47.607,38.755 C46.9211901,38.1770581 45.9188099,38.1770581 45.233,38.755 C44.7054218,39.430904 44.7054218,40.379096 45.233,41.055 C45.9189596,41.6325319 46.9210404,41.6325319 47.607,41.055 C48.1338632,40.3788501 48.1338632,39.4311499 47.607,38.755 Z M46.982,40.649 C46.8500982,40.8284266 46.6406926,40.9343869 46.418,40.9343869 C46.1953074,40.9343869 45.9859018,40.8284266 45.854,40.649 C45.6124687,40.1855828 45.6124687,39.6334172 45.854,39.17 C45.9859018,38.9905734 46.1953074,38.8846131 46.418,38.8846131 C46.6406926,38.8846131 46.8500982,38.9905734 46.982,39.17 C47.2245573,39.6331653 47.2245573,40.1858347 46.982,40.649 Z" id="Shape" fill="#464C63" fill-rule="nonzero"/>
            <path d="M43.567,46.407 C43.567,50.455 41.935,53.233 38.591,53.233 C35.209,53.233 33.718,50.192 33.698,46.487 C33.698,42.701 35.31,39.7 38.693,39.7 C42.2,39.7 43.567,42.821 43.567,46.407 Z M36.78,46.487 C36.76,49.487 37.48,50.918 38.672,50.918 C39.864,50.918 40.505,49.427 40.505,46.447 C40.505,43.547 39.88,42.016 38.652,42.016 C37.524,42.016 36.76,43.446 36.78,46.487 Z" id="Shape" fill="#464C63" fill-rule="nonzero"/>
        </g>
    </g>
</svg>
