<?xml version="1.0" encoding="UTF-8"?>
<svg xmlns="http://www.w3.org/2000/svg" xmlns:xlink="http://www.w3.org/1999/xlink" width="60px" height="60px" viewBox="0 0 60 60" version="1.1">
    <!-- Generator: Sketch 51.1 (57501) - http://www.bohemiancoding.com/sketch -->
    <title>11 - Raining</title>
    <desc>Created with Sketch.</desc>
    <defs/>
    <g id="Page-1" stroke="none" stroke-width="1" fill="none" fill-rule="evenodd">
        <g id="11---Raining" transform="translate(-1.000000, -1.000000)" fill-rule="nonzero">
            <path d="M55.087,9.741 L52.2,12.633 L49.367,9.805 L52.259,6.913 C52.7611489,6.39308683 53.5047558,6.18457481 54.2040146,6.36760569 C54.9032735,6.55063657 55.4493634,7.09672649 55.6323943,7.79598535 C55.8154252,8.49524422 55.6069132,9.23885106 55.087,9.741 Z" id="Shape" fill="#D3D5D8"/>
            <path d="M55.087,9.741 L52.2,12.633 L50.786,11.219 L53.678,8.327 C54.1832051,7.82299645 54.9186812,7.6263614 55.608,7.811 C55.7913681,8.50121139 55.5927903,9.23682567 55.087,9.741 Z" id="Shape" fill="#B5B9BE"/>
            <path d="M52.2,13.34 L48.66,9.805 L51.905,6.56 C52.5425351,5.94216885 53.4579595,5.70504828 54.3152684,5.93567299 C55.1725773,6.16629769 55.8454843,6.83069535 56.087,7.685 C56.3227854,8.54777321 56.0755354,9.4706614 55.44,10.1 L52.2,13.34 Z M50.074,9.805 L52.2,11.926 L54.738,9.387 C55.1179719,9.00654929 55.2652387,8.45181887 55.124,7.933 C54.9755656,7.42348594 54.5713491,7.02878532 54.058444,6.89252895 C53.545539,6.75627257 52.9987301,6.89832741 52.617,7.267 L50.074,9.805 Z" id="Shape" fill="#464C63"/>
            <circle id="Oval" fill="#8DA5CD" cx="31" cy="31" r="29"/>
            <rect id="Rectangle-path" fill="#E5E5A8" transform="translate(24.293998, 37.563307) rotate(-45.000000) translate(-24.293998, -37.563307) " x="16.8439977" y="35.563307" width="14.9" height="4"/>
            <rect id="Rectangle-path" fill="#CDCD8D" transform="translate(25.000847, 38.270307) rotate(-45.000000) translate(-25.000847, -38.270307) " x="17.5508467" y="37.270307" width="14.9" height="2"/>
            <path d="M24.486,27.986 L24.431,28.04 C24.382,27.891 24.351,27.918 24.486,27.986 Z" id="Shape" fill="#F1572F"/>
            <path d="M33.96,37.569 L34.014,37.514 C34.082,37.649 34.109,37.618 33.96,37.569 Z" id="Shape" fill="#F1572F"/>
            <path d="M15.244,16.707 C15.2226041,16.7216586 15.2042636,16.7403388 15.19,16.762 C15.19,16.653 15.135,16.707 15.244,16.707 Z" id="Shape" fill="#F1572F"/>
            <path d="M31,61 C16.6877599,61.0001941 4.36846424,50.8902788 1.57610828,36.8530795 C-1.21624768,22.8158802 6.29604706,8.76095715 19.5187693,3.28374693 C32.7414916,-2.19346329 47.9919246,2.43252049 55.9435051,14.332629 C63.8950856,26.2327376 62.3331849,42.0926209 52.213,52.213 C46.5995466,57.857877 38.9608423,61.0220355 31,61 Z M31,3 C18.3274684,3.0009144 7.23538379,11.5130801 3.9558719,23.7539077 C0.676360014,35.9947352 6.02710759,48.9121966 17.0017788,55.2485717 C27.9764499,61.5849469 41.8387098,59.7603758 50.8,50.8 C58.8087964,42.7920209 61.2047529,30.7480076 56.8705341,20.2845905 C52.5363153,9.82117342 42.3255706,2.99918279 31,3 Z" id="Shape" fill="#464C63"/>
            <path d="M17.993,46.692 C15.9354851,48.874205 12.9261153,49.8880814 9.96755671,49.3958245 C7.00899809,48.9035675 4.49005781,46.9698685 3.25,44.239 C4.80581603,46.2568402 7.14341332,47.5214045 9.68369527,47.7194203 C12.2239772,47.9174361 14.7292941,47.0303787 16.579,45.278 L17.993,46.692 Z" id="Shape" fill="#BF4D73"/>
            <path d="M15.165,43.864 C13.9360064,45.1617673 12.1080188,45.7052935 10.3696226,45.2898374 C8.63122629,44.8743813 7.24652508,43.5630607 6.73712249,41.8498373 C6.2277199,40.136614 6.67100631,38.2817672 7.9,36.984 C8.27718997,36.6108926 8.48654157,36.1005079 8.48,35.57 C8.4782238,34.7632166 7.99187863,34.0365019 7.24673403,33.727209 C6.50158942,33.417916 5.64357684,33.5866178 5.071,34.155 C2.42291651,36.80895 1.69741834,40.8264808 3.25,44.239 C4.80711031,46.2549344 7.14439639,47.5180326 9.68396246,47.7159926 C12.2235285,47.9139527 14.7283108,47.0282953 16.579,45.278 L15.165,43.864 Z" id="Shape" fill="#FF6699"/>
            <path d="M11.438,50.015 C7.60246991,50.0021498 4.14992727,47.6869289 2.68202689,44.143382 C1.21412651,40.5998351 2.01810815,36.5213658 4.721,33.8 C5.69840418,32.8308411 7.27535225,32.8340695 8.24878013,33.8072221 C9.22220802,34.7803746 9.22588237,36.3573217 8.257,37.335 C7.12000226,38.4716405 6.6757635,40.1285207 7.09162415,41.6815098 C7.50748481,43.234499 8.72026576,44.4476611 10.2731242,44.8640098 C11.8259825,45.2803585 13.4830023,44.8366405 14.62,43.7 L15.166,43.156 L18.7,46.692 L18.156,47.237 C16.3753607,49.0197796 13.9577141,50.0195149 11.438,50.015 Z M6.49,34.072 C6.09204686,34.0710236 5.71001578,34.2282247 5.428,34.509 C2.14422005,37.7974355 2.11016575,43.1135137 5.35154711,46.4437487 C8.59292848,49.7739837 13.9079841,49.8836711 17.284,46.69 L15.162,44.567 C12.9599557,46.5979896 9.53751162,46.4931949 7.46385315,44.3312841 C5.39019469,42.1693733 5.4280493,38.7455345 7.549,36.63 C7.97588957,36.2009714 8.10312501,35.5574272 7.87161868,34.9982269 C7.64011236,34.4390265 7.09522492,34.073738 6.49,34.072 Z" id="Shape" fill="#464C63"/>
            <path d="M20.44,44.953 L16.9,41.417 L28.147,30.174 L31.683,33.71 L20.44,44.953 Z M18.318,41.417 L20.44,43.539 L30.269,33.71 L28.147,31.588 L18.318,41.417 Z" id="Shape" fill="#464C63"/>
            <path d="M17.143,46.224 L15.635,44.716 C14.8537933,43.9350694 14.8535694,42.6687068 15.6345,41.8875 C16.4154307,41.1062933 17.6817932,41.1060694 18.463,41.887 L19.971,43.4 C20.7289444,44.1847578 20.7181047,45.4321696 19.9466372,46.2036372 C19.1751696,46.9751047 17.9277578,46.9859444 17.143,46.228 L17.143,46.224 Z" id="Shape" fill="#FDEA8E"/>
            <path d="M18.51,47.289 C17.8649201,47.2902046 17.2459448,47.0343374 16.79,46.578 L15.281,45.069 C14.8241664,44.6129758 14.5674518,43.9939882 14.5674518,43.3485 C14.5674518,42.7030118 14.8241664,42.0840242 15.281,41.628 C15.7357178,41.1439663 16.3650178,40.861729 17.0289043,40.8440755 C17.6927907,40.8264219 18.3362009,41.0748163 18.816,41.534 L20.325,43.042 C21.0134455,43.7708389 21.2039161,44.8386485 20.8099245,45.7605672 C20.4159329,46.6824859 19.5125594,47.2828298 18.51,47.289 Z M17.5,45.871 C18.0859741,46.456698 19.035802,46.4564741 19.6215,45.8705 C20.207198,45.2845259 20.2069741,44.334698 19.621,43.749 L18.112,42.241 C17.8225819,41.9633028 17.4320817,41.8162184 17.0313783,41.833977 C16.6306749,41.8517357 16.2547172,42.0327885 15.991,42.335 C15.7221282,42.6037572 15.571068,42.9683389 15.571068,43.3485 C15.571068,43.7286611 15.7221282,44.0932428 15.991,44.362 L17.5,45.871 Z" id="Shape" fill="#464C63"/>
            <path d="M45.949,14.834 L45.922,14.807 L45.935,14.807 C45.934994,14.8177422 45.9402169,14.8278151 45.949,14.834 Z" id="Shape" fill="#0091FE"/>
            <path d="M45.923,14.86 L45.595,15.188 L44.714,14.307 L46.421,14.307 L46.435,14.807 L45.935,14.848 C45.935,15.228 45.944,15.653 45.923,14.86 Z" id="Shape" fill="#D319F4"/>
            <path d="M45.949,14.834 L45.922,14.807 L45.935,14.807 C45.934994,14.8177422 45.9402169,14.8278151 45.949,14.834 Z" id="Shape" fill="#0091FE"/>
            <path d="M45.923,14.86 L45.595,15.188 L44.714,14.307 L46.421,14.307 L46.435,14.807 L45.935,14.848 C45.935,15.228 45.944,15.653 45.923,14.86 Z" id="Shape" fill="#D319F4"/>
            <path d="M45.949,14.834 L45.922,14.807 L45.935,14.807 C45.934994,14.8177422 45.9402169,14.8278151 45.949,14.834 Z" id="Shape" fill="#0091FE"/>
            <path d="M45.923,14.86 L45.595,15.188 L44.714,14.307 L46.421,14.307 L46.435,14.807 L45.935,14.848 C45.935,15.228 45.944,15.653 45.923,14.86 Z" id="Shape" fill="#D319F4"/>
            <path d="M45.949,14.834 L45.922,14.807 L45.935,14.807 C45.934994,14.8177422 45.9402169,14.8278151 45.949,14.834 Z" id="Shape" fill="#F79A82"/>
            <path d="M45.949,14.834 L45.922,14.807 L45.935,14.807 C45.934994,14.8177422 45.9402169,14.8278151 45.949,14.834 Z" id="Shape" fill="#F1572F"/>
            <path d="M40.118,31.219 C43.327,28.01 54.759,13.747 51.506,10.494 C48.253,7.241 33.986,18.676 30.781,21.882 C27.03,25.26 24.76,27.712 24.431,28.04 C26.2457375,32.335701 29.664299,35.7542625 33.96,37.569 C34.312,37.217 36.837,34.863 40.118,31.219 Z" id="Shape" fill="#FF6699"/>
            <path d="M51.506,10.494 C48.255,7.243 33.986,18.676 30.781,21.882 C28.501,23.935 26.324,26.058 24.486,27.982 C20.422,25.949 15.95,21.043 15.186,16.758 C16.5125266,15.3297184 17.9554959,14.0141881 19.5,12.825 C28.818,5.467 42.885,2.181 51.287,10.289 C51.3635629,10.3534248 51.436665,10.4218537 51.506,10.494 Z" id="Shape" fill="#F9FAFD"/>
            <path d="M45.238,46.81 C45.2596612,46.7957364 45.2783414,46.7773959 45.293,46.756 C45.327,46.858 45.305,46.81 45.238,46.81 Z" id="Shape" fill="#F1572F"/>
            <path d="M51.287,10.289 C41.922,1.252 25.74,6.185 15.962,15.962 C15.716,16.208 15.47,16.454 15.244,16.707 C15.2206431,16.7078489 15.1973966,16.7034047 15.176,16.694 C12.6199888,16.0168771 10.332507,14.5735477 8.621,12.558 C13.7878081,6.29197949 21.3453767,2.47967421 29.4554261,2.04837758 C37.5654756,1.61708095 45.4847538,4.60631948 51.287,10.289 Z" id="Shape" fill="#FF6699"/>
            <path d="M46.038,46.038 C45.352,46.724 45.402,46.646 45.238,46.81 C41.056,46.068 36.205,41.772 34.069,37.61 C33.977,37.456 33.837,37.732 35.785,35.785 C37.192,34.377 40.035,31.371 40.241,31.085 C48.888,21.485 53.782,12.773 51.506,10.497 C59.735,18.726 56.797,32.851 49.175,42.507 C48.2017726,43.7464147 47.1541779,44.9255849 46.038,46.038 Z" id="Shape" fill="#F9FAFD"/>
            <path d="M49.442,53.379 C47.4267946,51.6671959 45.9835384,49.3798302 45.306,46.824 C45.3056526,46.80075 45.3012533,46.7777386 45.293,46.756 C46.6889305,45.4337755 47.9863847,44.0113218 49.175,42.5 C56.824,32.809 59.701,18.685 51.506,10.49 C57.2846986,16.272798 60.3552882,24.225355 59.9623171,32.3911179 C59.5693461,40.5568809 55.7492936,48.177831 49.442,53.379 Z" id="Shape" fill="#FF6699"/>
            <path d="M48.787,54.135 C46.7912261,52.4130011 45.3042776,50.1780828 44.487,47.672 C40.116,46.607 35.536,42.395 33.363,38.408 C28.9969147,36.4921617 25.5103914,33.0052814 23.595,28.639 C19.642,26.506 15.395,21.883 14.331,17.516 C11.8249619,16.6986301 9.59006682,15.211697 7.868,13.216 C7.54838537,12.8465628 7.54246585,12.3002763 7.854,11.924 C13.2263856,5.38963461 21.1102882,1.43030965 29.5598303,1.02325197 C38.0093724,0.616194295 46.2373638,3.79932689 52.213,9.787 C58.2087744,15.758889 61.3977187,23.9889328 60.99111,32.4415915 C60.5845013,40.8942501 56.6203097,48.7801978 50.079,54.149 C49.7027237,54.4605341 49.1564372,54.4546146 48.787,54.135 Z M49.475,52.035 C55.3056132,46.9364881 58.7585534,39.6466869 59.0097406,31.9053834 C59.2609277,24.1640799 56.2878271,16.6657688 50.8,11.2 C45.3304233,5.71838525 37.8330713,2.74962113 30.0934776,3.00073435 C22.3538839,3.25184757 15.0647423,6.70036349 9.962,12.525 C11.4319406,14.072906 13.3066291,15.1774166 15.373,15.713 C15.6424614,15.7478463 15.8861433,15.890839 16.047987,16.1090827 C16.2098306,16.3273264 16.2759015,16.6020307 16.231,16.87 C16.907,19.943 19.966,24.359 24.946,27.098 C25.259846,27.2714341 25.4598408,27.5966628 25.473,27.955 C27.1947168,31.7823449 30.2658861,34.8414104 34.1,36.548 C34.4402623,36.5755818 34.7447526,36.7699613 34.913,37.067 C37.181,41.458 41.753,45.025 45.133,45.767 C45.4012758,45.7218086 45.676384,45.7878718 45.8948858,45.9499555 C46.1133875,46.1120393 46.2564198,46.3561512 46.291,46.626 C46.7829189,48.7095531 47.8927176,50.595932 49.475,52.038 L49.475,52.035 Z" id="Shape" fill="#464C63"/>
            <path d="M14.859,27.517 C14.4075949,27.9980581 13.733838,28.2017524 13.0915269,28.0513532 C12.4492158,27.900954 11.9359329,27.4193105 11.7450269,26.7878532 C11.5541209,26.1563959 11.7145949,25.4710581 12.166,24.99 C12.866,24.247 16.023,23.04 16.292,23.29 C16.561,23.54 15.553,26.777 14.859,27.517 Z" id="Shape" fill="#7AAEDC"/>
            <ellipse id="Oval" fill="#F9FAFD" transform="translate(12.643453, 25.964122) rotate(-70.460000) translate(-12.643453, -25.964122) " cx="12.6434532" cy="25.964122" rx="1" ry="1"/>
            <path d="M14.054,38.159 C13.6025949,38.6398795 12.9289333,38.8434088 12.2867769,38.6929202 C11.6446205,38.5424317 11.1315282,38.0607882 10.9407768,37.4294202 C10.7500255,36.7980522 10.9105949,36.1128795 11.362,35.632 C12.062,34.889 15.218,33.681 15.487,33.932 C15.756,34.183 14.749,37.418 14.054,38.159 Z" id="Shape" fill="#7AAEDC"/>
            <ellipse id="Oval" fill="#F9FAFD" transform="translate(11.820078, 36.593066) rotate(-70.477287) translate(-11.820078, -36.593066) " cx="11.820078" cy="36.593066" rx="1" ry="1"/>
            <path d="M33.387,45.884 C32.6793573,46.5744395 31.5533801,46.5847834 30.8331723,45.907461 C30.1129645,45.2301387 30.0542491,44.1056459 30.7,43.357 C31.4,42.614 34.556,41.406 34.825,41.657 C35.094,41.908 34.082,45.143 33.387,45.884 Z" id="Shape" fill="#7AAEDC"/>
            <ellipse id="Oval" fill="#F9FAFD" transform="translate(31.172022, 44.330022) rotate(-70.460000) translate(-31.172022, -44.330022) " cx="31.1720221" cy="44.3300218" rx="1" ry="1"/>
            <path d="M33.225,56.526 C32.5236726,57.2504058 31.3708407,57.278072 30.6355713,56.5881425 C29.900302,55.8982129 29.8546365,54.7459536 30.533,54 C31.233,53.257 34.389,52.049 34.658,52.3 C34.927,52.551 33.92,55.785 33.225,56.526 Z" id="Shape" fill="#7AAEDC"/>
            <ellipse id="Oval" fill="#F9FAFD" transform="translate(31.009947, 54.972067) rotate(-70.460000) translate(-31.009947, -54.972067) " cx="31.0099471" cy="54.972067" rx="1" ry="1"/>
            <path d="M11.907,27.965 C10.9638624,27.0772085 10.9169007,25.5936646 11.802,24.648 C12.371,24.043 15.956,22.292 16.634,22.928 C16.8490309,23.2060136 16.9099029,23.5735004 16.796,23.906 C16.540979,25.3155101 16.006118,26.6596332 15.223,27.859 C14.3360825,28.8028517 12.8523879,28.8502798 11.907,27.965 Z M15.797,23.815 C14.6290309,24.1291217 13.5241139,24.6426747 12.531,25.333 C12.030034,25.8761172 12.0605412,26.7215374 12.5993503,27.227134 C13.1381593,27.7327307 13.9838097,27.7094614 14.494,27.175 C15.1274991,26.1424776 15.5698915,25.0043165 15.8,23.815 L15.797,23.815 Z" id="Shape" fill="#464C63"/>
            <path d="M12.7,39.241 C11.7676474,39.2348001 10.927299,38.6775284 10.55879,37.82107 C10.1902809,36.9646117 10.3634401,35.9712571 11,35.29 C11.569,34.69 15.153,32.931 15.832,33.569 C16.0480675,33.8469465 16.1090154,34.2152675 15.994,34.548 C15.7373347,35.9572117 15.2014987,37.3008817 14.418,38.5 C13.9729375,38.9746518 13.3506695,39.2430457 12.7,39.241 Z M14.988,34.458 C13.8199247,34.7713402 12.7149328,35.2845896 11.722,35.975 C11.3880611,36.3248253 11.2674688,36.8269136 11.4061032,37.2902423 C11.5447376,37.7535709 11.9212853,38.106908 12.3924861,38.2158241 C12.8636869,38.3247403 13.3570988,38.1724908 13.685,37.817 C14.3189936,36.7849795 14.761741,35.6471152 14.992,34.458 L14.988,34.458 Z" id="Shape" fill="#464C63"/>
            <path d="M32.037,46.966 C31.1038147,46.9616541 30.2617011,46.405323 29.8915869,45.5486614 C29.5214727,44.6919998 29.6935578,43.6974917 30.33,43.015 C31.0517745,42.4394924 31.8623598,41.9852268 32.73,41.67 C34.298,41.045 35.602,40.658 35.322,42.27 C35.0864804,43.6854924 34.5497108,45.0338957 33.748,46.224 C33.3044225,46.6967419 32.6852634,46.9652493 32.037,46.966 Z M34.326,42.182 C33.1578585,42.4956477 32.0528627,43.0092373 31.06,43.7 C30.5510696,44.2420675 30.5779325,45.0940696 31.12,45.603 C31.6620675,46.1119304 32.5140696,46.0850675 33.023,45.543 C33.6549722,44.5096725 34.0963055,43.3712834 34.326,42.182 Z" id="Shape" fill="#464C63"/>
            <path d="M31.875,57.607 C30.9419769,57.6027985 30.0999719,57.0465588 29.730026,56.1900019 C29.3600802,55.333445 29.5323985,54.3391204 30.169,53.657 C30.738,53.051 34.321,51.299 35,51.936 C35.215891,52.2139914 35.2771722,52.5820542 35.163,52.915 C34.9063707,54.3237382 34.3716276,55.667225 33.59,56.867 C33.1453352,57.3403182 32.524427,57.608232 31.875,57.607 Z M34.164,52.824 C32.9966228,53.1375558 31.8923242,53.6507975 30.9,54.341 C30.4003255,54.8840554 30.4310839,55.7281838 30.9689564,56.233433 C31.5068289,56.7386823 32.3512297,56.7166325 32.862,56.184 C33.4939014,55.1511014 33.934919,54.0129915 34.164,52.824 Z" id="Shape" fill="#464C63"/>
        </g>
    </g>
</svg>
