<?xml version="1.0" encoding="UTF-8"?>
<svg xmlns="http://www.w3.org/2000/svg" xmlns:xlink="http://www.w3.org/1999/xlink" width="60px" height="60px" viewBox="0 0 60 60" version="1.1">
    <!-- Generator: Sketch 51.1 (57501) - http://www.bohemiancoding.com/sketch -->
    <title>12 - Sunny</title>
    <desc>Created with Sketch.</desc>
    <defs/>
    <g id="Page-1" stroke="none" stroke-width="1" fill="none" fill-rule="evenodd">
        <g id="12---Sunny">
            <path d="M30,0.97 C13.9837423,0.97 1,13.9537423 1,29.97 C1,45.9862577 13.9837423,58.97 30,58.97 C46.0162577,58.97 59,45.9862577 59,29.97 C58.9933778,13.9564861 46.0135139,0.976622172 30,0.97 Z" id="Shape" fill="#EAAA89"/>
            <path d="M50.89,19.06 C46.5493906,11.825602 39.2750152,6.83863712 30.96218,5.39843698 C22.6493448,3.95823685 14.1213038,6.20743031 7.6,11.56 C-1.86497816,23.0885208 -1.04094017,39.9167358 9.50510391,50.465364 C20.051148,61.0139923 36.8791605,61.8421533 48.41,52.38 C56.1851447,42.9095003 57.1774665,29.5771767 50.89,19.06 Z" id="Shape" fill="#E5956C"/>
            <path d="M8.788,51.211 C-2.20670148,40.2068069 -2.96645532,22.6241489 7.03804636,10.7125717 C17.042548,-1.19900554 34.4921653,-3.48766177 47.2300396,5.44107177 C59.967914,14.3698053 63.7680691,31.5536905 55.983,45.021 C51.3056314,53.0832728 43.1503667,58.5172 33.9086795,59.7293208 C24.6669923,60.9414417 15.3862631,57.7943839 8.788,51.211 Z M30,2 C17.3274684,2.0009144 6.23538379,10.5130801 2.9558719,22.7539077 C-0.323639986,34.9947352 5.02710759,47.9121966 16.0017788,54.2485717 C26.9764499,60.5849469 40.8387098,58.7603758 49.8,49.8 C51.5403879,48.0856447 53.0385573,46.1416918 54.253,44.022 C64.938,25.545 51.67,2 30,2 Z" id="Shape" fill="#464C63" fill-rule="nonzero"/>
            <path d="M27.807,12.074 C25.174,13.164 21.987,8.802 20.492,6.431 C20.4298285,6.33202505 20.3051936,6.29253537 20.1973689,6.33764823 C20.0895442,6.38276109 20.0301653,6.49924044 20.057,6.613 C20.676,9.347 21.507,14.683 18.875,15.773 L27.807,12.074 Z" id="Shape" fill="#FDEA8E" fill-rule="nonzero"/>
            <path d="M32.194,47.926 C34.826,46.836 38.013,51.198 39.508,53.569 C39.5701715,53.667975 39.6948064,53.7074646 39.8026311,53.6623518 C39.9104558,53.6172389 39.9698347,53.5007596 39.943,53.387 C39.324,50.653 38.493,45.317 41.126,44.227 L32.194,47.926 Z" id="Shape" fill="#FFA600" fill-rule="nonzero"/>
            <path d="M32.9,12.6 C31.086,12.6 30.336,9.052 30.1,7.506 C30.0865116,7.46496255 30.0481973,7.43722499 30.005,7.43722499 C29.9618027,7.43722499 29.9234884,7.46496255 29.91,7.506 C29.67,9.052 28.919,12.6 27.11,12.6 L32.9,12.6 Z" id="Shape" fill="#FEF2BB" fill-rule="nonzero"/>
            <path d="M32.9,47.4 C31.086,47.4 30.336,50.948 30.1,52.494 C30.0865116,52.5350375 30.0481973,52.562775 30.005,52.562775 C29.9618027,52.562775 29.9234884,52.5350375 29.91,52.494 C29.67,50.948 28.919,47.4 27.11,47.4 L32.9,47.4 Z" id="Shape" fill="#FEF2BB" fill-rule="nonzero"/>
            <path d="M19.746,15.645 C18.463,16.928 15.424,14.945 14.16,14.027 C14.1217759,14.0083997 14.0759701,14.0159981 14.0457989,14.0459441 C14.0156278,14.07589 14.0076865,14.1216376 14.026,14.16 C14.949,15.424 16.926,18.46 15.644,19.746 L19.746,15.645 Z" id="Shape" fill="#FEF2BB" fill-rule="nonzero"/>
            <path d="M44.356,40.254 C43.073,41.537 45.056,44.576 45.974,45.839 C45.9930492,45.8774485 45.9854465,45.9237643 45.9551054,45.9541054 C45.9247643,45.9844465 45.8784485,45.9920492 45.84,45.973 C44.577,45.05 41.54,43.073 40.254,44.355 L44.356,40.254 Z" id="Shape" fill="#FDE35D" fill-rule="nonzero"/>
            <path d="M47.4,32.9 C47.4,31.086 50.948,30.335 52.494,30.1 C52.5350375,30.0865116 52.562775,30.0481973 52.562775,30.005 C52.562775,29.9618027 52.5350375,29.9234884 52.494,29.91 C50.948,29.669 47.4,28.919 47.4,27.11 L47.4,32.9 Z" id="Shape" fill="#FEF2BB" fill-rule="nonzero"/>
            <path d="M12.6,32.9 C12.6,31.086 9.052,30.335 7.506,30.1 C7.46496255,30.0865116 7.43722499,30.0481973 7.43722499,30.005 C7.43722499,29.9618027 7.46496255,29.9234884 7.506,29.91 C9.052,29.669 12.6,28.919 12.6,27.11 L12.6,32.9 Z" id="Shape" fill="#FEF2BB" fill-rule="nonzero"/>
            <path d="M44.356,19.746 C43.073,18.463 45.056,15.424 45.974,14.16 C45.9923135,14.1216376 45.9843722,14.07589 45.9542011,14.0459441 C45.9240299,14.0159981 45.8782241,14.0083997 45.84,14.027 C44.577,14.95 41.54,16.927 40.254,15.645 L44.356,19.746 Z" id="Shape" fill="#FEF2BB" fill-rule="nonzero"/>
            <path d="M19.746,44.355 C18.463,43.072 15.424,45.055 14.16,45.973 C14.1215515,45.9920492 14.0752357,45.9844465 14.0448946,45.9541054 C14.0145535,45.9237643 14.0069508,45.8774485 14.026,45.839 C14.949,44.576 16.926,41.539 15.644,40.254 L19.746,44.355 Z" id="Shape" fill="#FDE35D" fill-rule="nonzero"/>
            <path d="M47.927,27.806 C46.837,25.174 51.199,21.987 53.57,20.493 C53.6707224,20.4315487 53.7115294,20.3057904 53.6660784,20.1969077 C53.6206273,20.0880249 53.50252,20.0286024 53.388,20.057 C50.654,20.677 45.318,21.507 44.228,18.875 L47.927,27.806 Z" id="Shape" fill="#FDEA8E" fill-rule="nonzero"/>
            <path d="M15.772,18.875 C14.682,21.507 9.346,20.675 6.612,20.057 C6.49747998,20.0286024 6.3793727,20.0880249 6.33392163,20.1969077 C6.28847056,20.3057904 6.3292776,20.4315487 6.43,20.493 C8.801,21.987 13.163,25.174 12.073,27.806 L15.772,18.875 Z" id="Shape" fill="#FDEA8E" fill-rule="nonzero"/>
            <path d="M44.228,41.125 C45.318,38.493 50.654,39.325 53.388,39.943 C53.50252,39.9713976 53.6206273,39.9119751 53.6660784,39.8030923 C53.7115294,39.6942096 53.6707224,39.5684513 53.57,39.507 C51.199,38.013 46.837,34.826 47.927,32.193 L44.228,41.125 Z" id="Shape" fill="#FDEA8E" fill-rule="nonzero"/>
            <path d="M41.126,15.773 C38.493,14.683 39.326,9.347 39.943,6.613 C39.9698347,6.49924044 39.9104558,6.38276109 39.8026311,6.33764823 C39.6948064,6.29253537 39.5701715,6.33202505 39.508,6.431 C38.008,8.802 34.826,13.164 32.194,12.074 L41.126,15.773 Z" id="Shape" fill="#FDEA8E" fill-rule="nonzero"/>
            <path d="M18.875,44.227 C21.507,45.317 20.675,50.653 20.057,53.387 C20.0301653,53.5007596 20.0895442,53.6172389 20.1973689,53.6623518 C20.3051936,53.7074646 20.4298285,53.667975 20.492,53.569 C21.987,51.198 25.174,46.836 27.807,47.926 L18.875,44.227 Z" id="Shape" fill="#FFA600" fill-rule="nonzero"/>
            <path d="M37.715,46.666 C30.9713436,49.7922653 23.004427,48.5052845 17.5881271,43.414692 C12.1718272,38.3240996 10.3938522,30.4521947 13.0964174,23.5278481 C15.7989827,16.6035014 22.4393556,12.0172689 29.8720343,11.9416194 C37.3047131,11.8659698 44.0370577,16.3160953 46.88,23.184 C50.607682,32.202667 46.5664189,42.556943 37.715,46.666 Z" id="Shape" fill="#FDEA8E" fill-rule="nonzero"/>
            <path d="M30.083,49.352 C22.2437568,49.3623823 15.1849981,44.6073818 12.2492213,37.3386091 C9.31344446,30.0698364 11.0899546,21.7463686 16.73753,16.3095742 C22.3851055,10.8727798 30.7700958,9.41399872 37.922,12.624 L37.932,12.624 C46.1864594,16.3360857 50.7298985,25.306584 48.8384123,34.1574574 C46.9469261,43.0083308 39.1337176,49.3381373 30.083,49.352 Z M30.057,12.952 C23.0161078,12.9576478 16.6896418,17.2539758 14.0880298,23.7965907 C11.4864177,30.3392055 13.1350773,37.8067706 18.2494993,42.6458699 C23.3639213,47.4849692 30.9112047,48.7183056 37.3,45.759 C50.7,39.559 50.394,20.796 37.494,14.624 C35.1723083,13.513843 32.6304531,12.9406695 30.057,12.947 L30.057,12.952 Z" id="Shape" fill="#464C63" fill-rule="nonzero"/>
            <ellipse id="Oval" fill="#FEF2BB" fill-rule="nonzero" transform="translate(24.923818, 19.975022) rotate(-39.327000) translate(-24.923818, -19.975022) " cx="24.9238178" cy="19.9750225" rx="5.551" ry="4.361"/>
            <path d="M26.133,49.393 C26.1176944,52.2430529 23.8110529,54.5496944 20.961,54.565 L14.58,54.565 C10.0339033,51.7065249 6.36920802,47.6437565 3.993,42.828 C4.26114389,39.9876024 6.31939951,37.6387648 9.1,37 C9.114,37 9.805,36.855 9.98,36.855 C10.7447454,36.7904982 11.514887,36.8492464 12.261,37.029 C12.281,37.029 12.306,37.048 12.339,37.048 C13.6396004,34.9393748 16.0045507,33.7285699 18.4756479,33.9061652 C20.9467451,34.0837604 23.114246,35.6203079 24.0999478,37.8932473 C25.0856495,40.1661867 24.7261088,42.7986321 23.167,44.724 C24.9796884,45.5709121 26.1366867,47.3922287 26.133,49.393 Z" id="Shape" fill="#D3D6D9" fill-rule="nonzero"/>
            <path d="M55.117,44.52 C51.0717678,51.5100104 44.2943141,56.4959692 36.417,58.277 C36.2594682,58.1829126 36.1075448,58.0797382 35.962,57.968 C34.4979541,56.890382 33.7100318,55.1210779 33.8885406,53.3119827 C34.0670495,51.5028876 35.1855752,49.9216984 36.832,49.151 C35.2551095,47.2268189 34.8841051,44.5833917 35.8703891,42.2994695 C36.8566732,40.0155474 39.03528,38.4731388 41.517146,38.3016824 C43.9990121,38.130226 46.3690209,39.3583995 47.66,41.485 C48.2272487,41.3483464 48.8076379,41.2735764 49.391,41.262 C51.7427877,41.2541562 53.9222897,42.4942571 55.117,44.52 Z" id="Shape" fill="#D3D6D9" fill-rule="nonzero"/>
            <path d="M25.93,47.952 C23.793,48.745 21.637,51.742 20.496,53.569 C20.4339676,53.669151 20.3082091,53.709163 20.1997103,53.6632692 C20.0912114,53.6173754 20.0323367,53.4992657 20.061,53.385 C20.554,51.21 21.173,47.401 20.09,45.385 C19.4294029,44.9552817 18.7980186,44.4822447 18.2,43.969 C16.7286486,44.3475969 15.3523751,45.0287519 14.159,45.969 C14.1202503,45.9893164 14.0727925,45.9820831 14.0418547,45.9511453 C14.0109169,45.9202075 14.0036836,45.8727497 14.024,45.834 C14.9767823,44.6361883 15.6624422,43.2485025 16.035,41.764 C15.5591211,41.1987001 15.1227546,40.6012856 14.729,39.976 C12.738,38.806 8.822,39.434 6.608,39.937 C6.49373298,39.9633171 6.37725043,39.9028504 6.33301708,39.7942551 C6.28878373,39.6856597 6.32986562,39.5610135 6.43,39.5 C7.68393765,38.7212947 8.86773601,37.8349516 9.968,36.851 C10.7628582,36.7736313 11.5651467,36.8389929 12.337,37.044 C13.632184,34.9227018 16.001926,33.700394 18.4812374,33.8748156 C20.9605487,34.0492371 23.1358157,35.5912901 24.1212423,37.8730311 C25.1066688,40.1547721 24.7378603,42.7955473 23.165,44.72 C24.4792955,45.3424719 25.4744902,46.4848075 25.911,47.872 C25.920664,47.8977641 25.9270475,47.9246419 25.93,47.952 Z" id="Shape" fill="#F9FAFD" fill-rule="nonzero"/>
            <path d="M45.971,45.835 C45.9913164,45.8737497 45.9840831,45.9212075 45.9531453,45.9521453 C45.9222075,45.9830831 45.8747497,45.9903164 45.836,45.97 C44.6672162,45.0547101 43.3298407,44.3782074 41.9,43.979 C41.2567819,44.5370644 40.5721504,45.0455236 39.852,45.5 C38.846,47.54 39.452,51.252 39.939,53.388 C39.9676633,53.5022657 39.9087886,53.6203754 39.8002897,53.6662692 C39.6917909,53.712163 39.5660324,53.672151 39.504,53.572 C38.5932162,52.0850823 37.5162976,50.7065594 36.294,49.463 C36.466752,49.3472598 36.6475447,49.2439975 36.835,49.154 C34.7090545,46.5454164 34.8668672,42.7598383 37.2025517,40.3372506 C39.5382361,37.9146629 43.315527,37.6187248 46,39.648 C45.01,39.995 45.761,39.792 43.98,41.891 C44.3756139,43.3246682 45.0524085,44.6653401 45.971,45.835 Z" id="Shape" fill="#F9FAFD" fill-rule="nonzero"/>
            <path d="M20.96,55.564 C14.039,55.564 14.388,55.625 14.049,55.412 C9.34482266,52.4542254 5.55272746,48.2502093 3.094,43.267 C3.01239104,43.1022326 2.9777899,42.9181545 2.994,42.735 C3.19536819,40.6220445 4.26744498,38.6883499 5.9528408,37.3981674 C7.63823662,36.1079849 9.78473722,35.5778354 11.877,35.935 C14.3124123,32.6811162 18.8669248,31.8992923 22.2480598,34.1547122 C25.6291948,36.4101322 26.6567934,40.9155593 24.588,44.414 C25.3555677,44.9652793 25.9813752,45.6908185 26.414,46.531 C27.4149264,48.441785 27.3452937,50.7365606 26.2303537,52.5831416 C25.1154136,54.4297227 23.1170667,55.5599674 20.96,55.564 Z M14.87,53.564 L20.96,53.564 C22.2668045,53.5533556 23.4941903,52.935018 24.2804923,51.8911883 C25.0667943,50.8473587 25.322403,49.4969952 24.972,48.238 C24.9460815,48.1245128 24.9078552,48.014193 24.858,47.909 C24.8369477,47.8623148 24.8192366,47.8141938 24.805,47.765 C24.7752224,47.7280796 24.753123,47.6855808 24.74,47.64 C24.719,47.581 24.64,47.465 24.603,47.374 C24.1757382,46.6111277 23.5219075,45.9999305 22.732,45.625 C22.4557656,45.4924987 22.2555121,45.2406834 22.1886177,44.9417065 C22.1217233,44.6427297 22.1955705,44.3295859 22.389,44.092 C23.7193411,42.4585408 24.0306257,40.2206877 23.1965898,38.2861643 C22.3625539,36.351641 20.5216799,35.0416534 18.4206676,34.8875622 C16.3196554,34.7334709 14.3073547,35.760861 13.2,37.553 C12.9603505,37.9576032 12.4729765,38.1430127 12.025,38 C11.962082,37.9940661 11.8996167,37.984045 11.838,37.97 C11.1369566,37.8047726 10.4097859,37.7826649 9.7,37.905 C9.629,37.922 9.48,37.933 9.436,37.948 C9.37875628,37.9671818 9.3198275,37.9809095 9.26,37.989 C7.02835449,38.5316756 5.35146373,40.3776413 5.025,42.651 C7.2799329,47.0979746 10.6779267,50.8645877 14.87,53.564 Z" id="Shape" fill="#464C63" fill-rule="nonzero"/>
            <path d="M35.434,58.821 C35.1578757,58.6274943 34.9016217,58.4070824 34.669,58.163 C33.3978808,56.8924482 32.7475878,55.1285584 32.8897843,53.3369597 C33.0319808,51.5453609 33.952374,49.9061342 35.408,48.852 C33.3431619,45.3527255 34.3727586,40.8498345 37.7531448,38.5956234 C41.133531,36.3414123 45.6862428,37.1217398 48.123,40.373 C51.2424706,39.8389726 54.3677348,41.2864215 55.978,44.011 C56.1605075,44.3229323 56.1605075,44.7090677 55.978,45.021 C51.7936175,52.2502255 44.7847148,57.4076037 36.638,59.252 C36.1912605,59.3053047 35.7454216,59.1457063 35.434,58.821 Z M36.486,57.115 C36.5305345,57.1417665 36.5729881,57.1718517 36.613,57.205 C43.8382335,55.4510252 50.0704508,50.8979992 53.938,44.548 C52.6046586,42.7566253 50.3417112,41.9180613 48.163,42.408 C47.9995416,42.4328642 47.8362063,42.4585312 47.673,42.485 C46.685,42.485 46.906,41.56 45.406,40.452 C45.055472,40.1920513 44.6799569,39.9676132 44.285,39.782 C42.3766167,38.9421553 40.160966,39.2201416 38.5192089,40.505404 C36.8774518,41.7906665 36.0757734,43.8748201 36.433,45.929 C36.590436,46.8786556 36.9949793,47.7701683 37.606,48.514 C37.8025429,48.7519887 37.8781728,49.0674017 37.8109264,49.3686419 C37.7436801,49.6698821 37.541094,49.9231885 37.262,50.055 C35.9501724,50.671802 35.0536505,51.9265873 34.8952716,53.367508 C34.7368928,54.8084288 35.3394642,56.227987 36.486,57.115 Z" id="Shape" fill="#464C63" fill-rule="nonzero"/>
        </g>
    </g>
</svg>
