<?xml version="1.0" encoding="UTF-8"?>
<svg xmlns="http://www.w3.org/2000/svg" xmlns:xlink="http://www.w3.org/1999/xlink" width="60px" height="60px" viewBox="0 0 60 60" version="1.1">
    <!-- Generator: Sketch 51.1 (57501) - http://www.bohemiancoding.com/sketch -->
    <title>13 - Sunny and Cloudy</title>
    <desc>Created with Sketch.</desc>
    <defs/>
    <g id="Page-1" stroke="none" stroke-width="1" fill="none" fill-rule="evenodd">
        <g id="13---Sunny-and-Cloudy" transform="translate(-1.000000, -1.000000)">
            <path d="M31,1.97 C14.9837423,1.97 2,14.9537423 2,30.97 C2,46.9862577 14.9837423,59.97 31,59.97 C47.0162577,59.97 60,46.9862577 60,30.97 C59.9933778,14.9564861 47.0135139,1.97662217 31,1.97 Z" id="Shape" fill="#7AAEDC"/>
            <path d="M51.89,20.06 C47.5493906,12.825602 40.2750152,7.83863712 31.96218,6.39843698 C23.6493448,4.95823685 15.1213038,7.20743031 8.6,12.56 C-0.864978159,24.0885208 -0.0409401668,40.9167358 10.5051039,51.465364 C21.051148,62.0139923 37.8791605,62.8421533 49.41,53.38 C57.1851447,43.9095003 58.1774665,30.5771767 51.89,20.06 Z" id="Shape" fill="#599AD3"/>
            <path d="M31,61 C16.6877599,61.0001941 4.36846424,50.8902788 1.57610828,36.8530795 C-1.21624768,22.8158802 6.29604706,8.76095715 19.5187693,3.28374693 C32.7414916,-2.19346329 47.9919246,2.43252049 55.9435051,14.332629 C63.8950856,26.2327376 62.3331849,42.0926209 52.213,52.213 C46.5995466,57.857877 38.9608423,61.0220355 31,61 Z M31,3 C18.3274684,3.0009144 7.23538379,11.5130801 3.9558719,23.7539077 C0.676360014,35.9947352 6.02710759,48.9121966 17.0017788,55.2485717 C27.9764499,61.5849469 41.8387098,59.7603758 50.8,50.8 C58.8087964,42.7920209 61.2047529,30.7480076 56.8705341,20.2845905 C52.5363153,9.82117342 42.3255706,2.99918279 31,3 Z" id="Shape" fill="#464C63" fill-rule="nonzero"/>
            <path d="M28.807,13.075 C26.174,14.165 22.988,9.803 21.494,7.433 C21.4325487,7.3322776 21.3067904,7.29147056 21.1979077,7.33692163 C21.0890249,7.3823727 21.0296024,7.50047998 21.058,7.615 C21.677,10.349 22.508,15.684 19.876,16.774 L28.807,13.075 Z" id="Shape" fill="#FDEA8E" fill-rule="nonzero"/>
            <path d="M33.193,48.925 C35.826,47.835 39.012,52.197 40.506,54.567 C40.5674513,54.6677224 40.6932096,54.7085294 40.8020923,54.6630784 C40.9109751,54.6176273 40.9703976,54.49952 40.942,54.385 C40.323,51.651 39.492,46.316 42.124,45.226 L33.193,48.925 Z" id="Shape" fill="#FDEA8E" fill-rule="nonzero"/>
            <path d="M33.9,13.6 C32.086,13.6 31.336,10.053 31.1,8.507 C31.0865116,8.46596255 31.0481973,8.43822499 31.005,8.43822499 C30.9618027,8.43822499 30.9234884,8.46596255 30.91,8.507 C30.669,10.053 29.919,13.6 28.11,13.6 L33.9,13.6 Z" id="Shape" fill="#FEF2BB" fill-rule="nonzero"/>
            <path d="M33.9,48.4 C32.086,48.4 31.336,51.947 31.1,53.493 C31.0865116,53.5340375 31.0481973,53.561775 31.005,53.561775 C30.9618027,53.561775 30.9234884,53.5340375 30.91,53.493 C30.669,51.947 29.919,48.4 28.11,48.4 L33.9,48.4 Z" id="Shape" fill="#FEF2BB" fill-rule="nonzero"/>
            <path d="M20.747,16.646 C19.464,17.929 16.425,15.946 15.162,15.028 C15.1235515,15.0089508 15.0772357,15.0165535 15.0468946,15.0468946 C15.0165535,15.0772357 15.0089508,15.1235515 15.028,15.162 C15.951,16.425 17.928,19.462 16.646,20.747 L20.747,16.646 Z" id="Shape" fill="#FEF2BB" fill-rule="nonzero"/>
            <path d="M45.354,41.253 C44.071,42.536 46.054,45.575 46.972,46.838 C46.9910492,46.8764485 46.9834465,46.9227643 46.9531054,46.9531054 C46.9227643,46.9834465 46.8764485,46.9910492 46.838,46.972 C45.575,46.049 42.538,44.072 41.253,45.354 L45.354,41.253 Z" id="Shape" fill="#FEF2BB" fill-rule="nonzero"/>
            <path d="M48.4,33.9 C48.4,32.086 51.947,31.336 53.493,31.1 C53.5340375,31.0865116 53.561775,31.0481973 53.561775,31.005 C53.561775,30.9618027 53.5340375,30.9234884 53.493,30.91 C51.947,30.669 48.4,29.919 48.4,28.11 L48.4,33.9 Z" id="Shape" fill="#FDE35D" fill-rule="nonzero"/>
            <path d="M13.6,33.9 C13.6,32.086 10.053,31.336 8.507,31.1 C8.46596255,31.0865116 8.43822499,31.0481973 8.43822499,31.005 C8.43822499,30.9618027 8.46596255,30.9234884 8.507,30.91 C10.053,30.669 13.6,29.919 13.6,28.11 L13.6,33.9 Z" id="Shape" fill="#FEF2BB" fill-rule="nonzero"/>
            <path d="M45.354,20.747 C44.071,19.464 46.054,16.425 46.972,15.162 C46.9910492,15.1235515 46.9834465,15.0772357 46.9531054,15.0468946 C46.9227643,15.0165535 46.8764485,15.0089508 46.838,15.028 C45.575,15.951 42.538,17.928 41.253,16.646 L45.354,20.747 Z" id="Shape" fill="#FEF2BB" fill-rule="nonzero"/>
            <path d="M20.747,45.354 C19.464,44.071 16.425,46.054 15.162,46.972 C15.1235515,46.9910492 15.0772357,46.9834465 15.0468946,46.9531054 C15.0165535,46.9227643 15.0089508,46.8764485 15.028,46.838 C15.951,45.575 17.928,42.538 16.646,41.253 L20.747,45.354 Z" id="Shape" fill="#FDE35D" fill-rule="nonzero"/>
            <path d="M48.925,28.807 C47.835,26.174 52.197,22.988 54.567,21.494 C54.6677224,21.4325487 54.7085294,21.3067904 54.6630784,21.1979077 C54.6176273,21.0890249 54.49952,21.0296024 54.385,21.058 C51.651,21.677 46.316,22.508 45.226,19.876 L48.925,28.807 Z" id="Shape" fill="#FDEA8E" fill-rule="nonzero"/>
            <path d="M13.075,33.193 C14.165,35.826 9.803,39.012 7.433,40.506 C7.3322776,40.5674513 7.29147056,40.6932096 7.33692163,40.8020923 C7.3823727,40.9109751 7.50047998,40.9703976 7.615,40.942 C10.349,40.323 15.684,39.492 16.774,42.124 L13.075,33.193 Z" id="Shape" fill="#FFA600" fill-rule="nonzero"/>
            <path d="M16.774,19.876 C15.684,22.508 10.349,21.676 7.615,21.058 C7.50047998,21.0296024 7.3823727,21.0890249 7.33692163,21.1979077 C7.29147056,21.3067904 7.3322776,21.4325487 7.433,21.494 C9.803,22.988 14.165,26.174 13.075,28.807 L16.774,19.876 Z" id="Shape" fill="#FDEA8E" fill-rule="nonzero"/>
            <path d="M45.226,42.124 C46.316,39.492 51.651,40.324 54.385,40.942 C54.49952,40.9703976 54.6176273,40.9109751 54.6630784,40.8020923 C54.7085294,40.6932096 54.6677224,40.5674513 54.567,40.506 C52.197,39.012 47.835,35.826 48.925,33.193 L45.226,42.124 Z" id="Shape" fill="#FDEA8E" fill-rule="nonzero"/>
            <path d="M42.124,16.774 C39.492,15.684 40.324,10.349 40.942,7.615 C40.9703976,7.50047998 40.9109751,7.3823727 40.8020923,7.33692163 C40.6932096,7.29147056 40.5674513,7.3322776 40.506,7.433 C39.012,9.803 35.826,14.165 33.193,13.075 L42.124,16.774 Z" id="Shape" fill="#FDEA8E" fill-rule="nonzero"/>
            <path d="M19.876,45.226 C22.508,46.316 21.676,51.651 21.058,54.385 C21.0296024,54.49952 21.0890249,54.6176273 21.1979077,54.6630784 C21.3067904,54.7085294 21.4325487,54.6677224 21.494,54.567 C22.988,52.197 26.174,47.835 28.807,48.925 L19.876,45.226 Z" id="Shape" fill="#FDEA8E" fill-rule="nonzero"/>
            <path d="M38.714,47.665 C31.9707431,50.7914091 24.0040921,49.504734 18.5878893,44.4144791 C13.1716866,39.3242241 11.3936532,31.4526513 14.0960526,24.528564 C16.7984519,17.6044766 23.4385684,13.0184202 30.8709459,12.9428326 C38.3033234,12.867245 45.0353376,17.3173062 47.878,24.185 C51.605642,33.2028379 47.5647613,43.5563822 38.714,47.665 Z" id="Shape" fill="#FDEA8E" fill-rule="nonzero"/>
            <path d="M31.083,50.351 C23.25175,50.3521725 16.2046134,45.5970248 13.2746038,38.3345513 C10.3445942,31.0720777 12.1189859,22.7579273 17.7585628,17.3243602 C23.3981397,11.8907932 31.7725369,10.4268828 38.921,13.625 L38.94,13.625 C47.1891782,17.3420256 51.7265949,26.3112756 49.8337498,35.1590074 C47.9409047,44.0067391 40.1309249,50.3344411 31.083,50.351 Z M31.057,13.951 C24.0170348,13.9568439 17.6913251,18.2522341 15.0892721,24.7936762 C12.487219,31.3351182 14.1341844,38.8018769 19.2466387,43.641707 C24.359093,48.481537 31.9048176,49.7172634 38.294,46.761 C51.686,40.561 51.387,21.798 38.487,15.628 C36.1676015,14.5180594 33.6282955,13.943896 31.057,13.948 L31.057,13.951 Z" id="Shape" fill="#464C63" fill-rule="nonzero"/>
            <ellipse id="Oval" fill="#FEF2BB" fill-rule="nonzero" transform="translate(25.925189, 20.975817) rotate(-39.333000) translate(-25.925189, -20.975817) " cx="25.9251889" cy="20.9758175" rx="5.55" ry="4.361"/>
            <path d="M60,33.612 C60.011729,34.6867379 59.595667,35.7220412 58.8434916,36.4897854 C58.0913161,37.2575296 57.0647526,37.6947115 55.99,37.705 L33.937,37.705 C32.0642588,37.6714379 30.3702149,36.5855774 29.5577174,34.8979359 C28.74522,33.2102944 28.9529179,31.2088601 30.0946385,29.7240167 C31.2363592,28.2391733 33.1172732,27.5243024 34.957,27.876 C35.5698228,24.5736625 38.1857566,22.0090875 41.4995947,21.4618564 C44.8134328,20.9146253 48.1150014,22.5020127 49.757,25.432 C52.4118901,25.3510278 54.8064024,27.0187362 55.651,29.537 C56.7812706,29.449297 57.8963318,29.8408797 58.7235925,30.6160204 C59.5508532,31.3911612 60.0140687,32.4784192 60,33.612 Z" id="Shape" fill="#D3D6D9" fill-rule="nonzero"/>
            <path d="M55.99,38.705 L33.937,38.705 C31.7864636,38.683929 29.8135314,37.5076076 28.7724557,35.6257437 C27.73138,33.7438797 27.7831426,31.4474664 28.9079547,29.6144229 C30.0327668,27.7813794 32.0566984,26.6951499 34.206,26.771 C35.198128,23.4153911 38.0523599,20.9439779 41.5153692,20.4419866 C44.9783786,19.9399953 48.4168849,21.499225 50.321,24.435 C52.9293466,24.5786733 55.2424871,26.1580032 56.326,28.535 C59.0083029,28.7899963 61.0294864,31.0875017 60.9405602,33.7804302 C60.851634,36.4733588 58.6832821,38.6325169 55.99,38.71 L55.99,38.705 Z M33.937,28.765 C31.7791439,28.8134361 30.0551123,30.5766004 30.0551123,32.735 C30.0551123,34.8933996 31.7791439,36.6565639 33.937,36.705 L55.99,36.705 C57.0928789,36.6637358 58.0899668,36.0372273 58.6056705,35.0614741 C59.1213741,34.0857209 59.0773458,32.9089631 58.4901705,31.974474 C57.9029952,31.039985 56.8618789,30.4897358 55.759,30.531 C55.2931567,30.5809821 54.8550628,30.3008348 54.705,29.857 C54.006287,27.7729521 52.034607,26.3845135 49.837,26.429 C49.449959,26.462993 49.0788133,26.2674473 48.888,25.929 C47.453222,23.3599603 44.5605344,21.9676685 41.6576119,22.4489112 C38.7546895,22.9301539 36.4660235,25.1814038 35.937,28.076 C35.8840289,28.3410368 35.7260304,28.5733452 35.499,28.72 C34.992,29.043 34.728,28.765 33.937,28.765 Z" id="Shape" fill="#464C63" fill-rule="nonzero"/>
            <path d="M43.89,43.762 C43.9057279,45.2173296 43.3423009,46.6192231 42.3238194,47.6588995 C41.3053379,48.6985759 39.9153449,49.2907538 38.46,49.305 L8.594,49.305 C6.05700824,49.2607124 3.76156552,47.7903931 2.6604961,45.5043627 C1.55942669,43.2183324 1.84073253,40.5069189 3.38764528,38.4956135 C4.93455803,36.484308 7.48295031,35.5165307 9.975,35.994 C11.937,26.165 24.962,23.757 30.02,32.684 C33.6144888,32.5756364 36.8559698,34.8337058 38,38.243 C39.5307377,38.1243928 41.0408179,38.6547969 42.1611681,39.7045783 C43.2815182,40.7543597 43.9089082,42.2267906 43.89,43.762 Z" id="Shape" fill="#F9FAFD" fill-rule="nonzero"/>
            <path d="M38.46,50.305 L8.594,50.305 C5.795698,50.2505727 3.24564661,48.6870122 1.92799746,46.2177497 C0.610348311,43.7484872 0.731170224,40.7596939 2.24383391,38.4048468 C3.75649759,36.0499996 6.42443566,34.6973762 9.218,34.869 C10.4400059,30.3463168 14.22423,26.9765274 18.8577682,26.2849448 C23.4913063,25.5933623 28.0946005,27.7112657 30.584,31.68 C34.1291208,31.8046236 37.2840617,33.9636158 38.684,37.223 C42.2046753,37.4067444 44.9474429,40.3457079 44.8878941,43.8706718 C44.8283454,47.3956358 41.9878728,50.2402792 38.463,50.305 L38.46,50.305 Z M8.594,36.844 C5.48021033,36.9152495 2.99312494,39.4598953 2.99312494,42.5745 C2.99312494,45.6891047 5.48021033,48.2337505 8.594,48.305 L38.46,48.305 C40.0979151,48.2671316 41.588248,47.3493382 42.3592335,45.9037306 C43.130219,44.4581231 43.062136,42.7091801 42.1811044,41.3278825 C41.3000728,39.9465848 39.7429023,39.147425 38.107,39.237 C37.6412368,39.2863619 37.2036124,39.0058334 37.054,38.562 C36.0568506,35.5863252 33.2374398,33.6073859 30.1,33.681 C29.7141833,33.7103034 29.3456976,33.5159545 29.152,33.181 C27.4347791,30.075729 24.169449,28.1450849 20.621,28.137 C15.8950039,28.184093 11.854683,31.5501911 10.955,36.19 C10.9024376,36.4554778 10.7439009,36.6880464 10.516,36.834 C9.967,37.189 9.773,36.844 8.594,36.844 Z" id="Shape" fill="#464C63" fill-rule="nonzero"/>
        </g>
    </g>
</svg>
