<?xml version="1.0" encoding="UTF-8"?>
<svg xmlns="http://www.w3.org/2000/svg" xmlns:xlink="http://www.w3.org/1999/xlink" width="60px" height="60px" viewBox="0 0 60 60" version="1.1">
    <!-- Generator: Sketch 51.1 (57501) - http://www.bohemiancoding.com/sketch -->
    <title>14 - Light Rain and Sun</title>
    <desc>Created with Sketch.</desc>
    <defs/>
    <g id="Page-1" stroke="none" stroke-width="1" fill="none" fill-rule="evenodd">
        <g id="14---Light-Rain-and-Sun" transform="translate(-1.000000, -1.000000)">
            <path d="M31,1.97 C14.9837423,1.97 2,14.9537423 2,30.97 C2,46.9862577 14.9837423,59.97 31,59.97 C47.0162577,59.97 60,46.9862577 60,30.97 C59.9933778,14.9564861 47.0135139,1.97662217 31,1.97 Z" id="Shape" fill="#7AAEDC"/>
            <path d="M51.89,20.06 C47.5493906,12.825602 40.2750152,7.83863712 31.96218,6.39843698 C23.6493448,4.95823685 15.1213038,7.20743031 8.6,12.56 C-0.864978159,24.0885208 -0.0409401668,40.9167358 10.5051039,51.465364 C21.051148,62.0139923 37.8791605,62.8421533 49.41,53.38 C57.1851447,43.9095003 58.1774665,30.5771767 51.89,20.06 Z" id="Shape" fill="#599AD3"/>
            <path d="M31,61 C16.6877599,61.0001941 4.36846424,50.8902788 1.57610828,36.8530795 C-1.21624768,22.8158802 6.29604706,8.76095715 19.5187693,3.28374693 C32.7414916,-2.19346329 47.9919246,2.43252049 55.9435051,14.332629 C63.8950856,26.2327376 62.3331849,42.0926209 52.213,52.213 C46.5995466,57.857877 38.9608423,61.0220355 31,61 Z M31,3 C18.3274684,3.0009144 7.23538379,11.5130801 3.9558719,23.7539077 C0.676360014,35.9947352 6.02710759,48.9121966 17.0017788,55.2485717 C27.9764499,61.5849469 41.8387098,59.7603758 50.8,50.8 C58.8087964,42.7920209 61.2047529,30.7480076 56.8705341,20.2845905 C52.5363153,9.82117342 42.3255706,2.99918279 31,3 Z" id="Shape" fill="#464C63" fill-rule="nonzero"/>
            <path d="M22.517,50.41 C22.1992123,51.0232464 22.2327273,51.7594472 22.6049204,52.3412826 C22.9771135,52.9231181 23.6314396,53.2621935 24.3214204,53.2307826 C25.0114012,53.1993717 25.6322123,52.8022464 25.95,52.189 C26.2254697,51.0126085 26.27333,49.7943769 26.091,48.6 C26.0766926,48.4359609 25.9794679,48.2906401 25.8333009,48.2148197 C25.6871338,48.1389994 25.5123396,48.1432175 25.37,48.226 C24.2882787,48.7651641 23.319833,49.506519 22.517,50.41 Z" id="Shape" fill="#797B82" fill-rule="nonzero"/>
            <path d="M24.229,53.732 C23.3810334,53.728978 22.5957062,53.2850323 22.1558617,52.5600542 C21.7160172,51.8350761 21.6850071,50.9334859 22.074,50.18 C22.8917063,49.1601193 23.9342021,48.3431668 25.12,47.793 C25.4100904,47.6249022 25.7659391,47.6165963 26.0635565,47.7709765 C26.3611738,47.9253566 26.5593373,48.2210397 26.589,48.555 C26.8208795,49.8412096 26.7524326,51.1636037 26.389,52.419 C25.9700039,53.2250511 25.1374467,53.731138 24.229,53.732 Z M25.593,48.646 C24.5947157,49.1337869 23.7007962,49.8110192 22.961,50.64 C22.7253833,51.0946205 22.7502017,51.6404071 23.0261062,52.0717674 C23.3020107,52.5031276 23.787085,52.7545276 24.2986062,52.7312674 C24.8101275,52.7080072 25.2703834,52.4136205 25.506,51.959 C25.7569607,50.8716856 25.786548,49.7449872 25.593,48.646 Z" id="Shape" fill="#464C63" fill-rule="nonzero"/>
            <path d="M30.251,50.41 C29.922492,51.0242091 29.9498388,51.7676596 30.3225837,52.3560741 C30.6953285,52.9444886 31.3558201,53.2868588 32.0515025,53.2522707 C32.7471849,53.2176825 33.370459,52.8114857 33.683,52.189 C33.9589858,51.0126785 34.00685,49.7943477 33.824,48.6 C33.8096926,48.4359609 33.7124679,48.2906401 33.5663009,48.2148197 C33.4201338,48.1389994 33.2453396,48.1432175 33.103,48.226 C32.0215708,48.7651668 31.0534536,49.50653 30.251,50.41 Z" id="Shape" fill="#797B82" fill-rule="nonzero"/>
            <path d="M31.962,53.732 C31.1142693,53.7284102 30.3293678,53.2843576 29.8896445,52.5595793 C29.4499211,51.8348009 29.4186197,50.933539 29.807,50.18 C30.6251244,49.1607932 31.6675325,48.3442517 32.853,47.794 C33.1430904,47.6259022 33.4989391,47.6175963 33.7965565,47.7719765 C34.0941738,47.9263566 34.2923373,48.2220397 34.322,48.556 C34.5544243,49.842175 34.4859709,51.1646943 34.122,52.42 C33.7029031,53.225824 32.8702919,53.7315582 31.962,53.732 Z M30.694,50.64 C30.3494943,51.3402107 30.6281501,52.1873619 31.3210558,52.5463338 C32.0139615,52.9053058 32.8667166,52.6443019 33.24,51.959 C33.4903573,50.8715839 33.5196031,49.7449406 33.326,48.646 C32.327943,49.1341563 31.4340903,49.811338 30.694,50.64 Z" id="Shape" fill="#464C63" fill-rule="nonzero"/>
            <path d="M37.984,50.41 C37.4927427,51.3579968 37.8630032,52.5247427 38.811,53.016 C39.7589968,53.5072573 40.9257427,53.1369968 41.417,52.189 C41.6926038,51.0126075 41.7401281,49.7942867 41.557,48.6 C41.5426926,48.4359609 41.4454679,48.2906401 41.2993009,48.2148197 C41.1531338,48.1389994 40.9783396,48.1432175 40.836,48.226 C39.7545708,48.7651668 38.7864536,49.50653 37.984,50.41 Z" id="Shape" fill="#797B82" fill-rule="nonzero"/>
            <path d="M39.7,53.732 C38.8516136,53.7295765 38.0655433,53.2861103 37.6247364,52.5612279 C37.1839295,51.8363454 37.1518329,50.9343816 37.54,50.18 C38.3586331,49.1613081 39.4009106,48.3448687 40.586,47.794 C40.8760904,47.6259022 41.2319391,47.6175963 41.5295565,47.7719765 C41.8271738,47.9263566 42.0253373,48.2220397 42.055,48.556 C42.2890098,49.8417372 42.2226145,51.1641674 41.861,52.42 C41.441909,53.2263035 40.6087148,53.7321576 39.7,53.732 Z M38.428,50.64 C38.1923833,51.0946205 38.2172017,51.6404071 38.4931062,52.0717674 C38.7690107,52.5031276 39.254085,52.7545276 39.7656062,52.7312674 C40.2771275,52.7080072 40.7373834,52.4136205 40.973,51.959 C41.2238195,50.8716425 41.2530677,49.744906 41.059,48.646 C40.0611539,49.1340272 39.1676058,49.8112355 38.428,50.64 Z" id="Shape" fill="#464C63" fill-rule="nonzero"/>
            <circle id="Oval" fill="#FDEA8E" fill-rule="nonzero" cx="20.455" cy="24.291" r="12.655"/>
            <path d="M43.389,26.266 C41.2939408,20.2760589 35.0112646,16.83786 28.8367931,18.3022949 C22.6623216,19.7667298 18.5928903,25.6601974 19.411,31.953 C15.7922319,32.8242041 13.397469,36.2649451 13.8374045,39.9610154 C14.27734,43.6570857 17.4128404,46.439571 21.135,46.437 L44.1,46.437 C47.805974,46.4571306 51.2253228,44.4459854 53.0086507,41.1972333 C54.7919786,37.9484811 54.6528249,33.9839778 52.6461046,30.8682559 C50.6393844,27.7525341 47.0874423,25.9860805 43.392,26.266 L43.389,26.266 Z" id="Shape" fill="#D3D6D9" fill-rule="nonzero"/>
            <path d="M33.109,24.291 C33.1016832,28.692839 30.8100379,32.7753795 27.0561169,35.0741438 C23.3021959,37.3729081 18.6241216,37.5583696 14.7,35.564 C15.6909212,33.7496554 17.4035602,32.4395629 19.414,31.958 C18.9535772,28.4700899 20.0003652,24.9511586 22.2923469,22.2820153 C24.5843287,19.612872 27.9045718,18.0461467 31.422,17.974 C32.5315827,19.894045 33.1135965,22.0734054 33.109,24.291 Z" id="Shape" fill="#FCF9D8" fill-rule="nonzero"/>
            <path d="M14.7,36.56 C14.5421859,36.5599995 14.3866124,36.5226481 14.246,36.451 C9.05766392,33.8000255 6.12309862,28.1488672 6.93909506,22.3799291 C7.7550915,16.610991 12.1418519,11.9954091 17.8618852,10.8873859 C23.5819186,9.77936268 29.3748647,12.4230417 32.286,17.47 C32.5576903,17.94786 32.3927416,18.5554205 31.9166943,18.8302745 C31.440647,19.1051286 30.8320058,18.9442136 30.554,18.47 C28.0698303,14.1611225 23.1250229,11.9034438 18.2419759,12.8486296 C13.3589289,13.7938153 9.61372674,17.7335734 8.91683635,22.658192 C8.21994596,27.5828105 10.7249421,32.4070439 15.154,34.67 C15.5648091,34.8804615 15.7781944,35.3447543 15.6703838,35.7935694 C15.5625732,36.2423846 15.1615813,36.5590968 14.7,36.56 Z" id="Shape" fill="#464C63" fill-rule="nonzero"/>
            <path d="M33.109,24.291 C33.1016832,28.692839 30.8100379,32.7753795 27.0561169,35.0741438 C23.3021959,37.3729081 18.6241216,37.5583696 14.7,35.564 C15.6909212,33.7496554 17.4035602,32.4395629 19.414,31.958 C18.9535772,28.4700899 20.0003652,24.9511586 22.2923469,22.2820153 C24.5843287,19.612872 27.9045718,18.0461467 31.422,17.974 C32.5315827,19.894045 33.1135965,22.0734054 33.109,24.291 Z" id="Shape" fill="#F9FAFD" fill-rule="nonzero"/>
            <path d="M44.1,47.437 L21.135,47.437 C17.074614,47.4366782 13.6037883,44.5138677 12.9124952,40.5127618 C12.221202,36.5116559 14.5101115,32.5937041 18.335,31.231 C17.9048387,24.6912424 22.271965,18.8013427 28.6546267,17.3130224 C35.0372884,15.824702 41.559173,19.175483 44.066,25.231 C50.1980176,25.2216112 55.1766112,30.1849824 55.186,36.317 C55.1953888,42.4490176 50.2320176,47.4276112 44.1,47.437 Z M31.7,18.964 C28.4220344,18.9631048 25.3025358,20.3742677 23.1389286,22.8367591 C20.9753215,25.2992504 19.9773057,28.5744018 20.4,31.825 L20.514,32.715 L19.643,32.925 C16.516569,33.6771797 14.4473962,36.6495754 14.8273945,39.8426845 C15.2073929,43.0357937 17.9163603,45.4395632 21.132,45.437 L44.1,45.437 C47.4272835,45.4564967 50.4999336,43.6584754 52.1127824,40.7481637 C53.7256313,37.837852 53.6215037,34.2793106 51.841241,31.4682858 C50.0609783,28.657261 46.8884505,27.0419819 43.568,27.256 L42.701,27.315 L42.448,26.597 C40.8467632,22.0306759 36.5389277,18.9713431 31.7,18.964 Z" id="Shape" fill="#464C63" fill-rule="nonzero"/>
        </g>
    </g>
</svg>
