<?xml version="1.0" encoding="UTF-8"?>
<svg xmlns="http://www.w3.org/2000/svg" xmlns:xlink="http://www.w3.org/1999/xlink" width="60px" height="60px" viewBox="0 0 60 60" version="1.1">
    <!-- Generator: Sketch 51.1 (57501) - http://www.bohemiancoding.com/sketch -->
    <title>15 - Moon and Clouds</title>
    <desc>Created with Sketch.</desc>
    <defs/>
    <g id="Page-1" stroke="none" stroke-width="1" fill="none" fill-rule="evenodd">
        <g id="15---Moon-and-Clouds" transform="translate(-1.000000, 0.000000)">
            <path d="M31,0.97 C14.9837423,0.97 2,13.9537423 2,29.97 C2,45.9862577 14.9837423,58.97 31,58.97 C47.0162577,58.97 60,45.9862577 60,29.97 C59.9933778,13.9564861 47.0135139,0.976622172 31,0.97 Z" id="Shape" fill="#7AAEDC"/>
            <path d="M51.89,19.06 C47.5493906,11.825602 40.2750152,6.83863712 31.96218,5.39843698 C23.6493448,3.95823685 15.1213038,6.20743031 8.6,11.56 C-0.864978159,23.0885208 -0.0409401668,39.9167358 10.5051039,50.465364 C21.051148,61.0139923 37.8791605,61.8421533 49.41,52.38 C57.1851447,42.9095003 58.1774665,29.5771767 51.89,19.06 Z" id="Shape" fill="#599AD3"/>
            <path d="M36.226,1.4 C44.1399555,6.9296855 47.9138577,16.7034703 45.7697786,26.1168139 C43.6256995,35.5301576 35.991298,42.7054708 26.4632268,44.2623825 C16.9351557,45.8192942 7.41388778,41.4472621 2.385,33.206 C4.11244889,47.9708866 16.7570191,59.0182154 31.6201635,58.7482254 C46.4833079,58.4782355 58.7183178,46.9789676 59.9083939,32.161084 C61.0984699,17.3432004 50.8555413,4.03865063 36.226,1.4 Z" id="Shape" fill="#FEF2BB" fill-rule="nonzero"/>
            <path d="M22.64,45.57 C14.0129931,45.6008071 6.00080811,41.1083974 1.527,33.732 C1.34050736,33.4272525 1.33076194,33.0461615 1.50143474,32.7322803 C1.67210754,32.4183992 1.9972693,32.2194139 2.35443474,32.2102803 C2.71160018,32.2011467 3.04650736,32.3832525 3.233,32.688 C8.0408036,40.5639661 17.133302,44.7514081 26.2435225,43.2852224 C35.3537429,41.8190367 42.6733073,34.9902611 44.767254,26.0035373 C46.8612007,17.0168135 43.3138815,7.65600562 35.79,2.314 C35.4863248,2.11181621 35.3168534,1.76030077 35.3477985,1.39679106 C35.3787436,1.03328135 35.6051939,0.715470173 35.9386749,0.567526633 C36.272156,0.419583093 36.6597409,0.46498738 36.95,0.686 C45.7227504,6.91589138 49.4593527,18.1040341 46.190993,28.3554009 C42.9226333,38.6067676 33.3997718,45.5675035 22.64,45.57 Z" id="Shape" fill="#464C63" fill-rule="nonzero"/>
            <path d="M60,29.842 C60.0014842,40.4088379 54.2369732,50.134424 44.9665539,55.2056558 C35.6961347,60.2768877 24.3973097,59.8855215 15.5,54.185 C27.78401,58.6787571 41.5649425,54.7768093 49.6696759,44.5101618 C57.7744094,34.2435143 58.3706306,19.9332447 51.148,9.028 C56.8129988,14.4689679 60.0104774,21.987305 60,29.842 Z" id="Shape" fill="#FDEA8E" fill-rule="nonzero"/>
            <circle id="Oval" fill="#CDCD8D" fill-rule="nonzero" cx="51.541" cy="34.889" r="1"/>
            <circle id="Oval" fill="#CDCD8D" fill-rule="nonzero" cx="54.121" cy="32.191" r="1"/>
            <circle id="Oval" fill="#CDCD8D" fill-rule="nonzero" cx="49.93" cy="38.725" r="1"/>
            <circle id="Oval" fill="#CDCD8D" fill-rule="nonzero" cx="53.252" cy="23.984" r="2.151"/>
            <circle id="Oval" fill="#CDCD8D" fill-rule="nonzero" cx="51.691" cy="29.023" r="1"/>
            <circle id="Oval" fill="#CDCD8D" fill-rule="nonzero" cx="56.12" cy="28.561" r="1"/>
            <circle id="Oval" fill="#CDCD8D" fill-rule="nonzero" cx="50.114" cy="17.045" r="1"/>
            <circle id="Oval" fill="#CDCD8D" fill-rule="nonzero" cx="54.583" cy="18.376" r="1.331"/>
            <path d="M35.35,9.7 C35.35,9.7 35.35,13.325 32.933,14.533 C35.35,15.742 35.35,19.367 35.35,19.367 C35.35,19.367 35.35,15.742 37.767,14.533 C35.35,13.325 35.35,9.7 35.35,9.7 Z" id="Shape" fill="#F9FAFD" fill-rule="nonzero"/>
            <path d="M18.215,11.642 C18.215,11.642 18.015,14.536 16.021,15.367 C17.884,16.467 17.685,19.358 17.685,19.358 C17.685,19.358 17.885,16.464 19.879,15.633 C18.016,14.536 18.215,11.642 18.215,11.642 Z" id="Shape" fill="#F9FAFD" fill-rule="nonzero"/>
            <path d="M13.335,27.345 C13.335,27.345 14.109,28.911 13.322,29.945 C14.622,29.952 15.399,31.518 15.399,31.518 C15.399,31.518 14.625,29.952 15.411,28.918 C14.109,28.911 13.335,27.345 13.335,27.345 Z" id="Shape" fill="#F9FAFD" fill-rule="nonzero"/>
            <circle id="Oval" fill="#D3D6D9" fill-rule="nonzero" cx="32.45" cy="25.65" r="1"/>
            <circle id="Oval" fill="#D3D6D9" fill-rule="nonzero" cx="41.15" cy="21.783" r="1"/>
            <circle id="Oval" fill="#D3D6D9" fill-rule="nonzero" cx="20.85" cy="29.517" r="1"/>
            <circle id="Oval" fill="#D3D6D9" fill-rule="nonzero" cx="25.683" cy="11.15" r="1"/>
            <path d="M46.07,54.78 C42.14,54.42 41.16,53.77 40.96,53.69 C39.0232387,52.8806413 37.9721406,50.7741896 38.49,48.74 C36.969007,50.0724248 34.7160949,50.1369959 33.1212838,48.8938736 C31.5264727,47.6507513 31.039155,45.4502278 31.96,43.65 C29.0299964,41.2613258 28.0459739,37.2155529 29.5516193,33.7480296 C31.0572646,30.2805064 34.6852006,28.237308 38.4309397,28.7473313 C42.1766788,29.2573546 45.1262614,32.196154 45.65,35.94 C47.0596393,35.2160518 48.7741424,35.4732536 49.9093053,36.5789612 C51.0444682,37.6846687 51.3466462,39.391819 50.66,40.82 C52.0948733,40.9322351 53.3894942,41.7240444 54.143032,42.9502739 C54.8965698,44.1765034 55.0181017,45.6891948 54.47,47.02" id="Shape" fill="#D3D6D9" fill-rule="nonzero"/>
            <path d="M45.979,55.775 C42.247,55.434 41.009,54.826 40.602,54.626 C38.8820242,53.9160477 37.6664607,52.3485605 37.407,50.506 C35.5302007,51.1456256 33.4530655,50.6675947 32.04467,49.2719162 C30.6362745,47.8762376 30.1394235,45.8035236 30.762,43.921 C27.8822187,41.1617606 27.0474628,36.8902855 28.6765911,33.2498895 C30.3057193,29.6094934 34.0471065,27.3859065 38.0234221,27.6948666 C41.9997378,28.0038267 45.3527481,30.778649 46.4,34.627 C47.9181151,34.3229015 49.4886119,34.7859736 50.5988823,35.86507 C51.7091526,36.9441664 52.2167518,38.5008421 51.956,40.027 C53.4080834,40.511062 54.5987433,41.5684039 55.2510407,42.9530954 C55.9033381,44.3377869 55.9604165,45.9291337 55.409,47.357 C55.2200069,47.8710664 54.6526465,48.137449 54.1363973,47.9545023 C53.6201482,47.7715557 53.347125,47.2073608 53.524,46.689 C53.9664363,45.658921 53.8886583,44.4792375 53.314811,43.5161633 C52.7409636,42.5530891 51.7405007,41.923187 50.624,41.822 C50.288293,41.8106259 49.9807222,41.6314682 49.8052174,41.3450653 C49.6297127,41.0586624 49.6097218,40.7032786 49.752,40.399 C50.2594339,39.3548476 50.0394758,38.1029335 49.2065097,37.294286 C48.3735436,36.4856384 47.1156635,36.3028599 46.087,36.841 C45.798578,36.9823783 45.4597993,36.9766034 45.1763633,36.8254772 C44.8929274,36.6743509 44.6993397,36.3962715 44.656,36.078 C44.1929965,32.7785487 41.5923431,30.1894969 38.2908547,29.7412499 C34.9893663,29.2930029 31.7925451,31.0949246 30.4665783,34.1514852 C29.1406114,37.2080459 30.0090104,40.7735011 32.592,42.878 C32.9563506,43.1775959 33.0617945,43.6910618 32.845,44.11 C32.0370281,45.676059 32.6472582,47.6006307 34.21,48.415 C35.3889989,49.0289162 36.8233639,48.8604239 37.828,47.99 C38.158916,47.6982073 38.6419535,47.6577558 39.0167918,47.8904458 C39.39163,48.1231358 39.5696856,48.573977 39.455,49 C39.0719844,50.5467418 39.8716104,52.142176 41.34,52.761 C41.36,52.769 41.463,52.817 41.483,52.827 C42.9860718,53.3762154 44.5628617,53.6974384 46.161,53.78 C46.6992454,53.8435883 47.0888621,54.3243873 47.0395239,54.8641255 C46.9901857,55.4038637 46.5198538,55.8060536 45.979,55.771 L45.979,55.775 Z" id="Shape" fill="#464C63" fill-rule="nonzero"/>
            <path d="M31,60 C14.4314575,60 1,46.5685425 1,30 C1,13.4314575 14.4314575,3.04359188e-15 31,0 C47.5685425,-3.04359188e-15 61,13.4314575 61,30 C60.9785143,46.5596347 47.5596347,59.9785143 31,60 Z M31,58 C46.0830497,58.0025017 58.4576526,46.0571086 58.987371,30.9833634 C59.5170893,15.9096182 48.011542,3.12503391 32.9655242,2.06874639 C17.9195064,1.01245887 4.74056573,12.0640985 3.159,27.064 C2.3268276,34.9564978 4.88301725,42.831393 10.1919398,48.7304925 C15.5008623,54.6295919 23.0637521,57.9986837 31,58 Z" id="Shape" fill="#464C63" fill-rule="nonzero"/>
            <path d="M47.559,40.934 C46.4627173,40.0078743 44.9847647,39.6722302 43.596,40.034 C43.4663487,38.4879374 42.7131498,37.0611947 41.5096868,36.0820134 C40.3062238,35.1028322 38.7561208,34.6555246 37.216,34.843 C36.9893977,32.6656974 35.8334049,30.69238 34.045,29.43 C34.0166281,29.4007804 33.9826036,29.3776437 33.945,29.362 C31.8355821,27.9081277 29.1383811,27.6068366 26.7601503,28.5594156 C24.3819194,29.5119947 22.6385,31.5919365 22.116,34.1 C21.0033529,33.0330055 19.3353824,32.7915682 17.9658497,33.4992693 C16.596317,34.2069704 15.8283349,35.7071775 16.055,37.232 C14.2794647,36.2414599 12.1123656,36.264275 10.3580782,37.291977 C8.60379089,38.3196791 7.52419089,40.1988552 7.52,42.232 C7.52,42.864 7.768,42.445 6.456,42.445 C4.07085578,42.4672319 2.12598953,44.363345 2.04322573,46.7471565 C1.96046194,49.1309681 3.76914092,51.1574009 6.147,51.345 C6.87451089,53.4161902 8.72069161,54.8902281 10.9015487,55.1411533 C13.0824057,55.3920785 15.2151124,54.3758437 16.394,52.524 C17.669132,54.5136919 19.7953682,55.7990384 22.1497374,56.0034427 C24.5041066,56.2078469 26.820045,55.3081662 28.419,53.568 C29.2211495,54.4588933 30.4141408,54.8920427 31.6010137,54.7233205 C32.7878866,54.5545984 33.8129048,53.8061437 34.335,52.727 C35.9695085,54.2968583 38.3754974,54.7562904 40.4734483,53.8991585 C42.5713993,53.0420266 43.9673634,51.0292811 44.035,48.764 C46.0077614,49.0513317 47.9319774,47.9960556 48.7501672,46.1781138 C49.5683571,44.3601721 49.0822528,42.2200979 47.559,40.934 Z" id="Shape" fill="#F9FAFD" fill-rule="nonzero"/>
            <path d="M16.374,54.149 C14.825579,55.735808 12.5951324,56.4584734 10.4103557,56.0812228 C8.22557902,55.7039722 6.36662963,54.2751809 5.44,52.261 C2.65136636,51.7341055 0.732069168,49.1577006 1.02535838,46.3349224 C1.3186476,43.5121442 3.72661187,41.3853458 6.564,41.443 C6.79734568,39.4805196 7.88025512,37.7193386 9.52620765,36.6254376 C11.1721602,35.5315365 13.2152837,35.215154 15.115,35.76 C15.402729,34.3886176 16.2987021,33.2226053 17.5497455,32.5914413 C18.8007889,31.9602772 20.2710207,31.9325153 21.545,32.516 C22.500789,30.0627247 24.5220044,28.1784006 27.0361789,27.3967234 C29.5503533,26.6150462 32.2836797,27.0211447 34.462,28.5 C34.5363481,28.542475 34.6066426,28.5916812 34.672,28.647 C36.400562,29.8855916 37.607582,31.7219583 38.059,33.8 C41.0913423,33.8585655 43.7035478,35.9529292 44.42,38.9 C46.3810111,38.7904212 48.2498181,39.7423442 49.3142157,41.3929895 C50.3786133,43.0436347 50.4746299,45.1387189 49.5656736,46.8798021 C48.6567174,48.6208852 46.8828136,49.7397518 44.92,49.81 C44.5124737,52.0408709 43.0088203,53.9164869 40.9200004,54.7994899 C38.8311805,55.6824928 36.4381158,55.4541293 34.554,54.192 C33.0043698,55.9587279 30.3734935,56.2762772 28.448,54.929 C24.8873689,58.01498 19.5079734,57.6674623 16.374,54.149 Z M17.235,51.984 C18.3419263,53.7140443 20.1895566,54.8318923 22.2357206,55.0095215 C24.2818846,55.1871508 26.2945062,54.4044147 27.683,52.891 C27.8731461,52.6844522 28.1413586,52.5673469 28.4221016,52.5682979 C28.7028446,52.569249 28.9702576,52.6881687 29.159,52.896 C29.7371455,53.5414546 30.5988528,53.8564633 31.4569702,53.7360539 C32.3150875,53.6156446 33.0568216,53.0756441 33.435,52.296 C33.5744933,52.0074727 33.8438221,51.8032821 34.1592976,51.7468765 C34.4747731,51.6904709 34.7981704,51.7886848 35.029,52.011 C36.2835469,53.2220437 38.1032974,53.6433293 39.7624156,53.1068204 C41.4215337,52.5703115 42.6500686,51.1633022 42.958,49.447 C43.098,48.77 42.938,48.39 43.396,48.004 C43.941,47.543 44.257,47.952 45.318,47.755 C47.0734891,47.4266098 48.2906007,45.8160749 48.1272967,44.0376166 C47.9639927,42.2591583 46.4739372,40.8972046 44.688,40.894 C43.888,40.894 43.566,41.248 43.012,40.851 C42.7750203,40.6808323 42.6241712,40.4156593 42.599,40.125 C42.4985658,38.8477001 41.8798341,37.6671293 40.8866353,36.8577233 C39.8934364,36.0483173 38.6122859,35.6805815 37.341,35.84 C37.0745336,35.8709382 36.8067057,35.7945997 36.5965935,35.6278231 C36.3864814,35.4610466 36.2513476,35.2175343 36.221,34.951 C36.0254238,33.060184 35.0215709,31.3463778 33.468,30.251 C31.6403099,28.9495188 29.2796709,28.657112 27.1896679,29.4733178 C25.0996648,30.2895236 23.5619588,32.1043455 23.1,34.3 C23.0269942,34.6566289 22.7659597,34.9454148 22.4184943,35.0539588 C22.0710289,35.1625027 21.6920267,35.0736565 21.429,34.822 C20.6746082,34.0998889 19.5619934,33.8978583 18.6018874,34.3086478 C17.6417815,34.7194372 17.0196206,35.6637062 17.021,36.708 C17.021,37.008 17.221,37.655 16.609,38.059 C16.2970383,38.2673354 15.8947172,38.2835518 15.567,38.101 C14.1010926,37.2828804 12.3117112,37.3015441 10.8631873,38.1500622 C9.41466346,38.9985802 8.52328956,40.5502524 8.52,42.229 C8.6167304,42.6319625 8.48957079,43.0558279 8.187,43.339 C7.646,43.798 7.287,43.439 6.457,43.439 C4.59729647,43.4418157 3.0730654,44.9153676 3.00739051,46.7739132 C2.94171561,48.6324589 4.35813379,50.2099236 6.213,50.344 C6.61287626,50.3703234 6.95841848,50.6328253 7.091,51.011 C7.69214937,52.7210888 9.21702067,53.9377651 11.0178979,54.1442242 C12.8187751,54.3506834 14.5794326,53.5106721 15.552,51.981 C15.7364542,51.6948175 16.0538442,51.5221489 16.3943195,51.5227558 C16.7347948,51.5233627 17.0515672,51.6971617 17.235,51.984 Z" id="Shape" fill="#464C63" fill-rule="nonzero"/>
            <path d="M40.473,47.478 L38.211,47.594 C38.537,45.151 36.211,43.425 34.374,44.588 C34.874,40.861 32.286,37.841 29.221,37.841 C26.331,37.841 24.001,40.46 24.001,43.689 C24.001,44.928 24.365,44.221 23.044,44.221 C20.955,44.221 19.689,46.645 20.386,48.521 L19.178,48.589 L19.178,48.579 C17.532,46.513 19.152,43.543 22.02,43.543 C23.63,43.543 23.18,44.253 23.18,43.011 C23.3413684,39.6250377 26.2137387,37.0090332 29.6,37.164 C33.432,37.164 36.532,40.242 35.922,43.902 C38.525,42.627 41.479,44.925 40.473,47.478 Z" id="Shape" fill="#D3D6D9" fill-rule="nonzero"/>
        </g>
    </g>
</svg>
