<?xml version="1.0" encoding="UTF-8"?>
<svg xmlns="http://www.w3.org/2000/svg" xmlns:xlink="http://www.w3.org/1999/xlink" width="60px" height="60px" viewBox="0 0 60 60" version="1.1">
    <!-- Generator: Sketch 51.1 (57501) - http://www.bohemiancoding.com/sketch -->
    <title>16 - Sunny and Cloudy </title>
    <desc>Created with Sketch.</desc>
    <defs/>
    <g id="Page-1" stroke="none" stroke-width="1" fill="none" fill-rule="evenodd">
        <g id="16---Sunny-and-Cloudy-">
            <path d="M30,0.97 C13.9837423,0.97 1,13.9537423 1,29.97 C1,45.9862577 13.9837423,58.97 30,58.97 C46.0162577,58.97 59,45.9862577 59,29.97 C58.9933778,13.9564861 46.0135139,0.976622172 30,0.97 Z" id="Shape" fill="#7AAEDC"/>
            <path d="M50.89,19.06 C46.5493906,11.825602 39.2750152,6.83863712 30.96218,5.39843698 C22.6493448,3.95823685 14.1213038,6.20743031 7.6,11.56 C-1.86497816,23.0885208 -1.04094017,39.9167358 9.50510391,50.465364 C20.051148,61.0139923 36.8791605,61.8421533 48.41,52.38 C56.1851447,42.9095003 57.1774665,29.5771767 50.89,19.06 Z" id="Shape" fill="#599AD3"/>
            <path d="M30,60 C13.4314575,60 2.02906125e-15,46.5685425 0,30 C-2.02906125e-15,13.4314575 13.4314575,3.04359188e-15 30,0 C51.983,0 66.3,22.884 57.3,42.424 C52.4383862,53.1330491 41.7609085,60.0073109 30,60 Z M30,2 C19.8817714,1.87153193 10.4814814,7.21237615 5.41190061,15.9699103 C0.342319834,24.7274445 0.392330853,35.5388999 5.54271316,44.2491591 C10.6930955,52.9594184 20.1423929,58.2130692 30.259,57.991 C30.4898053,57.9974161 30.7207882,57.9917416 30.951,57.974 C46.2198886,57.4575561 58.2551486,44.7948478 57.9956188,29.5194323 C57.736089,14.2440168 45.2776198,1.99745775 30,2 Z" id="Shape" fill="#464C63" fill-rule="nonzero"/>
            <path d="M17.884,5.522 C15.815,6.379 13.311,2.952 12.137,1.089 C12.0879689,1.01152855 11.9902057,0.980723286 11.9056187,1.01609154 C11.8210317,1.0514598 11.7742931,1.14268538 11.795,1.232 C12.282,3.38 12.934,7.572 10.866,8.432 L17.884,5.522 Z" id="Shape" fill="#FDEA8E" fill-rule="nonzero"/>
            <path d="M21.33,33.692 C23.399,32.835 25.902,36.262 27.077,38.125 C27.1260311,38.2024715 27.2237943,38.2332767 27.3083813,38.1979085 C27.3929683,38.1625402 27.4397069,38.0713146 27.419,37.982 C26.932,35.834 26.28,31.641 28.348,30.782 L21.33,33.692 Z" id="Shape" fill="#FFA600" fill-rule="nonzero"/>
            <path d="M21.886,33.279 C20.46,33.279 19.871,36.066 19.686,37.279 C19.6800253,37.3152208 19.6487102,37.3417934 19.612,37.3417934 C19.5752898,37.3417934 19.5439747,37.3152208 19.538,37.279 C19.348,36.064 18.759,33.279 17.333,33.279 L21.886,33.279 Z" id="Shape" fill="#FDE35D" fill-rule="nonzero"/>
            <path d="M11.551,8.328 C10.543,9.336 8.151,7.782 7.162,7.057 C7.13331935,7.04330235 7.09911915,7.04917017 7.07664466,7.07164466 C7.05417017,7.09411915 7.04830235,7.12831935 7.062,7.157 C7.787,8.15 9.341,10.538 8.333,11.546 L11.551,8.328 Z" id="Shape" fill="#FEF2BB" fill-rule="nonzero"/>
            <path d="M30.886,27.663 C29.878,28.671 31.432,31.063 32.157,32.052 C32.1706977,32.0806806 32.1648298,32.1148809 32.1423553,32.1373553 C32.1198809,32.1598298 32.0856806,32.1656977 32.057,32.152 C31.064,31.427 28.676,29.873 27.668,30.881 L30.886,27.663 Z" id="Shape" fill="#FDE35D" fill-rule="nonzero"/>
            <path d="M33.279,21.886 C33.279,20.46 36.066,19.871 37.279,19.686 C37.3152208,19.6800253 37.3417934,19.6487102 37.3417934,19.612 C37.3417934,19.5752898 37.3152208,19.5439747 37.279,19.538 C36.064,19.348 33.279,18.759 33.279,17.333 L33.279,21.886 Z" id="Shape" fill="#FDE35D" fill-rule="nonzero"/>
            <path d="M30.886,11.551 C29.878,10.543 31.432,8.151 32.157,7.162 C32.1706977,7.13331935 32.1648298,7.09911915 32.1423553,7.07664466 C32.1198809,7.05417017 32.0856806,7.04830235 32.057,7.062 C31.064,7.787 28.676,9.341 27.668,8.333 L30.886,11.551 Z" id="Shape" fill="#FEF2BB" fill-rule="nonzero"/>
            <path d="M33.692,17.884 C32.835,15.815 36.262,13.311 38.125,12.137 C38.2024715,12.0879689 38.2332767,11.9902057 38.1979085,11.9056187 C38.1625402,11.8210317 38.0713146,11.7742931 37.982,11.795 C35.834,12.282 31.641,12.934 30.782,10.866 L33.692,17.884 Z" id="Shape" fill="#FDEA8E" fill-rule="nonzero"/>
            <path d="M5.522,21.33 C6.379,23.399 2.952,25.902 1.089,27.077 C1.01152855,27.1260311 0.980723286,27.2237943 1.01609154,27.3083813 C1.0514598,27.3929683 1.14268538,27.4397069 1.232,27.419 C3.38,26.932 7.572,26.28 8.432,28.348 L5.522,21.33 Z" id="Shape" fill="#FDEA8E" fill-rule="nonzero"/>
            <path d="M8.429,10.866 C7.572,12.934 3.38,12.282 1.229,11.795 C1.13968538,11.7742931 1.0484598,11.8210317 1.01309154,11.9056187 C0.977723286,11.9902057 1.00852855,12.0879689 1.086,12.137 C2.949,13.311 6.376,15.815 5.519,17.884 L8.429,10.866 Z" id="Shape" fill="#FDEA8E" fill-rule="nonzero"/>
            <path d="M30.785,28.348 C31.641,26.28 35.834,26.932 37.985,27.419 C38.0743146,27.4397069 38.1655402,27.3929683 38.2009085,27.3083813 C38.2362767,27.2237943 38.2054715,27.1260311 38.128,27.077 C36.265,25.902 32.838,23.399 33.695,21.33 L30.785,28.348 Z" id="Shape" fill="#FFA600" fill-rule="nonzero"/>
            <path d="M28.348,8.429 C26.28,7.572 26.932,3.38 27.419,1.229 C27.4397069,1.13968538 27.3929683,1.0484598 27.3083813,1.01309154 C27.2237943,0.977723286 27.1260311,1.00852855 27.077,1.086 C25.9,2.952 23.4,6.379 21.33,5.522 L28.348,8.429 Z" id="Shape" fill="#FDEA8E" fill-rule="nonzero"/>
            <path d="M10.866,30.785 C12.934,31.641 12.282,35.834 11.795,37.985 C11.7742931,38.0743146 11.8210317,38.1655402 11.9056187,38.2009085 C11.9902057,38.2362767 12.0879689,38.2054715 12.137,38.128 C13.311,36.265 15.815,32.838 17.884,33.695 L10.866,30.785 Z" id="Shape" fill="#FFA600" fill-rule="nonzero"/>
            <path d="M25.668,32.7 C19.6591029,35.4780765 12.5289531,33.7686523 8.43293233,28.5679632 C4.33691157,23.3672741 4.34595494,16.035079 8.45479205,10.8445096 C12.5636292,5.6539402 19.697974,3.96210953 25.7,6.755 C30.7383242,9.11236443 33.9546822,14.1751543 33.9478215,19.7376924 C33.9409608,25.3002306 30.7121239,30.355071 25.668,32.7 Z" id="Shape" fill="#FDEA8E" fill-rule="nonzero"/>
            <path d="M5.513,25.58 C3.11990131,19.7869333 4.49730159,13.1204035 8.9902973,8.75010224 C13.483293,4.37980098 20.1853956,3.18746241 25.91,5.74 L26.169,5.873 C37.669,11.226 38.088,28.051 26.093,33.607 C22.3104168,35.3605953 17.9762167,35.4954626 14.0919239,33.9804374 C10.207631,32.4654122 7.10934451,29.4315863 5.513,25.58 Z M19.651,6.423 C14.2737674,6.42749785 9.42828429,9.66948071 7.37249267,14.6382202 C5.31670105,19.6069596 6.45512062,25.3247529 10.2572604,29.1271711 C14.0594001,32.9295894 19.77711,34.0684277 24.746,32.013 C35.514,27.548 35.605,12.647 25.446,7.74 C23.6380254,6.87058553 21.6571522,6.42040262 19.651,6.423 Z" id="Shape" fill="#464C63" fill-rule="nonzero"/>
            <ellipse id="Oval" fill="#FEF2BB" fill-rule="nonzero" transform="translate(15.618695, 11.730129) rotate(-39.333000) translate(-15.618695, -11.730129) " cx="15.6186949" cy="11.7301294" rx="4.361" ry="3.427"/>
            <path d="M53.154,23.3 C52.7877797,19.738788 50.2774468,16.7654717 46.828049,15.8073469 C43.3786512,14.8492221 39.6944772,16.1019162 37.5440592,18.9640921 C35.3936413,21.8262681 35.2160461,25.7135345 37.0965254,28.7598677 C38.9770048,31.8062009 42.5316075,33.3896087 46.054,32.75 C47.3771705,35.7249265 50.632039,37.3350401 53.7995689,36.5815667 C56.9670988,35.8280933 59.1483601,32.9248652 58.9902886,29.6727919 C58.8322171,26.4207185 56.3796727,23.7427229 53.154,23.3 Z" id="Shape" fill="#D3D5D8" fill-rule="nonzero"/>
            <path d="M59,30 C58.9974159,32.5065002 57.6131818,34.8074048 55.4,35.984 C56.9067079,34.2292766 57.4127188,31.8264991 56.7416636,29.6131514 C56.0706083,27.3998038 54.3154704,25.6825742 52.088,25.06 C52.1766545,22.0671598 50.7201039,19.2390262 48.2321358,17.5732029 C45.7441678,15.9073796 42.5744207,15.6379676 39.841,16.86 C42.3834656,15.2480615 45.5785768,15.065042 48.2884759,16.3761194 C50.998375,17.6871967 52.8379186,20.3060344 53.152,23.3 C56.501444,23.7586883 58.9982839,26.6192949 59,30 Z" id="Shape" fill="#B5B9BE" fill-rule="nonzero"/>
            <path d="M52.233,37.767 C49.4448031,37.7628838 46.8719871,36.2670339 45.489,33.846 C40.2581891,34.3811513 35.553427,30.6512063 34.8813354,25.4362218 C34.2092439,20.2212374 37.8145731,15.4203127 43.0101466,14.6117429 C48.2057202,13.803173 53.0995076,17.2814084 54.044,22.454 C57.8725986,23.3698221 60.4096141,27.0063777 59.947271,30.9157429 C59.4849279,34.8251081 56.169609,37.7695343 52.233,37.767 Z M46.969,32.346 C48.096171,34.8813661 50.8697323,36.2538852 53.5691289,35.6121271 C56.2685255,34.9703689 58.1276347,32.4964724 57.9931741,29.725098 C57.8587136,26.9537237 55.7688449,24.6714223 53.02,24.294 C52.5620758,24.2321817 52.2061369,23.8646674 52.159,23.405 C51.834163,20.2530982 49.6116653,17.6219826 46.5584385,16.7747457 C43.5052117,15.9275088 40.2446956,17.0371483 38.3421324,19.570971 C36.4395693,22.1047938 36.2834444,25.5454173 37.948707,28.241137 C39.6139696,30.9368567 42.7605889,32.3372323 45.878,31.77 C46.3308849,31.6880643 46.7812117,31.925817 46.969,32.346 Z" id="Shape" fill="#464C63" fill-rule="nonzero"/>
            <path d="M55.655,35.839 C54.637291,33.5072827 52.0784237,32.2581353 49.614,32.89 C49.462133,31.0817425 48.5809362,29.4131473 47.1731644,28.2681419 C45.7653926,27.1231366 43.9522777,26.6003246 42.151,26.82 C41.6830359,22.4416925 38.0963764,19.056278 33.6983658,18.8416375 C29.3003553,18.6269971 25.4010824,21.6470682 24.509,25.959 C23.2082375,24.721041 21.2658724,24.4433673 19.6703515,25.2672838 C18.0748306,26.0912004 17.1766968,27.8356891 17.433,29.613 C15.2946221,28.4180607 12.6745803,28.4853635 10.6003726,29.7885143 C8.52616484,31.0916651 7.32847525,33.4229069 7.477,35.868 C5.56427611,35.3854479 3.54307931,36.0249877 2.25608384,37.5199833 C0.969088377,39.0149789 0.637215102,41.1088049 1.39882811,42.9285068 C2.16044112,44.7482086 3.88480476,45.981423 5.853,46.114 C6.70272037,48.5319299 8.85733393,50.2532822 11.4032066,50.5481414 C13.9490793,50.8430005 16.4401055,49.6596992 17.82,47.5 C19.3115005,49.824321 21.7967065,51.3254119 24.5481045,51.5638469 C27.2995025,51.8022818 30.005888,50.7510919 31.875,48.718 C32.8147541,49.758427 34.2102314,50.263631 35.5982285,50.0659186 C36.9862256,49.8682062 38.1851349,48.9934464 38.797,47.732 C40.7085039,49.5683946 43.5229532,50.1052081 45.9761974,49.1013231 C48.4294416,48.097438 50.0602024,45.7416126 50.136,43.092 C52.0103425,43.3645667 53.884958,42.5984512 55.0319054,41.0911475 C56.1788527,39.5838438 56.4174323,37.5728251 55.655,35.839 Z" id="Shape" fill="#F9FAFD" fill-rule="nonzero"/>
            <path d="M32.078,18.912 C28.1840396,19.7505397 25.3169507,23.067664 25.051,27.042 C23.5926075,25.9936617 21.6299515,25.9851847 20.1625577,27.020886 C18.6951639,28.0565872 18.0457322,29.9087019 18.545,31.634 C16.2644837,30.7351715 13.6749967,31.1557343 11.7961545,32.7300911 C9.91731222,34.3044479 9.05010605,36.7803859 9.536,39.183 C7.84750715,38.9920696 6.17224397,39.6381739 5.04922058,40.9134311 C3.92619719,42.1886883 3.4971039,43.932201 3.9,45.583 C1.51100009,44.4057348 0.396102216,41.6149862 1.3163255,39.1156937 C2.23654879,36.6164012 4.89498078,35.2149682 7.477,35.868 C7.32847525,33.4229069 8.52616484,31.0916651 10.6003726,29.7885143 C12.6745803,28.4853635 15.2946221,28.4180607 17.433,29.613 C17.178003,27.8361411 18.0763349,26.0927332 19.6712931,25.2691073 C21.2662513,24.4454813 23.2078499,24.7223676 24.509,25.959 C25.2778383,22.240062 28.3136899,19.4135794 32.078,18.912 Z" id="Shape" fill="#D3D6D9" fill-rule="nonzero"/>
            <path d="M56.1,37.936 C56.1010075,40.4386853 54.324007,42.589217 51.866,43.06 C53.3536769,41.447981 53.6712935,39.0764018 52.6602181,37.1297343 C51.6491426,35.1830669 49.5263271,34.0790185 47.352,34.369 C47.4107315,32.555552 46.728823,30.7963109 45.4632261,29.4961926 C44.1976292,28.1960743 42.4573717,27.4670805 40.643,27.477 C40.6802473,23.6041729 38.2165342,20.1489163 34.543,18.922 C38.5847932,19.510341 41.7152279,22.7609237 42.151,26.822 C43.9520081,26.6037767 45.764345,27.1271265 47.1717732,28.2718524 C48.5792014,29.4165783 49.4607664,31.0843023 49.614,32.892 C51.1708188,32.4946427 52.8238931,32.8392808 54.0922312,33.8256356 C55.3605694,34.8119905 56.1017082,36.3292721 56.1,37.936 Z" id="Shape" fill="#D3D6D9" fill-rule="nonzero"/>
            <path d="M17.805,49.146 C16.0441649,51.034788 13.4537945,51.9151945 10.9066864,51.4905759 C8.35957835,51.0659574 6.19489377,49.3928539 5.142,47.035 C1.91715855,46.4677939 -0.313726057,43.4948327 0.043081399,40.239988 C0.399888855,36.9851434 3.2218645,34.5660943 6.493,34.711 C6.72331024,32.4047144 7.97828071,30.3241667 9.91087681,29.0446869 C11.8434729,27.7652071 14.2489037,27.4223774 16.462,28.111 C16.7486186,26.4885276 17.7838515,25.0963505 19.2551348,24.3548033 C20.7264181,23.613256 22.4613095,23.6092519 23.936,24.344 C25.4656215,20.1735759 29.5773181,17.5249225 34.0070174,17.8564994 C38.4367167,18.1880762 42.1082838,21.4193312 43,25.771 C46.5671702,25.7927765 49.6503873,28.2663905 50.445,31.744 C52.6957191,31.5804622 54.8581928,32.6499748 56.094254,34.5379986 C57.3303152,36.4260225 57.4456565,38.8357623 56.395572,40.8332116 C55.3454876,42.830661 53.2950494,44.101823 51.039,44.154 C50.6088554,46.7659454 48.8671881,48.9738216 46.4271847,50.0003043 C43.9871814,51.0267871 41.1909666,50.7279484 39.023,49.209 C37.2622761,51.3464013 34.1362524,51.7309466 31.91,50.084 C29.9262994,51.8546664 27.3137063,52.7529211 24.6605577,52.5764834 C22.0074091,52.4000457 19.5367662,51.1637496 17.805,49.146 Z M18.661,46.956 C19.984479,49.0202678 22.190784,50.3536916 24.6337008,50.5657191 C27.0766177,50.7777466 29.4796635,49.8443811 31.139,48.039 C31.3284452,47.8318121 31.5962576,47.7138007 31.877,47.7138007 C32.1577424,47.7138007 32.4255548,47.8318121 32.615,48.039 C33.3316574,48.8343358 34.3971955,49.2207588 35.4570708,49.069692 C36.5169461,48.9186252 37.4320898,48.2498903 37.898,47.286 C38.0386639,46.9983908 38.3085361,46.795523 38.6239063,46.7403234 C38.9392766,46.6851237 39.2620102,46.7842668 39.492,47.007 C41.1187271,48.5678211 43.5125402,49.0232192 45.598752,48.1687464 C47.6849637,47.3142735 49.0715455,45.310497 49.136,43.057 C49.1444517,42.7693562 49.2764099,42.4992953 49.4981371,42.315863 C49.7198643,42.1324306 50.0098666,42.0534085 50.294,42.099 C51.6517362,42.3043123 53.0231272,41.8247186 53.957,40.818 C55.1022167,39.5928696 55.4124201,37.8054833 54.7469864,36.266112 C54.0815528,34.7267407 52.567033,33.7281389 50.89,33.723 C49.921,33.723 49.583,34.105 49.021,33.693 C48.459,33.281 48.74,32.919 48.369,31.737 C47.5456174,29.1278518 44.9786355,27.4769285 42.263,27.81 C41.9985822,27.839725 41.7332207,27.7628434 41.5256461,27.5963708 C41.3180715,27.4298982 41.1854019,27.1875632 41.157,26.923 C40.7435229,23.0328548 37.557489,20.0239441 33.6500741,19.8334114 C29.7426593,19.6428788 26.2789966,22.3275383 25.489,26.159 C25.4153687,26.5155241 25.1538038,26.8038672 24.8061206,26.9117904 C24.4584375,27.0197136 24.0795722,26.9301643 23.817,26.678 C22.8252981,25.7365563 21.3464975,25.5256667 20.1311647,26.1523684 C18.9158319,26.7790702 18.2300948,28.106131 18.422,29.46 C18.4794866,29.837054 18.3174826,30.213974 18.0043413,30.4317283 C17.6912,30.6494826 17.2814597,30.670146 16.948,30.485 C15.1295574,29.4670633 12.9005466,29.5226488 11.1351019,30.629958 C9.36965721,31.7372673 8.34923248,33.7197688 8.474,35.8 C8.49531994,36.1169863 8.36474646,36.4252431 8.12222428,36.6304694 C7.87970209,36.8356956 7.55409057,36.91347 7.245,36.84 C5.69855744,36.4438815 4.06111657,36.9567159 3.01691244,38.164206 C1.97270831,39.371696 1.70148134,41.0659946 2.31656876,42.5391076 C2.93165617,44.0122206 4.32718204,45.010579 5.92,45.117 C6.32001049,45.1440326 6.66520691,45.407358 6.797,45.786 C7.52128318,47.8423014 9.35504152,49.3053524 11.5208428,49.5548844 C13.6866441,49.8044163 15.8050693,48.7967146 16.978,46.959 C17.1614328,46.6721617 17.4782052,46.4983627 17.8186805,46.4977558 C18.1591558,46.4971489 18.4765458,46.6698175 18.661,46.956 Z" id="Shape" fill="#464C63" fill-rule="nonzero"/>
        </g>
    </g>
</svg>
