<?xml version="1.0" encoding="UTF-8"?>
<svg xmlns="http://www.w3.org/2000/svg" xmlns:xlink="http://www.w3.org/1999/xlink" width="60px" height="60px" viewBox="0 0 60 60" version="1.1">
    <!-- Generator: Sketch 51.1 (57501) - http://www.bohemiancoding.com/sketch -->
    <title>17 - Rainbow and Clouds</title>
    <desc>Created with Sketch.</desc>
    <defs/>
    <g id="Page-1" stroke="none" stroke-width="1" fill="none" fill-rule="evenodd">
        <g id="17---Rainbow-and-Clouds" transform="translate(-1.000000, 0.000000)">
            <path d="M31,0.97 C14.9837423,0.97 2,13.9537423 2,29.97 C2,45.9862577 14.9837423,58.97 31,58.97 C47.0162577,58.97 60,45.9862577 60,29.97 C59.9933778,13.9564861 47.0135139,0.976622172 31,0.97 Z" id="Shape" fill="#7AAEDC"/>
            <path d="M51.89,19.06 C47.5493906,11.825602 40.2750152,6.83863712 31.96218,5.39843698 C23.6493448,3.95823685 15.1213038,6.20743031 8.6,11.56 C-0.864978159,23.0885208 -0.0409401668,39.9167358 10.5051039,50.465364 C21.051148,61.0139923 37.8791605,61.8421533 49.41,52.38 C57.1851447,42.9095003 58.1774665,29.5771767 51.89,19.06 Z" id="Shape" fill="#599AD3"/>
            <path d="M39.284,28.56 C38.832746,26.6873353 38.2778925,24.8411622 37.622,23.03 C37.6220159,23.0274292 37.6209317,23.0249744 37.6190209,23.0232546 C37.61711,23.0215348 37.6145549,23.0207143 37.612,23.021 C34.520232,14.8061783 29.1417515,7.64794122 22.112,2.392 C14.2101032,4.95661147 7.77674177,10.769044 4.426,18.371 C12.9603653,22.3882537 18.1650356,31.2208785 17.544,40.633 L40.483,40.633 C40.6224,36.5732406 40.2191713,32.513041 39.284,28.56 Z" id="Shape" fill="#FF6699" fill-rule="nonzero"/>
            <path d="M17.157,4.528 C11.5009736,7.60969103 7.02438748,12.4772884 4.426,18.371 C12.9570082,22.3919358 18.160188,31.222031 17.544,40.633 L35.882,40.633 C36.639,27.525 30.079,12.967 17.157,4.528 Z" id="Shape" fill="#F29077" fill-rule="nonzero"/>
            <path d="M12.943,7.322 C9.26170855,10.271338 6.34109755,14.0602109 4.426,18.371 C12.9577975,22.3910701 18.1613277,31.2217599 17.544,40.633 L31.309,40.633 C31.8595998,26.977528 24.7844583,14.1451181 12.943,7.322 Z" id="Shape" fill="#FDEA8E" fill-rule="nonzero"/>
            <path d="M9.434,10.628 C7.36896447,12.9304199 5.67897476,15.5433573 4.426,18.371 C12.9577975,22.3910701 18.1613277,31.2217599 17.544,40.633 L26.718,40.633 C27.3076231,28.1149455 20.5584157,16.3983308 9.434,10.628 Z" id="Shape" fill="#8DCD9C" fill-rule="nonzero"/>
            <path d="M21.179,31.808 L21.179,31.8 C19.0662976,24.1500152 13.7568521,17.7829084 6.611,14.33 C5.77740915,15.6173713 5.04680389,16.9685731 4.426,18.371 C12.9585872,22.3902041 18.162468,31.2214888 17.544,40.633 L22.126,40.633 C22.2989963,37.6592421 21.9790126,34.6773455 21.179,31.808 Z" id="Shape" fill="#A48DCD" fill-rule="nonzero"/>
            <path d="M41.483,41.633 L16.483,41.633 L16.545,40.575 C17.1430806,31.5703811 12.165128,23.1183771 4,19.275 L3.117,18.857 C4.61282377,15.2127843 6.79198904,11.8883693 9.537,9.063 C13.0628395,5.42942995 17.4548125,2.75219499 22.3,1.283 C29.4945773,6.53587759 35.0443708,13.7291037 38.3,22.021 L38.612,22.021 C38.621,22.958 38.612,22.827 38.645,22.929 C40.6490945,28.3977138 41.617265,34.1918158 41.5,40.015 C41.481,40.528 41.483,40.357 41.483,41.633 Z M18.583,39.633 L39.506,39.633 C39.6765569,25.4920653 33.1618112,12.1004171 21.931,3.506 C14.829841,5.95608477 9.00189095,11.1417651 5.743,17.91 C13.8061356,22.1201882 18.783857,30.5389861 18.587,39.633 L18.583,39.633 Z" id="Shape" fill="#464C63" fill-rule="nonzero"/>
            <path d="M14.73,55.21 C12.2104385,53.5675702 9.94705541,51.562301 8.013,49.259 C-5.814,32.9 1.8,7.809 21.813,1.439 C30.9396469,-1.48039919 40.9115135,0.130026157 48.6552131,5.77393368 C56.3989127,11.4178412 60.9849939,20.4178108 61,30 C61,53.793 34.57,67.99 14.73,55.21 Z M31,2 C16.8946848,1.99647002 4.98894229,12.4857396 3.21524596,26.4790926 C1.44154962,40.4724457 10.3537377,53.6004457 24.0138608,57.1162621 C37.673984,60.6320785 51.8166569,53.4378945 57.019,40.327 C58.309,40.645 58.338,40.691 57.063,40.227 L57.108,40.079 C64.167,22.293 50.986,2 31,2 Z" id="Shape" fill="#464C63" fill-rule="nonzero"/>
            <path d="M59.391,35.9 C58.7299618,39.0967682 57.5269454,42.1569009 55.834,44.948 C52.4457068,46.3554762 48.5528913,44.8077517 47.056,41.458 C43.5343295,42.0988015 39.9795928,40.5172172 38.0977897,37.4722858 C36.2159867,34.4273544 36.391227,30.5406009 38.5394088,27.6773676 C40.6875906,24.8141343 44.3702315,23.5588584 47.8199476,24.5139756 C51.2696637,25.4690928 53.7823061,28.4396466 54.152,32 C56.4509672,32.3170648 58.4277531,33.7886176 59.391,35.9 Z" id="Shape" fill="#D3D5D8" fill-rule="nonzero"/>
            <path d="M59.391,35.9 C59.0765176,37.4549379 58.6237169,38.9786639 58.038,40.453 C58.1192287,37.3511422 56.0780159,34.5924122 53.088,33.763 C53.1766545,30.7701598 51.7201039,27.9420262 49.2321358,26.2762029 C46.7441678,24.6103796 43.5744207,24.3409676 40.841,25.563 C43.3830285,23.9511953 46.5775993,23.7678497 49.287341,25.0782401 C51.9970826,26.3886305 53.8369915,29.0065751 54.152,32 C56.4509672,32.3170648 58.4277531,33.7886176 59.391,35.9 Z" id="Shape" fill="#B5B9BE" fill-rule="nonzero"/>
            <path d="M46.489,42.545 C41.2620861,43.0782204 36.5616352,39.3508574 35.8896904,34.1399608 C35.2177455,28.9290643 38.8188706,24.1312135 44.0100687,23.3210189 C49.2012668,22.5108243 54.093128,25.9831676 55.041,31.151 C57.4821452,31.7304067 59.4932859,33.4529115 60.441,35.776 C59.7560641,39.3070084 58.4294605,42.6824926 56.527,45.735 C52.8610813,47.4518475 48.4912744,46.0631561 46.489,42.545 Z M47.652,40.337 L47.97,41.047 C49.1941921,43.7894792 52.3171699,45.134608 55.151,44.14 C55.8724091,42.9197986 56.4969914,41.6448883 57.019,40.327 C58.309,40.645 58.338,40.691 57.063,40.227 C57.5954436,38.8615359 58.0230158,37.4574676 58.342,36.027 C57.4794317,34.3722329 55.8664065,33.2399452 54.017,32.991 L53.236,32.884 L53.156,32.101 C52.7254654,27.9743182 49.1026472,24.9307935 44.9635573,25.21854 C40.8244674,25.5062865 37.6576304,29.0218231 37.8022454,33.1683819 C37.9468605,37.3149406 41.3509204,40.6013111 45.5,40.6 C46.2238508,40.5781185 46.9441839,40.4900853 47.652,40.337 Z" id="Shape" fill="#464C63" fill-rule="nonzero"/>
            <path d="M51.58,36.757 C51.4245553,34.9503235 50.5425798,33.2840745 49.1359624,32.1396662 C47.7293449,30.9952579 45.9185217,30.470676 44.118,30.686 C43.8544778,28.1848446 42.5477937,25.9109988 40.5194858,24.423992 C38.491178,22.9369851 35.9295695,22.3748818 33.465,22.876 C33.4061523,22.8844141 33.3479976,22.8971145 33.291,22.914 C29.8583215,23.6783964 27.1918094,26.3828618 26.476,29.826 C25.1756269,28.5867106 23.2324928,28.3082469 21.6364071,29.1324551 C20.0403215,29.9566632 19.1423866,31.7022363 19.4,33.48 C17.2617181,32.2846478 14.6415257,32.3515828 12.5670656,33.654553 C10.4926054,34.9575231 9.29463506,37.2887794 9.443,39.734 C7.53104569,39.253832 5.51184729,39.894346 4.2262699,41.3888096 C2.94069251,42.8832732 2.60910297,44.9755133 3.36958681,46.7942477 C4.13007065,48.6129822 5.85226978,49.8464531 7.819,49.981 C8.66939386,52.3989262 10.8247223,54.1198123 13.3709134,54.4138327 C15.9171045,54.7078531 18.4079167,53.5234783 19.787,51.363 C21.2764178,53.6900423 23.7621024,55.1934015 26.5146634,55.4319372 C29.2672244,55.6704729 31.9744716,54.6171309 33.842,52.581 C34.7815465,53.6214517 36.1768999,54.126691 37.5647734,53.9289676 C38.9526469,53.7312443 40.151392,52.8564369 40.763,51.595 C42.6746457,53.4300509 45.4882191,53.9660201 47.9406346,52.9622971 C50.39305,51.9585741 52.0234869,49.6037633 52.1,46.955 C52.6766866,47.0545349 53.2669506,47.0446972 53.84,46.926 C54.132106,46.8651735 54.4197627,46.7846563 54.701,46.685 C56.0130054,44.820062 57.1030352,42.8084738 57.949,40.691 C57.6492388,39.3113656 56.8013875,38.1129197 55.6002276,37.370988 C54.3990677,36.6290563 52.9478605,36.4074212 51.58,36.757 Z" id="Shape" fill="#F9FAFD" fill-rule="nonzero"/>
            <path d="M34.045,22.779 C30.1508262,23.617456 27.2833966,26.9345024 27.017,30.909 C25.5588805,29.8644651 23.5992208,29.8579264 22.1341633,30.8927077 C20.6691059,31.9274891 20.0200795,33.7765628 20.517,35.5 C18.2362059,34.6012335 15.6465027,35.021932 13.7674965,36.59646 C11.8884902,38.170988 11.0211649,40.6471335 11.507,43.05 C9.81867187,42.8594285 8.14372285,43.5056878 7.02094649,44.7808908 C5.89817012,46.0560937 5.46919022,47.7993899 5.872,49.45 C3.48382949,48.2724747 2.36943494,45.4824407 3.28921442,42.983655 C4.2089939,40.4848693 6.86632524,39.0831721 9.448,39.735 C9.30039662,37.2911181 10.4975845,34.9613245 12.5704856,33.6584712 C14.6433867,32.3556179 17.2618814,32.2871905 19.4,33.48 C19.145003,31.7031411 20.0433349,29.9597332 21.6382931,29.1361073 C23.2332513,28.3124813 25.1748499,28.5893676 26.476,29.826 C27.2442862,26.1067513 30.2804195,23.2800066 34.045,22.779 Z" id="Shape" fill="#D3D6D9" fill-rule="nonzero"/>
            <path d="M57.951,40.691 C57.1051423,42.8091082 56.0140379,44.8208214 54.7,46.685 C54.419237,46.7861471 54.1314746,46.8666939 53.839,46.926 C54.2749302,46.4359807 54.6218205,45.8735106 54.864,45.264 C55.5272857,43.54842 55.2349107,41.6100709 54.0951024,40.1664644 C52.9552942,38.7228579 51.1376497,37.9887946 49.315,38.236 C49.370883,36.4235215 48.6881778,34.6660804 47.4234164,33.3666267 C46.158655,32.067173 44.4203269,31.337172 42.607,31.344 C42.6244597,29.2876501 41.9349846,27.2877132 40.654,25.679 C38.382,22.856 35.213,22.531 37.126,22.895 C37.134,22.903 37.088,22.882 37.609,23.021 C37.6115549,23.0207143 37.61411,23.0215348 37.6160209,23.0232546 C37.6179317,23.0249744 37.6190159,23.0274292 37.619,23.03 C38.1064683,23.1536167 38.5794481,23.3285958 39.03,23.552 C41.8556778,24.8774367 43.7838209,27.5825248 44.115,30.686 C47.3061786,30.2997719 50.3198143,32.2414911 51.287,35.307 C51.953,37.438 50.91,36.593 52.853,36.593 C55.3029275,36.5948799 57.4225664,38.2987404 57.951,40.691 Z" id="Shape" fill="#D3D6D9" fill-rule="nonzero"/>
            <path d="M19.771,53.008 C18.0105987,54.8969761 15.4205812,55.777845 12.8735313,55.3538396 C10.3264814,54.9298341 8.16150936,53.2574057 7.108,50.9 C3.88330899,50.3329774 1.65257339,47.3600583 2.00967945,44.1054274 C2.36678551,40.8507966 5.18907956,38.4323082 8.46,38.578 C8.68039934,36.2673179 9.93310761,34.1799558 11.8684901,32.8985027 C13.8038726,31.6170496 16.2146621,31.278741 18.428,31.978 C18.7089513,30.3526823 19.7430824,28.9564673 21.2159175,28.2139392 C22.6887526,27.4714111 24.4262342,27.4703209 25.9,28.211 C26.353937,26.9959772 27.0354464,25.8786819 27.908,24.919 C30.4286221,22.1647004 34.2812806,21.0572517 37.8797457,22.0526168 C41.4782107,23.0479818 44.2141063,25.9778787 44.961,29.636 C48.5294247,29.6560211 51.6144608,32.1300975 52.409,35.609 C55.0277525,35.3978612 57.4901117,36.8781722 58.532,39.29 C58.7403885,39.7634683 58.8946976,40.2589348 58.992,40.767 C58.1035597,43.0673011 56.9368839,45.2502006 55.518,47.267 C55.336,47.523 55.462,47.43 54.926,47.667 C54.3057991,47.8824898 53.6562919,48.0018697 53,48.021 C52.5700214,50.6332846 50.8281878,52.8414919 48.3878702,53.8680214 C45.9475526,54.8945509 43.1510026,54.5954332 40.983,53.076 C39.223678,55.2151774 36.0963789,55.5999337 33.871,53.951 C31.8868994,55.7194858 29.2750325,56.615901 26.623101,56.4385413 C23.9711695,56.2611816 21.5019331,55.0249451 19.771,53.008 Z M19.784,49.514 L20.627,50.821 C21.9487081,52.8859418 24.1542324,54.2202048 26.5967387,54.4324774 C29.0392451,54.6447501 31.4418797,53.7109717 33.1,51.905 L33.841,51.099 L34.577,51.909 C35.2938036,52.7042644 36.3594551,53.0905285 37.4193467,52.9392587 C38.4792383,52.7879889 39.394287,52.1190354 39.86,51.155 L40.466,49.92 L41.454,50.877 C43.0807182,52.4392716 45.4756344,52.8954389 47.5627561,52.0405542 C49.6498778,51.1856695 51.0366417,49.1805267 51.1,46.926 L51.134,45.786 C52.0902905,46.0680488 53.1049878,46.0867051 54.071,45.84 C55.1920502,44.204325 56.1401391,42.4566107 56.9,40.625 C56.3735389,38.8293605 54.7272238,37.5950312 52.856,37.593 C52.1150146,37.6443196 51.3821107,37.7784897 50.671,37.993 C50.6677934,37.1851879 50.5551008,36.3815381 50.336,35.604 C49.5329933,33.0605039 47.0673561,31.4192427 44.411,31.66 L43.344,31.746 L43.1,30.616 C42.7024559,27.5690796 40.5848348,25.023963 37.661,24.079 C37.497,24.066 37.574,24.088 37.32,23.979 C37.1397955,23.9101122 36.9457863,23.8850898 36.754,23.906 C36.654,23.813 36.718,23.827 36.374,23.78 C35.5156169,23.6445242 34.6399794,23.6628089 33.788,23.834 L33.778,23.844 C32.9573936,23.980745 32.1662822,24.2570759 31.439,24.661 C30.811177,25.0042029 30.2328891,25.4311065 29.72,25.93 C27.778,27.936 27.62,29.212 27.105,31.769 C25.848,30.608 25.434,30.144 24.746,29.881 C23.6805257,29.4612439 22.4721556,29.640511 21.5744347,30.3515159 C20.6767139,31.0625207 20.2254428,32.1977076 20.39,33.331 L20.7,35.376 L18.9,34.349 C17.134218,33.3629755 14.9781682,33.3864549 13.2342781,34.4106998 C11.4903881,35.4349447 10.4198152,37.3065686 10.421,39.329 C10.421,39.481 10.434,39.611 10.536,41.029 C9.62311895,40.7082172 8.65788147,40.5626682 7.691,40.6 C5.8917284,40.8007196 4.42355919,42.1318125 4.0480053,43.9028647 C3.67245141,45.6739169 4.47403939,47.4863147 6.037,48.4 C6.80033844,48.8357163 7.66834297,49.0542736 8.547,49.032 C8.84137174,50.2044248 9.48557845,51.2595008 10.394,52.057 C11.6448417,53.1476364 13.3088929,53.6389787 14.9515322,53.4026969 C16.5941714,53.166415 18.0522708,52.2259737 18.945,50.827 L19.784,49.514 Z M33.23,21.9 L33.209,21.9 L33.23,21.9 Z" id="Shape" fill="#464C63" fill-rule="nonzero"/>
        </g>
    </g>
</svg>
