<?xml version="1.0" encoding="UTF-8"?>
<svg xmlns="http://www.w3.org/2000/svg" xmlns:xlink="http://www.w3.org/1999/xlink" width="61px" height="60px" viewBox="0 0 61 60" version="1.1">
    <!-- Generator: Sketch 51.1 (57501) - http://www.bohemiancoding.com/sketch -->
    <title>18 - Hot Air Balloon</title>
    <desc>Created with Sketch.</desc>
    <defs/>
    <g id="Page-1" stroke="none" stroke-width="1" fill="none" fill-rule="evenodd">
        <g id="18---Hot-Air-Balloon">
            <path d="M30,0.97 C13.9837423,0.97 1,13.9537423 1,29.97 C1,45.9862577 13.9837423,58.97 30,58.97 C46.0162577,58.97 59,45.9862577 59,29.97 C58.9933778,13.9564861 46.0135139,0.976622172 30,0.97 Z" id="Shape" fill="#7AAEDC"/>
            <path d="M50.89,19.06 C46.5493906,11.825602 39.2750152,6.83863712 30.96218,5.39843698 C22.6493448,3.95823685 14.1213038,6.20743031 7.6,11.56 C-1.86497816,23.0885208 -1.04094017,39.9167358 9.50510391,50.465364 C20.051148,61.0139923 36.8791605,61.8421533 48.41,52.38 C56.1851447,42.9095003 57.1774665,29.5771767 50.89,19.06 Z" id="Shape" fill="#599AD3"/>
            <rect id="Rectangle-path" fill="#464C63" fill-rule="nonzero" transform="translate(26.787674, 44.497732) rotate(-7.125000) translate(-26.787674, -44.497732) " x="26.2876738" y="40.6007322" width="1" height="7.794"/>
            <rect id="Rectangle-path" fill="#464C63" fill-rule="nonzero" transform="translate(33.555103, 44.501625) rotate(-82.875000) translate(-33.555103, -44.501625) " x="29.6581032" y="44.0016251" width="7.794" height="1"/>
            <rect id="Rectangle-path" fill="#464C63" fill-rule="nonzero" x="29.671" y="40.633" width="1" height="7.733"/>
            <path d="M33.9,45.467 L26.413,45.467 C26.137264,45.4685329 25.8752399,45.5874657 25.6925581,45.7940088 C25.5098762,46.0005519 25.4238403,46.2751415 25.456,46.549 L25.969,50.658 C26.1646043,52.1820838 27.5082668,53.2935677 29.042,53.2 L31.41,53.2 C32.8915201,53.2225134 34.1532406,52.127874 34.34,50.658 L34.852,46.549 C34.8843967,46.2759339 34.7991285,46.0019757 34.6174855,45.7955285 C34.4358424,45.5890812 34.1749686,45.4696301 33.9,45.467 Z" id="Shape" fill="#E5956C" fill-rule="nonzero"/>
            <path d="M34.021,48.367 L26.366,48.367 C25.9958567,48.3387796 25.6419613,48.5238471 25.4539674,48.8439421 C25.2659735,49.164037 25.276713,49.563257 25.4816444,49.8727818 C25.6865758,50.1823066 26.0499093,50.3480798 26.418,50.3 L33.969,50.3 C34.318194,50.3155595 34.648604,50.1414612 34.8331993,49.8446394 C35.0177946,49.5478177 35.0278378,49.1744812 34.8594676,48.8681643 C34.6910975,48.5618474 34.3705255,48.3702369 34.021,48.367 Z" id="Shape" fill="#EAAA89" fill-rule="nonzero"/>
            <path d="M23.533,37.907 C25.3,41.262 24.063,41.426 26.561,41.426 L34.7,41.426 C35.1319301,41.4232666 35.5101263,41.1355441 35.628,40.72 C35.9191459,39.7472383 36.3042955,38.8051288 36.778,37.907 L23.533,37.907 Z" id="Shape" fill="#BF4D73" fill-rule="nonzero"/>
            <path d="M34.7,42.426 L25.711,42.426 C24.8042948,42.4582851 23.9894438,41.8761901 23.726,41.008 C22.966,38.447 22.19,38.198 22.677,37.391 C22.8578206,37.0908277 23.1825725,36.9072063 23.533,36.907 L36.776,36.907 C37.1266712,36.9067395 37.4518565,37.0901815 37.6329973,37.3904454 C37.814138,37.6907093 37.8247636,38.0639164 37.661,38.374 C37.2175326,39.214696 36.8568365,40.0965093 36.584,41.007 C36.341257,41.8462117 35.5736119,42.4243902 34.7,42.426 Z M25.1,38.907 C25.3066667,39.411 25.4866667,39.9206667 25.64,40.436 C27.552,40.422 25.981,40.426 34.695,40.426 C34.8363615,39.9101356 35.0076516,39.4029432 35.208,38.907 L25.1,38.907 Z" id="Shape" fill="#464C63" fill-rule="nonzero"/>
            <path d="M31.459,54.2 L28.914,54.2 C26.9263763,54.220534 25.236361,52.7537363 24.977,50.783 L24.464,46.673 C24.3962906,46.1145784 24.5706511,45.5538603 24.9430926,45.1323078 C25.3155341,44.7107552 25.8504908,44.4686237 26.413,44.467 L33.9,44.467 C34.4613983,44.4688598 34.9953354,44.7101504 35.3677172,45.1302734 C35.740099,45.5503964 35.9155474,46.1094383 35.85,46.667 L35.336,50.782 C35.0866324,52.7339425 33.426805,54.1972622 31.459,54.2 Z M26.479,46.467 L26.961,50.534 C27.0830276,51.4848674 27.8913371,52.1977545 28.85,52.2 L31.36,52.2 C32.3522216,52.2356726 33.2107577,51.5153314 33.348,50.532 L33.855,46.467 L26.479,46.467 Z" id="Shape" fill="#464C63" fill-rule="nonzero"/>
            <circle id="Oval" fill="#FDEA8E" fill-rule="nonzero" cx="44.017" cy="43.05" r="7.25"/>
            <path d="M44.017,51.3 C39.4606508,51.3 35.767,47.6063492 35.767,43.05 C35.767,38.4936508 39.4606508,34.8 44.017,34.8 C48.5733492,34.8 52.267,38.4936508 52.267,43.05 C52.2620398,47.604293 48.571293,51.2950398 44.017,51.3 Z M44.017,36.8 C40.5652203,36.8 37.767,39.5982203 37.767,43.05 C37.767,46.5017797 40.5652203,49.3 44.017,49.3 C47.4687797,49.3 50.267,46.5017797 50.267,43.05 C50.2631423,39.5998195 47.4671805,36.8038577 44.017,36.8 Z" id="Shape" fill="#464C63" fill-rule="nonzero"/>
            <path d="M24.877,58.517 C17.3648639,57.1668414 10.6866634,52.9125378 6.288,46.675 C7.4511468,43.6980679 10.4194923,41.8275254 13.6069111,42.0628906 C16.7943299,42.2982558 19.4557295,44.5845096 20.169,47.7 C21.0317918,47.5797844 21.9105859,47.6556663 22.74,47.922 C22.74,47.922 22.74,47.912 22.75,47.922 C23.3762974,48.1275296 23.9689697,48.4240342 24.509,48.802 C26.0556953,49.9086464 27.003164,51.6688045 27.0751527,53.5692651 C27.1471413,55.4697256 26.3355447,57.2965164 24.877,58.517 Z" id="Shape" fill="#F9FAFD" fill-rule="nonzero"/>
            <path d="M24.89,59.52 C24.1341484,59.4088229 23.3852625,59.2545718 22.647,59.058 C22.1123884,58.918272 21.792272,58.3716116 21.932,57.837 C22.0717281,57.3023884 22.6183884,56.982272 23.153,57.122 C23.983,57.34 24.399,57.405 24.581,57.446 C25.7285192,56.2928496 26.2642403,54.6656103 26.0261811,53.0562987 C25.7881219,51.446987 24.8042309,50.044538 23.372,49.273 C22.4609804,48.7600135 21.4097622,48.5518723 20.372,48.679 C19.8424395,48.7902953 19.3204191,48.4601551 19.194,47.934 C18.5865441,45.269834 16.3253502,43.3047325 13.6025093,43.0746879 C10.8796684,42.8446434 8.32082918,44.402515 7.275,46.927 C7.14773578,47.2686603 6.84461129,47.5139814 6.48392673,47.567222 C6.12324217,47.6204626 5.76216608,47.4731842 5.54161537,47.1828649 C5.32106466,46.8925455 5.27599665,46.505201 5.424,46.172 C6.73668369,42.9879466 9.88385197,40.9494716 13.3263081,41.0535391 C16.7687643,41.1576067 19.7870494,43.3824671 20.905,46.64 C21.8898243,46.637581 22.8641815,46.8419916 23.765,47.24 C26.0373636,48.2263321 27.6385743,50.3170356 27.9986746,52.7679161 C28.3587749,55.2187966 27.4266146,57.6817205 25.534,59.28 C25.3544288,59.4335709 25.1262792,59.5185956 24.89,59.52 Z" id="Shape" fill="#464C63" fill-rule="nonzero"/>
            <path d="M57.386,39.512 C54.3874946,48.0935932 47.5436786,54.776056 38.893,57.569 C36.7899588,55.9103402 36.0425829,53.057745 37.0621455,50.5809675 C38.0817081,48.10419 40.6207242,46.6044342 43.282,46.907 C43.0021902,43.4483531 44.8155588,40.157054 47.888703,38.545745 C50.9618473,36.934436 54.7003345,37.3147897 57.386,39.512 Z" id="Shape" fill="#F9FAFD" fill-rule="nonzero"/>
            <path d="M38.893,58.569 C38.6692984,58.5690105 38.4520532,58.4940134 38.276,58.356 C35.9913552,56.5482007 35.0652732,53.5143606 35.950858,50.7388463 C36.8364427,47.9633321 39.3485176,46.0265064 42.258,45.876 C42.3961367,42.2144047 44.5921942,38.945491 47.9298062,37.4333043 C51.2674181,35.9211177 55.1730624,36.4255063 58.017,38.736 C58.445573,39.0844917 58.5104917,39.714427 58.162,40.143 C57.8135083,40.5715729 57.183573,40.6364917 56.755,40.288 C54.3736529,38.3425019 51.0594704,38.0103244 48.3393806,39.4445099 C45.6192908,40.8786955 44.0210467,43.8009828 44.281,46.865 C44.2919709,47.1508929 44.1799617,47.427793 43.973307,47.625654 C43.7666522,47.8235149 43.4851461,47.9233848 43.2,47.9 C40.9831293,47.6451596 38.8657444,48.8901682 38.010652,50.9513029 C37.1555596,53.0124377 37.7697796,55.3906931 39.516,56.78 C39.8542613,57.0433705 39.987017,57.4930511 39.8460306,57.8979061 C39.7050442,58.3027611 39.3216851,58.5727104 38.893,58.569 Z" id="Shape" fill="#464C63" fill-rule="nonzero"/>
            <path d="M30.154,60 C13.5854575,60 0.154,46.5685425 0.154,30 C0.154,13.4314575 13.5854575,3.04359188e-15 30.154,0 C46.7225425,-3.04359188e-15 60.154,13.4314575 60.154,30 C60.135263,46.5607751 46.7147751,59.981263 30.154,60 Z M30.154,2 C14.690027,2 2.154,14.536027 2.154,30 C2.154,45.463973 14.690027,58 30.154,58 C45.617973,58 58.154,45.463973 58.154,30 C58.1363655,14.5433374 45.6106626,2.01763454 30.154,2 Z" id="Shape" fill="#464C63" fill-rule="nonzero"/>
            <path d="M49.488,15.935 C49.488,22.363 45.031,29.343 39.947,33.867 C38.661485,35.0174995 37.5881606,36.3849642 36.776,37.907 L23.533,37.907 C22.7230227,36.3835417 21.6494154,35.0157166 20.362,33.867 C5.258,20.428 7.483,0.271 31.092,1.01 L31.15,1.01 C41.368,1.271 49.488,5.6 49.488,15.935 Z" id="Shape" fill="#BF4D73" fill-rule="nonzero"/>
            <path d="M49.488,15.935 C49.488,22.363 45.031,29.343 39.947,33.867 C38.661485,35.0174995 37.5881606,36.3849642 36.776,37.907 L25.466,37.907 C24.6563429,36.3833333 23.5826939,35.0154551 22.295,33.867 C8.333,21.444 8.631,2.156 30.135,1.048 C30.193,1.048 30.854,1.01 31.15,1.01 C41.368,1.271 49.488,5.6 49.488,15.935 Z" id="Shape" fill="#BF4D73" fill-rule="nonzero"/>
            <path d="M47.554,15.935 C47.554,22.363 43.098,29.343 38.013,33.867 C36.7280704,35.0177966 35.6551221,36.3852133 34.843,37.907 L25.466,37.907 C24.6563429,36.3833333 23.5826939,35.0154551 22.295,33.867 C8.333,21.444 8.631,2.156 30.135,1.048 L30.174,1.048 C39.937,1.551 47.554,5.92 47.554,15.935 Z" id="Shape" fill="#FF6699" fill-rule="nonzero"/>
            <path d="M30.154,1 C20.139,1 15.145,7.5 15.7,17.008 C15.7,17.03 15.709,17.264 15.711,17.283 C15.7104316,17.2933255 15.7104316,17.3036745 15.711,17.314 C15.7104316,17.3243255 15.7104316,17.3346745 15.711,17.345 C15.8272533,18.8859436 16.0952172,20.4116631 16.511,21.9 C17.1441313,24.1554668 18.0216659,26.335052 19.128,28.4 C21.645,33.1 23.833,34.364 25.184,37.911 L35.121,37.911 C35.6939996,36.4465494 36.4967341,35.0827785 37.499,33.871 C41.199,29.478 44.241,23.118 44.609,17.012 C45.185,7.405 40.062,1 30.154,1 Z" id="Shape" fill="#F9FAFD" fill-rule="nonzero"/>
            <path d="M29.913,1 C24.163,1 23.146,10.208 23.146,15.935 C23.160586,18.3832027 23.3571275,20.8269349 23.734,23.246 C24.968,31.317 26.695,33.191 27.593,37.907 L32.233,37.907 C32.5175535,36.4308181 32.9253137,34.9810786 33.452,33.573 C35.5201075,27.9192058 36.6113404,21.9547907 36.679,15.935 C36.679,10.208 35.662,1 29.913,1 Z" id="Shape" fill="#FF6699" fill-rule="nonzero"/>
            <path d="M36.776,38.907 L23.533,38.907 C23.1611702,38.9072563 22.8199008,38.701185 22.647,38.372 C21.8929432,36.9560131 20.8953696,35.6839122 19.7,34.614 C15.144,30.561 9.823,23.236 9.823,15.935 C9.821,5.808 17.232,0 30.154,0 C41.433,0 50.487,4.683 50.487,15.935 C50.487,23.235 45.168,30.56 40.612,34.614 C39.4130064,35.6859977 38.412658,36.9612303 37.657,38.381 C37.4825237,38.7051156 37.1440935,38.9071749 36.776,38.907 Z M24.122,36.907 L36.191,36.907 C37.0153402,35.4890963 38.0589193,34.2106107 39.283,33.119 C43.528,29.341 48.483,22.573 48.483,15.935 C48.483,4.204 37.605,2.175 31.121,2.009 C20.628,1.741 11.821,5.409 11.821,15.935 C11.821,22.574 16.78,29.341 21.027,33.12 C22.2497667,34.2132803 23.2940484,35.4910493 24.122,36.907 Z" id="Shape" fill="#464C63" fill-rule="nonzero"/>
        </g>
    </g>
</svg>
