<?xml version="1.0" encoding="UTF-8"?>
<svg xmlns="http://www.w3.org/2000/svg" xmlns:xlink="http://www.w3.org/1999/xlink" width="61px" height="60px" viewBox="0 0 61 60" version="1.1">
    <!-- Generator: Sketch 51.1 (57501) - http://www.bohemiancoding.com/sketch -->
    <title>19 - Raining and Sunny</title>
    <desc>Created with Sketch.</desc>
    <defs/>
    <g id="Page-1" stroke="none" stroke-width="1" fill="none" fill-rule="evenodd">
        <g id="19---Raining-and-Sunny">
            <path d="M31,0.97 C14.9837423,0.97 2,13.9537423 2,29.97 C2,45.9862577 14.9837423,58.97 31,58.97 C47.0162577,58.97 60,45.9862577 60,29.97 C59.9933778,13.9564861 47.0135139,0.976622172 31,0.97 Z" id="Shape" fill="#A8BFE5"/>
            <path d="M51.89,19.06 C47.5493906,11.825602 40.2750152,6.83863712 31.96218,5.39843698 C23.6493448,3.95823685 15.1213038,6.20743031 8.6,11.56 C-0.864978159,23.0885208 -0.0409401668,39.9167358 10.5051039,50.465364 C21.051148,61.0139923 37.8791605,61.8421533 49.41,52.38 C57.1851447,42.9095003 58.1774665,29.5771767 51.89,19.06 Z" id="Shape" fill="#8DA5CD"/>
            <path d="M31,60 C14.4314575,60 1,46.5685425 1,30 C1,13.4314575 14.4314575,3.04359188e-15 31,0 C47.5685425,-3.04359188e-15 61,13.4314575 61,30 C61.0167723,37.9616246 57.8614534,45.6019909 52.2317221,51.2317221 C46.6019909,56.8614534 38.9616246,60.0167723 31,60 Z M31,2 C15.536027,2 3,14.536027 3,30 C3,45.463973 15.536027,58 31,58 C46.463973,58 59,45.463973 59,30 C58.9807162,14.5440217 46.4559783,2.01928384 31,2 Z" id="Shape" fill="#464C63" fill-rule="nonzero"/>
            <path d="M16.837,36.461 L16.83,36.454" id="Shape"/>
            <path d="M37.879,6.028 C35.628,6.96 32.904,3.228 31.626,1.204 C31.5829218,1.10099891 31.4645011,1.05242181 31.3615,1.09550002 C31.2584989,1.13857823 31.2099218,1.2569989 31.253,1.36 C31.783,3.697 32.493,8.26 30.243,9.191 L37.879,6.028 Z" id="Shape" fill="#FDEA8E" fill-rule="nonzero"/>
            <path d="M41.629,36.679 C43.88,35.747 46.604,39.479 47.882,41.503 C47.9098667,41.5694514 47.971068,41.6159883 48.04255,41.6250807 C48.1140319,41.6341731 48.1849347,41.6044397 48.22855,41.5470807 C48.2721652,41.4897217 48.2818667,41.4134514 48.254,41.347 C47.724,39.01 47.014,34.447 49.265,33.516 L41.629,36.679 Z" id="Shape" fill="#FFA600" fill-rule="nonzero"/>
            <path d="M42.233,6.477 C40.682,6.477 40.041,3.444 39.833,2.122 C39.8267163,2.08213379 39.7923584,2.05276715 39.752,2.05276715 C39.7116416,2.05276715 39.6772837,2.08213379 39.671,2.122 C39.465,3.444 38.823,6.477 37.271,6.477 L42.233,6.477 Z" id="Shape" fill="#FEF2BB" fill-rule="nonzero"/>
            <path d="M42.233,36.23 C40.682,36.23 40.041,39.263 39.833,40.585 C39.8267163,40.6248662 39.7923584,40.6542329 39.752,40.6542329 C39.7116416,40.6542329 39.6772837,40.6248662 39.671,40.585 C39.465,39.263 38.823,36.23 37.271,36.23 L42.233,36.23 Z" id="Shape" fill="#E8C73F" fill-rule="nonzero"/>
            <path d="M30.988,9.081 C29.888,10.181 27.293,8.487 26.212,7.698 C26.1797963,7.67156968 26.1327956,7.67387805 26.1033368,7.70333684 C26.073878,7.73279563 26.0715697,7.7797963 26.098,7.812 C26.887,8.893 28.578,11.491 27.481,12.588 L30.988,9.081 Z" id="Shape" fill="#FEF2BB" fill-rule="nonzero"/>
            <path d="M52.026,30.12 C50.926,31.22 52.62,33.815 53.41,34.895 C53.435142,34.927646 53.4321527,34.9738796 53.4030162,35.0030162 C53.3738796,35.0321527 53.327646,35.035142 53.295,35.01 C52.215,34.22 49.617,32.529 48.52,33.626 L52.026,30.12 Z" id="Shape" fill="#FEF2BB" fill-rule="nonzero"/>
            <path d="M54.63,23.833 C54.63,22.282 57.663,21.641 58.985,21.433 C59.0248662,21.4267163 59.0542329,21.3923584 59.0542329,21.352 C59.0542329,21.3116416 59.0248662,21.2772837 58.985,21.271 C57.663,21.065 54.63,20.423 54.63,18.871 L54.63,23.833 Z" id="Shape" fill="#FEF2BB" fill-rule="nonzero"/>
            <path d="M52.026,12.588 C50.926,11.488 52.62,8.893 53.41,7.812 C53.4273572,7.78029175 53.4219036,7.74095788 53.3965743,7.71516808 C53.3712451,7.68937828 53.3320158,7.68321689 53.3,7.7 C52.22,8.489 49.622,10.18 48.525,9.083 L52.026,12.588 Z" id="Shape" fill="#FEF2BB" fill-rule="nonzero"/>
            <path d="M30.988,33.626 C29.888,32.526 27.293,34.22 26.212,35.01 C26.1802917,35.0273572 26.1409579,35.0219036 26.1151681,34.9965743 C26.0893783,34.9712451 26.0832169,34.9320158 26.1,34.9 C26.889,33.82 28.58,31.222 27.483,30.125 L30.988,33.626 Z" id="Shape" fill="#E8C73F" fill-rule="nonzero"/>
            <path d="M55.079,19.479 C54.147,17.228 57.879,14.504 59.903,13.226 C60.0060011,13.1829218 60.0545782,13.0645011 60.0115,12.9615 C59.9684218,12.8584989 59.8500011,12.8099218 59.747,12.853 C57.41,13.383 52.847,14.093 51.916,11.843 L55.079,19.479 Z" id="Shape" fill="#FDEA8E" fill-rule="nonzero"/>
            <path d="M24.428,23.229 C25.36,25.48 21.628,28.204 19.604,29.482 C19.5375486,29.5098667 19.4910117,29.571068 19.4819193,29.64255 C19.4728269,29.7140319 19.5025603,29.7849347 19.5599193,29.82855 C19.6172783,29.8721652 19.6935486,29.8818667 19.76,29.854 C22.097,29.324 26.66,28.614 27.591,30.865 L24.428,23.229 Z" id="Shape" fill="#FFA600" fill-rule="nonzero"/>
            <path d="M27.591,11.843 C26.659,14.093 22.097,13.383 19.76,12.853 C19.6569989,12.8099218 19.5385782,12.8584989 19.4955,12.9615 C19.4524218,13.0645011 19.5009989,13.1829218 19.604,13.226 C21.631,14.504 25.36,17.226 24.428,19.479 L27.591,11.843 Z" id="Shape" fill="#FDEA8E" fill-rule="nonzero"/>
            <path d="M51.916,30.865 C52.849,28.614 57.41,29.324 59.747,29.854 C59.849725,29.8970782 59.9679218,29.8487249 60.011,29.746 C60.0540782,29.643275 60.0057249,29.5250782 59.903,29.482 C57.876,28.204 54.147,25.482 55.079,23.229 L51.916,30.865 Z" id="Shape" fill="#FDEA8E" fill-rule="nonzero"/>
            <path d="M49.265,9.191 C47.014,8.259 47.724,3.7 48.254,1.36 C48.2970782,1.25727504 48.248725,1.13907821 48.146,1.096 C48.043275,1.05292179 47.9250782,1.10127504 47.882,1.204 C46.604,3.231 43.882,6.96 41.629,6.028 L49.265,9.191 Z" id="Shape" fill="#FDEA8E" fill-rule="nonzero"/>
            <path d="M30.243,33.516 C32.493,34.449 31.783,39.01 31.253,41.347 C31.2099218,41.4500011 31.2584989,41.5684218 31.3615,41.6115 C31.4645011,41.6545782 31.5829218,41.6060011 31.626,41.503 C32.904,39.476 35.626,35.747 37.879,36.679 L30.243,33.516 Z" id="Shape" fill="#FFA600" fill-rule="nonzero"/>
            <path d="M46.349,35.6 C39.8083625,38.630567 32.0426024,36.7735194 27.5805627,31.111852 C23.118523,25.4501847 23.1278569,17.4654763 27.603121,11.8142563 C32.0783851,6.16303634 39.8484656,4.32414972 46.382,7.37 C58.309,12.928 58.34,30.054 46.349,35.6 Z" id="Shape" fill="#FDEA8E" fill-rule="nonzero"/>
            <path d="M39.8,38.052 C31.4847389,38.0554928 24.454989,31.8948792 23.3673743,23.6510528 C22.2797597,15.4072263 27.4712407,7.63425592 35.5028934,5.48108732 C43.5345461,3.32791872 51.9180364,7.46163787 55.1,15.144 C57.21803,20.2550466 56.644788,26.0860746 53.5720025,30.6868178 C50.499217,35.2875609 45.3325262,38.0506754 39.8,38.052 Z M26.35,15.905 C24.8679337,19.473179 24.8656273,23.4842605 26.3435892,27.0541415 C27.8215511,30.6240225 30.6584534,33.4596468 34.229,34.936 C46.146,39.865 58.235,27.922 53.26,15.91 C48.285,3.898 31.291,3.985 26.35,15.905 Z" id="Shape" fill="#464C63" fill-rule="nonzero"/>
            <ellipse id="Oval" fill="#FEF2BB" fill-rule="nonzero" transform="translate(35.415356, 12.783197) rotate(-39.333000) translate(-35.415356, -12.783197) " cx="35.4153555" cy="12.7831966" rx="4.745" ry="3.728"/>
            <path d="M45.167,24.232 C45.167,24.232 45.181,24.567 45.167,25.132" id="Shape"/>
            <path d="M12.371,57.3 C11.4798885,58.8831242 9.47412425,59.4441114 7.89100003,58.5529999 C6.30787582,57.6618885 5.7468886,55.6561242 6.638,54.073 C7.529,52.49 12.481,49.057 13.054,49.38 C13.627,49.703 13.258,55.722 12.371,57.3 Z" id="Shape" fill="#D3D6D9" fill-rule="nonzero"/>
            <ellipse id="Oval" fill="#F9FAFD" fill-rule="nonzero" transform="translate(7.877030, 55.553814) rotate(-84.270000) translate(-7.877030, -55.553814) " cx="7.87703035" cy="55.5538144" rx="1.696" ry="1.102"/>
            <path d="M24.589,57.323 C23.6815577,58.8688833 21.7033416,59.4034403 20.1407948,58.5250018 C18.5782479,57.6465632 18.006871,55.6786662 18.856,54.1 C19.747,52.518 24.699,49.085 25.273,49.407 C25.847,49.729 25.477,55.746 24.589,57.323 Z" id="Shape" fill="#D3D6D9" fill-rule="nonzero"/>
            <ellipse id="Oval" fill="#F9FAFD" fill-rule="nonzero" transform="translate(20.095865, 55.577264) rotate(-84.270000) translate(-20.095865, -55.577264) " cx="20.0958645" cy="55.5772636" rx="1.696" ry="1.102"/>
            <path d="M36.808,57.323 C36.2444488,58.3707315 35.1590288,59.0324637 33.9695375,59.053484 C32.7800462,59.0745042 31.6719234,58.4515355 31.0717055,57.4243696 C30.4714875,56.3972037 30.4727473,55.1259742 31.075,54.1 C31.966,52.518 36.918,49.085 37.491,49.407 C38.064,49.729 37.7,55.746 36.808,57.323 Z" id="Shape" fill="#D3D6D9" fill-rule="nonzero"/>
            <ellipse id="Oval" fill="#F9FAFD" fill-rule="nonzero" transform="translate(32.313719, 55.577312) rotate(-84.270000) translate(-32.313719, -55.577312) " cx="32.3137187" cy="55.5773117" rx="1.696" ry="1.102"/>
            <path d="M51.312,40.875 C51.3306602,42.5882027 50.6674613,44.2385431 49.4685098,45.4624414 C48.2695584,46.6863398 46.6332237,47.38338 44.92,47.4 L9.762,47.4 C6.77472901,47.3489396 4.07140351,45.6182518 2.77463265,42.9266388 C1.4778618,40.2350258 1.80917634,37.0423029 3.63099138,34.6743111 C5.45280642,32.3063193 8.45389656,31.1675889 11.388,31.731 C13.697,20.16 29.03,17.331 34.988,27.831 C39.2219377,27.6995733 43.0415866,30.3586991 44.388,34.375 C46.1889003,34.2382133 47.9644228,34.8642984 49.2812003,36.1004414 C50.5979779,37.3365843 51.3348638,39.0690571 51.312,40.875 Z" id="Shape" fill="#F9FAFD" fill-rule="nonzero"/>
            <path d="M35.331,28.785 L34.984,27.834 C34.448827,26.8874532 33.7985499,26.0107884 33.048,25.224 C32.93,28.981 30.592,39.943 17.524,39.943 C2.484,39.943 2.073,39.123 2.009,39.02 C1.86835899,41.1740821 2.61892498,43.2913373 4.08490436,44.8758733 C5.55088373,46.4604092 7.60349992,47.3730349 9.762,47.4 L44.655,47.4 C48.2139197,47.4212588 51.1535641,44.6264548 51.312,41.071 C51.3878257,39.2318518 50.6737726,37.448021 49.3498426,36.1691837 C48.0259126,34.8903464 46.2184179,34.2385128 44.383,34.378 C44.361,34.378 44.175,35.015 44.145,35.084 C43.4,36.823 41.645,37.677 39.986,38.249 C39.1804123,38.4524455 38.3865592,38.6998152 37.608,38.99 C37.5969408,37.4462469 36.6705917,36.0563303 35.25,35.452 C34.95,35.33 34.245,34.993 33.962,35.282 C35.6334,33.5617311 36.1661451,31.0334296 35.331,28.785 Z" id="Shape" fill="#D3D6D9" fill-rule="nonzero"/>
            <path d="M44.92,48.4 L9.762,48.4 C6.49537433,48.365674 3.50902235,46.5478146 1.97824912,43.6618563 C0.447475887,40.7758981 0.61736746,37.2839004 2.42106151,34.5601697 C4.22475557,31.8364389 7.37346978,30.3170608 10.628,30.6 C13.775,19.005 29.1,16.467 35.549,26.828 C39.7283939,26.9377929 43.4533365,29.4926211 45.061,33.352 C49.1373256,33.4988296 52.3549404,36.8658567 52.316722,40.9446468 C52.2785037,45.0234369 48.9983613,48.3295799 44.92,48.4 Z M9.762,32.554 C6.00335112,32.6443537 3.00342115,35.7172653 3.00342115,39.477 C3.00342115,43.2367347 6.00335112,46.3096463 9.762,46.4 L44.92,46.4 C46.9129398,46.3546676 48.726547,45.2381347 49.6644646,43.4791081 C50.6023822,41.7200815 50.5188249,39.5919755 49.4458756,37.911903 C48.3729262,36.2318304 46.4773588,35.2609334 44.487,35.372 C44.0215104,35.4214872 43.5839816,35.1414355 43.434,34.698 C42.2623313,31.2135741 39.0100175,28.8554458 35.334,28.825 C34.986,28.825 34.459,28.93 34.117,28.325 C32.0637538,24.6126536 28.1593187,22.3052091 23.917,22.297 C18.2697405,22.3550152 13.4429114,26.3784874 12.369,31.923 C12.3162784,32.1884043 12.1582522,32.4211142 11.931,32.568 C11.367,32.932 11.147,32.554 9.762,32.554 Z" id="Shape" fill="#464C63" fill-rule="nonzero"/>
            <path d="M9.5,59.975 C7.97806214,59.9701305 6.57246465,59.159822 5.80557477,57.8452124 C5.03868489,56.5306028 5.02514995,54.9082215 5.77,53.581 C6.77565253,52.2588591 7.99712122,51.115824 9.383,50.2 C12.541,47.944 13.147,48.286 13.544,48.51 C14.0706829,48.9147204 14.3542715,49.560337 14.296,50.222 C14.435,51.922 14.134,56.209 13.242,57.793 C12.4757802,59.1383226 11.0482144,59.9707514 9.5,59.975 Z M12.323,50.675 C10.869,51.484 8.072,53.575 7.512,54.567 C6.96653604,55.659605 7.37440432,56.988002 8.43902435,57.5862501 C9.50364438,58.1844982 10.8503996,57.842087 11.5,56.808 C11.73,56.808 12.436,53.3 12.32,50.67 L12.323,50.675 Z" id="Shape" fill="#464C63" fill-rule="nonzero"/>
            <path d="M21.716,60 C20.1923081,59.9960694 18.7848105,59.1849734 18.0174218,57.8686273 C17.2500332,56.5522811 17.237695,54.9278508 17.985,53.6 C18.9917354,52.2789676 20.2138385,51.1369858 21.6,50.222 C24.758,47.965 25.363,48.307 25.761,48.532 C26.2827372,48.9401358 26.5651263,49.582646 26.513,50.243 C26.651,51.943 26.351,56.229 25.458,57.813 C24.696146,59.1632916 23.2663895,59.9989082 21.716,60 Z M24.539,50.7 C23.085,51.508 20.288,53.6 19.728,54.591 C19.1075081,55.6925319 19.4974681,57.088508 20.599,57.7089999 C21.7005319,58.3294918 23.0965081,57.9395319 23.717,56.838 C23.988,56.7 24.652,53.256 24.539,50.7 Z" id="Shape" fill="#464C63" fill-rule="nonzero"/>
            <path d="M33.935,60 C32.4113081,59.9960694 31.0038105,59.1849734 30.2364218,57.8686273 C29.4690332,56.5522811 29.456695,54.9278508 30.204,53.6 C31.2107942,52.2772644 32.4332339,51.1335936 33.82,50.217 C36.979,47.96 37.585,48.302 37.981,48.527 C38.5030309,48.9349075 38.785493,49.577584 38.733,50.238 C38.871,51.938 38.569,56.227 37.679,57.808 C36.9180857,59.1608421 35.4871502,59.998612 33.935,60 Z M36.757,50.7 C35.304,51.508 32.507,53.6 31.946,54.591 C31.3539476,55.6897279 31.7507553,57.0602128 32.8382543,57.6726465 C33.9257534,58.2850802 35.303398,57.9138921 35.936,56.838 C36.206,56.7 36.87,53.257 36.757,50.7 Z" id="Shape" fill="#464C63" fill-rule="nonzero"/>
        </g>
    </g>
</svg>
