<?xml version="1.0" encoding="UTF-8"?>
<svg xmlns="http://www.w3.org/2000/svg" xmlns:xlink="http://www.w3.org/1999/xlink" width="60px" height="60px" viewBox="0 0 60 60" version="1.1">
    <!-- Generator: Sketch 51.1 (57501) - http://www.bohemiancoding.com/sketch -->
    <title>20 - Snowing</title>
    <desc>Created with Sketch.</desc>
    <defs/>
    <g id="Page-1" stroke="none" stroke-width="1" fill="none" fill-rule="evenodd">
        <g id="20---Snowing">
            <path d="M30,0.97 C13.9837423,0.97 1,13.9537423 1,29.97 C1,45.9862577 13.9837423,58.97 30,58.97 C46.0162577,58.97 59,45.9862577 59,29.97 C58.9933778,13.9564861 46.0135139,0.976622172 30,0.97 Z" id="Shape" fill="#7AAEDC"/>
            <path d="M50.89,19.06 C46.5493906,11.825602 39.2750152,6.83863712 30.96218,5.39843698 C22.6493448,3.95823685 14.1213038,6.20743031 7.6,11.56 C-1.86497816,23.0885208 -1.04094017,39.9167358 9.50510391,50.465364 C20.051148,61.0139923 36.8791605,61.8421533 48.41,52.38 C56.1851447,42.9095003 57.1774665,29.5771767 50.89,19.06 Z" id="Shape" fill="#599AD3"/>
            <path d="M36.137,32.53 C35.9687645,30.1579459 34.9001751,27.9399164 33.15,26.33 C34.0002025,23.0098685 33.7618356,19.5044729 32.47,16.33 C35.7503218,15.6298762 39.173367,16.3712932 41.87,18.366 C43.9822389,23.8603362 41.476228,30.0517087 36.137,32.53 Z" id="Shape" fill="#F9FAFD" fill-rule="nonzero"/>
            <path d="M23.62,25.118 L23.62,25.128 C17.5006888,31.0738833 7.90773623,31.5218032 1.261,26.172 C2.30176062,18.2680419 6.56271048,11.1455896 13.035,6.491 C18.3984925,5.19875305 24.0549817,6.60988803 28.183,10.27 C29.311339,15.6744572 27.5886969,21.2799338 23.62,25.118 Z" id="Shape" fill="#F9FAFD" fill-rule="nonzero"/>
            <path d="M54.167,32.417 C54.1268937,35.9195341 51.2606401,38.7294377 47.758,38.7 L2.334,38.7 C1.05861664,34.6538736 0.692231088,30.3760747 1.261,26.172 C10.514,33.68 24.28,29.243 27.709,18.584 C28.5983988,15.9031469 28.7619431,13.0345666 28.183,10.27 C32.7276931,14.2654868 34.6470722,20.4725609 33.151,26.336 C34.8998511,27.9468978 35.9681719,30.1643697 36.138,32.536 C41.4719771,30.053779 43.9761934,23.867714 41.871,18.374 C44.4411,20.2389233 46.0908405,23.11405 46.404,26.274 C48.278295,25.8591457 50.2397751,26.3097292 51.7451303,27.5009436 C53.2504855,28.692158 54.1398945,30.4975336 54.167,32.417 Z" id="Shape" fill="#D3D6D9" fill-rule="nonzero"/>
            <path d="M47.758,39.7 L2.334,39.7 C1.89762907,39.6995901 1.51191114,39.4162716 1.381,39 C-2.48834945,26.668563 1.97103487,13.2448856 12.45,5.68 C12.5544132,5.60440974 12.6726482,5.55004885 12.798,5.52 C21.0016276,3.52941798 29.4746692,7.57794605 33.08,15.211 C39.7008495,14.206826 45.9420109,18.5832125 47.254,25.15 C49.9379716,24.9187108 52.5306768,26.1866453 53.99607,28.4471367 C55.4614631,30.7076281 55.5605845,33.592061 54.2538253,35.9478154 C52.947066,38.3035697 50.4475175,39.7464958 47.754,39.7 L47.758,39.7 Z M3.076,37.7 C51.795,37.7 48.381,37.848 49.651,37.36 C52.0959138,36.4987708 53.5499401,33.985814 53.0781489,31.4369452 C52.6063577,28.8880763 50.349194,27.0620543 47.758,27.133 C46.649,27.133 46.337,27.465 45.808,27.071 C45.582347,26.9041341 45.4371991,26.6501253 45.408,26.371 C45.1354835,23.6437048 43.7691237,21.1433421 41.621,19.441 C41.3845635,19.3787895 41.1818056,19.2266314 41.056,19.017 C38.616144,17.3191941 35.5835657,16.7040667 32.675,17.317 C32.2016805,17.4143084 31.726489,17.1592455 31.546,16.711 C28.5853401,9.62226725 20.9482578,5.6975206 13.461,7.417 C4.00604319,14.3455644 -0.137115967,26.4271521 3.076,37.7 Z" id="Shape" fill="#464C63" fill-rule="nonzero"/>
            <circle id="Oval" fill="#F9FAFD" fill-rule="nonzero" cx="14.05" cy="43.05" r="2.417"/>
            <circle id="Oval" fill="#F9FAFD" fill-rule="nonzero" cx="32.417" cy="49.817" r="2.417"/>
            <circle id="Oval" fill="#F9FAFD" fill-rule="nonzero" cx="44.5" cy="43.533" r="1.933"/>
            <circle id="Oval" fill="#F9FAFD" fill-rule="nonzero" cx="24.2" cy="42.567" r="1"/>
            <circle id="Oval" fill="#F9FAFD" fill-rule="nonzero" cx="25.167" cy="55.133" r="1"/>
            <circle id="Oval" fill="#F9FAFD" fill-rule="nonzero" cx="18.4" cy="51.267" r="1"/>
            <circle id="Oval" fill="#F9FAFD" fill-rule="nonzero" cx="35.8" cy="42.567" r="1"/>
            <circle id="Oval" fill="#F9FAFD" fill-rule="nonzero" cx="34.35" cy="54.65" r="1"/>
            <circle id="Oval" fill="#F9FAFD" fill-rule="nonzero" cx="17.917" cy="45.95" r="1"/>
            <circle id="Oval" fill="#F9FAFD" fill-rule="nonzero" cx="25.65" cy="48.85" r="1"/>
            <circle id="Oval" fill="#F9FAFD" fill-rule="nonzero" cx="39.183" cy="47.883" r="1"/>
            <circle id="Oval" fill="#F9FAFD" fill-rule="nonzero" cx="46.917" cy="16.95" r="1"/>
            <circle id="Oval" fill="#F9FAFD" fill-rule="nonzero" cx="53.2" cy="21.3" r="1"/>
            <circle id="Oval" fill="#F9FAFD" fill-rule="nonzero" cx="53.683" cy="16.95" r="1"/>
            <circle id="Oval" fill="#F9FAFD" fill-rule="nonzero" cx="48.85" cy="19.85" r="1"/>
            <circle id="Oval" fill="#F9FAFD" fill-rule="nonzero" cx="51.267" cy="17.433" r="1"/>
            <circle id="Oval" fill="#F9FAFD" fill-rule="nonzero" cx="42.567" cy="51.267" r="1"/>
            <path d="M30,60 C13.4314575,60 2.02906125e-15,46.5685425 0,30 C-2.02906125e-15,13.4314575 13.4314575,3.04359188e-15 30,0 C46.5685425,-3.04359188e-15 60,13.4314575 60,30 C60.0167723,37.9616246 56.8614534,45.6019909 51.2317221,51.2317221 C45.6019909,56.8614534 37.9616246,60.0167723 30,60 Z M30,2 C14.536027,2 2,14.536027 2,30 C2,45.463973 14.536027,58 30,58 C45.463973,58 58,45.463973 58,30 C57.9807162,14.5440217 45.4559783,2.01928384 30,2 Z" id="Shape" fill="#464C63" fill-rule="nonzero"/>
            <path d="M58.033,12.117 C58.0237005,13.9815137 56.5145137,15.4907005 54.65,15.5 C48.232,15.5 44.932,15.511 44.829,15.49 C43.2646659,15.4211297 41.9528682,14.2859308 41.6600868,12.747697 C41.3673055,11.2094631 42.1703485,9.67173375 43.6,9.033 C43.3690274,7.76287442 43.7135958,6.45574091 44.5406723,5.46452359 C45.3677488,4.47330628 46.592044,3.90022102 47.883,3.9 C48.2643262,3.90461401 48.6438425,3.95326995 49.014,4.045 C49.8612149,2.66031284 51.4093687,1.86304862 53.028634,1.9775542 C54.6478993,2.09205978 56.0684516,3.09925465 56.712375,4.58938695 C57.3562984,6.07951926 57.1162934,7.80428242 56.09,9.062 C57.2744453,9.61834736 58.0313275,10.8084014 58.033,12.117 Z" id="Shape" fill="#D3D6D9" fill-rule="nonzero"/>
            <path d="M55.133,10.067 C55.1242471,11.9319043 53.6149016,13.4416959 51.75,13.451 C43.812,13.451 43.962,13.461 43.862,13.441 C43.0169471,13.406077 42.2160799,13.054024 41.619,12.455 C41.4727106,11.0065773 42.2710989,9.62743307 43.6,9.033 C43.3354511,7.57325437 43.8316578,6.07919171 44.9169355,5.0677493 C46.0022132,4.05630689 47.5274792,3.66642479 48.965,4.033 C48.9807178,4.03756756 48.9967658,4.04091089 49.013,4.043 C49.9560749,2.4878276 51.7755955,1.69418987 53.557,2.061 C54.4872962,3.62425487 54.3402272,5.60249272 53.189,7.011 C54.3745002,7.56682683 55.1320241,8.75766684 55.133,10.067 Z" id="Shape" fill="#F9FAFD" fill-rule="nonzero"/>
            <path d="M54.65,16.5 C45.796,16.5 44.914,16.507 44.739,16.487 C43.0162457,16.3867307 41.5130187,15.2840328 40.9000263,13.6709065 C40.287034,12.0577801 40.6785937,10.2350582 41.9,9.016 C42.636,8.28 42.538,8.688 42.538,8.25 C42.5325532,6.71071571 43.193095,5.24429564 44.3495227,4.22837206 C45.5059504,3.21244848 47.0452423,2.74631127 48.571,2.95 C50.303405,0.836288032 53.3505679,0.368446415 55.6372832,1.86508875 C57.9239985,3.36173107 58.7147443,6.3414624 57.471,8.775 C58.8682147,9.96352875 59.3779881,11.8961491 58.748769,13.6191967 C58.11955,15.3422443 56.4843223,16.4915575 54.65,16.5 Z M44.583,8.846 C44.6704687,9.3050128 44.4284,9.76340703 44,9.95 C43.7383374,10.0668173 43.500901,10.231666 43.3,10.436 C42.634948,11.1010666 42.4245848,12.0957269 42.7634206,12.9731082 C43.1022564,13.8504895 43.9265619,14.4455713 44.866,14.491 C45.666,14.52 43.806,14.512 54.647,14.5 C55.7570845,14.4912539 56.7142177,13.7174557 56.9553146,12.6338338 C57.1964116,11.550212 56.657656,10.4435909 55.656,9.965 C55.37842,9.83274173 55.1771163,9.58013802 55.1101461,9.28004156 C55.043176,8.97994509 55.1179859,8.66572331 55.313,8.428 C56.1052059,7.46072684 56.2920423,6.13247426 55.7974175,4.98419126 C55.3027927,3.83590826 54.2092355,3.05918732 52.962112,2.97035864 C51.7149885,2.88152997 50.5223829,3.49541474 49.87,4.562 C49.6009072,4.98921985 49.0674361,5.16676439 48.596,4.986 C47.5034441,4.74531431 46.3628868,5.06658816 45.5565879,5.84214605 C44.750289,6.61770395 44.3849444,7.74491782 44.583,8.846 Z" id="Shape" fill="#464C63" fill-rule="nonzero"/>
        </g>
    </g>
</svg>
