<?xml version="1.0" encoding="UTF-8"?>
<svg xmlns="http://www.w3.org/2000/svg" xmlns:xlink="http://www.w3.org/1999/xlink" width="60px" height="60px" viewBox="0 0 60 60" version="1.1">
    <!-- Generator: Sketch 51.1 (57501) - http://www.bohemiancoding.com/sketch -->
    <title>21 - Moon</title>
    <desc>Created with Sketch.</desc>
    <defs/>
    <g id="Page-1" stroke="none" stroke-width="1" fill="none" fill-rule="evenodd">
        <g id="21---Moon" transform="translate(-1.000000, 0.000000)">
            <path d="M31,0.97 C14.9837423,0.97 2,13.9537423 2,29.97 C2,45.9862577 14.9837423,58.97 31,58.97 C47.0162577,58.97 60,45.9862577 60,29.97 C59.9933778,13.9564861 47.0135139,0.976622172 31,0.97 Z" id="Shape" fill="#7AAEDC"/>
            <path d="M51.89,19.06 C47.5493906,11.825602 40.2750152,6.83863712 31.96218,5.39843698 C23.6493448,3.95823685 15.1213038,6.20743031 8.6,11.56 C-0.864978159,23.0885208 -0.0409401668,39.9167358 10.5051039,50.465364 C21.051148,61.0139923 37.8791605,61.8421533 49.41,52.38 C57.1851447,42.9095003 58.1774665,29.5771767 51.89,19.06 Z" id="Shape" fill="#599AD3"/>
            <circle id="Oval" fill="#B5B9BE" fill-rule="nonzero" cx="31" cy="30" r="23.2"/>
            <path d="M31,60 C14.4314575,60 1,46.5685425 1,30 C1,13.4314575 14.4314575,3.04359188e-15 31,0 C47.5685425,-3.04359188e-15 61,13.4314575 61,30 C61.0167723,37.9616246 57.8614534,45.6019909 52.2317221,51.2317221 C46.6019909,56.8614534 38.9616246,60.0167723 31,60 Z M31,2 C15.536027,2 3,14.536027 3,30 C3,45.463973 15.536027,58 31,58 C46.463973,58 59,45.463973 59,30 C58.9807162,14.5440217 46.4559783,2.01928384 31,2 Z" id="Shape" fill="#464C63" fill-rule="nonzero"/>
            <path d="M45.355,11.778 C36.1206569,4.51879339 22.9179001,5.30650802 14.6122041,13.6122041 C6.30650802,21.9179001 5.51879339,35.1206569 12.778,44.355 C22.0123431,51.6142066 35.2150999,50.826492 43.5207959,42.5207959 C51.826492,34.2150999 52.6142066,21.0123431 45.355,11.778 Z" id="Shape" fill="#D3D5D8" fill-rule="nonzero"/>
            <path d="M31,54.2 C17.6347091,54.2 6.8,43.3652909 6.8,30 C6.8,9.788 30.2,-1.431 45.974,10.993 C54.0708209,17.3739765 57.2363948,28.1838349 53.8606444,37.924455 C50.4848941,47.6650751 41.3089944,54.1978204 31,54.2 Z M31,7.8 C12.487,7.8 2.154,29.244 13.564,43.736 C19.9832942,51.886414 31.191625,54.503907 40.556833,50.0396639 C49.9220409,45.5754207 54.9464209,35.2200572 52.6569621,25.1010174 C50.3675032,14.9819777 41.3748052,7.7980142 31,7.8 Z" id="Shape" fill="#464C63" fill-rule="nonzero"/>
            <path d="M30.256,15.281 L30.236,15.3 C29.2173039,14.4885428 27.952377,14.0486756 26.65,14.053 C24.4323576,14.0606779 22.4127879,15.3309507 21.4455025,17.3265348 C20.4782172,19.3221189 20.7321905,21.6944073 22.1,23.44 L22.081,23.459 C21.9930058,23.3860097 21.9119903,23.3049942 21.839,23.217 C20.8883034,22.1617626 20.3646114,20.7903242 20.37,19.37 C20.3737624,17.0892694 21.713839,15.0224536 23.7945075,14.0883419 C25.875176,13.1542303 28.3101587,13.5262413 30.017,15.039 C30.1034774,15.1126439 30.1834405,15.1936107 30.256,15.281 Z" id="Shape" fill="#A3CFD3" fill-rule="nonzero"/>
            <path d="M31.967,11.15 C31.9692093,10.352442 32.6167689,9.70726973 33.4143296,9.70800616 C34.2118904,9.7087426 34.8582574,10.3551096 34.8589938,11.1526704 C34.8597303,11.9502311 34.214558,12.5977907 33.417,12.6 C33.0320286,12.6013344 32.6624396,12.4489955 32.390222,12.176778 C32.1180045,11.9045604 31.9656656,11.5349714 31.967,11.15 Z" id="Shape" fill="#797B82" fill-rule="nonzero"/>
            <path d="M37.767,22.75 C37.7670001,21.7723238 38.3559915,20.8909347 39.2592853,20.5168877 C40.162579,20.1428407 41.2022522,20.3498123 41.8934307,21.0412768 C42.5846091,21.7327413 42.7911505,22.7725001 42.4167297,23.675639 C42.0423089,24.5787779 41.1606761,25.1674045 40.183,25.167 C38.8489754,25.165346 37.7681019,24.0840252 37.767,22.75 Z" id="Shape" fill="#797B82" fill-rule="nonzero"/>
            <path d="M31.967,25.65 C31.9692093,24.852442 32.6167689,24.2072697 33.4143296,24.2080062 C34.2118904,24.2087426 34.8582574,24.8551096 34.8589938,25.6526704 C34.8597303,26.4502311 34.214558,27.0977907 33.417,27.1 C33.0320286,27.1013344 32.6624396,26.9489955 32.390222,26.676778 C32.1180045,26.4045604 31.9656656,26.0349714 31.967,25.65 Z" id="Shape" fill="#797B82" fill-rule="nonzero"/>
            <path d="M32.933,32.9 C32.933,31.7270595 33.6395623,30.6696143 34.723218,30.2207494 C35.8068738,29.7718845 37.0542155,30.0199961 37.8836097,30.8493903 C38.7130039,31.6787845 38.9611155,32.9261262 38.5122506,34.009782 C38.0633857,35.0934377 37.0059405,35.8 35.833,35.8 C34.2313742,35.8 32.933,34.5016258 32.933,32.9 Z" id="Shape" fill="#797B82" fill-rule="nonzero"/>
            <path d="M24.233,40.15 C24.2352093,39.352442 24.8827689,38.7072697 25.6803296,38.7080062 C26.4778904,38.7087426 27.1242574,39.3551096 27.1249938,40.1526704 C27.1257303,40.9502311 26.480558,41.5977907 25.683,41.6 C25.2980286,41.6013344 24.9284396,41.4489955 24.656222,41.176778 C24.3840045,40.9045604 24.2316656,40.5349714 24.233,40.15 Z" id="Shape" fill="#A3CFD3" fill-rule="nonzero"/>
            <path d="M15.533,30.483 C15.533,29.5054148 16.1218831,28.6240888 17.0250541,28.2499832 C17.9282251,27.8758775 18.9678199,28.0826658 19.6590771,28.7739229 C20.3503342,29.4651801 20.5571225,30.5047749 20.1830168,31.4079459 C19.8089112,32.3111169 18.9275852,32.9 17.95,32.9 C16.6155848,32.8988972 15.5341028,31.8174152 15.533,30.483 Z" id="Shape" fill="#797B82" fill-rule="nonzero"/>
            <path d="M32.933,46.917 C32.9325955,45.9393239 33.5212221,45.0576911 34.424361,44.6832703 C35.3274999,44.3088495 36.3672587,44.5153909 37.0587232,45.2065693 C37.7501877,45.8977478 37.9571593,46.937421 37.5831123,47.8407147 C37.2090653,48.7440085 36.3276762,49.3329999 35.35,49.333 C34.0159748,49.3318981 32.934654,48.2510246 32.933,46.917 Z" id="Shape" fill="#A3CFD3" fill-rule="nonzero"/>
            <path d="M31.483,18.883 C31.4760545,21.1000604 30.2068944,23.1195534 28.2122485,24.0874339 C26.2176026,25.0553144 23.8458474,24.8025364 22.1,23.436 C20.9775719,22.3827504 20.3497422,20.9060806 20.37,19.367 C20.3737624,17.0862694 21.713839,15.0194536 23.7945075,14.0853419 C25.875176,13.1512303 28.3101587,13.5232413 30.017,15.036 C30.9667743,16.0915839 31.4894034,17.4630395 31.483,18.883 Z" id="Shape" fill="#797B82" fill-rule="nonzero"/>
            <path d="M42.6,22.753 C42.5970838,23.6671308 42.0795257,24.5016746 41.2619404,24.9105729 C40.4443551,25.3194713 39.4661673,25.2329938 38.733,24.687 C38.0096402,23.724658 38.1044099,22.3767693 38.9553116,21.5251133 C39.8062132,20.6734573 41.1540174,20.5774932 42.117,21.3 C42.4306302,21.7194943 42.600073,22.2292259 42.6,22.753 Z" id="Shape" fill="#9298A3" fill-rule="nonzero"/>
            <path d="M31.967,19.37 C31.9571824,21.708303 30.5441851,23.8120179 28.3833031,24.7055204 C26.2224212,25.5990229 23.7363357,25.1075388 22.078,23.459 L22.097,23.44 C20.7288626,21.6939814 20.4751292,19.3210099 21.4431655,17.3251926 C22.4112018,15.3293752 24.4318164,14.0595364 26.65,14.053 C27.952377,14.0486756 29.2173039,14.4885428 30.236,15.3 L30.256,15.281 C31.354641,16.3573406 31.9716896,17.8319821 31.967,19.37 Z" id="Shape" fill="#9298A3" fill-rule="nonzero"/>
            <path d="M34.867,11.153 C34.8668207,11.6758373 34.5838422,12.1576787 34.1273101,12.4125066 C33.6707779,12.6673346 33.1121165,12.6552813 32.667,12.381 C32.327079,11.8137482 32.4162518,11.0880332 32.8833904,10.6199494 C33.350529,10.1518657 34.0760623,10.0612262 34.644,10.4 C34.7922617,10.6229119 34.8699681,10.8853016 34.867,11.153 Z" id="Shape" fill="#9298A3" fill-rule="nonzero"/>
            <path d="M34.867,25.653 C34.8668207,26.1758373 34.5838422,26.6576787 34.1273101,26.9125066 C33.6707779,27.1673346 33.1121165,27.1552813 32.667,26.881 C32.327079,26.3137482 32.4162518,25.5880332 32.8833904,25.1199494 C33.350529,24.6518657 34.0760623,24.5612262 34.644,24.9 C34.7922617,25.1229119 34.8699681,25.3853016 34.867,25.653 Z" id="Shape" fill="#9298A3" fill-rule="nonzero"/>
            <path d="M38.733,32.9 C38.7334375,34.0094771 38.0995438,35.0215465 37.1011396,35.5054148 C36.1027353,35.989283 34.9155825,35.8597686 34.045,35.172 C33.6413428,34.6631443 33.420196,34.0335098 33.417,33.384 C33.417,29.91 38.733,29.333 38.733,32.9 Z" id="Shape" fill="#9298A3" fill-rule="nonzero"/>
            <path d="M27.133,40.153 C27.1334707,40.6761164 26.8505991,41.1584619 26.3938232,41.4134259 C25.9370472,41.6683899 25.3780128,41.655981 24.933,41.381 C24.5923742,40.8135405 24.681451,40.0871085 25.1490899,39.6187604 C25.6167288,39.1504122 26.343025,39.0602346 26.911,39.4 C27.0589654,39.6229986 27.136326,39.8853976 27.133,40.153 Z" id="Shape" fill="#B5E5ED" fill-rule="nonzero"/>
            <path d="M19.883,29.03 C20.6062808,29.9918729 20.5113596,31.3393992 19.6603794,32.1903794 C18.8093992,33.0413596 17.4618729,33.1362808 16.5,32.413 C15.7807959,31.4507666 15.8774515,30.1063616 16.7269065,29.2569065 C17.5763616,28.4074515 18.9207666,28.3107959 19.883,29.03 Z" id="Shape" fill="#9298A3" fill-rule="nonzero"/>
            <path d="M37.767,46.92 C37.7644562,47.83429 37.2468537,48.6690929 36.4290424,49.0778928 C35.611231,49.4866927 34.6328452,49.3996906 33.9,48.853 C33.1807959,47.8907666 33.2774515,46.5463616 34.1269065,45.6969065 C34.9763616,44.8474515 36.3207666,44.7507959 37.283,45.47 C37.5968885,45.8882775 37.7667116,46.3970449 37.767,46.92 Z" id="Shape" fill="#B5E5ED" fill-rule="nonzero"/>
            <path d="M46.911,46.54 C46.8860347,46.4800689 46.8569657,46.4219309 46.824,46.366 C46.865,46.406 46.871,46.44 46.911,46.54 Z" id="Shape" fill="#BAD0D3" fill-rule="nonzero"/>
            <path d="M59.033,12.117 C59.0237005,13.9815137 57.5145137,15.4907005 55.65,15.5 C49.232,15.5 45.932,15.511 45.829,15.49 C44.2646659,15.4211297 42.9528682,14.2859308 42.6600868,12.747697 C42.3673055,11.2094631 43.1703485,9.67173375 44.6,9.033 C44.3690274,7.76287442 44.7135958,6.45574091 45.5406723,5.46452359 C46.3677488,4.47330628 47.592044,3.90022102 48.883,3.9 C49.2643262,3.90461401 49.6438425,3.95326995 50.014,4.045 C50.8612149,2.66031284 52.4093687,1.86304862 54.028634,1.9775542 C55.6478993,2.09205978 57.0684516,3.09925465 57.712375,4.58938695 C58.3562984,6.07951926 58.1162934,7.80428242 57.09,9.062 C58.2744453,9.61834736 59.0313275,10.8084014 59.033,12.117 Z" id="Shape" fill="#D3D6D9" fill-rule="nonzero"/>
            <path d="M56.133,10.067 C56.1242471,11.9319043 54.6149016,13.4416959 52.75,13.451 C44.812,13.451 44.962,13.461 44.862,13.441 C44.0169471,13.406077 43.2160799,13.054024 42.619,12.455 C42.4727106,11.0065773 43.2710989,9.62743307 44.6,9.033 C44.3354511,7.57325437 44.8316578,6.07919171 45.9169355,5.0677493 C47.0022132,4.05630689 48.5274792,3.66642479 49.965,4.033 C49.9807178,4.03756756 49.9967658,4.04091089 50.013,4.043 C50.9560749,2.4878276 52.7755955,1.69418987 54.557,2.061 C55.4872962,3.62425487 55.3402272,5.60249272 54.189,7.011 C55.3745002,7.56682683 56.1320241,8.75766684 56.133,10.067 Z" id="Shape" fill="#F9FAFD" fill-rule="nonzero"/>
            <path d="M55.65,16.5 C46.741,16.5 45.915,16.507 45.739,16.487 C44.0167106,16.3858777 42.5142213,15.2831326 41.9013762,13.6703935 C41.288531,12.0576544 41.6795077,10.2353872 42.9,9.016 C43.635,8.28 43.538,8.688 43.538,8.25 C43.5325532,6.71071571 44.193095,5.24429564 45.3495227,4.22837206 C46.5059504,3.21244848 48.0452423,2.74631127 49.571,2.95 C51.303405,0.836288032 54.3505679,0.368446415 56.6372832,1.86508875 C58.9239985,3.36173107 59.7147443,6.3414624 58.471,8.775 C59.8705525,9.96254377 60.3819195,11.896367 59.7523081,13.6204891 C59.1226967,15.3446111 57.4854752,16.4938171 55.65,16.5 Z M45.583,8.844 C45.6714917,9.30368029 45.4292495,9.76323392 45,9.95 C44.7381967,10.0665676 44.5007162,10.2314469 44.3,10.436 C43.634948,11.1010666 43.4245848,12.0957269 43.7634206,12.9731082 C44.1022564,13.8504895 44.9265619,14.4455713 45.866,14.491 C46.818,14.526 42.639,14.514 55.647,14.5 C56.1528502,14.5058509 56.6459625,14.3413628 57.047,14.033 C57.7310104,13.542414 58.1027141,12.7252377 58.0230154,11.8872681 C57.9433166,11.0492986 57.4242286,10.316845 56.66,9.964 C56.3829323,9.83181323 56.1819316,9.57969072 56.1148001,9.28013568 C56.0476685,8.98058064 56.1218456,8.66678966 56.316,8.429 C57.0978433,7.46047289 57.2774439,6.13800074 56.7822193,4.99603918 C56.2869947,3.85407762 55.1988069,3.08139636 53.9574293,2.99026197 C52.7160518,2.89912758 51.526688,3.50460486 50.87,4.562 C50.5994845,4.98679146 50.0682036,5.16374598 49.597,4.986 C48.5047851,4.74566845 47.3647022,5.06672269 46.558401,5.84168781 C45.7520998,6.61665294 45.3861292,7.74312106 45.583,8.844 Z" id="Shape" fill="#464C63" fill-rule="nonzero"/>
            <path d="M47.559,43.9 C46.4636439,42.975181 44.9875219,42.639614 43.6,43 C43.4703487,41.4539374 42.7171498,40.0271947 41.5136868,39.0480134 C40.3102238,38.0688322 38.7601208,37.6215246 37.22,37.809 C36.9908213,35.6326308 35.8335344,33.6610513 34.045,32.4 C34.0168569,32.3707541 33.9827522,32.347904 33.945,32.333 C31.8357338,30.8777557 29.1378787,30.5754251 26.7588188,31.5276925 C24.3797588,32.4799599 22.6356133,34.5602922 22.113,37.069 C21.0001315,36.0047984 19.334196,35.7649145 17.966288,36.4719003 C16.5983799,37.1788862 15.8305228,38.6766447 16.055,40.2 C14.2793916,39.210108 12.112639,39.2332401 10.358569,40.2608148 C8.60449898,41.2883895 7.52479193,43.1671083 7.52,45.2 C7.52,45.832 7.768,45.413 6.456,45.413 C4.07085578,45.4352319 2.12598953,47.331345 2.04322573,49.7151565 C1.96046194,52.0989681 3.76914092,54.1254009 6.147,54.313 C6.87451089,56.3841902 8.72069161,57.8582281 10.9015487,58.1091533 C13.0824057,58.3600785 15.2151124,57.3438437 16.394,55.492 C17.669132,57.4816919 19.7953682,58.7670384 22.1497374,58.9714427 C24.5041066,59.1758469 26.820045,58.2761662 28.419,56.536 C29.2211495,57.4268933 30.4141408,57.8600427 31.6010137,57.6913205 C32.7878866,57.5225984 33.8129048,56.7741437 34.335,55.695 C35.9695085,57.2648583 38.3754974,57.7242904 40.4734483,56.8671585 C42.5713993,56.0100266 43.9673634,53.9972811 44.035,51.732 C46.0087939,52.0207902 47.9346875,50.965287 48.7532093,49.1461432 C49.5717311,47.3269994 49.0842749,45.185612 47.559,43.9 Z" id="Shape" fill="#F9FAFD" fill-rule="nonzero"/>
            <path d="M49.144,47.323 C49.1536883,49.0580233 48.1428544,50.6367414 46.563,51.354 C47.552665,49.9039304 47.5986589,48.0079067 46.6804684,46.5115562 C45.7622778,45.0152057 44.0510527,44.1974467 42.31,44.423 C42.3640389,42.871538 41.784827,41.3648068 40.7054633,40.2490431 C39.6260996,39.1332794 38.1394007,38.5044299 36.587,38.507 C36.6240822,36.3184739 35.7124305,34.2209458 34.087,32.755 C34.0626763,32.7244903 34.033239,32.6984365 34,32.678 C33.2904247,32.0449237 32.4667425,31.5528185 31.573,31.228 C34.636703,32.0413129 36.8819297,34.6591533 37.219,37.811 C38.7589618,37.6232252 40.3090391,38.0701313 41.5126675,39.0489164 C42.7162959,40.0277015 43.4698538,41.454101 43.6,43 C44.9328814,42.657816 46.349093,42.953 47.4342796,43.7991872 C48.5194662,44.6453743 49.1509606,45.9469134 49.144,47.323 Z" id="Shape" fill="#D3D6D9" fill-rule="nonzero"/>
            <circle id="Oval" fill="#F9FAFD" fill-rule="nonzero" cx="8.283" cy="18.883" r="1"/>
            <circle id="Oval" fill="#F9FAFD" fill-rule="nonzero" cx="54.683" cy="42.083" r="1"/>
            <circle id="Oval" fill="#F9FAFD" fill-rule="nonzero" cx="35.35" cy="4.383" r="1"/>
            <circle id="Oval" fill="#F9FAFD" fill-rule="nonzero" cx="6.35" cy="38.217" r="1"/>
            <circle id="Oval" fill="#F9FAFD" fill-rule="nonzero" cx="19.883" cy="6.317" r="1"/>
            <path d="M4.33,29.5 C4.33,29.5 4.699,31.208 3.684,32.023 C4.945,32.346 5.315,34.054 5.315,34.054 C5.315,34.054 4.945,32.346 5.961,31.531 C4.7,31.209 4.33,29.5 4.33,29.5 Z" id="Shape" fill="#F9FAFD" fill-rule="nonzero"/>
            <path d="M56.8,28.067 C56.8,28.067 56.879,26.321 58.069,25.791 C56.931,25.157 57.01,23.412 57.01,23.412 C57.01,23.412 56.931,25.157 55.741,25.687 C56.877,26.321 56.8,28.067 56.8,28.067 Z" id="Shape" fill="#F9FAFD" fill-rule="nonzero"/>
            <path d="M16.374,57.116 C14.8253655,58.7023409 12.5950802,59.4246879 10.4104859,59.0474688 C8.22589165,58.6702497 6.36698737,57.2418125 5.44,55.228 C2.65136636,54.7011055 0.732069168,52.1247006 1.02535838,49.3019224 C1.3186476,46.4791442 3.72661187,44.3523458 6.564,44.41 C6.79767396,42.447677 7.8806536,40.6867259 9.52650827,39.5928899 C11.1723629,38.4990538 13.2153016,38.1825176 15.115,38.727 C15.4028223,37.3556457 16.2987403,36.1896391 17.549698,35.5583237 C18.8006557,34.9270084 20.2708433,34.8989228 21.545,35.482 C22.501035,33.0294309 24.522061,31.1458156 27.0357684,30.3645518 C29.5494758,29.583288 32.2821652,29.989442 34.46,31.468 C34.5362865,31.5105322 34.6079971,31.5607966 34.674,31.618 C36.4005847,32.8550348 37.6067621,34.6887095 38.059,36.764 C41.0915942,36.8218701 43.7041717,38.9165322 44.42,41.864 C47.4324372,41.7259288 49.9864288,44.0560628 50.1245,47.0685 C50.2625712,50.0809372 47.9324372,52.6349288 44.92,52.773 C44.5114,55.0017813 43.0088158,56.8754065 40.9219668,57.7582887 C38.8351177,58.6411709 36.4440944,58.4148122 34.56,57.156 C33.0097987,58.9224395 30.3789272,59.2399362 28.453,57.893 C24.8924401,60.983068 19.5093065,60.6367898 16.374,57.116 Z M17.235,54.951 C18.450165,56.8547965 20.5544514,58.005024 22.813,58 C23.6540604,57.9970632 24.4872349,57.8376851 25.27,57.53 C27.462,56.648 27.5,55.53 28.419,55.53 C28.7008695,55.5301554 28.9695837,55.6492611 29.159,55.858 C29.7371455,56.5034546 30.5988528,56.8184633 31.4569702,56.6980539 C32.3150875,56.5776446 33.0568216,56.0376441 33.435,55.258 C33.5747702,54.9699938 33.8439802,54.7663141 34.159141,54.7101272 C34.4743018,54.6539404 34.7973128,54.7520389 35.028,54.974 C36.3772945,56.273767 38.3663776,56.6550882 40.1006934,55.946471 C41.8350093,55.2378537 42.9879499,53.5727454 43.041,51.7 C43.0505233,51.4169889 43.1795872,51.1512839 43.3961535,50.968842 C43.6127197,50.7864002 43.8964818,50.7043285 44.177,50.743 C45.7082887,50.9679661 47.2030055,50.1498179 47.8387652,48.7386962 C48.4745249,47.3275745 48.0970397,45.6659338 46.914,44.668 C46.0610217,43.9484649 44.9107089,43.6901857 43.832,43.976 C43.5484199,44.0450772 43.2488139,43.9868128 43.0117894,43.8164934 C42.7747648,43.6461741 42.6239814,43.3808011 42.599,43.09 C42.5001362,41.8116893 41.8820306,40.6296494 40.888608,39.8191163 C39.8951854,39.0085833 38.6131422,38.6402925 37.341,38.8 C37.0745336,38.8309382 36.8067057,38.7545997 36.5965935,38.5878231 C36.3864814,38.4210466 36.2513476,38.1775343 36.221,37.911 C36.0254238,36.020184 35.0215709,34.3063778 33.468,33.211 C31.6391907,31.9094645 29.2773163,31.6180303 27.1869816,32.4359786 C25.096647,33.2539268 23.5598043,35.0709296 23.1,37.268 C23.0269942,37.6246289 22.7659597,37.9134148 22.4184943,38.0219588 C22.0710289,38.1305027 21.6920267,38.0416565 21.429,37.79 C20.6217907,37.0148563 19.4096907,36.8419004 18.4178982,37.3603426 C17.4261057,37.8787847 16.876272,38.9727605 17.052,40.078 C17.0929067,40.4511505 16.9226524,40.8160364 16.6104094,41.0244086 C16.2981664,41.2327809 15.8958821,41.249973 15.567,41.069 C14.0609788,40.235746 12.2215737,40.284546 10.7618529,41.196482 C9.30213217,42.108418 8.45160924,43.7401053 8.54,45.459 C8.56750911,45.7809624 8.43774689,46.0963746 8.19163524,46.305768 C7.9455236,46.5151613 7.6133988,46.5927256 7.3,46.514 C6.03243814,46.1969733 4.69445442,46.6219081 3.84209114,47.6122089 C2.98972785,48.6025098 2.76872946,49.9888466 3.27093897,51.1950823 C3.77314847,52.4013181 4.91269375,53.2212001 6.216,53.314 C6.61562293,53.3401622 6.96109568,53.6022178 7.094,53.98 C7.69491836,55.6902198 9.21967572,56.9071308 11.0205756,57.1138053 C12.8214754,57.3204799 14.582271,56.4806251 15.555,54.951 C15.7392034,54.6658272 16.0555086,54.4935864 16.395,54.4935864 C16.7344914,54.4935864 17.0507966,54.6658272 17.235,54.951 Z" id="Shape" fill="#464C63" fill-rule="nonzero"/>
        </g>
    </g>
</svg>
