<?xml version="1.0" encoding="UTF-8"?>
<svg xmlns="http://www.w3.org/2000/svg" xmlns:xlink="http://www.w3.org/1999/xlink" width="60px" height="60px" viewBox="0 0 60 60" version="1.1">
    <!-- Generator: Sketch 51.1 (57501) - http://www.bohemiancoding.com/sketch -->
    <title>22 - Raining</title>
    <desc>Created with Sketch.</desc>
    <defs/>
    <g id="Page-1" stroke="none" stroke-width="1" fill="none" fill-rule="evenodd">
        <g id="22---Raining">
            <path d="M30,0.97 C13.9837423,0.97 1,13.9537423 1,29.97 C1,45.9862577 13.9837423,58.97 30,58.97 C46.0162577,58.97 59,45.9862577 59,29.97 C58.9933778,13.9564861 46.0135139,0.976622172 30,0.97 Z" id="Shape" fill="#7AAEDC"/>
            <path d="M50.89,19.06 C46.5493906,11.825602 39.2750152,6.83863712 30.96218,5.39843698 C22.6493448,3.95823685 14.1213038,6.20743031 7.6,11.56 C-1.86497816,23.0885208 -1.04094017,39.9167358 9.50510391,50.465364 C20.051148,61.0139923 36.8791605,61.8421533 48.41,52.38 C56.1851447,42.9095003 57.1774665,29.5771767 50.89,19.06 Z" id="Shape" fill="#599AD3"/>
            <path d="M30,60 C13.4314575,60 2.02906125e-15,46.5685425 0,30 C-2.02906125e-15,13.4314575 13.4314575,3.04359188e-15 30,0 C46.5685425,-3.04359188e-15 60,13.4314575 60,30 C60.0167723,37.9616246 56.8614534,45.6019909 51.2317221,51.2317221 C45.6019909,56.8614534 37.9616246,60.0167723 30,60 Z M30,2 C14.536027,2 2,14.536027 2,30 C2,45.463973 14.536027,58 30,58 C45.463973,58 58,45.463973 58,30 C57.9807162,14.5440217 45.4559783,2.01928384 30,2 Z" id="Shape" fill="#464C63" fill-rule="nonzero"/>
            <path d="M36.137,32.53 C35.9687645,30.1579459 34.9001751,27.9399164 33.15,26.33 C34.0002025,23.0098685 33.7618356,19.5044729 32.47,16.33 C35.7503218,15.6298762 39.173367,16.3712932 41.87,18.366 C43.9822389,23.8603362 41.476228,30.0517087 36.137,32.53 Z" id="Shape" fill="#D3D5D8" fill-rule="nonzero"/>
            <path d="M58.033,12.117 C58.0237005,13.9815137 56.5145137,15.4907005 54.65,15.5 C48.232,15.5 44.932,15.511 44.829,15.49 C43.2646659,15.4211297 41.9528682,14.2859308 41.6600868,12.747697 C41.3673055,11.2094631 42.1703485,9.67173375 43.6,9.033 C43.3690274,7.76287442 43.7135958,6.45574091 44.5406723,5.46452359 C45.3677488,4.47330628 46.592044,3.90022102 47.883,3.9 C48.2643262,3.90461401 48.6438425,3.95326995 49.014,4.045 C49.8612149,2.66031284 51.4093687,1.86304862 53.028634,1.9775542 C54.6478993,2.09205978 56.0684516,3.09925465 56.712375,4.58938695 C57.3562984,6.07951926 57.1162934,7.80428242 56.09,9.062 C57.2744453,9.61834736 58.0313275,10.8084014 58.033,12.117 Z" id="Shape" fill="#D3D6D9" fill-rule="nonzero"/>
            <path d="M55.133,10.067 C55.1242471,11.9319043 53.6149016,13.4416959 51.75,13.451 C43.812,13.451 43.962,13.461 43.862,13.441 C43.0169471,13.406077 42.2160799,13.054024 41.619,12.455 C41.4727106,11.0065773 42.2710989,9.62743307 43.6,9.033 C43.3354511,7.57325437 43.8316578,6.07919171 44.9169355,5.0677493 C46.0022132,4.05630689 47.5274792,3.66642479 48.965,4.033 C48.9807178,4.03756756 48.9967658,4.04091089 49.013,4.043 C49.9560749,2.4878276 51.7755955,1.69418987 53.557,2.061 C54.4872962,3.62425487 54.3402272,5.60249272 53.189,7.011 C54.3745002,7.56682683 55.1320241,8.75766684 55.133,10.067 Z" id="Shape" fill="#F9FAFD" fill-rule="nonzero"/>
            <path d="M23.62,25.118 L23.62,25.128 C17.5006888,31.0738833 7.90773623,31.5218032 1.261,26.172 C2.30176062,18.2680419 6.56271048,11.1455896 13.035,6.491 C18.3984925,5.19875305 24.0549817,6.60988803 28.183,10.27 C29.311339,15.6744572 27.5886969,21.2799338 23.62,25.118 Z" id="Shape" fill="#D3D5D8" fill-rule="nonzero"/>
            <path d="M54.167,32.417 C54.1268937,35.9195341 51.2606401,38.7294377 47.758,38.7 L2.334,38.7 C1.05861664,34.6538736 0.692231088,30.3760747 1.261,26.172 C10.514,33.68 24.28,29.243 27.709,18.584 C28.5983988,15.9031469 28.7619431,13.0345666 28.183,10.27 C32.7276931,14.2654868 34.6470722,20.4725609 33.151,26.336 C34.8998511,27.9468978 35.9681719,30.1643697 36.138,32.536 C41.4719771,30.053779 43.9761934,23.867714 41.871,18.374 C44.4411,20.2389233 46.0908405,23.11405 46.404,26.274 C48.278295,25.8591457 50.2397751,26.3097292 51.7451303,27.5009436 C53.2504855,28.692158 54.1398945,30.4975336 54.167,32.417 Z" id="Shape" fill="#B5B9BE" fill-rule="nonzero"/>
            <path d="M47.758,39.7 L2.334,39.7 C1.89762907,39.6995901 1.51191114,39.4162716 1.381,39 C-2.48737061,26.6685712 1.97182403,13.2454647 12.45,5.68 C12.5543071,5.60422823 12.6725795,5.54985011 12.798,5.52 C21.0019491,3.52888919 29.4755858,7.57750199 33.081,15.211 C39.7032533,14.1999114 45.9484691,18.5794499 47.254,25.15 C49.9379716,24.9187108 52.5306768,26.1866453 53.99607,28.4471367 C55.4614631,30.7076281 55.5605845,33.592061 54.2538253,35.9478154 C52.947066,38.3035697 50.4475175,39.7464958 47.754,39.7 L47.758,39.7 Z M3.076,37.7 C51.795,37.7 48.381,37.848 49.652,37.36 C52.0971384,36.4987386 53.5512156,33.985469 53.0791429,31.436426 C52.6070702,28.887383 50.3494017,27.0615141 47.758,27.133 C46.646,27.133 46.338,27.465 45.807,27.071 C45.581347,26.9041341 45.4361991,26.6501253 45.407,26.371 C45.0614401,23.4130504 43.4796414,20.7397039 41.0532928,19.012941 C38.6269442,17.2861781 35.582924,16.6674618 32.675,17.31 C32.2016399,17.4093406 31.7254858,17.1535344 31.547,16.704 C28.5831302,9.61817039 20.9466368,5.69689898 13.461,7.417 C4.00456814,14.3444789 -0.138946745,26.427104 3.076,37.7 Z" id="Shape" fill="#464C63" fill-rule="nonzero"/>
            <path d="M15.713,47.294 C16.3955559,48.0574766 17.4335735,48.3988188 18.4360415,48.1894463 C19.4385096,47.9800738 20.2531294,47.2517953 20.5730415,46.2789463 C20.8929537,45.3060972 20.6695559,44.2364766 19.987,43.473 C18.933,42.293 14.074,40.299 13.646,40.681 C13.218,41.063 14.662,46.118 15.713,47.294 Z" id="Shape" fill="#797B82" fill-rule="nonzero"/>
            <ellipse id="Oval" fill="#F9FAFD" fill-rule="nonzero" transform="translate(19.225892, 44.947180) rotate(-18.181269) translate(-19.225892, -44.947180) " cx="19.225892" cy="44.94718" rx="1" ry="1.47788471"/>
            <path d="M28.863,47.294 C29.91814,48.4742325 31.7302675,48.57564 32.9105,47.5205 C34.0907325,46.46536 34.19214,44.6532325 33.137,43.473 C32.083,42.293 27.224,40.299 26.797,40.681 C26.37,41.063 27.812,46.118 28.863,47.294 Z" id="Shape" fill="#797B82" fill-rule="nonzero"/>
            <ellipse id="Oval" fill="#F9FAFD" fill-rule="nonzero" transform="translate(32.359783, 44.966012) rotate(-18.153000) translate(-32.359783, -44.966012) " cx="32.3597829" cy="44.9660121" rx="1" ry="1.478"/>
            <path d="M42.013,47.294 C43.0722807,48.4562649 44.8700884,48.5483411 46.0425677,47.5003777 C47.2150471,46.4524142 47.3245477,44.6555836 46.288,43.473 C45.233,42.293 40.374,40.299 39.947,40.681 C39.52,41.063 40.962,46.118 42.013,47.294 Z" id="Shape" fill="#797B82" fill-rule="nonzero"/>
            <ellipse id="Oval" fill="#F9FAFD" fill-rule="nonzero" transform="translate(45.510280, 44.966057) rotate(-18.153000) translate(-45.510280, -44.966057) " cx="45.5102803" cy="44.9660567" rx="1" ry="1.478"/>
            <path d="M25.379,58.043 C26.4382807,59.2052649 28.2360884,59.2973411 29.4085677,58.2493777 C30.5810471,57.2014142 30.6905477,55.4045836 29.654,54.222 C28.599,53.042 23.741,51.049 23.313,51.431 C22.885,51.813 24.328,56.868 25.379,58.043 Z" id="Shape" fill="#797B82" fill-rule="nonzero"/>
            <ellipse id="Oval" fill="#F9FAFD" fill-rule="nonzero" transform="translate(28.877050, 55.715160) rotate(-18.153000) translate(-28.877050, -55.715160) " cx="28.8770496" cy="55.7151602" rx="1" ry="1.478"/>
            <path d="M38.53,58.043 C39.2040887,58.8375362 40.2562882,59.203631 41.2779808,58.9991129 C42.2996734,58.7945948 43.1298776,58.0516883 43.4461869,57.0588984 C43.7624963,56.0661085 43.5150718,54.9798626 42.8,54.222 C41.745,53.042 36.887,51.049 36.459,51.431 C36.031,51.813 37.478,56.868 38.53,58.043 Z" id="Shape" fill="#797B82" fill-rule="nonzero"/>
            <ellipse id="Oval" fill="#F9FAFD" fill-rule="nonzero" transform="translate(42.027547, 55.714205) rotate(-18.153000) translate(-42.027547, -55.714205) " cx="42.027547" cy="55.7142048" rx="1" ry="1.478"/>
            <path d="M51.68,58.043 C52.73514,59.2232325 54.5472675,59.32464 55.7275,58.2695 C56.9077325,57.21436 57.00914,55.4022325 55.954,54.222 C54.9,53.042 50.041,51.049 49.613,51.431 C49.185,51.813 50.629,56.868 51.68,58.043 Z" id="Shape" fill="#797B82" fill-rule="nonzero"/>
            <ellipse id="Oval" fill="#F9FAFD" fill-rule="nonzero" transform="translate(55.177044, 55.714249) rotate(-18.153000) translate(-55.177044, -55.714249) " cx="55.1770444" cy="55.7142494" rx="1" ry="1.478"/>
            <path d="M54.65,16.5 C45.741,16.5 44.915,16.507 44.739,16.487 C43.0167106,16.3858777 41.5142213,15.2831326 40.9013762,13.6703935 C40.288531,12.0576544 40.6795077,10.2353872 41.9,9.016 C42.635,8.28 42.538,8.688 42.538,8.25 C42.5325532,6.71071571 43.193095,5.24429564 44.3495227,4.22837206 C45.5059504,3.21244848 47.0452423,2.74631127 48.571,2.95 C50.303405,0.836288032 53.3505679,0.368446415 55.6372832,1.86508875 C57.9239985,3.36173107 58.7147443,6.3414624 57.471,8.775 C58.8705525,9.96254377 59.3819195,11.896367 58.7523081,13.6204891 C58.1226967,15.3446111 56.4854752,16.4938171 54.65,16.5 Z M44.583,8.844 C44.6714917,9.30368029 44.4292495,9.76323392 44,9.95 C43.7381967,10.0665676 43.5007162,10.2314469 43.3,10.436 C42.634948,11.1010666 42.4245848,12.0957269 42.7634206,12.9731082 C43.1022564,13.8504895 43.9265619,14.4455713 44.866,14.491 C45.818,14.526 41.639,14.514 54.647,14.5 C55.1528502,14.5058509 55.6459625,14.3413628 56.047,14.033 C56.7310104,13.542414 57.1027141,12.7252377 57.0230154,11.8872681 C56.9433166,11.0492986 56.4242286,10.316845 55.66,9.964 C55.3829323,9.83181323 55.1819316,9.57969072 55.1148001,9.28013568 C55.0476685,8.98058064 55.1218456,8.66678966 55.316,8.429 C56.0978433,7.46047289 56.2774439,6.13800074 55.7822193,4.99603918 C55.2869947,3.85407762 54.1988069,3.08139636 52.9574293,2.99026197 C51.7160518,2.89912758 50.526688,3.50460486 49.87,4.562 C49.5994845,4.98679146 49.0682036,5.16374598 48.597,4.986 C47.5047851,4.74566845 46.3647022,5.06672269 45.558401,5.84168781 C44.7520998,6.61665294 44.3861292,7.74312106 44.583,8.844 Z" id="Shape" fill="#464C63" fill-rule="nonzero"/>
            <path d="M17.854,49.248 C16.7521669,49.2493404 15.7020298,48.7808345 14.967,47.96 C13.896,46.76 12.822,43.133 12.618,41.634 C12.4413539,41.0425017 12.5781704,40.4017632 12.981,39.934 C14.24,38.813 19.892,41.865 20.733,42.805 C21.7442043,43.9423888 21.9951176,45.5667653 21.3742343,46.9562585 C20.753351,48.3457517 19.3758926,49.2425041 17.854,49.248 Z M14.679,41.832 C14.9791797,43.5257846 15.5817874,45.1517076 16.458,46.632 C16.9000124,47.1385488 17.5802318,47.3683401 18.2388789,47.2336155 C18.8975259,47.0988908 19.4328796,46.6204569 19.6404855,45.9810302 C19.8480914,45.3416036 19.695887,44.6399367 19.242,44.144 C17.8589596,43.1268865 16.3171295,42.3456656 14.679,41.832 Z" id="Shape" fill="#464C63" fill-rule="nonzero"/>
            <path d="M31,49.248 C29.898221,49.2490855 28.8481833,48.780624 28.113,47.96 C27.041,46.76 25.968,43.132 25.764,41.634 C25.5873896,41.0428157 25.7233846,40.4023964 26.125,39.934 C27.382,38.806 33.038,41.863 33.879,42.803 C34.8933782,43.9397433 35.1462034,45.5659644 34.5248163,46.9570168 C33.9034292,48.3480691 32.5235285,49.2449469 31,49.248 Z M29.6,46.627 C30.2903252,47.3812794 31.458949,47.439952 32.2213519,46.7586092 C32.9837548,46.0772664 33.0562649,44.9094194 32.384,44.139 C31.0006175,43.1236497 29.4588061,42.3441277 27.821,41.832 C28.1251822,43.5243221 28.7304313,45.1483675 29.608,46.627 L29.6,46.627 Z" id="Shape" fill="#464C63" fill-rule="nonzero"/>
            <path d="M44.154,49.248 C43.0525152,49.2490556 42.0027975,48.7805744 41.268,47.96 C40.196,46.76 39.123,43.133 38.918,41.634 C38.7413539,41.0425017 38.8781704,40.4017632 39.281,39.934 C40.541,38.813 46.192,41.865 47.033,42.805 C48.0432817,43.942661 48.293645,45.5665557 47.6729287,46.9556751 C47.0522124,48.3447946 45.6754799,49.2416352 44.154,49.248 Z M40.979,41.832 C41.2792997,43.5259019 41.8822597,45.1518615 42.759,46.632 C43.2034384,47.1291351 43.8793348,47.3514018 44.5320856,47.2150744 C45.1848364,47.078747 45.7152732,46.6045369 45.9235856,45.9710744 C46.131898,45.3376119 45.9864384,44.6411351 45.542,44.144 C44.1589596,43.1268865 42.6171295,42.3456656 40.979,41.832 Z" id="Shape" fill="#464C63" fill-rule="nonzero"/>
            <path d="M27.521,60 C26.4192686,60.0018501 25.3690569,59.5336746 24.634,58.713 C23.562,57.513 22.489,53.885 22.285,52.387 C22.1081981,51.7958234 22.2442127,51.1553115 22.646,50.687 C22.969,50.398 23.458,49.961 26.641,51.322 C28.0114548,51.8484531 29.2825321,52.6038632 30.4,53.556 C31.4127891,54.6930672 31.6646568,56.3183647 31.0435221,57.7086363 C30.4223874,59.098908 29.0437098,59.9957232 27.521,60 Z M26.121,57.38 C26.8113252,58.1342794 27.979949,58.192952 28.7423519,57.5116092 C29.5047548,56.8302664 29.5772649,55.6624194 28.905,54.892 C27.5216762,53.8763128 25.9798638,53.0964523 24.342,52.584 C24.6438901,54.275719 25.2478548,55.8992764 26.125,57.377 L26.121,57.38 Z" id="Shape" fill="#464C63" fill-rule="nonzero"/>
            <path d="M53.821,60 C52.7193497,60.0014675 51.6692872,59.5333586 50.934,58.713 C49.863,57.513 48.789,53.885 48.585,52.387 C48.4087719,51.7958002 48.5447276,51.1555659 48.946,50.687 C49.27,50.398 49.758,49.961 52.946,51.322 C54.314548,51.8492552 55.5838508,52.6046154 56.7,53.556 C57.7137165,54.6927926 57.9661375,56.318575 57.3448348,57.7092228 C56.723532,59.0998707 55.3441241,59.9965972 53.821,60 Z M50.646,52.584 C50.9463484,54.2777388 51.5489452,55.9036324 52.425,57.384 C53.1120422,58.1525042 54.2919958,58.2185422 55.0605,57.5315 C55.8290042,56.8444578 55.8950422,55.6645042 55.208,54.896 C53.8257705,53.8774383 52.2841901,53.0951589 50.646,52.581 L50.646,52.584 Z" id="Shape" fill="#464C63" fill-rule="nonzero"/>
            <path d="M40.671,60 C39.5692957,60.0017225 38.5191337,59.5335692 37.784,58.713 C36.713,57.513 35.639,53.885 35.435,52.387 C35.258738,51.7954864 35.3955148,51.1549341 35.798,50.687 C36.121,50.4 36.608,49.964 39.792,51.324 C41.1619514,51.8513125 42.4326143,52.6070154 43.55,53.559 C44.559887,54.6964839 44.8099968,56.3199865 44.1892808,57.708674 C43.5685648,59.0973616 42.1920862,59.9938112 40.671,60 Z M37.5,52.581 C37.8202937,54.2692571 38.4216453,55.8917911 39.279,57.381 C39.9693252,58.1352794 41.137949,58.193952 41.9003519,57.5126092 C42.6627548,56.8312664 42.7352649,55.6634194 42.063,54.893 C40.680192,53.8755088 39.1382966,53.0942548 37.5,52.581 Z" id="Shape" fill="#464C63" fill-rule="nonzero"/>
        </g>
    </g>
</svg>
