<?xml version="1.0" encoding="UTF-8"?>
<svg xmlns="http://www.w3.org/2000/svg" xmlns:xlink="http://www.w3.org/1999/xlink" width="60px" height="60px" viewBox="0 0 60 60" version="1.1">
    <!-- Generator: Sketch 51.1 (57501) - http://www.bohemiancoding.com/sketch -->
    <title>23 - Thunder</title>
    <desc>Created with Sketch.</desc>
    <defs/>
    <g id="Page-1" stroke="none" stroke-width="1" fill="none" fill-rule="evenodd">
        <g id="23---Thunder">
            <path d="M30,0.97 C13.9837423,0.97 1,13.9537423 1,29.97 C1,45.9862577 13.9837423,58.97 30,58.97 C46.0162577,58.97 59,45.9862577 59,29.97 C58.9933778,13.9564861 46.0135139,0.976622172 30,0.97 Z" id="Shape" fill="#9298A3"/>
            <path d="M50.89,19.06 C46.5493906,11.825602 39.2750152,6.83863712 30.96218,5.39843698 C22.6493448,3.95823685 14.1213038,6.20743031 7.6,11.56 C-1.86497816,23.0885208 -1.04094017,39.9167358 9.50510391,50.465364 C20.051148,61.0139923 36.8791605,61.8421533 48.41,52.38 C56.1851447,42.9095003 57.1774665,29.5771767 50.89,19.06 Z" id="Shape" fill="#777E8C"/>
            <path d="M30,60 C13.4314575,60 2.02906125e-15,46.5685425 0,30 C-2.02906125e-15,13.4314575 13.4314575,3.04359188e-15 30,0 C46.5685425,-3.04359188e-15 60,13.4314575 60,30 C60.0167723,37.9616246 56.8614534,45.6019909 51.2317221,51.2317221 C45.6019909,56.8614534 37.9616246,60.0167723 30,60 Z M30,2 C14.536027,2 2,14.536027 2,30 C2,45.463973 14.536027,58 30,58 C45.463973,58 58,45.463973 58,30 C57.9807162,14.5440217 45.4559783,2.01928384 30,2 Z" id="Shape" fill="#464C63" fill-rule="nonzero"/>
            <path d="M58.033,12.117 C58.0237005,13.9815137 56.5145137,15.4907005 54.65,15.5 C48.232,15.5 44.932,15.511 44.829,15.49 C43.2646659,15.4211297 41.9528682,14.2859308 41.6600868,12.747697 C41.3673055,11.2094631 42.1703485,9.67173375 43.6,9.033 C43.3690274,7.76287442 43.7135958,6.45574091 44.5406723,5.46452359 C45.3677488,4.47330628 46.592044,3.90022102 47.883,3.9 C48.2643262,3.90461401 48.6438425,3.95326995 49.014,4.045 C49.8612149,2.66031284 51.4093687,1.86304862 53.028634,1.9775542 C54.6478993,2.09205978 56.0684516,3.09925465 56.712375,4.58938695 C57.3562984,6.07951926 57.1162934,7.80428242 56.09,9.062 C57.2744453,9.61834736 58.0313275,10.8084014 58.033,12.117 Z" id="Shape" fill="#D3D6D9" fill-rule="nonzero"/>
            <path d="M55.133,10.067 C55.1242471,11.9319043 53.6149016,13.4416959 51.75,13.451 C43.812,13.451 43.962,13.461 43.862,13.441 C43.0169471,13.406077 42.2160799,13.054024 41.619,12.455 C41.4727106,11.0065773 42.2710989,9.62743307 43.6,9.033 C43.3354511,7.57325437 43.8316578,6.07919171 44.9169355,5.0677493 C46.0022132,4.05630689 47.5274792,3.66642479 48.965,4.033 C48.9807178,4.03756756 48.9967658,4.04091089 49.013,4.043 C49.9560749,2.4878276 51.7755955,1.69418987 53.557,2.061 C54.4872962,3.62425487 54.3402272,5.60249272 53.189,7.011 C54.3745002,7.56682683 55.1320241,8.75766684 55.133,10.067 Z" id="Shape" fill="#F9FAFD" fill-rule="nonzero"/>
            <path d="M49.924,46.362 L43.348,56.954 C43.819,54.4 43.439,56.481 45.048,47.675 L42.891,47.675 C42.643237,47.6742217 42.4082992,47.5647438 42.2483442,47.375531 C42.0883891,47.1863183 42.0195355,46.9364375 42.06,46.692 L43.484,37.792 C43.5467552,37.3821969 43.8994199,37.0796701 44.314,37.08 L47.67,37.08 C47.9398539,37.0798107 48.1937656,37.2077706 48.3541589,37.4247849 C48.5145521,37.6417991 48.5623689,37.9220819 48.483,38.18 L46.348,45.061 L49.2,45.061 C49.5108734,45.0570243 49.7988796,45.2238803 49.9500604,45.4955463 C50.1012412,45.7672123 50.0912346,46.099911 49.924,46.362 Z" id="Shape" fill="#FDEA8E" fill-rule="nonzero"/>
            <path d="M42.365,56.773 L43.844,48.673 L42.891,48.673 C42.3497294,48.6723344 41.8360845,48.4338922 41.4862303,48.0208832 C41.1363761,47.6078743 40.9856468,47.0620113 41.074,46.528 L42.5,37.637 C42.6419242,36.7431143 43.4119189,36.0845717 44.317,36.083 C47.917,36.083 47.897,36.046 48.305,36.195 C49.2342327,36.5264334 49.7363852,37.5320623 49.443,38.474 L47.709,44.065 C49.467,44.065 49.817,43.986 50.42,44.52 C51.1072358,45.1144293 51.2579988,46.1213563 50.775,46.891 L44.2,57.481 C43.9476492,57.8920749 43.4378208,58.0644286 42.9878031,57.8907978 C42.5377854,57.717167 42.2758456,57.2470412 42.365,56.773 Z M43.076,46.673 L45.043,46.673 C45.3395701,46.6729552 45.6208611,46.8045504 45.8108916,47.0322393 C46.0009221,47.2599283 46.0800861,47.5602197 46.027,47.852 L45.281,51.942 L48.931,46.063 L46.348,46.063 C46.0293764,46.0633381 45.7296636,45.9118187 45.541027,45.6550359 C45.3523905,45.3982532 45.2974127,45.0669477 45.393,44.763 L47.469,38.073 L44.45,38.073 L43.076,46.673 Z" id="Shape" fill="#464C63" fill-rule="nonzero"/>
            <path d="M32.811,44.62 L24.505,58 C25.099,54.774 24.619,57.4 26.645,46.28 L23.927,46.28 C23.6140472,46.2789587 23.3173297,46.1405781 23.115395,45.9014905 C22.9134602,45.6624028 22.8266702,45.3467164 22.878,45.038 L24.678,33.799 C24.757105,33.2809322 25.2029279,32.8984339 25.727,32.899 L29.966,32.899 C30.3071911,32.8987304 30.6282125,33.0605934 30.8308692,33.3350778 C31.033526,33.6095622 31.0937055,33.9640095 30.993,34.29 L28.293,42.982 L31.9,42.982 C32.2901988,42.9798009 32.650597,43.1903828 32.8402564,43.531395 C33.0299157,43.8724071 33.0187018,44.289667 32.811,44.62 Z" id="Shape" fill="#FDEA8E" fill-rule="nonzero"/>
            <path d="M23.521,57.819 L25.447,47.279 L23.927,47.279 C23.3213063,47.2778281 22.7466054,47.0110498 22.3547752,46.5491674 C21.9629449,46.087285 21.7934196,45.4767829 21.891,44.879 L23.691,33.644 C23.8474962,32.6413669 24.7102284,31.9016398 25.725,31.9 C30.37,31.9 30.211,31.858 30.67,32.025 C31.7130673,32.3958372 32.277509,33.523838 31.949,34.581 L29.649,41.981 C32.023,41.981 32.532,41.849 33.256,42.488 C34.0376632,43.1483935 34.2087757,44.2858636 33.656,45.147 L25.354,58.527 C25.1004253,58.9350715 24.5924909,59.1051428 24.1443207,58.9320361 C23.6961505,58.7589295 23.4344233,58.2915748 23.521,57.819 Z M25.721,33.9 C23.721,46.054 23.831,45.155 23.921,45.279 L26.64,45.279 C26.9363952,45.2792516 27.2174074,45.4109733 27.4072121,45.638623 C27.5970167,45.8662727 27.6760549,46.1663918 27.623,46.458 L26.44,52.987 C32.526,43.187 31.961,44.187 31.961,44.087 C32.035,43.969 32.203,44.005 28.294,43.978 C27.9753764,43.9783381 27.6756636,43.8268187 27.487027,43.5700359 C27.2983905,43.3132532 27.2434127,42.9819477 27.339,42.678 C30.111,33.745 30.093,33.938 29.985,33.895 L25.721,33.9 Z" id="Shape" fill="#464C63" fill-rule="nonzero"/>
            <path d="M13.32,46.362 L6.744,56.954 C7.215,54.4 6.834,56.481 8.444,47.675 L6.287,47.675 C6.03923704,47.6742217 5.80429921,47.5647438 5.64434416,47.375531 C5.48438912,47.1863183 5.41553551,46.9364375 5.456,46.692 L6.88,37.8 C6.94275516,37.3901969 7.2954199,37.0876701 7.71,37.088 L11.066,37.088 C11.3356946,37.0882398 11.5893116,37.2163042 11.7496102,37.4331904 C11.9099088,37.6500765 11.957912,37.9301083 11.879,38.188 L9.744,45.066 L12.6,45.066 C12.908531,45.064682 13.1933137,45.2314313 13.3431509,45.5011384 C13.4929882,45.7708454 13.4841165,46.100736 13.32,46.362 Z" id="Shape" fill="#FDEA8E" fill-rule="nonzero"/>
            <path d="M5.761,56.773 L7.24,48.673 L6.287,48.673 C5.74599682,48.67189 5.23271137,48.4335146 4.88282265,48.0208845 C4.53293392,47.6082545 4.38166447,47.0629084 4.469,46.529 L5.893,37.635 C6.03502653,36.7414726 6.8052556,36.0835774 7.71,36.083 C11.31,36.083 11.29,36.046 11.698,36.195 C12.6268647,36.5268485 13.1288323,37.5321071 12.836,38.474 L11.1,44.065 C12.858,44.065 13.208,43.986 13.811,44.52 C14.4980216,45.1140355 14.6491792,46.1203378 14.167,46.89 L7.594,57.481 C7.3404253,57.8890715 6.83249095,58.0591428 6.38432073,57.8860361 C5.93615052,57.7129295 5.67442328,57.2455748 5.761,56.773 Z M6.472,46.673 L8.439,46.673 C8.73557013,46.6729552 9.01686113,46.8045504 9.20689161,47.0322393 C9.39692209,47.2599283 9.47608606,47.5602197 9.423,47.852 L8.678,51.942 L12.327,46.063 L9.744,46.063 C9.42537638,46.0633381 9.12566358,45.9118187 8.93702703,45.6550359 C8.74839047,45.3982532 8.69341268,45.0669477 8.789,44.763 L10.865,38.073 L7.846,38.073 L6.472,46.673 Z" id="Shape" fill="#464C63" fill-rule="nonzero"/>
            <path d="M36.137,32.53 C35.9687645,30.1579459 34.9001751,27.9399164 33.15,26.33 C34.0002025,23.0098685 33.7618356,19.5044729 32.47,16.33 C35.7503218,15.6298762 39.173367,16.3712932 41.87,18.366 C43.9822389,23.8603362 41.476228,30.0517087 36.137,32.53 Z" id="Shape" fill="#D3D5D8" fill-rule="nonzero"/>
            <path d="M23.62,25.118 L23.62,25.128 C17.5006888,31.0738833 7.90773623,31.5218032 1.261,26.172 C2.30176062,18.2680419 6.56271048,11.1455896 13.035,6.491 C18.3984925,5.19875305 24.0549817,6.60988803 28.183,10.27 C29.311339,15.6744572 27.5886969,21.2799338 23.62,25.118 Z" id="Shape" fill="#D3D5D8" fill-rule="nonzero"/>
            <path d="M54.167,32.417 C54.1268937,35.9195341 51.2606401,38.7294377 47.758,38.7 L2.334,38.7 C1.05861664,34.6538736 0.692231088,30.3760747 1.261,26.172 C10.514,33.68 24.28,29.243 27.709,18.584 C28.5983988,15.9031469 28.7619431,13.0345666 28.183,10.27 C32.7276931,14.2654868 34.6470722,20.4725609 33.151,26.336 C34.8998511,27.9468978 35.9681719,30.1643697 36.138,32.536 C41.4719771,30.053779 43.9761934,23.867714 41.871,18.374 C44.4411,20.2389233 46.0908405,23.11405 46.404,26.274 C48.278295,25.8591457 50.2397751,26.3097292 51.7451303,27.5009436 C53.2504855,28.692158 54.1398945,30.4975336 54.167,32.417 Z" id="Shape" fill="#B5B9BE" fill-rule="nonzero"/>
            <path d="M47.758,39.7 L2.334,39.7 C1.89762907,39.6995901 1.51191114,39.4162716 1.381,39 C-2.48737061,26.6685712 1.97182403,13.2454647 12.45,5.68 C12.5543071,5.60422823 12.6725795,5.54985011 12.798,5.52 C21.0019491,3.52888919 29.4755858,7.57750199 33.081,15.211 C39.7032533,14.1999114 45.9484691,18.5794499 47.254,25.15 C49.9379716,24.9187108 52.5306768,26.1866453 53.99607,28.4471367 C55.4614631,30.7076281 55.5605845,33.592061 54.2538253,35.9478154 C52.947066,38.3035697 50.4475175,39.7464958 47.754,39.7 L47.758,39.7 Z M3.076,37.7 C51.795,37.7 48.381,37.848 49.652,37.36 C52.0971384,36.4987386 53.5512156,33.985469 53.0791429,31.436426 C52.6070702,28.887383 50.3494017,27.0615141 47.758,27.133 C46.645,27.133 46.338,27.465 45.807,27.071 C45.581347,26.9041341 45.4361991,26.6501253 45.407,26.371 C45.1345851,23.6441853 43.7686026,21.1442136 41.621,19.442 C41.3841228,19.379046 41.1808798,19.2267034 41.054,19.017 C38.6144312,17.3185226 35.5815629,16.7033364 32.673,17.317 C32.2000127,17.4137753 31.7254189,17.1588074 31.545,16.711 C28.5837655,9.62330853 20.9478229,5.69893059 13.461,7.417 C4.00456814,14.3444789 -0.138946745,26.427104 3.076,37.7 Z" id="Shape" fill="#464C63" fill-rule="nonzero"/>
            <path d="M54.65,16.5 C45.741,16.5 44.915,16.507 44.739,16.487 C43.0167106,16.3858777 41.5142213,15.2831326 40.9013762,13.6703935 C40.288531,12.0576544 40.6795077,10.2353872 41.9,9.016 C42.635,8.28 42.538,8.688 42.538,8.25 C42.5322215,6.71060567 43.1926672,5.24397728 44.3491785,4.22798028 C45.5056898,3.21198328 47.0451759,2.74596812 48.571,2.95 C50.303405,0.836288032 53.3505679,0.368446415 55.6372832,1.86508875 C57.9239985,3.36173107 58.7147443,6.3414624 57.471,8.775 C58.8705525,9.96254377 59.3819195,11.896367 58.7523081,13.6204891 C58.1226967,15.3446111 56.4854752,16.4938171 54.65,16.5 Z M44.583,8.844 C44.6714917,9.30368029 44.4292495,9.76323392 44,9.95 C43.7381967,10.0665676 43.5007162,10.2314469 43.3,10.436 C42.634948,11.1010666 42.4245848,12.0957269 42.7634206,12.9731082 C43.1022564,13.8504895 43.9265619,14.4455713 44.866,14.491 C45.818,14.526 41.639,14.514 54.647,14.5 C55.1528502,14.5058509 55.6459625,14.3413628 56.047,14.033 C56.7310104,13.542414 57.1027141,12.7252377 57.0230154,11.8872681 C56.9433166,11.0492986 56.4242286,10.316845 55.66,9.964 C55.3829323,9.83181323 55.1819316,9.57969072 55.1148001,9.28013568 C55.0476685,8.98058064 55.1218456,8.66678966 55.316,8.429 C56.0978433,7.46047289 56.2774439,6.13800074 55.7822193,4.99603918 C55.2869947,3.85407762 54.1988069,3.08139636 52.9574293,2.99026197 C51.7160518,2.89912758 50.526688,3.50460486 49.87,4.562 C49.5994845,4.98679146 49.0682036,5.16374598 48.597,4.986 C47.5047851,4.74566845 46.3647022,5.06672269 45.558401,5.84168781 C44.7520998,6.61665294 44.3861292,7.74312106 44.583,8.844 Z" id="Shape" fill="#464C63" fill-rule="nonzero"/>
        </g>
    </g>
</svg>
