<?xml version="1.0" encoding="UTF-8"?>
<svg xmlns="http://www.w3.org/2000/svg" xmlns:xlink="http://www.w3.org/1999/xlink" width="60px" height="61px" viewBox="0 0 60 61" version="1.1">
    <!-- Generator: Sketch 51.1 (57501) - http://www.bohemiancoding.com/sketch -->
    <title>24 - Windy Leaves</title>
    <desc>Created with Sketch.</desc>
    <defs/>
    <g id="Page-1" stroke="none" stroke-width="1" fill="none" fill-rule="evenodd">
        <g id="24---Windy-Leaves">
            <path d="M30,0.97 C13.9837423,0.97 1,13.9537423 1,29.97 C1,45.9862577 13.9837423,58.97 30,58.97 C46.0162577,58.97 59,45.9862577 59,29.97 C58.9933778,13.9564861 46.0135139,0.976622172 30,0.97 Z" id="Shape" fill="#7AAEDC"/>
            <path d="M50.89,19.06 C46.5493906,11.825602 39.2750152,6.83863712 30.96218,5.39843698 C22.6493448,3.95823685 14.1213038,6.20743031 7.6,11.56 C-1.86497816,23.0885208 -1.04094017,39.9167358 9.50510391,50.465364 C20.051148,61.0139923 36.8791605,61.8421533 48.41,52.38 C56.1851447,42.9095003 57.1774665,29.5771767 50.89,19.06 Z" id="Shape" fill="#599AD3"/>
            <path d="M29.912,60.026 C13.358385,59.9774362 -0.027516964,46.5298277 5.29865706e-05,29.9761645 C0.0276229371,13.4225012 13.4582442,0.0195553691 30.0119291,0.0261314675 C46.5656141,0.032707566 59.9855822,13.4463201 60,30 C60,47.748 45.291,60.026 29.912,60.026 Z M30,2.026 C16.6200554,2.01218753 5.10406889,11.4759301 2.52476892,24.6049179 C-0.0545310487,37.7339056 7.0252707,50.850947 19.416,55.9 C36.915,63.3 58,50.516 58,30 C57.9746381,14.5512396 45.4487784,2.03835311 30,2.029 L30,2.026 Z" id="Shape" fill="#464C63" fill-rule="nonzero"/>
            <path d="M34.214,10.464 C33.536,16.575 30.1,22.511 24.094,25.2 C19.8204023,26.9563057 15.1121103,27.3645391 10.6,26.37 C8.217,25.87 4.3,23.28 2.7,29.151 C2.09766513,31.7062853 1.81185346,34.3259457 1.849,36.951 C1.28146213,34.6776867 0.99631202,32.3430832 1,30 C1,29.519 1.03,28.639 1.048,28.532 C1.648,22.206 3.183,17.032 7.418,11.854 C7.428,11.835 7.428,11.825 7.437,11.835 C13.084,6.157 20.911,7.48 28.047,4.9 C30.2181113,4.23536608 32.1586143,2.97369259 33.647,1.259 L33.657,1.259 L33.811,1.047 C34.4463645,4.14446007 34.5824149,7.32358324 34.214,10.464 Z" id="Shape" fill="#54C58E" fill-rule="nonzero"/>
            <path d="M0.882,37.2 C0.293686347,34.8452812 -0.0025410433,32.4270985 2.95052746e-15,30 C0.105225489,27.1327761 0.51792289,24.2851305 1.231,21.506 C2.03133862,18.7788418 3.22488305,16.1828911 4.774,13.8 C5.37982577,12.8529922 6.047967,11.9473267 6.774,11.089 C10.514,7.352 14.774,6.561 20.314,5.645 C24.134,5.014 30.336,4.015 32.846,0.661 C33.154,0.255 33.446,-0.039 33.995,0.061 C34.4477529,0.148987342 34.7856393,0.529058321 34.82,0.989 C35.4443277,4.14331166 35.5762251,7.37530475 35.211,10.57 C34.482,17.123 30.775,23.3 24.5,26.114 C20.0335588,27.9557461 15.1105055,28.3867052 10.392,27.349 C6.845,26.602 3.112,22.923 2.85,36.973 C2.83855121,37.4720857 2.4607776,37.8862767 1.9648488,37.9434799 C1.46891999,38.000683 1.00677104,37.6833733 0.882,37.2 Z M8.163,12.526 C6.61942801,14.4374478 5.33437405,16.5439007 4.341,18.791 C3.13228786,21.6136024 2.38931091,24.6135407 2.141,27.674 C2.57693385,26.3982082 3.48818483,25.3397386 4.685,24.719 C7.664,23.347 9.507,26.219 16.819,25.854 C21.0903967,25.7890711 25.1768494,24.1003568 28.248,21.131 C31.0623555,18.1947214 32.8127009,14.400781 33.22,10.354 C33.4883635,7.98073348 33.4695611,5.58376452 33.164,3.215 C26.183,9.215 14.824,5.845 8.163,12.526 Z" id="Shape" fill="#464C63" fill-rule="nonzero"/>
            <path d="M6.287,15.142 C8.632,11.842 11.82,9.055 15.93,8.442 C20.376,7.779 25.073,7.618 29.266,5.79 C27.3529368,6.67419396 25.3689567,7.39606701 23.335,7.948 C19.635,8.873 15.685,8.93 11.975,10.648 C9.73152706,11.6442969 7.77529572,13.1898847 6.287,15.142 Z" id="Shape" fill="#29B772" fill-rule="nonzero"/>
            <path d="M4.629,22.044 C5.9991681,19.6023549 8.04135757,17.6052852 10.513,16.29 C13.049,14.937 15.941,14.702 18.546,14.251 C20.769,13.866 22.723,13.786 25.814,11.472 C27.9128223,9.77773537 29.7780358,7.81298995 31.361,5.629 L31.396,5.652 C24.557,18.292 17.662,14.143 10.96,17.21 C8.51878936,18.3343775 6.35673759,19.9852001 4.629,22.044 Z" id="Shape" fill="#464D63" fill-rule="nonzero"/>
            <path d="M8.545,24.685 C10.916913,24.8990829 13.299819,24.9658778 15.68,24.885 C22.914,24.659 26.98,22.452 32.193,14.069 C31.5946546,16.4458162 30.4859768,18.6638544 28.944,20.569 C25.737,24.833 21.02,26.157 15.671,25.878 C13.2591553,25.7424052 10.8694967,25.3423402 8.545,24.685 Z" id="Shape" fill="#29B772" fill-rule="nonzero"/>
            <path d="M10.756,18.677 C11.9587635,18.386581 13.2001002,18.9809357 13.728,20.1 C14.107,20.919 14.348,22.464 15.2,22.993 C14.6,22.899 14.217,22.335 13.928,21.857 C13.6800204,21.3535922 13.4733409,20.8308734 13.31,20.294 C12.8355954,19.3130303 11.8456219,18.6862538 10.756,18.677 Z" id="Shape" fill="#464D63" fill-rule="nonzero"/>
            <path d="M15.958,16.953 C17.3932187,16.7942712 18.7378918,17.6804948 19.158,19.062 C19.417,19.875 19.705,22.056 20.558,22.616 C19.9365468,22.3129293 19.4666308,21.7681883 19.258,21.109 C18.649,19.747 18.992,18.794 17.711,17.687 C17.2005402,17.2938786 16.5962737,17.0408657 15.958,16.953 Z" id="Shape" fill="#464D63" fill-rule="nonzero"/>
            <path d="M21.5,15.943 C22.6663942,15.7870361 23.7738195,16.4997691 24.115,17.626 C24.386,18.46 24.507,19.921 25.203,20.5 C24.647,20.346 24.351,19.776 24.119,19.3 C23.9243214,18.8045411 23.7763454,18.2919816 23.677,17.769 C23.3704278,16.7872674 22.5201045,16.0740426 21.5,15.943 Z" id="Shape" fill="#464D63" fill-rule="nonzero"/>
            <path d="M26.116,13.643 C26.8688722,13.2337193 27.8091731,13.4574773 28.297,14.162 C28.712,14.719 29.042,15.609 29.603,15.895 C29.1951562,15.8804612 28.814699,15.6860216 28.564,15.364 C28.3173281,15.0785345 28.1030225,14.7666342 27.925,14.434 C27.5157496,13.8547691 26.8191183,13.5501614 26.116,13.643 Z" id="Shape" fill="#464D63" fill-rule="nonzero"/>
            <path d="M29.293,9.721 C29.8651089,9.36909512 30.6126457,9.52739702 30.993,10.081 C31.31,10.497 31.548,11.181 31.937,11.426 C31.6187642,11.438489 31.3130545,11.3011787 31.111,11.055 C30.9173514,10.8444253 30.7525731,10.6090276 30.621,10.355 C30.3211263,9.92424725 29.8165011,9.68333431 29.293,9.721 Z" id="Shape" fill="#464D63" fill-rule="nonzero"/>
            <path d="M8.365,14.016 C9.02534269,13.9906472 9.59757631,14.4695254 9.689,15.124 C9.72178997,15.3260978 9.71738432,15.5324856 9.676,15.733 L9.637,15.733 C9.58546536,14.9610876 9.08842339,14.2901591 8.365,14.016 Z" id="Shape" fill="#464D63" fill-rule="nonzero"/>
            <path d="M13.033,10.925 C13.824898,10.8721584 14.562926,11.3281529 14.87,12.06 C15.079,12.642 14.87,13.274 15.401,14.099 C15.085332,13.8829371 14.8531293,13.5653345 14.743,13.199 C14.497,12.255 14.793,11.594 13.033,10.947 L13.033,10.925 Z" id="Shape" fill="#464D63" fill-rule="nonzero"/>
            <path d="M19.275,9.312 C20.0817778,9.33691194 20.7524274,9.94117314 20.861,10.741 C20.893,11.541 20.486,12.155 20.583,12.881 C20.4235398,12.5430485 20.3732125,12.1638461 20.439,11.796 C20.529,10.777 20.817,10.148 19.272,9.322 L19.275,9.312 Z" id="Shape" fill="#464D63" fill-rule="nonzero"/>
            <path d="M24.562,8.134 C25.1301663,8.21655744 25.5973112,8.6242333 25.756,9.176 C25.7309862,9.68189893 25.7483803,10.1890041 25.808,10.692 L25.8,10.7 C25.622125,10.4953765 25.5044365,10.2454616 25.46,9.978 C25.312,9.072 25.721,9.158 24.55,8.169 L24.562,8.134 Z" id="Shape" fill="#464D63" fill-rule="nonzero"/>
            <path d="M39.93,22.829 L30.672,22.829 C30.4671921,22.837676 30.2741172,22.7333555 30.1691264,22.5572916 C30.0641356,22.3812277 30.0641356,22.1617723 30.1691264,21.9857084 C30.2741172,21.8096445 30.4671921,21.705324 30.672,21.714 L39.93,21.714 C41.4335456,21.7807072 42.8313084,20.9420495 43.48,19.584 C44.2006002,18.1786197 44.0986566,16.4923352 43.214,15.184 C42.4502242,14.2468071 41.1985222,13.8596666 40.039,14.202 C37.627,14.683 37.516,18.02 40.546,18.02 C40.6811422,18.0270712 40.8091576,17.9589951 40.878853,17.8429952 C40.9485484,17.7269954 40.9485484,17.5820046 40.878853,17.4660048 C40.8091576,17.3500049 40.6811422,17.2819288 40.546,17.289 C40.3981012,17.2892655 40.2561691,17.230699 40.1514949,17.1262125 C40.0468208,17.0217259 39.9879998,16.879899 39.988,16.732 C39.988,15.732 42.029,16.099 42.029,17.655 C42.0390123,18.0511197 41.8859184,18.4339712 41.605541,18.7139705 C41.3251636,18.9939697 40.9421058,19.1465468 40.546,19.136 C36.238,19.136 36.03,13.864 39.821,13.108 C46.69,11.742 46.875,22.829 39.93,22.829 Z" id="Shape" fill="#F9FAFD" fill-rule="nonzero"/>
            <path d="M10.422,47.107 L19.68,47.107 C19.8848079,47.115676 20.0778828,47.0113555 20.1828736,46.8352916 C20.2878644,46.6592277 20.2878644,46.4397723 20.1828736,46.2637084 C20.0778828,46.0876445 19.8848079,45.983324 19.68,45.992 L10.422,45.992 C8.91831807,46.0592455 7.52028075,45.2204231 6.872,43.862 C6.15096161,42.4567116 6.25291944,40.7701912 7.138,39.462 C7.9015325,38.5244423 9.15327577,38.1368947 10.313,38.479 C12.724,38.961 12.836,42.297 9.806,42.297 C9.67559805,42.297 9.55510167,42.2274314 9.48990069,42.1145 C9.42469971,42.0015686 9.42469971,41.8624314 9.48990069,41.7495 C9.55510167,41.6365686 9.67559805,41.567 9.806,41.567 C10.1141749,41.567 10.364,41.3171749 10.364,41.009 C10.364,40.009 8.323,40.376 8.323,41.932 C8.31298774,42.3281197 8.46608165,42.7109712 8.74645902,42.9909705 C9.0268364,43.2709697 9.40989418,43.4235468 9.806,43.413 C14.113,43.413 14.322,38.141 10.531,37.385 C3.661,36.02 3.476,47.107 10.422,47.107 Z" id="Shape" fill="#F9FAFD" fill-rule="nonzero"/>
            <path d="M19.031,41.282 L28.289,41.282 C28.4938079,41.290676 28.6868828,41.1863555 28.7918736,41.0102916 C28.8968644,40.8342277 28.8968644,40.6147723 28.7918736,40.4387084 C28.6868828,40.2626445 28.4938079,40.158324 28.289,40.167 L19.031,40.167 C17.5276187,40.234154 16.1297827,39.3958461 15.481,38.038 C14.7603998,36.6326197 14.8623434,34.9463352 15.747,33.638 C16.5105325,32.7004423 17.7622758,32.3128947 18.922,32.655 C21.333,33.137 21.445,36.473 18.415,36.473 C18.2134161,36.473 18.05,36.3095839 18.05,36.108 C18.05,35.9064161 18.2134161,35.743 18.415,35.743 C18.7231749,35.743 18.973,35.4931749 18.973,35.185 C18.973,34.185 16.932,34.552 16.932,36.108 C16.9219877,36.5041197 17.0750816,36.8869712 17.355459,37.1669705 C17.6358364,37.4469697 18.0188942,37.5995468 18.415,37.589 C22.723,37.589 22.931,32.318 19.14,31.562 C12.27,30.2 12.086,41.282 19.031,41.282 Z" id="Shape" fill="#F9FAFD" fill-rule="nonzero"/>
            <path d="M49.786,25.906 L36.061,25.906 C35.7528251,25.906 35.503,25.6561749 35.503,25.348 C35.503,25.0398251 35.7528251,24.79 36.061,24.79 L49.786,24.79 C51.2890934,24.8570134 52.6865663,24.0186871 53.335,22.661 C54.0562577,21.2557577 53.9542927,19.5691191 53.069,18.261 C52.305392,17.3242088 51.0542178,16.9371095 49.895,17.279 C47.49,17.76 47.366,21.098 50.402,21.098 C50.596438,21.0878261 50.7488754,20.927204 50.7488754,20.7325 C50.7488754,20.537796 50.596438,20.3771739 50.402,20.367 C50.2541012,20.3672655 50.1121691,20.308699 50.0074949,20.2042125 C49.9028208,20.0997259 49.8439998,19.957899 49.844,19.81 C49.844,18.81 51.884,19.177 51.884,20.733 C51.8922893,21.1287922 51.7385033,21.5107867 51.4582914,21.7904321 C51.1780796,22.0700775 50.7957747,22.2230902 50.4,22.214 C46.067,22.214 45.915,16.937 49.675,16.186 C56.5,14.823 56.786,25.906 49.786,25.906 Z" id="Shape" fill="#F9FAFD" fill-rule="nonzero"/>
            <path d="M58.989,30.329 C58.8886473,38.9773065 54.927247,47.1278876 48.189,52.55 C40.571,57.637 32.348,54.329 23.55,55.631 C20.961,56.001 18.125,56.831 16.203,58.631 C16.125,50.331 19.163,41.283 26.362,36.419 C32.682,32.13 41.253,32.581 47.986,35.502 C51.062,36.838 55.545,41.635 58.989,30.329 Z" id="Shape" fill="#54C58E" fill-rule="nonzero"/>
            <path d="M15.207,58.644 C15.2057216,54.9225261 15.7926288,51.2242347 16.946,47.686 C19.192,40.676 24.555,34.749 31.795,32.923 C37.3614123,31.6950322 43.1746006,32.2784183 48.386,34.588 C51.77,36.057 54.95,40.146 58.032,30.038 C58.1762641,29.5617723 58.648723,29.2640679 59.1405766,29.339467 C59.6324302,29.4148661 59.9940157,29.8404261 59.989,30.338 C59.8903312,39.2887865 55.7927305,47.7261022 48.819,53.338 C39.845,59.354 29.833,54.424 20.653,57.309 C19.2608715,57.7075789 17.9755027,58.4124476 16.891,59.372 C16.6004139,59.6444694 16.1758292,59.7184876 15.810187,59.560419 C15.4445449,59.4023504 15.2075899,59.042346 15.207,58.644 Z M17.262,56.61 C23.482,52.939 32.662,54.926 39.422,54.383 C42.3528299,54.2669511 45.1949437,53.3451844 47.636,51.719 C51.3525133,48.6922284 54.2371327,44.7689808 56.018,40.319 C57.342,40.611 57.326,40.642 56.06,40.226 C56.5407569,38.9914939 56.9376586,37.7259522 57.248,36.438 C56.5115455,37.473543 55.4396345,38.2225381 54.214,38.558 C50.487,39.438 49.474,35.823 40.914,34.537 C26.769,32.439 18.147,42.621 17.262,56.61 Z" id="Shape" fill="#464C63" fill-rule="nonzero"/>
            <path d="M50.275,49.074 C46.9,52.24 42.687,54.646 37.938,54.4 C32.801,54.135 27.496,53.25 22.378,54.35 C24.724937,53.7933305 27.1142219,53.4334159 29.521,53.274 C33.879,53.074 38.321,53.908 42.875,52.82 C45.6169929,52.212262 48.1618639,50.924007 50.275,49.074 Z" id="Shape" fill="#29B772" fill-rule="nonzero"/>
            <path d="M53.7,41.709 C51.6092495,44.1374388 48.8651991,45.9145117 45.794,46.829 C42.643,47.772 39.346,47.379 36.322,47.294 C33.412,47.213 31.403,46.93 27.54,48.763 C24.8011171,50.1888019 22.2630641,51.9709535 19.992,54.063 L19.957,54.029 C30.5,41.4 37.289,47.616 45.5,45.7 C48.4941702,44.9905595 51.2943751,43.6276793 53.7,41.709 Z" id="Shape" fill="#464D63" fill-rule="nonzero"/>
            <path d="M49.909,37.859 C47.2976477,37.081303 44.6405383,36.466454 41.953,36.018 C33.802,34.633 28.729,36.177 20.976,44.404 C22.1871074,41.8735557 23.9341636,39.6368459 26.096,37.849 C30.669,33.786 36.267,33.381 42.189,34.904 C44.8629248,35.6028735 47.4518354,36.593836 49.909,37.859 Z" id="Shape" fill="#29B772" fill-rule="nonzero"/>
            <path d="M46.065,44.1 C44.651309,44.1542252 43.3938422,43.2083062 43.054,41.835 C42.815,40.83 42.895,39.044 42.06,38.257 C42.6578665,38.5833653 43.0844563,39.1533681 43.229,39.819 C43.392918,40.4397672 43.5059591,41.0728638 43.567,41.712 C43.8781804,42.9180428 44.8461748,43.8434114 46.065,44.1 Z" id="Shape" fill="#464D63" fill-rule="nonzero"/>
            <path d="M39.839,44.851 C38.1950198,44.7025539 36.8899346,43.4041916 36.733,41.761 C36.626,40.784 36.799,38.279 35.964,37.461 C36.5925366,37.9415708 36.9960346,38.6592622 37.08,39.446 C37.454,41.112 36.854,42.103 38.039,43.634 C38.5229845,44.1892657 39.1433944,44.6087318 39.839,44.851 Z" id="Shape" fill="#464D63" fill-rule="nonzero"/>
            <path d="M33.4,44.728 C32.0559971,44.639185 30.9751662,43.5880123 30.849,42.247 C30.734,41.247 30.93,39.584 30.282,38.777 C30.8059809,39.1507718 31.1482979,39.7279553 31.225,40.367 C31.3307962,40.9670745 31.3803445,41.5757149 31.373,42.185 C31.4934539,43.35603 32.285311,44.3494649 33.4,44.728 Z" id="Shape" fill="#464D63" fill-rule="nonzero"/>
            <path d="M27.7,46.26 C26.7631049,46.5481702 25.7595683,46.0843362 25.372,45.184 C25.033,44.465 24.864,43.392 24.301,42.944 C24.783,42.983 25.101,43.419 25.345,43.776 C25.5572915,44.1516147 25.7270082,44.5497445 25.851,44.963 C26.1784193,45.7053447 26.8905317,46.2048633 27.7,46.26 Z" id="Shape" fill="#464D63" fill-rule="nonzero"/>
            <path d="M23.241,49.938 C22.5209938,50.2027049 21.7199278,49.8560601 21.42,49.15 C21.158,48.612 21.046,47.795 20.667,47.428 C21.049,47.428 21.311,47.764 21.509,48.028 C21.6777713,48.309668 21.8088884,48.6122461 21.899,48.928 C22.1371708,49.4775718 22.6469758,49.8612552 23.241,49.938 Z" id="Shape" fill="#464D63" fill-rule="nonzero"/>
            <path d="M47.688,49.866 C46.9417185,49.7446565 46.4087306,49.0776651 46.455,48.323 C46.4637468,48.0888529 46.5156148,47.8583285 46.608,47.643 L46.652,47.653 C46.5346704,48.5298185 46.9394763,49.3945246 47.688,49.866 Z" id="Shape" fill="#464D63" fill-rule="nonzero"/>
            <path d="M41.751,52.274 C40.8520018,52.1528997 40.1289995,51.4744825 39.951,50.585 C39.851,49.885 40.226,49.223 39.819,48.178 L39.826,48.178 C40.1301485,48.4909754 40.3182067,48.8984936 40.359,49.333 C40.421,50.448 39.939,51.123 41.766,52.247 L41.751,52.274 Z" id="Shape" fill="#464D63" fill-rule="nonzero"/>
            <path d="M32.93,50.707 C33.076,49.796 33.671,49.207 33.73,48.369 C33.8325195,48.7842769 33.8031601,49.2211736 33.646,49.619 C33.313,50.74 32.846,51.382 34.393,52.658 C33.5000754,52.4434038 32.885843,51.6242874 32.93,50.707 Z" id="Shape" fill="#464D63" fill-rule="nonzero"/>
            <path d="M28.187,52.791 C27.5697757,52.5686762 27.1396027,52.0059317 27.087,51.352 C27.230087,50.790345 27.3257564,50.2176662 27.373,49.64 L27.389,49.635 C27.5421362,49.9048434 27.617265,50.2119367 27.606,50.522 C27.567,51.573 27.127,51.383 28.216,52.758 L28.187,52.791 Z" id="Shape" fill="#464D63" fill-rule="nonzero"/>
        </g>
    </g>
</svg>
