<?xml version="1.0" encoding="UTF-8"?>
<svg xmlns="http://www.w3.org/2000/svg" xmlns:xlink="http://www.w3.org/1999/xlink" width="60px" height="60px" viewBox="0 0 60 60" version="1.1">
    <!-- Generator: Sketch 51.1 (57501) - http://www.bohemiancoding.com/sketch -->
    <title>25 - Crescent Moon</title>
    <desc>Created with Sketch.</desc>
    <defs/>
    <g id="Page-1" stroke="none" stroke-width="1" fill="none" fill-rule="evenodd">
        <g id="25---Crescent-Moon">
            <path d="M30,0.97 C13.9837423,0.97 1,13.9537423 1,29.97 C1,45.9862577 13.9837423,58.97 30,58.97 C46.0162577,58.97 59,45.9862577 59,29.97 C58.9933778,13.9564861 46.0135139,0.976622172 30,0.97 Z" id="Shape" fill="#7AAEDC"/>
            <path d="M50.89,19.06 C46.5493906,11.825602 39.2750152,6.83863712 30.96218,5.39843698 C22.6493448,3.95823685 14.1213038,6.20743031 7.6,11.56 C-1.86497816,23.0885208 -1.04094017,39.9167358 9.50510391,50.465364 C20.051148,61.0139923 36.8791605,61.8421533 48.41,52.38 C56.1851447,42.9095003 57.1774665,29.5771767 50.89,19.06 Z" id="Shape" fill="#599AD3"/>
            <path d="M30,60 C13.4314575,60 2.02906125e-15,46.5685425 0,30 C-2.02906125e-15,13.4314575 13.4314575,3.04359188e-15 30,0 C46.5685425,-3.04359188e-15 60,13.4314575 60,30 C60.0167723,37.9616246 56.8614534,45.6019909 51.2317221,51.2317221 C45.6019909,56.8614534 37.9616246,60.0167723 30,60 Z M30,2 C14.536027,2 2,14.536027 2,30 C2,45.463973 14.536027,58 30,58 C45.463973,58 58,45.463973 58,30 C57.9807162,14.5440217 45.4559783,2.01928384 30,2 Z" id="Shape" fill="#464C63" fill-rule="nonzero"/>
            <polygon id="Shape" fill="#B5E5ED" fill-rule="nonzero" points="17.037 10.763 17.027 10.773 17.027 10.763"/>
            <path d="M53.181,29 C52.802601,20.6181118 47.9327193,13.0919959 40.4418232,9.31235138 C32.9509272,5.53270687 24.0038246,6.08725504 17.037,10.763 C18.8323311,10.5886983 20.6428696,10.6539369 22.421,10.957 C32.6476641,12.7264304 39.7272653,22.1542748 38.5746545,32.4686837 C37.4220438,42.7830926 28.4359845,50.4156375 18.071,49.884 C25.3900305,54.2727683 34.5276369,54.2890058 41.8622188,49.926277 C49.1968007,45.5635482 53.5440587,37.5262936 53.181,29 Z" id="Shape" fill="#B5B9BE" fill-rule="nonzero"/>
            <polygon id="Shape" fill="#D3D5D8" fill-rule="nonzero" points="17.027 10.773 17.037 10.763 17.027 10.763"/>
            <path d="M44.355,11.778 C36.4383554,5.5357567 25.3950384,5.12544237 17.037,10.763 C18.8327517,10.603539 20.6413821,10.6687088 22.421,10.957 C28.3153501,11.9829436 33.4205569,15.6398501 36.2886787,20.8905454 C39.1568004,26.1412407 39.4749891,32.4129915 37.153,37.927 C37.153,37.927 37.153,37.946 37.144,37.946 C34.7681176,43.5035036 29.978178,47.6670666 24.144,49.246 C26.9472199,49.4918748 29.77176,49.2207081 32.477,48.446 L32.486,48.446 C32.496,48.456 32.506,48.446 32.515,48.436 C33.9854691,48.0278912 35.4081905,47.4640323 36.759,46.754 C42.9112399,43.5777506 47.3243898,37.8208988 48.7938228,31.0548525 C50.2632558,24.2888062 48.6355467,17.2200158 44.355,11.778 Z" id="Shape" fill="#D3D5D8" fill-rule="nonzero"/>
            <path d="M33.867,11.15 C33.8647907,11.947558 33.2172311,12.5927303 32.4196704,12.5919938 C31.6221096,12.5912574 30.9757426,11.9448904 30.9750062,11.1473296 C30.9742697,10.3497689 31.619442,9.70220931 32.417,9.7 C32.8019714,9.6986656 33.1715604,9.85100447 33.443778,10.123222 C33.7159955,10.3954396 33.8683344,10.7650286 33.867,11.15 Z" id="Shape" fill="#9298A3" fill-rule="nonzero"/>
            <path d="M42.567,17.917 C42.567,19.2518722 41.4848722,20.334 40.15,20.334 C38.8151278,20.334 37.733,19.2518722 37.733,17.917 C37.733,16.5821278 38.8151278,15.5 40.15,15.5 C41.4844152,15.5011028 42.5658972,16.5825848 42.567,17.917 Z" id="Shape" fill="#9298A3" fill-rule="nonzero"/>
            <path d="M46.433,25.65 C46.4307907,26.447558 45.7832311,27.0927303 44.9856704,27.0919938 C44.1881096,27.0912574 43.5417426,26.4448904 43.5410062,25.6473296 C43.5402697,24.8497689 44.185442,24.2022093 44.983,24.2 C45.3679714,24.1986656 45.7375604,24.3510045 46.009778,24.623222 C46.2819955,24.8954396 46.4343344,25.2650286 46.433,25.65 Z" id="Shape" fill="#9298A3" fill-rule="nonzero"/>
            <path d="M47.4,30 C46.2905229,29.9995625 45.2784535,30.6334562 44.7945852,31.6318604 C44.310717,32.6302647 44.4402314,33.8174175 45.128,34.688 C45.6359237,35.3411775 46.401837,35.7423702 47.228,35.788 C48.0092401,34.081833 48.580097,32.2869918 48.928,30.443 C48.471181,30.1529799 47.9411052,29.9992995 47.4,30 Z" id="Shape" fill="#9298A3" fill-rule="nonzero"/>
            <path d="M47.4,35.8 C47.3418206,35.8016567 47.2836065,35.7983111 47.226,35.79 L47.458,35.268 C48.3917596,35.0919798 49.1791142,34.4677554 49.5634715,33.5987562 C49.9478289,32.7297569 49.8799665,31.727271 49.382,30.918 C48.746,30.518 48.876,30.854 48.927,30.445 C50.0183903,31.1312125 50.5257453,32.4555204 50.1722187,33.6952943 C49.8186921,34.9350682 48.6891726,35.7926147 47.4,35.8 Z" id="Shape" fill="#575A63" fill-rule="nonzero"/>
            <path d="M44.5,40.15 C44.4977907,40.947558 43.8502311,41.5927303 43.0526704,41.5919938 C42.2551096,41.5912574 41.6087426,40.9448904 41.6080062,40.1473296 C41.6072697,39.3497689 42.252442,38.7022093 43.05,38.7 C43.4349714,38.6986656 43.8045604,38.8510045 44.076778,39.123222 C44.3489955,39.3954396 44.5013344,39.7650286 44.5,40.15 Z" id="Shape" fill="#A3CFD3" fill-rule="nonzero"/>
            <path d="M35.8,44.983 C34.8376449,44.2623863 33.4919492,44.3586406 32.6419538,45.2088872 C31.7919584,46.0591338 31.6961019,47.4048579 32.417,48.367 C32.4335459,48.3946523 32.4529888,48.4204645 32.475,48.444 L32.484,48.444 C32.494,48.454 32.504,48.444 32.513,48.434 C33.9798373,48.0151441 35.401474,47.4517151 36.757,46.752 C36.7123806,46.0506603 36.3626103,45.4041151 35.8,44.983 Z" id="Shape" fill="#9298A3" fill-rule="nonzero"/>
            <path d="M36.767,46.917 C36.7654723,47.9367686 36.1235577,48.8456732 35.1630101,49.1881332 C34.2024626,49.5305931 33.1303262,49.232792 32.484,48.444 C32.494,48.454 32.504,48.444 32.513,48.434 C32.5574361,48.4316006 32.6006468,48.4185688 32.639,48.396 C32.6606259,48.4492562 32.6863706,48.5007455 32.716,48.55 C33.3681997,48.9108483 34.1510386,48.9481883 34.8346229,48.6510544 C35.5182072,48.3539205 36.024936,47.7560435 36.206,47.033 C36.39,46.946 36.573,46.849 36.757,46.752 C36.7655869,46.8065553 36.7689355,46.861807 36.767,46.917 Z" id="Shape" fill="#575A63" fill-rule="nonzero"/>
            <path d="M31.189,11.9 C31.0408416,11.6767188 30.9634723,11.4139421 30.967,11.146 C30.9671793,10.6231627 31.2501578,10.1413213 31.7066899,9.88649335 C32.1632221,9.63166539 32.7218835,9.64371869 33.167,9.918 C33.5086228,10.4854946 33.4200113,11.2126931 32.9521065,11.6815442 C32.4842016,12.1503953 31.7571836,12.2404757 31.189,11.9 Z" id="Shape" fill="#9298A3" fill-rule="nonzero"/>
            <path d="M38.217,19.367 C37.4961019,18.4048579 37.5919584,17.0591338 38.4419538,16.2088872 C39.2919492,15.3586406 40.6376449,15.2623863 41.6,15.983 C42.3168817,16.9454935 42.2193182,18.2881454 41.3708233,19.1368912 C40.5223283,19.9856369 39.1797053,20.0835972 38.217,19.367 Z" id="Shape" fill="#9298A3" fill-rule="nonzero"/>
            <path d="M43.756,26.4 C43.6075454,26.1768055 43.5298304,25.9140382 43.533,25.646 C43.5331793,25.1231627 43.8161578,24.6413213 44.2726899,24.3864934 C44.7292221,24.1316654 45.2878835,24.1437187 45.733,24.418 C46.0739141,24.9852875 45.9852049,25.711766 45.5178019,26.1803511 C45.0503989,26.6489362 44.3241468,26.7394801 43.756,26.4 Z" id="Shape" fill="#9298A3" fill-rule="nonzero"/>
            <path d="M49.817,32.417 C49.817,35.892 44.5,36.471 44.5,32.9 C44.5042746,31.7926824 45.1387539,30.7844521 46.1352223,30.3015221 C47.1316907,29.818592 48.3161928,29.9452681 49.188,30.628 C49.5922273,31.1369935 49.8137431,31.7670281 49.817,32.417 Z" id="Shape" fill="#9298A3" fill-rule="nonzero"/>
            <path d="M41.822,40.9 C41.6738416,40.6767188 41.5964723,40.4139421 41.6,40.146 C41.6001793,39.6231627 41.8831578,39.1413213 42.3396899,38.8864934 C42.7962221,38.6316654 43.3548835,38.6437187 43.8,38.918 C44.1416228,39.4854946 44.0530113,40.2126931 43.5851065,40.6815442 C43.1172016,41.1503953 42.3901836,41.2404757 41.822,40.9 Z" id="Shape" fill="#93BABC" fill-rule="nonzero"/>
            <path d="M32.417,48.367 C31.6961019,47.4048579 31.7919584,46.0591338 32.6419538,45.2088872 C33.4919492,44.3586406 34.8376449,44.2623863 35.8,44.983 C36.5168817,45.9454935 36.4193182,47.2881454 35.5708233,48.1368912 C34.7223283,48.9856369 33.3797053,49.0835972 32.417,48.367 Z" id="Shape" fill="#9298A3" fill-rule="nonzero"/>
            <path d="M31.508,12.049 C31.3574374,11.5377187 31.4982708,10.9850316 31.8751512,10.6081512 C32.2520316,10.2312708 32.8047187,10.0904374 33.316,10.241 C33.4732402,10.7530849 33.3347098,11.3101407 32.9559252,11.6889252 C32.5771407,12.0677098 32.0200849,12.2062402 31.508,12.049 Z" id="Shape" fill="#B5B9BE" fill-rule="nonzero"/>
            <path d="M42.083,17.433 C42.0828308,18.2842 41.6340199,19.0722885 40.9020299,19.5067216 C40.1700399,19.9411547 39.2632631,19.957602 38.516,19.55 C38.1090377,18.8026701 38.125795,17.8962361 38.5601019,17.1644588 C38.9944087,16.4326816 39.7820477,15.9837627 40.633,15.983 C41.0361889,15.9815076 41.4328358,16.0848908 41.784,16.283 C41.9817641,16.6338952 42.0848076,17.0302162 42.083,17.433 Z" id="Shape" fill="#B5B9BE" fill-rule="nonzero"/>
            <path d="M44.075,26.549 C43.9239029,26.0378481 44.0643949,25.4849912 44.4411902,25.1079874 C44.8179855,24.7309836 45.3707646,24.5901857 45.882,24.741 C46.0397935,25.2529528 45.9016129,25.8101913 45.5229075,26.1891063 C45.144202,26.5680214 44.58704,26.7065103 44.075,26.549 Z" id="Shape" fill="#B5B9BE" fill-rule="nonzero"/>
            <path d="M47.458,35.268 C48.09506,33.7930998 48.5714721,32.2538965 48.879,30.677 C49.0542611,30.7381258 49.2220048,30.8189782 49.379,30.918 C49.8769354,31.7268461 49.9451606,32.7288656 49.5614575,33.5977405 C49.1777543,34.4666154 48.391221,35.0911657 47.458,35.268 Z" id="Shape" fill="#797B82" fill-rule="nonzero"/>
            <path d="M48.879,30.677 C48.5714721,32.2538965 48.09506,33.7930998 47.458,35.268 C46.7536571,35.4041655 46.0239034,35.2660846 45.418,34.882 C44.7777587,33.8342283 44.8716947,32.4958603 45.6520178,31.5477937 C46.4323408,30.5997271 47.7276685,30.2501859 48.879,30.677 Z" id="Shape" fill="#B5B9BE" fill-rule="nonzero"/>
            <path d="M42.141,41.049 C41.9904374,40.5377187 42.1312708,39.9850316 42.5081512,39.6081512 C42.8850316,39.2312708 43.4377187,39.0904374 43.949,39.241 C44.1062402,39.7530849 43.9677098,40.3101407 43.5889252,40.6889252 C43.2101407,41.0677098 42.6530849,41.2062402 42.141,41.049 Z" id="Shape" fill="#B5E5ED" fill-rule="nonzero"/>
            <path d="M36.206,47.033 C36.0228113,47.7546074 35.5158823,48.3507617 34.8330986,48.6475476 C34.150315,48.9443335 33.3685992,48.9083151 32.716,48.55 C32.6863706,48.5007455 32.6606259,48.4492562 32.639,48.396 C33.8656603,48.0471206 35.0592591,47.59103 36.206,47.033 Z" id="Shape" fill="#797B82" fill-rule="nonzero"/>
            <path d="M36.206,47.033 C35.0593931,47.5923994 33.8657909,48.0498298 32.639,48.4 C32.212888,47.4569943 32.4360574,46.3472413 33.1935764,45.6422618 C33.9510953,44.9372823 35.0740014,44.7943199 35.984,45.287 C36.2814837,45.8182347 36.3610767,46.4442233 36.206,47.033 Z" id="Shape" fill="#B5B9BE" fill-rule="nonzero"/>
            <polygon id="Shape" fill="#FEF2BB" fill-rule="nonzero" points="20.383 27.1 20.697 27.736 21.399 27.838 20.891 28.334 21.011 29.033 20.383 28.703 19.755 29.033 19.875 28.334 19.367 27.838 20.069 27.736"/>
            <polygon id="Shape" fill="#FEF2BB" fill-rule="nonzero" points="19.32 14.538 19.633 15.173 20.333 15.275 19.826 15.769 19.946 16.467 19.32 16.137 18.693 16.467 18.813 15.769 18.306 15.275 19.006 15.173"/>
            <polygon id="Shape" fill="#FEF2BB" fill-rule="nonzero" points="30.233 21.3 30.759 22.365 31.933 22.535 31.083 23.364 31.284 24.534 30.233 23.982 29.182 24.534 29.383 23.364 28.533 22.535 29.708 22.365"/>
            <polygon id="Shape" fill="#FEF2BB" fill-rule="nonzero" points="8.371 18.772 8.782 19.604 9.7 19.737 9.035 20.385 9.192 21.3 8.371 20.868 7.549 21.3 7.706 20.385 7.042 19.737 7.96 19.604"/>
            <path d="M13.963,16.94 C13.0862347,17.407787 12.5045128,18.2861982 12.416,19.276 C12.396,19.397 12.295,19.397 12.275,19.276 C12.2181697,18.9564223 12.1259349,18.6441655 12,18.345 C12.1655883,17.5179688 12.7025837,16.8131623 13.456,16.434 C13.6058386,16.5596922 13.7745828,16.6609387 13.956,16.734 C13.9958175,16.7520577 14.0219513,16.7911318 14.0234361,16.8348274 C14.0249209,16.878523 14.0014998,16.9192811 13.963,16.94 Z" id="Shape" fill="#D3D6D9" fill-rule="nonzero"/>
            <path d="M13.458,16.434 C12.7038166,16.8126907 12.1660254,17.5175733 12,18.345 C11.7739875,17.7298262 11.3164165,17.2273952 10.725,16.945 C10.6890188,16.9245666 10.6667891,16.8863784 10.6667891,16.845 C10.6667891,16.8036216 10.6890188,16.7654334 10.725,16.745 C11.6012827,16.2716942 12.1829589,15.3916744 12.275,14.4 C12.295,14.279 12.396,14.279 12.416,14.4 C12.5172769,15.1782195 12.885576,15.8971449 13.458,16.434 Z" id="Shape" fill="#F9FAFD" fill-rule="nonzero"/>
            <path d="M28.179,29.111 C26.8648405,29.8118652 25.9922591,31.1276923 25.858,32.611 C25.827,32.793 25.676,32.793 25.645,32.611 C25.5615718,32.1304785 25.4243766,31.6608616 25.236,31.211 C25.4849421,29.970583 26.290245,28.9134385 27.42,28.344 C27.6473707,28.5348162 27.9035489,28.6883882 28.179,28.799 C28.2390233,28.8277751 28.2772136,28.8884357 28.2772136,28.955 C28.2772136,29.0215643 28.2390233,29.0822249 28.179,29.111 Z" id="Shape" fill="#D3D6D9" fill-rule="nonzero"/>
            <path d="M27.42,28.352 C26.290245,28.9214385 25.4849421,29.978583 25.236,31.219 C24.8991064,30.2931842 24.2126512,29.5363601 23.324,29.111 C23.2702999,29.0801433 23.2371916,29.0229341 23.2371916,28.961 C23.2371916,28.8990659 23.2702999,28.8418567 23.324,28.811 C24.6326614,28.1041003 25.5030425,26.791591 25.645,25.311 C25.676,25.129 25.827,25.129 25.858,25.311 C26.0118618,26.4746335 26.5637751,27.549133 27.42,28.352 Z" id="Shape" fill="#F9FAFD" fill-rule="nonzero"/>
            <path d="M25.936,39.369 C25.9455981,40.2090183 25.6207393,41.0183702 25.0330352,41.6186425 C24.4453312,42.2189147 23.6430333,42.560824 22.803,42.569 L5.574,42.569 C4.1122573,42.5403183 2.79116642,41.6911528 2.15806132,40.3733165 C1.52495622,39.0554803 1.68768701,37.4934682 2.57883358,36.3344289 C3.46998014,35.1753895 4.93773476,34.6167666 6.374,34.89 C6.8526561,32.309613 8.89657895,30.3056103 11.485904,29.8779373 C14.0752291,29.4502643 16.6550088,30.6905804 17.938,32.98 C20.010265,32.91934 21.8782271,34.2216344 22.538,36.187 C23.4207181,36.1187507 24.2914947,36.4245345 24.9377362,37.0296965 C25.5839778,37.6348586 25.9462112,38.4837063 25.936,39.369 Z" id="Shape" fill="#F9FAFD" fill-rule="nonzero"/>
            <path d="M18.105,33.444 L17.935,32.978 C17.6724689,32.5142617 17.3537281,32.0846837 16.986,31.699 C16.928,33.54 15.786,38.912 9.378,38.912 C2.008,38.912 1.806,38.512 1.778,38.46 C1.70904928,39.5157607 2.07692992,40.553475 2.79546748,41.3300628 C3.51400504,42.1066507 4.52007143,42.5538839 5.578,42.567 L22.678,42.567 C24.4214001,42.5773567 25.861614,41.2086679 25.94,39.467 C25.9772738,38.5648878 25.6267602,37.6899396 24.9769623,37.0630757 C24.3271644,36.4362118 23.4401914,36.1173495 22.54,36.187 C22.53,36.187 22.44,36.499 22.424,36.533 C21.9959574,37.3161364 21.2548829,37.8801238 20.386,38.084 C19.9910135,38.1836781 19.6017669,38.3048587 19.22,38.447 C19.2140816,37.6909873 18.7605027,37.0104225 18.065,36.714 C17.916,36.654 17.572,36.488 17.433,36.63 C18.2532343,35.786761 18.5147956,34.5466803 18.105,33.444 Z" id="Shape" fill="#D3D6D9" fill-rule="nonzero"/>
            <path d="M17.554,50.74 C17.1603653,50.5020396 16.9798248,50.0262512 17.1165101,49.5870582 C17.2531953,49.1478651 17.6718483,48.858557 18.131,48.886 C27.9688085,49.3904236 36.4973312,42.1451127 37.5896415,32.3551292 C38.6819518,22.5651457 31.9600593,13.6182809 22.253,11.942 C20.5288989,11.6619958 18.7762404,11.601849 17.037,11.763 C16.5975756,11.7624518 16.2099972,11.4751072 16.0817701,11.0548074 C15.9535431,10.6345076 16.1147166,10.1797472 16.479,9.934 C32.7,-0.976 54.2,10.817 54.2,30 C54.2,48.827 33.539,60.393 17.554,50.74 Z M21.993,50.702 C31.3687984,54.3329745 42.014382,51.2093823 47.9418899,43.0881619 C53.8693978,34.9669415 53.5988045,23.8758614 47.2823115,16.0533626 C40.9658186,8.23086379 30.1805763,5.63012769 20.993,9.714 C20.893,9.759 20.893,9.746 20.966,9.755 C21.201,9.766 22.24,9.898 22.34,9.918 C22.256,11.265 22.213,11.254 22.472,9.947 L22.617,9.976 C32.6091752,11.7151937 39.8524481,20.4632789 39.6970577,30.6044926 C39.5416673,40.7457063 32.03377,49.2677643 21.993,50.7 L21.993,50.702 Z" id="Shape" fill="#464C63" fill-rule="nonzero"/>
            <path d="M47.4,39.183 C47.3912471,41.0479043 45.8819016,42.5576959 44.017,42.567 C37.599,42.567 34.299,42.578 34.195,42.557 C32.6310063,42.4872995 31.3199827,41.3518091 31.0277178,39.8137859 C30.7354529,38.2757626 31.5385881,36.7385264 32.968,36.1 C32.7370586,34.8300465 33.0815012,33.5230854 33.9083519,32.5319073 C34.7352025,31.5407293 35.959219,30.9675174 37.25,30.967 C37.6313262,30.971614 38.0108425,31.0202699 38.381,31.112 C39.2282149,29.7273128 40.7763687,28.9300486 42.395634,29.0445542 C44.0148993,29.1590598 45.4354516,30.1662546 46.079375,31.656387 C46.7232984,33.1465193 46.4832934,34.8712824 45.457,36.129 C46.6414566,36.6848093 47.3984316,37.8746198 47.4,39.183 Z" id="Shape" fill="#D3D6D9" fill-rule="nonzero"/>
            <path d="M44.5,37.134 C44.4907005,38.9985137 42.9815137,40.5077005 41.117,40.517 C33.178,40.517 33.329,40.528 33.229,40.508 C32.3839471,40.473077 31.5830799,40.121024 30.986,39.522 C30.8392317,38.0731943 31.6382683,36.6936266 32.968,36.1 C32.7034511,34.6402544 33.1996578,33.1461917 34.2849355,32.1347493 C35.3702132,31.1233069 36.8954792,30.7334248 38.333,31.1 C38.3486622,31.1047876 38.3647289,31.1081348 38.381,31.11 C39.3239389,29.5552264 41.1429212,28.7616488 42.924,29.128 C43.8550077,30.6905979 43.7083099,32.6688193 42.557,34.077 C43.7419297,34.6338473 44.498856,35.8247498 44.5,37.134 Z" id="Shape" fill="#F9FAFD" fill-rule="nonzero"/>
            <path d="M44.017,43.567 C35.107,43.567 34.282,43.574 34.105,43.554 C32.3818164,43.4546936 30.8776297,42.3526285 30.2635616,40.7395123 C29.6494935,39.1263961 30.0400591,37.303052 31.261,36.083 C31.997,35.347 31.9,35.755 31.9,35.317 C31.8942215,33.7776057 32.5546672,32.3109773 33.7111785,31.2949803 C34.8676898,30.2789833 36.4071759,29.8129681 37.933,30.017 C39.66364,27.8978694 42.7146138,27.4267031 45.0039031,28.9250301 C47.2931924,30.423357 48.0824164,33.4079113 46.833,35.842 C48.23187,37.0289481 48.7435056,38.9615263 48.1151893,40.6851567 C47.486873,42.4087871 45.8515612,43.558737 44.017,43.567 Z M33.95,35.911 C34.0355783,36.3684207 33.7943146,36.8244172 33.368,37.011 C33.1064545,37.1284653 32.8690738,37.2936145 32.668,37.498 C32.0037824,38.1635307 31.79409,39.1579441 32.1330198,40.0350089 C32.4719497,40.9120737 33.295848,41.5070699 34.235,41.553 C35.02,41.582 33.292,41.573 44.016,41.562 C44.5218502,41.5678509 45.0149625,41.4033628 45.416,41.095 C46.1005038,40.6046022 46.4724838,39.7871219 46.3925533,38.9488817 C46.3126228,38.1106416 45.7928493,37.3781946 45.028,37.026 C44.7507571,36.8936802 44.5497167,36.6412737 44.4827656,36.3414576 C44.4158144,36.0416415 44.4903829,35.7276896 44.685,35.49 C45.4687677,34.5215986 45.6496116,33.1979419 45.1543337,32.0547915 C44.6590557,30.9116411 43.5696797,30.1383162 42.3271401,30.0478267 C41.0846004,29.9573372 39.8946764,30.5646693 39.239,31.624 C38.9695958,32.0496037 38.4378856,32.2268404 37.967,32.048 C36.8734138,31.8064569 35.7314805,32.127712 34.9242382,32.904007 C34.1169959,33.6803019 33.7513692,34.8088114 33.95,35.911 Z" id="Shape" fill="#464C63" fill-rule="nonzero"/>
            <path d="M22.8,43.567 L5.574,43.567 C2.87691742,43.5526406 0.702140597,41.3545826 0.7165,38.6575 C0.730859403,35.9604174 2.92891742,33.7856406 5.626,33.8 C6.47070813,31.1615779 8.75097197,29.2394142 11.494276,28.8532975 C14.23758,28.4671808 16.9598274,29.685247 18.5,31.988 C20.5292333,32.1371977 22.3250604,33.3567747 23.212,35.188 C25.4242787,35.4245436 27.068261,37.3452589 26.9605431,39.5675385 C26.8528251,41.7898181 25.0307851,43.542529 22.806,43.564 L22.8,43.567 Z M2.771,38.684 C2.7509574,40.2521728 4.00291078,41.5412376 5.571,41.567 L22.8,41.567 C23.621173,41.5926764 24.3882311,41.1586554 24.7891003,40.4415165 C25.1899695,39.7243775 25.1578473,38.8436276 24.7058025,38.1575956 C24.2537577,37.4715636 23.4571209,37.0945727 22.64,37.18 C22.1755722,37.2280065 21.7397356,36.9482409 21.59,36.506 C21.0842802,35.0051209 19.6837188,33.9890116 18.1,33.974 C17.6888957,34.0066034 17.2920191,33.8156137 17.061,33.474 C15.9849122,31.5471282 13.8152558,30.5029226 11.6380113,30.8640408 C9.4607668,31.225159 7.74439762,32.9139015 7.348,35.085 C7.29516565,35.3503204 7.13708822,35.5829142 6.90984323,35.7297002 C6.68259823,35.8764861 6.40557711,35.9249386 6.142,35.864 C5.3045436,35.6981373 4.43701149,35.9201661 3.78219911,36.4679474 C3.12738672,37.0157288 2.75564023,37.8304148 2.771,38.684 Z" id="Shape" fill="#464C63" fill-rule="nonzero"/>
        </g>
    </g>
</svg>
