<?xml version="1.0" encoding="UTF-8"?>
<svg xmlns="http://www.w3.org/2000/svg" xmlns:xlink="http://www.w3.org/1999/xlink" width="60px" height="60px" viewBox="0 0 60 60" version="1.1">
    <!-- Generator: Sketch 51.1 (57501) - http://www.bohemiancoding.com/sketch -->
    <title>26 - Snowing</title>
    <desc>Created with Sketch.</desc>
    <defs/>
    <g id="Page-1" stroke="none" stroke-width="1" fill="none" fill-rule="evenodd">
        <g id="26---Snowing" transform="translate(-1.000000, 0.000000)">
            <path d="M31,0.97 C14.9837423,0.97 2,13.9537423 2,29.97 C2,45.9862577 14.9837423,58.97 31,58.97 C47.0162577,58.97 60,45.9862577 60,29.97 C59.9933778,13.9564861 47.0135139,0.976622172 31,0.97 Z" id="Shape" fill="#9298A3"/>
            <path d="M51.89,19.06 C47.5493906,11.825602 40.2750152,6.83863712 31.96218,5.39843698 C23.6493448,3.95823685 15.1213038,6.20743031 8.6,11.56 C-0.864978159,23.0885208 -0.0409401668,39.9167358 10.5051039,50.465364 C21.051148,61.0139923 37.8791605,61.8421533 49.41,52.38 C57.1851447,42.9095003 58.1774665,29.5771767 51.89,19.06 Z" id="Shape" fill="#777E8C"/>
            <path d="M2.048,25.689 C2.04721067,25.7097289 2.0406285,25.7298219 2.029,25.747 C2.01230002,25.7208384 2.00233695,25.6909492 2,25.66 C2.01,25.669 2.038,25.679 2.048,25.689 Z" id="Shape" fill="#DDDDDD" fill-rule="nonzero"/>
            <path d="M2.048,25.689 C2.04721067,25.7097289 2.0406285,25.7298219 2.029,25.747 C2.01230002,25.7208384 2.00233695,25.6909492 2,25.66 C2.01,25.669 2.038,25.679 2.048,25.689 Z" id="Shape" fill="#FFFFFF" fill-rule="nonzero"/>
            <path d="M2.048,25.689 C2.04721067,25.7097289 2.0406285,25.7298219 2.029,25.747 C2.01230002,25.7208384 2.00233695,25.6909492 2,25.66 C2.01,25.669 2.038,25.679 2.048,25.689 Z" id="Shape" fill="#DDDDDD" fill-rule="nonzero"/>
            <polygon id="Shape" fill="#C0EDF5" fill-rule="nonzero" points="15.806 38.74 12.348 35.26 13.057 34.555 15.806 37.321 18.556 34.555 19.265 35.26"/>
            <polygon id="Shape" fill="#C0EDF5" fill-rule="nonzero" points="45.589 38.74 42.131 35.26 42.84 34.555 45.589 37.321 48.338 34.555 49.047 35.26"/>
            <ellipse id="Oval" fill="#B1DDE2" fill-rule="nonzero" cx="31.178" cy="49.459" rx="1.054" ry="1.06"/>
            <path d="M21.027,34.758 L19.538,35.624 L19.604,33.774 L18.784,33.747 L18.7,36.11 L17.056,37.064 L17.2,34.73 L15.258,36.019 L15.258,34.107 L17.249,32.853 L16.818,32.153 L15.258,33.132 L15.258,31.405 L14.848,31.405 L14.848,38.826 L21.235,35.115 L21.027,34.758 Z M16.205,37.558 C15.34,38.058 15.845,37.87 15.255,37.665 L15.255,37.005 L16.279,36.324 L16.205,37.558 Z" id="Shape" fill="#D9F4F9" fill-rule="nonzero"/>
            <path d="M14.435,31.405 L14.435,33.134 L12.876,32.155 L12.444,32.855 L14.435,34.109 L14.435,36.021 L12.493,34.73 L12.633,37.064 L10.988,36.11 L10.906,33.747 L10.087,33.774 L10.152,35.624 L8.664,34.758 L8.459,35.115 L14.845,38.826 L14.845,31.405 L14.435,31.405 Z M14.053,37.888 L13.485,37.559 L13.411,36.325 L14.435,37.006 C14.435,37.985 14.526,37.482 14.053,37.888 Z" id="Shape" fill="#E6F8FB" fill-rule="nonzero"/>
            <path d="M21.185,39.719 L19.112,40.829 L17.467,39.873 L19.546,38.826 L17.467,37.778 L19.112,36.822 L21.185,37.932 L21.57,37.204 L19.948,36.338 L21.436,35.473 L21.236,35.115 L14.849,38.826 L8.459,35.115 L8.254,35.473 L9.742,36.338 L8.12,37.2 L8.505,37.928 L10.578,36.818 L12.223,37.774 L10.144,38.826 L12.223,39.873 L10.578,40.829 L8.505,39.719 L8.12,40.447 L9.742,41.313 L8.254,42.179 L8.664,42.893 L10.152,42.028 L10.087,43.877 L10.906,43.905 L10.988,41.541 L12.633,40.587 L12.493,42.921 L14.435,41.632 L14.435,43.545 L12.444,44.8 L12.876,45.5 L14.435,44.522 L14.435,46.25 L15.255,46.25 L15.255,44.518 L16.815,45.496 L17.246,44.796 L15.255,43.543 L15.255,41.632 L17.2,42.921 L17.061,40.587 L18.705,41.541 L18.787,43.905 L19.607,43.877 L19.541,42.028 L21.03,42.893 C21.285,42.449 21.181,42.629 21.439,42.179 L19.951,41.313 L21.573,40.447 L21.185,39.719 Z M11.974,38.826 L13.074,38.273 L13.64,38.6 C13.527,39.212 13.912,38.893 13.074,39.378 L11.974,38.826 Z M14.435,40.645 L13.411,41.327 L13.485,40.093 C14.35,39.593 13.844,39.779 14.435,39.985 L14.435,40.645 Z M15.255,40.645 C15.255,39.666 15.164,40.17 15.637,39.763 L16.205,40.093 L16.279,41.327 L15.255,40.645 Z M16.055,38.6 L16.621,38.273 L17.721,38.826 L16.621,39.378 C15.768,38.887 16.169,39.23 16.052,38.6 L16.055,38.6 Z" id="Shape" fill="#D3D5D8" fill-rule="nonzero"/>
            <ellipse id="Oval" fill="#B1DDE2" fill-rule="nonzero" cx="14.845" cy="38.826" rx="1" ry="1"/>
            <path d="M53.692,34.758 L52.203,35.624 L52.269,33.774 L51.449,33.747 L51.367,36.11 L49.723,37.064 L49.862,34.73 L47.92,36.019 L47.92,34.107 L49.911,32.853 L49.48,32.153 L47.92,33.132 L47.92,31.405 L47.51,31.405 L47.51,38.826 L53.9,35.115 L53.692,34.758 Z M48.871,37.558 C48.006,38.058 48.51,37.87 47.92,37.665 L47.92,37.005 L48.944,36.324 L48.871,37.558 Z" id="Shape" fill="#D9F4F9" fill-rule="nonzero"/>
            <path d="M47.1,31.405 L47.1,33.134 L45.54,32.155 L45.108,32.855 L47.1,34.107 L47.1,36.019 L45.158,34.73 L45.298,37.064 L43.653,36.11 L43.571,33.747 L42.752,33.774 L42.817,35.624 L41.329,34.758 L41.129,35.115 L47.515,38.826 L47.515,31.405 L47.1,31.405 Z M46.717,37.888 L46.149,37.559 L46.075,36.325 L47.1,37.006 C47.1,37.985 47.192,37.482 46.718,37.888 L46.717,37.888 Z" id="Shape" fill="#E6F8FB" fill-rule="nonzero"/>
            <path d="M53.85,39.719 L51.777,40.829 L50.133,39.873 L52.211,38.826 L50.133,37.778 L51.777,36.822 L53.85,37.932 L54.236,37.204 L52.613,36.338 L54.102,35.473 L53.902,35.115 L47.51,38.826 L41.124,35.115 L40.919,35.473 L42.408,36.338 L40.785,37.204 L41.17,37.932 L43.244,36.822 L44.888,37.778 L42.809,38.826 L44.888,39.873 L43.244,40.829 L41.17,39.719 L40.785,40.447 L42.408,41.313 L40.919,42.179 L41.329,42.893 L42.817,42.028 L42.752,43.877 L43.571,43.905 L43.653,41.541 L45.298,40.587 L45.158,42.921 L47.1,41.632 L47.1,43.545 L45.109,44.8 L45.541,45.5 L47.101,44.522 L47.101,46.25 L47.92,46.25 L47.92,44.518 L49.48,45.496 L49.911,44.796 L47.92,43.545 L47.92,41.632 L49.862,42.921 L49.723,40.587 L51.367,41.541 L51.449,43.905 L52.269,43.877 L52.2,42.028 L53.689,42.893 L54.099,42.179 L52.61,41.313 L54.233,40.447 L53.85,39.719 Z M44.639,38.826 L45.739,38.273 L46.304,38.6 C46.191,39.212 46.576,38.893 45.739,39.378 L44.639,38.826 Z M47.1,40.645 L46.075,41.327 L46.149,40.093 C47.012,39.593 46.51,39.78 47.1,39.985 L47.1,40.645 Z M47.919,40.645 C47.919,39.666 47.828,40.17 48.302,39.763 L48.87,40.093 L48.943,41.327 L47.919,40.645 Z M48.719,38.6 L49.284,38.273 L50.384,38.826 L49.284,39.378 C48.433,38.887 48.834,39.23 48.718,38.6 L48.719,38.6 Z" id="Shape" fill="#D3D5D8" fill-rule="nonzero"/>
            <ellipse id="Oval" fill="#B1DDE2" fill-rule="nonzero" cx="47.51" cy="38.826" rx="1" ry="1"/>
            <path d="M37.277,32.53 C37.111309,30.1610957 36.0497014,27.9441987 34.308,26.33 C35.1532033,23.0097969 34.9167308,19.5065001 33.633,16.33 C36.89458,15.6315738 40.2989233,16.3735974 42.974,18.366 C45.076995,23.8507238 42.5920177,30.0289261 37.277,32.53 Z" id="Shape" fill="#F9FAFD" fill-rule="nonzero"/>
            <path d="M24.837,25.118 L24.837,25.128 C18.7707625,31.0713952 9.21173528,31.5204828 2.615,26.172 C3.64062147,18.2811785 7.8729372,11.1618447 14.315,6.491 C19.6500595,5.19743472 25.2800708,6.61045275 29.372,10.27 C30.4951698,15.6690254 28.785118,21.2678896 24.837,25.118 Z" id="Shape" fill="#F9FAFD" fill-rule="nonzero"/>
            <path d="M55.2,32.417 C55.1702925,35.9098045 52.3198737,38.7199694 48.827,38.7 L3.681,38.7 C2.4135493,34.6522497 2.04966037,30.3757013 2.615,26.172 C6.8499912,29.6094816 12.4991226,30.7569252 17.7396151,29.2440907 C22.9801076,27.7312561 27.1485761,23.7496504 28.9,18.584 C29.7841324,15.9020674 29.946577,13.0346273 29.371,10.27 C33.8925568,14.2801141 35.7980363,20.4784204 34.31,26.336 C36.0496869,27.9515724 37.1105974,30.1677599 37.278,32.536 C42.5900984,30.0332148 45.0751677,23.8589075 42.978,18.374 C45.5362596,20.2456865 47.1752694,23.1192277 47.484,26.274 C49.3528372,25.8637767 51.3070332,26.3175282 52.8039096,27.5092483 C54.300786,28.7009683 55.180957,30.5037637 55.2,32.417 Z" id="Shape" fill="#D3D6D9" fill-rule="nonzero"/>
            <path d="M48.826,39.7 L2.948,39.7 C-1.43,25.831 3.822,12.867 13.888,5.566 C22.1096795,3.46657336 30.661179,7.51799117 34.244,15.21 C40.8447349,14.2121264 47.0584543,18.5958683 48.332,25.149 C51.0049854,24.9381271 53.5778406,26.2122096 55.0303122,28.4660163 C56.4827838,30.719823 56.5801982,33.5892099 55.2839262,35.9363352 C53.9876542,38.2834605 51.5071325,39.729103 48.826,39.7 Z M4.426,37.7 C52.946,37.7 49.45,37.844 50.707,37.361 C53.1367977,36.490052 54.5779298,33.987124 54.1113033,31.4484773 C53.6446768,28.9098306 51.4076907,27.0829744 48.827,27.133 C48.0735141,27.1640157 47.325389,27.2742905 46.595,27.462 L46.487,26.362 C46.1570298,23.414266 44.5912038,20.7451849 42.1791512,19.018912 C39.7670986,17.2926391 36.7356029,16.6714801 33.839,17.31 L33.019,17.479 L32.708,16.702 C29.7954245,9.63125932 22.1967331,5.70374596 14.744,7.417 C5.33768858,14.3804507 1.22773855,26.4418536 4.425,37.7 L4.426,37.7 Z" id="Shape" fill="#464C63" fill-rule="nonzero"/>
            <path d="M31.178,60 C19.0281944,60.0720901 8.03459438,52.808709 3.33502789,41.6043773 C-1.3645386,30.4000457 1.15801129,17.4674246 9.723771,8.85053802 C18.2895307,0.233651456 31.2069113,-2.36581496 42.4390113,2.26699206 C53.6711114,6.89979909 60.9997861,17.8499805 61,30 C61.0393577,37.9376581 57.9157484,45.5641479 52.3196332,51.1936648 C46.7235181,56.8231818 39.1157518,59.9921205 31.178,60 Z M31.178,2 C12.275,2 -0.98,20.588 4.636,38.4 C8.70160315,51.5794128 21.8153766,59.7853396 35.4458712,57.6792372 C49.0763659,55.5731347 59.1018381,43.7918701 59,30 C59.0315738,14.5924023 46.5854858,2.06668644 31.178,2 Z" id="Shape" fill="#464C63" fill-rule="nonzero"/>
            <path d="M59.039,12.117 C59.035768,13.9758596 57.5358035,15.4851933 55.677,15.5 C49.272,15.5 46.019,15.511 45.916,15.49 C44.3586091,15.4082982 43.0591534,14.2719553 42.7705315,12.7393631 C42.4819095,11.2067708 43.2790113,9.67559848 44.7,9.033 C44.4677796,7.76802654 44.8074961,6.46514816 45.6278231,5.47461916 C46.4481502,4.48409017 47.6649101,3.90755343 48.951,3.9 C49.3303355,3.90480794 49.7078427,3.95346442 50.076,4.045 C51.2594271,2.08934306 53.7660996,1.40139194 55.782,2.479 C56.9252256,3.09406952 57.7350875,4.18638498 57.9914289,5.45900604 C58.2477703,6.7316271 57.9239512,8.05229758 57.108,9.062 C58.2877681,9.62181585 59.0395202,10.8111492 59.039,12.117 Z" id="Shape" fill="#D3D6D9" fill-rule="nonzero"/>
            <path d="M56.157,10.067 C56.153768,11.9264119 54.6533558,13.4361933 52.794,13.451 C44.91,13.451 45.055,13.461 44.955,13.441 C44.1141176,13.4057289 43.3177563,13.0534578 42.726,12.455 C42.5792146,11.0084271 43.3742812,9.63015057 44.7,9.033 C44.4314657,7.5787951 44.921336,6.08788373 46.0000428,5.07634322 C47.0787496,4.06480271 48.598035,3.67165962 50.032,4.033 C50.0480374,4.03764751 50.064424,4.04099172 50.081,4.043 C51.0135245,2.49184902 52.8229917,1.69752699 54.596,2.061 C55.5208691,3.62511271 55.3752858,5.59946134 54.231,7.011 C55.4091465,7.57241116 56.1588235,8.76192974 56.157,10.067 Z" id="Shape" fill="#F9FAFD" fill-rule="nonzero"/>
            <path d="M55.677,16.5 C46.822,16.5 46.001,16.507 45.826,16.487 C44.108423,16.3779546 42.6133462,15.2744615 42.0029869,13.6652931 C41.3926275,12.0561247 41.7797948,10.2386944 42.993,9.018 C43.731,8.276 43.628,8.693 43.628,8.25 C43.6168755,6.71498357 44.2709587,5.25034679 45.4214426,4.23408601 C46.5719265,3.21782523 48.1060925,2.74950853 49.628,2.95 C51.2299568,0.960745714 54.0228092,0.396962024 56.271,1.609 C58.8365086,2.99725416 59.8212076,6.18197341 58.487,8.776 C59.8784787,9.96483707 60.3859605,11.8924571 59.76026,13.612354 C59.1345596,15.332251 57.5070993,16.4831767 55.677,16.5 Z M48.056,5.023 C46.3964516,5.4920521 45.3663266,7.14683654 45.678,8.843 L45.827,9.627 L45.096,9.946 C44.1024098,10.4032343 43.5478845,11.4783627 43.7513637,12.5530166 C43.9548428,13.6276704 44.8640304,14.4256537 45.956,14.488 C46.205,14.518 48.467,14.505 55.677,14.497 C56.3036076,14.4988005 56.90411,14.2461854 57.341,13.797 C57.8878164,13.2489994 58.1343553,12.469524 58.0021223,11.706748 C57.8698892,10.943972 57.3753652,10.2929655 56.676,9.961 L55.532,9.413 C56.365,8.389 57.078,7.713 57.078,6.313 C57.0802223,5.30184287 56.6235676,4.34428191 55.8364372,3.70956201 C55.0493067,3.07484211 54.0167136,2.83151542 53.029,3.048 C52.1525495,3.24304571 51.3938944,3.78783235 50.929,4.556 L50.638,5.041 L49.653,4.982 C49.2443547,4.88131843 48.8190138,4.86836735 48.405,4.944 C48.075,5.043 48.156,5.04 48.056,5.026 L48.056,5.023 Z" id="Shape" fill="#464C63" fill-rule="nonzero"/>
            <path d="M39.329,50.607 L36.664,52.035 L34.549,50.805 L37.222,49.459 L34.549,48.113 L36.664,46.883 L39.329,48.31 L39.824,47.374 L37.738,46.261 L39.652,45.148 L39.126,44.229 L37.211,45.342 L37.296,42.964 L36.242,42.929 L36.142,45.968 L34.028,47.194 L34.207,44.194 L31.707,45.851 L31.707,43.392 L34.267,41.78 L33.712,40.88 L31.707,42.138 L31.707,39.918 L30.651,39.918 L30.651,42.141 L28.651,40.883 L28.096,41.783 L30.656,43.395 L30.656,45.854 L28.156,44.197 L28.335,47.197 L26.221,45.971 L26.115,42.932 L25.062,42.967 L25.146,45.345 L23.23,44.229 L22.703,45.148 L24.617,46.261 L22.531,47.374 L23.031,48.31 L25.697,46.883 L27.811,48.113 L25.138,49.459 L27.811,50.805 L25.697,52.035 L23.031,50.607 L22.531,51.544 L24.617,52.657 L22.7,53.77 L23.227,54.689 L25.141,53.576 L25.057,55.954 L26.11,55.989 L26.216,52.95 L28.33,51.724 L28.151,54.724 L30.651,53.067 L30.651,55.526 L28.091,57.138 L28.646,58.038 L30.646,56.78 L30.646,59 L31.7,59 L31.7,56.777 L33.705,58.035 L34.26,57.135 L31.7,55.523 L31.7,53.067 L34.2,54.724 L34.021,51.724 L36.135,52.95 L36.235,55.989 L37.289,55.954 L37.204,53.576 L39.119,54.689 L39.645,53.77 L37.731,52.657 L39.817,51.544 L39.329,50.607 Z M34.869,49.459 L33.457,50.169 L32.73,49.749 C32.7675044,49.5574855 32.7675044,49.3605145 32.73,49.169 L33.457,48.749 L34.869,49.459 Z M31.705,47.12 L33.022,46.243 L32.927,47.83 L32.196,48.254 C32.0518786,48.1284933 31.8852704,48.0314466 31.705,47.968 L31.705,47.12 Z M30.651,47.12 L30.651,47.968 C30.4703144,48.0311993 30.3033337,48.1282653 30.159,48.254 L29.429,47.83 L29.334,46.243 L30.651,47.12 Z M27.487,49.459 L28.898,48.749 L29.625,49.169 C29.5879953,49.3605626 29.5879953,49.5574374 29.625,49.749 L28.898,50.169 L27.487,49.459 Z M30.651,51.8 L29.334,52.677 L29.429,51.09 L30.159,50.666 C30.3033337,50.7917347 30.4703144,50.8888007 30.651,50.952 L30.651,51.8 Z M31.705,51.8 L31.705,50.95 C31.8852704,50.8865534 32.0518786,50.7895067 32.196,50.664 L32.927,51.088 L33.022,52.675 L31.705,51.8 Z" id="Shape" fill="#D3D5D8" fill-rule="nonzero"/>
            <ellipse id="Oval" fill="#777E8C" fill-rule="nonzero" cx="31.178" cy="49.459" rx="1.054" ry="1.06"/>
        </g>
    </g>
</svg>
