<?xml version="1.0" encoding="UTF-8"?>
<svg xmlns="http://www.w3.org/2000/svg" xmlns:xlink="http://www.w3.org/1999/xlink" width="60px" height="60px" viewBox="0 0 60 60" version="1.1">
    <!-- Generator: Sketch 51.1 (57501) - http://www.bohemiancoding.com/sketch -->
    <title>27 - Windy</title>
    <desc>Created with Sketch.</desc>
    <defs/>
    <g id="Page-1" stroke="none" stroke-width="1" fill="none" fill-rule="evenodd">
        <g id="27---Windy" transform="translate(-1.000000, -1.000000)" fill-rule="nonzero">
            <path d="M55.087,9.741 L52.2,12.633 L49.367,9.805 L52.259,6.913 C52.7611489,6.39308683 53.5047558,6.18457481 54.2040146,6.36760569 C54.9032735,6.55063657 55.4493634,7.09672649 55.6323943,7.79598535 C55.8154252,8.49524422 55.6069132,9.23885106 55.087,9.741 Z" id="Shape" fill="#D3D5D8"/>
            <path d="M55.087,9.741 L52.2,12.633 L50.786,11.219 L53.678,8.327 C54.1832051,7.82299645 54.9186812,7.6263614 55.608,7.811 C55.7913681,8.50121139 55.5927903,9.23682567 55.087,9.741 Z" id="Shape" fill="#B5B9BE"/>
            <path d="M52.2,13.34 L48.659,9.805 L51.905,6.56 C52.542065,5.94097845 53.4579797,5.70308055 54.3157634,5.93383298 C55.1735471,6.16458541 55.8464881,6.82990143 56.087,7.685 C56.3223493,8.54777425 56.0751583,9.47044249 55.44,10.1 L52.2,13.34 Z M50.073,9.805 L52.2,11.926 L54.738,9.388 C55.1186933,9.0067254 55.2656541,8.45056477 55.123,7.931 C54.9738987,7.4222117 54.5696735,7.02838495 54.0571731,6.89259074 C53.5446727,6.75679654 52.9984731,6.89879487 52.617,7.267 L50.073,9.805 Z" id="Shape" fill="#464C63"/>
            <circle id="Oval" fill="#FDEA8E" cx="31" cy="31" r="29"/>
            <rect id="Rectangle-path" fill="#E5E5A8" transform="translate(24.293998, 37.563307) rotate(-45.000000) translate(-24.293998, -37.563307) " x="16.8439977" y="35.563307" width="14.9" height="4"/>
            <rect id="Rectangle-path" fill="#CDCD8D" transform="translate(25.000847, 38.270307) rotate(-45.000000) translate(-25.000847, -38.270307) " x="17.5508467" y="37.270307" width="14.9" height="2"/>
            <path d="M24.486,27.986 L24.431,28.04 C24.382,27.891 24.351,27.918 24.486,27.986 Z" id="Shape" fill="#F1572F"/>
            <path d="M33.96,37.569 L34.014,37.514 C34.082,37.649 34.109,37.618 33.96,37.569 Z" id="Shape" fill="#F1572F"/>
            <path d="M15.244,16.707 C15.2226041,16.7216586 15.2042636,16.7403388 15.19,16.762 C15.19,16.653 15.135,16.707 15.244,16.707 Z" id="Shape" fill="#F1572F"/>
            <path d="M9.787,52.213 C1.20694081,43.6331054 -1.35983731,30.7295254 3.28355898,19.5192231 C7.92695526,8.30892073 18.8660803,0.999593131 31,0.999593131 C43.1339197,0.999593131 54.0730447,8.30892073 58.716441,19.5192231 C63.3598373,30.7295254 60.7930592,43.6331054 52.213,52.213 C46.5891387,57.8431359 38.957779,61.0066413 31,61.0066413 C23.042221,61.0066413 15.4108613,57.8431359 9.787,52.213 Z M11.2,11.2 C0.264761953,22.135238 0.264761953,39.864762 11.2,50.8 C22.135238,61.735238 39.864762,61.735238 50.8,50.8 C61.7352378,39.8647619 61.7352376,22.1352382 50.7999997,11.2000003 C39.8647618,0.264762364 22.1352381,0.264762232 11.2,11.2 Z" id="Shape" fill="#464C63"/>
            <path d="M17.993,46.692 C15.9354851,48.874205 12.9261153,49.8880814 9.96755671,49.3958245 C7.00899809,48.9035675 4.49005781,46.9698685 3.25,44.239 C4.80581603,46.2568402 7.14341332,47.5214045 9.68369527,47.7194203 C12.2239772,47.9174361 14.7292941,47.0303787 16.579,45.278 L17.993,46.692 Z" id="Shape" fill="#E5956C"/>
            <path d="M15.165,43.864 C13.9360064,45.1617673 12.1080188,45.7052935 10.3696226,45.2898374 C8.63122629,44.8743813 7.24652508,43.5630607 6.73712249,41.8498373 C6.2277199,40.136614 6.67100631,38.2817672 7.9,36.984 C8.27718997,36.6108926 8.48654157,36.1005079 8.48,35.57 C8.4782238,34.7632166 7.99187863,34.0365019 7.24673403,33.727209 C6.50158942,33.417916 5.64357684,33.5866178 5.071,34.155 C2.42291651,36.80895 1.69741834,40.8264808 3.25,44.239 C4.80711031,46.2549344 7.14439639,47.5180326 9.68396246,47.7159926 C12.2235285,47.9139527 14.7283108,47.0282953 16.579,45.278 L15.165,43.864 Z" id="Shape" fill="#EAAA89"/>
            <path d="M11.438,50.015 C7.60105845,50.0050424 4.14604526,47.6900555 2.67760799,44.1452125 C1.20917073,40.6003696 2.01506461,36.5203186 4.721,33.8 C5.69867826,32.8311176 7.27562535,32.834792 8.24877795,33.8082199 C9.22193055,34.7816478 9.22515887,36.3585958 8.256,37.336 C6.49862993,39.0933701 6.49862993,41.9426299 8.256,43.7 C10.0133701,45.4573701 12.8626299,45.4573701 14.62,43.7 L15.166,43.156 L18.7,46.692 L18.157,47.236 C16.3760923,49.019111 13.9581388,50.0191843 11.438,50.015 Z M6.49,34.072 C6.09204686,34.0710236 5.71001578,34.2282247 5.428,34.509 C2.14422005,37.7974355 2.11016575,43.1135137 5.35154711,46.4437487 C8.59292848,49.7739837 13.9079841,49.8836711 17.284,46.69 L15.161,44.567 C12.9574738,46.5869316 9.54406423,46.4770817 7.47497331,44.3196494 C5.4058824,42.1622172 5.43875809,38.7471987 7.549,36.63 C7.97588957,36.2009714 8.10312501,35.5574272 7.87161868,34.9982269 C7.64011236,34.4390265 7.09522492,34.073738 6.49,34.072 Z" id="Shape" fill="#464C63"/>
            <path d="M17.143,46.224 L15.635,44.716 C14.8537933,43.9350694 14.8535694,42.6687068 15.6345,41.8875 C16.4154307,41.1062933 17.6817932,41.1060694 18.463,41.887 L19.971,43.4 C20.7289444,44.1847578 20.7181047,45.4321696 19.9466372,46.2036372 C19.1751696,46.9751047 17.9277578,46.9859444 17.143,46.228 L17.143,46.224 Z" id="Shape" fill="#797B82"/>
            <path d="M18.511,47.289 C17.8653582,47.2900741 17.2458092,47.0342672 16.789,46.578 L15.281,45.069 C14.8228349,44.6137075 14.5660574,43.9939123 14.568,43.348 C14.5822845,42.3491485 15.1836486,41.4524617 16.1023456,41.0601556 C17.0210427,40.6678495 18.0846194,40.8535658 18.816,41.534 L20.325,43.042 C21.011401,43.7713255 21.2007606,44.8378995 20.8073645,45.7589323 C20.4139683,46.6799651 19.5124947,47.280617 18.511,47.289 Z M17.5,45.871 C17.8790588,46.2500588 18.431549,46.3980981 18.949353,46.259353 C19.4671569,46.1206078 19.8716078,45.7161569 20.010353,45.198353 C20.1490981,44.680549 20.0010588,44.1280588 19.622,43.749 L18.113,42.241 C17.8236207,41.9637721 17.433485,41.8168982 17.0331261,41.8344611 C16.6327672,41.852024 16.2569916,42.0324969 15.993,42.334 C15.4346273,42.8946967 15.4346273,43.8013033 15.993,44.362 L17.5,45.871 Z" id="Shape" fill="#464C63"/>
            <path d="M20.439,44.953 L16.9,41.417 L28.147,30.174 L31.683,33.71 L20.439,44.953 Z M18.318,41.417 L20.439,43.539 L30.269,33.71 L28.147,31.588 L18.318,41.417 Z" id="Shape" fill="#464C63"/>
            <path d="M45.949,14.834 L45.922,14.807 L45.935,14.807 C45.934994,14.8177422 45.9402169,14.8278151 45.949,14.834 Z" id="Shape" fill="#0091FE"/>
            <path d="M45.923,14.86 L45.596,15.188 L44.715,14.307 L46.422,14.307 L46.436,14.807 L45.936,14.848 C45.936,15.229 45.945,15.652 45.923,14.86 Z" id="Shape" fill="#D319F4"/>
            <path d="M45.949,14.834 L45.922,14.807 L45.935,14.807 C45.934994,14.8177422 45.9402169,14.8278151 45.949,14.834 Z" id="Shape" fill="#0091FE"/>
            <path d="M45.923,14.86 L45.596,15.188 L44.715,14.307 L46.422,14.307 L46.436,14.807 L45.936,14.848 C45.936,15.229 45.945,15.652 45.923,14.86 Z" id="Shape" fill="#D319F4"/>
            <path d="M45.949,14.834 L45.922,14.807 L45.935,14.807 C45.934994,14.8177422 45.9402169,14.8278151 45.949,14.834 Z" id="Shape" fill="#0091FE"/>
            <path d="M45.923,14.86 L45.596,15.188 L44.715,14.307 L46.422,14.307 L46.436,14.807 L45.936,14.848 C45.936,15.229 45.945,15.652 45.923,14.86 Z" id="Shape" fill="#D319F4"/>
            <path d="M45.949,14.834 L45.922,14.807 L45.935,14.807 C45.934994,14.8177422 45.9402169,14.8278151 45.949,14.834 Z" id="Shape" fill="#F79A82"/>
            <path d="M45.949,14.834 L45.922,14.807 L45.935,14.807 C45.934994,14.8177422 45.9402169,14.8278151 45.949,14.834 Z" id="Shape" fill="#F1572F"/>
            <path d="M40.118,31.219 C43.327,28.01 54.759,13.747 51.506,10.494 C48.253,7.241 33.986,18.676 30.781,21.882 C27.03,25.26 24.76,27.712 24.431,28.04 C26.2457375,32.335701 29.664299,35.7542625 33.96,37.569 C34.312,37.217 36.837,34.863 40.118,31.219 Z" id="Shape" fill="#599AD3"/>
            <path d="M51.506,10.494 C48.255,7.243 33.986,18.676 30.781,21.882 C28.501,23.935 26.324,26.058 24.486,27.982 C20.422,25.949 15.95,21.043 15.186,16.758 C16.5125266,15.3297184 17.9554959,14.0141881 19.5,12.825 C28.818,5.467 42.885,2.181 51.287,10.289 C51.3635629,10.3534248 51.436665,10.4218537 51.506,10.494 Z" id="Shape" fill="#F9FAFD"/>
            <path d="M45.238,46.81 C45.2596612,46.7957364 45.2783414,46.7773959 45.293,46.756 C45.327,46.858 45.305,46.81 45.238,46.81 Z" id="Shape" fill="#F1572F"/>
            <path d="M51.287,10.289 C41.922,1.252 25.74,6.185 15.962,15.962 C15.716,16.208 15.47,16.454 15.244,16.707 C15.2206431,16.7078489 15.1973966,16.7034047 15.176,16.694 C12.6199888,16.0168771 10.332507,14.5735477 8.621,12.558 C13.7878081,6.29197949 21.3453767,2.47967421 29.4554261,2.04837758 C37.5654756,1.61708095 45.4847538,4.60631948 51.287,10.289 Z" id="Shape" fill="#599AD3"/>
            <path d="M46.038,46.038 C45.352,46.724 45.402,46.646 45.238,46.81 C41.056,46.068 36.205,41.772 34.069,37.61 C33.977,37.456 33.837,37.732 35.785,35.785 C37.192,34.377 40.035,31.371 40.241,31.085 C48.888,21.485 53.782,12.773 51.506,10.497 C59.735,18.726 56.797,32.851 49.175,42.507 C48.2017726,43.7464147 47.1541779,44.9255849 46.038,46.038 Z" id="Shape" fill="#F9FAFD"/>
            <path d="M49.442,53.379 C47.4267946,51.6671959 45.9835384,49.3798302 45.306,46.824 C45.3056526,46.80075 45.3012533,46.7777386 45.293,46.756 C46.6889305,45.4337755 47.9863847,44.0113218 49.175,42.5 C56.824,32.809 59.701,18.685 51.506,10.49 C57.2846986,16.272798 60.3552882,24.225355 59.9623171,32.3911179 C59.5693461,40.5568809 55.7492936,48.177831 49.442,53.379 Z" id="Shape" fill="#599AD3"/>
            <path d="M48.786,54.135 C46.7907641,52.4125264 45.3039232,50.17777 44.486,47.672 C40.129,46.61 35.545,42.413 33.362,38.408 C28.9959537,36.4924497 25.5096563,33.0054384 23.595,28.639 C19.656,26.512 15.395,21.9 14.329,17.516 C11.8233907,16.698329 9.58889408,15.2114309 7.867,13.216 C7.54738537,12.8465628 7.54146585,12.3002763 7.853,11.924 C15.1027976,3.10460535 26.7300754,-0.835406308 37.8478707,1.75995793 C48.965666,4.35532218 57.6467042,13.0361548 60.2423317,24.1538886 C62.8379593,35.2716225 58.898223,46.8989935 50.079,54.149 C49.7025491,54.4611 49.1556049,54.4551779 48.786,54.135 Z M46.286,46.627 C46.8215834,48.6933709 47.926094,50.5680594 49.474,52.038 C57.3274145,45.154649 60.6976211,34.4728639 58.2165,24.3288667 C55.7353788,14.1848696 47.8152888,6.26457918 37.6713545,3.7832013 C27.5274202,1.30182341 16.8455498,4.67175975 9.962,12.525 C11.437628,14.0854186 13.3257615,15.1950655 15.407,15.725 C15.9513579,15.8153356 16.3196632,16.329531 16.23,16.874 C17.064,20.662 21.03,25.085 24.847,27.045 C25.2125657,27.2059328 25.4554603,27.5600088 25.474,27.959 C27.1958826,31.7849367 30.2666971,34.8425793 34.1,36.548 C34.4406102,36.5745449 34.7455467,36.7692092 34.913,37.067 C37.193,41.475 41.763,45.027 45.133,45.767 C45.4011221,45.7221081 45.6759656,45.7883121 45.8942389,45.9503663 C46.1125121,46.1124205 46.2554007,46.3563564 46.29,46.626 L46.286,46.627 Z" id="Shape" fill="#464C63"/>
            <path d="M9.9,22.1 L1.6,22.1 C1.32385763,22.1 1.1,21.8761424 1.1,21.6 C1.1,21.3238576 1.32385763,21.1 1.6,21.1 L9.9,21.1 C11.2474502,21.1599797 12.4999547,20.4076893 13.08,19.19 C13.7254696,17.9302248 13.6342759,16.4190147 12.842,15.246 C12.1587649,14.4051537 11.0367248,14.0579683 9.998,14.366 C7.844,14.796 7.733,17.789 10.452,17.789 C10.5733228,17.7957066 10.6884128,17.7347936 10.7510934,17.6307007 C10.813774,17.5266078 10.813774,17.3963922 10.7510934,17.2922993 C10.6884128,17.1882064 10.5733228,17.1272934 10.452,17.134 C10.1758576,17.134 9.952,16.9101424 9.952,16.634 C9.952,15.74 11.78,16.068 11.78,17.461 C11.7894575,17.8160224 11.6525829,18.1593273 11.4014551,18.4104551 C11.1503273,18.6615829 10.8070224,18.7984575 10.452,18.789 C6.572,18.789 6.435,14.058 9.803,13.389 C15.941,12.165 16.122,22.1 9.9,22.1 Z" id="Shape" fill="#797B82"/>
            <path d="M35.887,59.188 C31.448,59.188 31.393,53.683 35.552,53.683 C35.906341,53.675288 36.2484687,53.8125854 36.4991794,54.0631072 C36.74989,54.3136291 36.887445,54.6556533 36.88,55.01 C36.88,56.396 35.052,56.744 35.052,55.838 C35.052,55.5618576 35.2758576,55.338 35.552,55.338 C35.6733228,55.3447066 35.7884128,55.2837936 35.8510934,55.1797007 C35.913774,55.0756078 35.913774,54.9453922 35.8510934,54.8412993 C35.7884128,54.7372064 35.6733228,54.6762934 35.552,54.683 C32.852,54.683 32.93,57.673 35.098,58.106 C39.809,59.046 39.805,51.372 34.998,51.372 L21.207,51.372 C20.9308576,51.372 20.707,51.1481424 20.707,50.872 C20.707,50.5958576 20.9308576,50.372 21.207,50.372 L35,50.372 C40.842,50.372 41.085,59.188 35.887,59.188 Z" id="Shape" fill="#797B82"/>
            <path d="M18.725,24.862 L6.431,24.862 C6.15485763,24.862 5.931,24.6381424 5.931,24.362 C5.931,24.0858576 6.15485763,23.862 6.431,23.862 L18.725,23.862 C20.070642,23.920916 21.3209923,23.1691306 21.9,21.953 C22.5461261,20.6933624 22.454911,19.1817991 21.662,18.009 C20.97839,17.1693545 19.8576135,16.8220439 18.819,17.128 C16.664,17.559 16.556,20.552 19.272,20.552 C19.4531494,20.552 19.6,20.4051494 19.6,20.224 C19.6,20.0428506 19.4531494,19.896 19.272,19.896 C18.9958576,19.896 18.772,19.6721424 18.772,19.396 C18.772,18.502 20.601,18.829 20.601,20.224 C20.6087316,20.5786957 20.4711633,20.9211422 20.2202015,21.1719151 C19.9692398,21.4226881 19.6266898,21.5599986 19.272,21.552 C17.7801395,21.7112869 16.431996,20.6555438 16.229,19.169 C15.921,16.069 20.519,14.882 22.455,17.399 C24.46,20.005 22.978,24.862 18.725,24.862 Z" id="Shape" fill="#797B82"/>
            <path d="M46.047,60.666 C39.593,60.666 39.46,52.723 45.535,52.723 C46.0108596,52.7072281 46.4719687,52.8894117 46.8085422,53.2261747 C47.1451158,53.5629378 47.3270397,54.0241494 47.311,54.5 C47.311,56.3 45.035,56.761 45.035,55.775 C45.035,55.4988576 45.2588576,55.275 45.535,55.275 C45.9630207,55.275 46.31,54.9280207 46.31,54.5 C46.31,54.0719793 45.9630207,53.725 45.535,53.725 C41.043,53.725 41.118,58.803 44.782,59.536 C46.4841137,60.047857 48.3263136,59.4706343 49.432,58.079 C50.714719,56.1889211 50.8661082,53.7502124 49.827,51.716 C48.8894462,49.7461334 46.8645363,48.5281159 44.685,48.623 L19,48.623 C18.7238576,48.623 18.5,48.3991424 18.5,48.123 C18.5,47.8468576 18.7238576,47.623 19,47.623 L44.685,47.623 C53.345,47.621 53.685,60.666 46.047,60.666 Z" id="Shape" fill="#797B82"/>
            <path d="M18.315,51.372 L4.522,51.372 C4.24585763,51.372 4.022,51.1481424 4.022,50.872 C4.022,50.5958576 4.24585763,50.372 4.522,50.372 L18.315,50.372 C18.5911424,50.372 18.815,50.5958576 18.815,50.872 C18.815,51.1481424 18.5911424,51.372 18.315,51.372 Z" id="Shape" fill="#797B82"/>
            <path d="M16,48.621 L2.315,48.621 C2.03885763,48.621 1.815,48.3971424 1.815,48.121 C1.815,47.8448576 2.03885763,47.621 2.315,47.621 L16,47.621 C16.2761424,47.621 16.5,47.8448576 16.5,48.121 C16.5,48.3971424 16.2761424,48.621 16,48.621 Z" id="Shape" fill="#797B82"/>
        </g>
    </g>
</svg>
