<?xml version="1.0" encoding="UTF-8"?>
<svg xmlns="http://www.w3.org/2000/svg" xmlns:xlink="http://www.w3.org/1999/xlink" width="60px" height="60px" viewBox="0 0 60 60" version="1.1">
    <!-- Generator: Sketch 51.1 (57501) - http://www.bohemiancoding.com/sketch -->
    <title>28 - Sunny</title>
    <desc>Created with Sketch.</desc>
    <defs/>
    <g id="Page-1" stroke="none" stroke-width="1" fill="none" fill-rule="evenodd">
        <g id="28---Sunny" transform="translate(-1.000000, 0.000000)">
            <path d="M31,0.97 C14.9837423,0.97 2,13.9537423 2,29.97 C2,45.9862577 14.9837423,58.97 31,58.97 C47.0162577,58.97 60,45.9862577 60,29.97 C59.9933778,13.9564861 47.0135139,0.976622172 31,0.97 Z" id="Shape" fill="#7AAEDC"/>
            <path d="M51.89,19.06 C47.5493906,11.825602 40.2750152,6.83863712 31.96218,5.39843698 C23.6493448,3.95823685 15.1213038,6.20743031 8.6,11.56 C-0.864978159,23.0885208 -0.0409401668,39.9167358 10.5051039,50.465364 C21.051148,61.0139923 37.8791605,61.8421533 49.41,52.38 C57.1851447,42.9095003 58.1774665,29.5771767 51.89,19.06 Z" id="Shape" fill="#599AD3"/>
            <path d="M9.787,51.213 C1.20694081,42.6331054 -1.35983731,29.7295254 3.28355898,18.5192231 C7.92695526,7.30892073 18.8660803,-0.000406869242 31,-0.000406869242 C43.1339197,-0.000406869242 54.0730447,7.30892073 58.716441,18.5192231 C63.3598373,29.7295254 60.7930592,42.6331054 52.213,51.213 C46.5891387,56.8431359 38.957779,60.0066413 31,60.0066413 C23.042221,60.0066413 15.4108613,56.8431359 9.787,51.213 Z M11.2,10.2 C0.264761953,21.135238 0.264761953,38.864762 11.2,49.8 C22.135238,60.735238 39.864762,60.735238 50.8,49.8 C61.7352378,38.8647619 61.7352376,21.1352382 50.7999997,10.2000003 C39.8647618,-0.735237636 22.1352381,-0.735237768 11.2,10.2 Z" id="Shape" fill="#464C63" fill-rule="nonzero"/>
            <path d="M28.807,12.075 C26.174,13.165 22.988,8.803 21.494,6.433 C21.4325487,6.3322776 21.3067904,6.29147056 21.1979077,6.33692163 C21.0890249,6.3823727 21.0296024,6.50047998 21.058,6.615 C21.677,9.349 22.508,14.684 19.876,15.774 L28.807,12.075 Z" id="Shape" fill="#FDEA8E" fill-rule="nonzero"/>
            <path d="M33.193,47.925 C35.826,46.835 39.012,51.197 40.506,53.567 C40.5674513,53.6677224 40.6932096,53.7085294 40.8020923,53.6630784 C40.9109751,53.6176273 40.9703976,53.49952 40.942,53.385 C40.323,50.651 39.492,45.316 42.124,44.226 L33.193,47.925 Z" id="Shape" fill="#FDEA8E" fill-rule="nonzero"/>
            <path d="M33.9,12.6 C32.086,12.6 31.336,9.053 31.1,7.507 C31.0865116,7.46596255 31.0481973,7.43822499 31.005,7.43822499 C30.9618027,7.43822499 30.9234884,7.46596255 30.91,7.507 C30.669,9.053 29.919,12.6 28.11,12.6 L33.9,12.6 Z" id="Shape" fill="#FEF2BB" fill-rule="nonzero"/>
            <path d="M33.9,47.4 C32.086,47.4 31.336,50.947 31.1,52.493 C31.0865116,52.5340375 31.0481973,52.561775 31.005,52.561775 C30.9618027,52.561775 30.9234884,52.5340375 30.91,52.493 C30.669,50.947 29.919,47.4 28.11,47.4 L33.9,47.4 Z" id="Shape" fill="#FEF2BB" fill-rule="nonzero"/>
            <path d="M20.747,15.646 C19.464,16.929 16.425,14.946 15.162,14.028 C15.1235515,14.0089508 15.0772357,14.0165535 15.0468946,14.0468946 C15.0165535,14.0772357 15.0089508,14.1235515 15.028,14.162 C15.951,15.425 17.928,18.462 16.646,19.747 L20.747,15.646 Z" id="Shape" fill="#FEF2BB" fill-rule="nonzero"/>
            <path d="M45.354,40.253 C44.071,41.536 46.054,44.575 46.972,45.838 C46.9910492,45.8764485 46.9834465,45.9227643 46.9531054,45.9531054 C46.9227643,45.9834465 46.8764485,45.9910492 46.838,45.972 C45.575,45.049 42.538,43.072 41.253,44.354 L45.354,40.253 Z" id="Shape" fill="#FEF2BB" fill-rule="nonzero"/>
            <path d="M48.4,32.9 C48.4,31.086 51.947,30.336 53.493,30.1 C53.5340375,30.0865116 53.561775,30.0481973 53.561775,30.005 C53.561775,29.9618027 53.5340375,29.9234884 53.493,29.91 C51.947,29.669 48.4,28.919 48.4,27.11 L48.4,32.9 Z" id="Shape" fill="#FEF2BB" fill-rule="nonzero"/>
            <path d="M13.6,32.9 C13.6,31.086 10.053,30.336 8.507,30.1 C8.46596255,30.0865116 8.43822499,30.0481973 8.43822499,30.005 C8.43822499,29.9618027 8.46596255,29.9234884 8.507,29.91 C10.053,29.669 13.6,28.919 13.6,27.11 L13.6,32.9 Z" id="Shape" fill="#FEF2BB" fill-rule="nonzero"/>
            <path d="M45.354,19.747 C44.071,18.464 46.054,15.425 46.972,14.162 C46.9910492,14.1235515 46.9834465,14.0772357 46.9531054,14.0468946 C46.9227643,14.0165535 46.8764485,14.0089508 46.838,14.028 C45.575,14.951 42.538,16.928 41.253,15.646 L45.354,19.747 Z" id="Shape" fill="#FEF2BB" fill-rule="nonzero"/>
            <path d="M20.747,44.354 C19.464,43.071 16.425,45.054 15.162,45.972 C15.1235515,45.9910492 15.0772357,45.9834465 15.0468946,45.9531054 C15.0165535,45.9227643 15.0089508,45.8764485 15.028,45.838 C15.951,44.575 17.928,41.538 16.646,40.253 L20.747,44.354 Z" id="Shape" fill="#FEF2BB" fill-rule="nonzero"/>
            <path d="M48.925,27.807 C47.835,25.174 52.197,21.988 54.567,20.494 C54.6677224,20.4325487 54.7085294,20.3067904 54.6630784,20.1979077 C54.6176273,20.0890249 54.49952,20.0296024 54.385,20.058 C51.651,20.677 46.316,21.508 45.226,18.876 L48.925,27.807 Z" id="Shape" fill="#FDEA8E" fill-rule="nonzero"/>
            <path d="M13.075,32.193 C14.165,34.826 9.803,38.012 7.433,39.506 C7.3322776,39.5674513 7.29147056,39.6932096 7.33692163,39.8020923 C7.3823727,39.9109751 7.50047998,39.9703976 7.615,39.942 C10.349,39.323 15.684,38.492 16.774,41.124 L13.075,32.193 Z" id="Shape" fill="#FDEA8E" fill-rule="nonzero"/>
            <path d="M16.774,18.876 C15.684,21.508 10.349,20.676 7.615,20.058 C7.50047998,20.0296024 7.3823727,20.0890249 7.33692163,20.1979077 C7.29147056,20.3067904 7.3322776,20.4325487 7.433,20.494 C9.803,21.988 14.165,25.174 13.075,27.807 L16.774,18.876 Z" id="Shape" fill="#FDEA8E" fill-rule="nonzero"/>
            <path d="M45.226,41.124 C46.316,38.492 51.651,39.324 54.385,39.942 C54.49952,39.9703976 54.6176273,39.9109751 54.6630784,39.8020923 C54.7085294,39.6932096 54.6677224,39.5674513 54.567,39.506 C52.197,38.012 47.835,34.826 48.925,32.193 L45.226,41.124 Z" id="Shape" fill="#FDEA8E" fill-rule="nonzero"/>
            <path d="M42.124,15.774 C39.492,14.684 40.324,9.349 40.942,6.615 C40.9703976,6.50047998 40.9109751,6.3823727 40.8020923,6.33692163 C40.6932096,6.29147056 40.5674513,6.3322776 40.506,6.433 C39.012,8.803 35.826,13.165 33.193,12.075 L42.124,15.774 Z" id="Shape" fill="#FDEA8E" fill-rule="nonzero"/>
            <path d="M19.876,44.226 C22.508,45.316 21.676,50.651 21.058,53.385 C21.0296024,53.49952 21.0890249,53.6176273 21.1979077,53.6630784 C21.3067904,53.7085294 21.4325487,53.6677224 21.494,53.567 C22.988,51.197 26.174,46.835 28.807,47.925 L19.876,44.226 Z" id="Shape" fill="#FDEA8E" fill-rule="nonzero"/>
            <path d="M38.714,46.665 C31.9707431,49.7914091 24.0040921,48.504734 18.5878893,43.4144791 C13.1716866,38.3242241 11.3936532,30.4526513 14.0960526,23.528564 C16.7984519,16.6044766 23.4385684,12.0184202 30.8709459,11.9428326 C38.3033234,11.867245 45.0353376,16.3173062 47.878,23.185 C51.605642,32.2028379 47.5647613,42.5563822 38.714,46.665 Z" id="Shape" fill="#FDEA8E" fill-rule="nonzero"/>
            <path d="M31.058,49.361 C21.4179133,49.3631948 13.269312,42.2199379 12.0093918,32.6625388 C10.7494716,23.1051397 16.7685198,14.0942085 26.0798424,11.5981019 C35.391165,9.10199532 45.1103793,13.893936 48.8,22.8 C51.2562935,28.7264275 50.5915628,35.4879273 47.0281825,40.822554 C43.4648021,46.1571806 37.4732881,49.3605391 31.058,49.361 Z M31.058,12.948 C22.8492557,12.9442993 15.7819186,18.741786 14.1806604,26.7928399 C12.5794023,34.8438938 16.890546,42.9044239 24.476,46.042 C38.521,51.857 52.822,37.742 46.955,23.568 C44.3007579,17.1306761 38.0200435,12.9351051 31.057,12.948 L31.058,12.948 Z" id="Shape" fill="#464C63" fill-rule="nonzero"/>
            <ellipse id="Oval" fill="#FEF2BB" fill-rule="nonzero" transform="translate(25.925189, 19.975817) rotate(-39.333000) translate(-25.925189, -19.975817) " cx="25.9251889" cy="19.9758175" rx="5.55" ry="4.361"/>
        </g>
    </g>
</svg>
