<?xml version="1.0" encoding="UTF-8"?>
<svg xmlns="http://www.w3.org/2000/svg" xmlns:xlink="http://www.w3.org/1999/xlink" width="60px" height="61px" viewBox="0 0 60 61" version="1.1">
    <!-- Generator: Sketch 51.1 (57501) - http://www.bohemiancoding.com/sketch -->
    <title>29 - Rainbow Hills</title>
    <desc>Created with Sketch.</desc>
    <defs/>
    <g id="Page-1" stroke="none" stroke-width="1" fill="none" fill-rule="evenodd">
        <g id="29---Rainbow-Hills">
            <path d="M30,1.97 C13.9837423,1.97 1,14.9537423 1,30.97 C1,46.9862577 13.9837423,59.97 30,59.97 C46.0162577,59.97 59,46.9862577 59,30.97 C58.9933778,14.9564861 46.0135139,1.97662217 30,1.97 Z" id="Shape" fill="#7AAEDC"/>
            <path d="M50.89,20.06 C46.5493906,12.825602 39.2750152,7.83863712 30.96218,6.39843698 C22.6493448,4.95823685 14.1213038,7.20743031 7.6,12.56 C-1.86497816,24.0885208 -1.04094017,40.9167358 9.50510391,51.465364 C20.051148,62.0139923 36.8791605,62.8421533 48.41,53.38 C56.1851447,43.9095003 57.1774665,30.5771767 50.89,20.06 Z" id="Shape" fill="#599AD3"/>
            <path d="M58.216,24.366 C48.1827898,21.170499 37.2656354,22.3731018 28.168578,27.6759388 C19.0715205,32.9787758 12.6454417,41.885853 10.482,52.191 C10.466,52.256 10.453,52.317 10.443,52.381 C19.8257624,60.9484524 33.6941141,62.4074457 44.654371,55.9801416 C55.614628,49.5528375 61.1121405,36.7373314 58.216,24.366 Z" id="Shape" fill="#FF6699"/>
            <path d="M30.146,60.972 C22.6073082,61.0126624 15.3306603,58.2083479 9.769,53.119 C9.45509266,52.8195666 9.35282376,52.3603437 9.51,51.956 C11.7421126,41.3826698 18.3435532,32.2473343 27.6818251,26.809107 C37.0200971,21.3708797 48.2233185,20.137509 58.521,23.414 C58.8553351,23.5213163 59.1088876,23.7961247 59.189,24.138 C61.2686942,33.0267952 59.1879583,42.3789017 53.5356957,49.5474257 C47.8834331,56.7159497 39.2747015,60.9208395 30.146,60.972 Z M11.54,52.021 C17.1755246,56.9809949 24.5708063,59.4629608 32.0575675,58.9069992 C39.5443287,58.3510376 46.4918995,54.8039816 51.333,49.066 C56.9842157,42.4817144 59.2182202,33.6271481 57.367,25.15 C47.7145824,22.2474103 37.2894415,23.4950475 28.5945394,28.5933676 C19.8996372,33.6916877 13.7202569,42.1802342 11.54,52.021 Z" id="Shape" fill="#464C63" fill-rule="nonzero"/>
            <path d="M58.76,27.435 C49.0949921,24.0640256 38.4320086,25.1599482 29.6547387,30.4263874 C20.8774689,35.6928265 14.8927189,44.5856905 13.319,54.7 C22.6955861,61.2928467 35.0765216,61.7411678 44.9053872,55.8437619 C54.7342528,49.946356 60.1648539,38.8109563 58.76,27.435 Z" id="Shape" fill="#F29077"/>
            <path d="M16.385,56.584 C25.3899986,61.3568042 36.2391588,61.053595 44.9635316,55.7852955 C53.6879044,50.516996 59.0074049,41.0565982 58.976,30.865 C49.8998092,27.2438365 39.6512997,28.0842012 31.2862418,33.1355249 C22.9211839,38.1868485 17.4059491,46.8655779 16.385,56.584 Z" id="Shape" fill="#FDEA8E"/>
            <path d="M19.107,57.852 C27.5303169,61.2540263 37.0609135,60.5136787 44.8578052,55.8516481 C52.654697,51.1896174 57.8174151,43.1443251 58.807,34.114 C40.909,26.029 20.344,38.424 19.107,57.852 Z" id="Shape" fill="#8DCD9C"/>
            <path d="M22.273,58.925 C29.9698871,61.0429285 38.1993513,59.896214 45.0240472,55.7548111 C51.8487432,51.6134082 56.6657252,44.8432 58.341,37.038 C41.847,29.016 22.617,41.022 22.273,58.925 Z" id="Shape" fill="#A48DCD"/>
            <path d="M23.451,59.044 C23.442,59.102 23.435,59.16 23.426,59.218 C38.1564785,62.6367449 53.0420186,54.1654798 57.626,39.755 C50.5528167,36.716478 42.4666691,37.1539572 35.7625946,40.9378604 C29.0585201,44.7217636 24.5050954,51.4182921 23.451,59.044 Z" id="Shape" fill="#29B772"/>
            <path d="M23.205,60.193 C22.6873733,60.0761493 22.3511528,59.57533 22.439,59.052 C23.4962452,51.0861126 28.221909,44.074609 35.2088569,40.1052654 C42.1958048,36.1359219 50.6381269,35.6665826 58.022,38.837 C58.4937561,39.0404847 58.7345573,39.5683453 58.579,40.058 C53.8783356,54.996315 38.4494695,63.7784775 23.205,60.193 Z M24.555,58.433 C38.1944332,61.1767718 51.7708406,53.4526466 56.381,40.326 C49.7600429,37.7898686 42.3512909,38.3520087 36.1887873,41.8580871 C30.0262838,45.3641655 25.7577152,51.4456892 24.555,58.433 Z" id="Shape" fill="#464C63" fill-rule="nonzero"/>
            <path d="M21.29,9.406 C21.2398327,7.46032315 20.7112689,5.55694382 19.751,3.864 C12.2535425,6.70126426 6.26151412,12.5101808 3.193,19.916 C6.92333646,22.1697537 11.5857567,22.2101489 15.3545833,20.021368 C19.1234099,17.8325871 21.3988872,13.7629438 21.29,9.406 Z" id="Shape" fill="#FDEA8E"/>
            <path d="M9.377,22.646 C7.01401558,22.6469834 4.69623423,21.9983506 2.677,20.771 L1.945,20.326 L2.273,19.535 C5.44959957,11.8759421 11.6464947,5.86755535 19.4,2.929 L20.2,2.629 L20.622,3.374 C22.8746956,7.37387414 22.837311,12.2683592 20.523779,16.233356 C18.2102469,20.1983529 13.9675973,22.6391119 9.377,22.646 Z M4.47,19.482 C7.90083888,21.2008128 11.9817778,20.9943882 15.2216648,18.9381525 C18.4615518,16.8819168 20.3856861,13.2771449 20.291,9.441 C20.2473113,7.94934234 19.9023974,6.48192779 19.277,5.127 C12.7007475,7.86300407 7.40849971,12.9937001 4.47,19.482 Z" id="Shape" fill="#464C63" fill-rule="nonzero"/>
            <path d="M30.957,13.928 C30.9649557,12.8081847 30.3829567,11.7668341 29.4250046,11.1868536 C28.4670525,10.6068732 27.2745571,10.5738778 26.286,11.1 C25.5186861,9.74701555 24.0303675,8.96852346 22.4813864,9.1099278 C20.9324053,9.25133214 19.609648,10.2864435 19.1,11.756 C17.640843,11.6485311 16.3615852,12.7228403 16.2152221,14.1786104 C16.0688591,15.6343805 17.1086533,16.941847 18.56,17.127 L18.56,17.14 L27.833,17.14 C29.5770874,17.1028736 30.9683255,15.6724458 30.957,13.928 Z" id="Shape" fill="#FFFFFF"/>
            <path d="M17.56,18.137 L17.56,17.918 C15.9473418,17.3199925 14.9576116,15.6915115 15.1694511,13.9846421 C15.3812907,12.2777726 16.739083,10.9406426 18.449,10.755 C19.2145986,9.28463104 20.6651553,8.29488422 22.3134595,8.11819405 C23.9617637,7.94150388 25.5891445,8.60131081 26.649,9.876 C28.8923807,9.27290505 31.1999051,10.6026193 31.803,12.846 C32.4060949,15.0893807 31.0763807,17.3969051 28.833,18 L28.833,18.136 C27.641,18.138 29.649,18.137 17.56,18.137 Z M27.817,16.137 C29.0112561,16.1044248 29.9612455,15.1246928 29.957,13.93 C29.9660154,13.1622174 29.5700853,12.4464129 28.9149153,12.0460084 C28.2597454,11.645604 27.4421458,11.6197648 26.763,11.978 L25.905,12.442 L25.419,11.597 C24.8460039,10.5829015 23.7315343,9.9991229 22.5716179,10.1054917 C21.4117015,10.2118605 20.4219967,10.9886001 20.043,12.09 L19.778,12.834 L18.993,12.749 C18.5194525,12.7119096 18.0516812,12.8725324 17.700812,13.19271 C17.3499428,13.5128876 17.1472912,13.9640439 17.141,14.439 C17.1299933,15.3101132 17.7870787,16.0449371 18.654,16.131 C18.789,16.142 20.992,16.137 27.817,16.135 L27.817,16.137 Z" id="Shape" fill="#464C63" fill-rule="nonzero"/>
            <path d="M5.573,46.608 C6.33427116,47.7883112 7.17874645,48.9128301 8.1,49.973 C16.9390506,60.1659359 31.6415973,62.913258 43.565,56.6 C34.8396425,44.7301227 19.0090627,40.5666369 5.573,46.608 Z" id="Shape" fill="#54C58E"/>
            <path d="M4.767,47.2 C4.59004101,46.9562878 4.53234986,46.6457993 4.60995301,46.3547875 C4.68755616,46.0637757 4.89218717,45.8232397 5.167,45.7 C19.0354331,39.543235 35.3188908,43.8214691 44.37,56 C44.5422622,56.2341775 44.6040904,56.5317264 44.5393804,56.8151448 C44.4746704,57.0985632 44.2898284,57.3397924 44.033,57.476 C30.2575838,64.7308798 13.2226192,60.2727915 4.767,47.2 Z M7.079,47.054 C14.9598948,58.1904225 29.6959095,62.0661246 42.036,56.248 C33.6581148,45.8530515 19.4872415,42.1255812 7.079,47.053 L7.079,47.054 Z" id="Shape" fill="#464C63" fill-rule="nonzero"/>
            <path d="M30,60.969 C13.4314575,60.969 2.02906125e-15,47.5375425 0,30.969 C-2.02906125e-15,14.4004575 13.4314575,0.969 30,0.969 C46.5685425,0.969 60,14.4004575 60,30.969 C59.9818129,47.5300033 46.5610033,60.9508129 30,60.969 Z M30,2.969 C14.536027,2.969 2,15.505027 2,30.969 C2,46.432973 14.536027,58.969 30,58.969 C45.463973,58.969 58,46.432973 58,30.969 C57.9818134,15.5128903 45.456111,2.98808251 30,2.971 L30,2.969 Z" id="Shape" fill="#464C63" fill-rule="nonzero"/>
        </g>
    </g>
</svg>
