<?xml version="1.0" encoding="UTF-8"?>
<svg xmlns="http://www.w3.org/2000/svg" xmlns:xlink="http://www.w3.org/1999/xlink" width="60px" height="61px" viewBox="0 0 60 61" version="1.1">
    <!-- Generator: Sketch 51.1 (57501) - http://www.bohemiancoding.com/sketch -->
    <title>03 - Hot Weather</title>
    <desc>Created with Sketch.</desc>
    <defs/>
    <g id="Page-1" stroke="none" stroke-width="1" fill="none" fill-rule="evenodd">
        <g id="03---Hot-Weather" transform="translate(-1.000000, 0.000000)">
            <path d="M31,1.97 C14.9837423,1.97 2,14.9537423 2,30.97 C2,46.9862577 14.9837423,59.97 31,59.97 C47.0162577,59.97 60,46.9862577 60,30.97 C59.9933778,14.9564861 47.0135139,1.97662217 31,1.97 Z" id="Shape" fill="#EAAA89"/>
            <path d="M51.89,20.06 C47.5493906,12.825602 40.2750152,7.83863712 31.96218,6.39843698 C23.6493448,4.95823685 15.1213038,7.20743031 8.6,12.56 C-0.864978159,24.0885208 -0.0409401668,40.9167358 10.5051039,51.465364 C21.051148,62.0139923 37.8791605,62.8421533 49.41,53.38 C57.1851447,43.9095003 58.1774665,30.5771767 51.89,20.06 Z" id="Shape" fill="#E5956C"/>
            <path d="M27.4,50.357 C28.9267013,48.9539958 30.3055737,47.3981989 31.515,45.714 C32.2135279,44.4822624 32.1776973,42.9660977 31.4217638,41.7687325 C30.6658303,40.5713673 29.3124179,39.8870325 27.9,39.988 C26.042,39.988 24.646,40.62 23.264,42.765 L25.525,44.1 C26.238,42.969 26.988,42.405 27.784,42.405 C29.001,42.405 29.841,43.705 28.79,45.193 C27.1236152,47.1543036 25.3520097,49.0237197 23.483,50.793 L23.483,52.884 L32.4,52.884 L32.4,50.357 L27.4,50.357 Z" id="Shape" fill="#464C63" fill-rule="nonzero"/>
            <polygon id="Shape" fill="#464C63" fill-rule="nonzero" points="41.811 47.438 41.811 45.238 39.1 45.238 39.1 47.438 37.309 47.438 41.6 40.275 38.521 40.275 34.021 47.724 34.021 49.87 39.1 49.87 39.1 52.883 41.81 52.883 41.81 49.87 43.237 49.87 43.237 47.438"/>
            <path d="M47.607,38.754 C46.9211901,38.1760581 45.9188099,38.1760581 45.233,38.754 C44.7054218,39.429904 44.7054218,40.378096 45.233,41.054 C45.9189596,41.6315319 46.9210404,41.6315319 47.607,41.054 C48.1338632,40.3778501 48.1338632,39.4301499 47.607,38.754 Z M46.982,40.648 C46.8500982,40.8274266 46.6406926,40.9333869 46.418,40.9333869 C46.1953074,40.9333869 45.9859018,40.8274266 45.854,40.648 C45.6124687,40.1845828 45.6124687,39.6324172 45.854,39.169 C45.9859018,38.9895734 46.1953074,38.8836131 46.418,38.8836131 C46.6406926,38.8836131 46.8500982,38.9895734 46.982,39.169 C47.2245573,39.6321653 47.2245573,40.1848347 46.982,40.648 Z" id="Shape" fill="#464C63" fill-rule="nonzero"/>
            <path d="M26.064,2.391 C25.5021728,7.23449836 22.9402554,11.6222876 18.9983827,14.4922642 C15.05651,17.3622409 10.0939737,18.4528137 5.312,17.5 C9.50475739,9.51178453 17.174184,3.9278713 26.064,2.391 Z" id="Shape" fill="#FEF2BB"/>
            <path d="M33.861,2.107 C33.3222047,9.50459241 29.5401576,16.2854225 23.5291972,20.6308833 C17.5182369,24.9763441 9.89352638,26.4417201 2.7,24.634 C3.24910059,22.1502959 4.12753656,19.7510761 5.312,17.5 C10.0939737,18.4528137 15.05651,17.3622409 18.9983827,14.4922642 C22.9402554,11.6222876 25.5021728,7.23449836 26.064,2.391 C28.6385476,1.94752747 31.2610112,1.85200616 33.861,2.107 Z" id="Shape" fill="#FDEA8E"/>
            <path d="M8.831,26.391 C6.35528767,26.3845875 3.89209954,26.0393845 1.51,25.365 C2.11117556,22.2128625 3.21347755,19.1773963 4.775,16.374 L5.507,16.519 C10.0151756,17.4219114 14.6954649,16.3959896 18.4125871,13.6900888 C22.1297093,10.9841881 24.5440604,6.84552493 25.07,2.278 L25.155,1.535 C28.3739788,0.902387034 31.6736796,0.790967688 34.928,1.205 L34.859,2.179 C33.8355401,15.8076094 22.4979349,26.3541784 8.831,26.391 Z M3.9,23.886 C10.5333817,25.2531676 17.4360336,23.77312 22.9257692,19.8065469 C28.4155049,15.8399738 31.9881334,9.75117508 32.773,3.024 C30.8306945,2.90110261 28.880874,2.98052981 26.955,3.261 C26.195942,8.09401588 23.5472353,12.4272312 19.5920508,15.3065935 C15.6368663,18.1859558 10.6994923,19.3753842 5.867,18.613 C5.03348365,20.2990989 4.37439561,22.0659374 3.9,23.886 Z" id="Shape" fill="#464C63" fill-rule="nonzero"/>
            <path d="M41.3,3.851 C40.2903888,13.0280387 35.4454724,21.3496156 27.9631774,26.7581845 C20.4808825,32.1667533 11.0596788,34.157426 2.029,32.238 C1.9151162,29.6863356 2.13939629,27.1308203 2.696,24.638 C9.8905708,26.4453134 17.5160901,24.9793437 23.5276895,20.6332071 C29.5392889,16.2870705 33.3218366,9.50548183 33.861,2.107 C36.4071181,2.35536314 38.9087953,2.94185663 41.3,3.851 Z" id="Shape" fill="#FEF2BB"/>
            <path d="M8.831,33.951 C6.21654352,33.9470895 3.61105493,33.64514 1.065,33.051 C0.843237371,29.8099866 1.14030904,26.5543511 1.945,23.407 C4.18358409,24.0522194 6.50129002,24.3817335 8.831,24.386 C21.4483635,24.3527145 31.9163677,14.617771 32.864,2.036 L32.937,1.012 C36.1783878,1.22774852 39.3640225,1.96312874 42.372,3.19 C40.332,22.054 25.3,33.951 8.831,33.951 Z M3,31.414 C11.5316699,33.020853 20.3487372,31.0495809 27.3837922,25.962404 C34.4188471,20.8752272 39.0531291,13.1195827 40.2,4.514 C38.4340989,3.89839247 36.6104981,3.46284571 34.757,3.214 C33.915393,10.508894 30.0470505,17.1143711 24.0966088,21.4173961 C18.1461671,25.7204212 10.6613774,27.3248912 3.47,25.839 C3.12795917,27.6770299 2.97050974,29.5446482 3,31.414 Z" id="Shape" fill="#464C63" fill-rule="nonzero"/>
            <path d="M47.472,7.1 C43.7263014,27.9642042 24.0626939,42.0631331 3.1,38.915 C2.48182028,36.7390925 2.12168018,34.4980343 2.027,32.238 C11.0580081,34.1583925 20.4799291,32.1681547 27.9627788,26.7594603 C35.4456285,21.3507659 40.2907595,13.0286058 41.3,3.851 C43.4815344,4.67957327 45.5541078,5.7705958 47.472,7.1 Z" id="Shape" fill="#FDEA8E"/>
            <path d="M2.316,39.809 C1.45116436,36.9489379 0.999926894,33.9798627 0.976,30.992 L2.237,31.26 C10.9918612,33.1341236 20.1308481,31.209765 27.3865791,25.9643574 C34.6423102,20.7189497 39.3348572,12.6440355 40.3,3.743 L40.439,2.457 C43.340126,3.44371298 46.0794144,4.85396294 48.568,6.642 C44.686,28.41 25.289,43.237 2.316,39.809 Z M3.894,38.017 C23.8795527,40.6974453 42.4952635,27.3489179 46.369,7.56 C45.0222166,6.673871 43.6012444,5.90600402 42.122,5.265 C40.7952898,14.2299205 35.9051895,22.2794368 28.5604773,27.5884069 C21.2157652,32.8973769 12.0386698,35.0160357 3.11,33.464 C3.24508428,35.0007218 3.5073154,36.5236023 3.894,38.017 Z" id="Shape" fill="#464C63" fill-rule="nonzero"/>
            <path d="M31,60.969 C14.4314575,60.969 1,47.5375425 1,30.969 C1,14.4004575 14.4314575,0.969 31,0.969 C47.5685425,0.969 61,14.4004575 61,30.969 C60.9774154,47.5281786 47.5591786,60.9464154 31,60.969 Z M3,30.969 C3.00020932,44.2749279 12.3645996,55.7429327 25.4018749,58.4032273 C38.4391503,61.0635219 51.5479704,54.181242 56.7613271,41.9391577 C61.9746838,29.6970734 57.8524702,15.4768662 46.9,7.921 C28.6,-4.747 3,8.268 3,30.969 Z" id="Shape" fill="#464C63" fill-rule="nonzero"/>
        </g>
    </g>
</svg>
