<?xml version="1.0" encoding="UTF-8"?>
<svg xmlns="http://www.w3.org/2000/svg" xmlns:xlink="http://www.w3.org/1999/xlink" width="60px" height="60px" viewBox="0 0 60 60" version="1.1">
    <!-- Generator: Sketch 51.1 (57501) - http://www.bohemiancoding.com/sketch -->
    <title>30 - Storm Clouds</title>
    <desc>Created with Sketch.</desc>
    <defs/>
    <g id="Page-1" stroke="none" stroke-width="1" fill="none" fill-rule="evenodd">
        <g id="30---Storm-Clouds" transform="translate(-1.000000, -1.000000)">
            <path d="M31,1.97 C14.9837423,1.97 2,14.9537423 2,30.97 C2,46.9862577 14.9837423,59.97 31,59.97 C47.0162577,59.97 60,46.9862577 60,30.97 C59.9933778,14.9564861 47.0135139,1.97662217 31,1.97 Z" id="Shape" fill="#7AAEDC"/>
            <path d="M51.89,20.06 C47.5493906,12.825602 40.2750152,7.83863712 31.96218,6.39843698 C23.6493448,4.95823685 15.1213038,7.20743031 8.6,12.56 C-0.864978159,24.0885208 -0.0409401668,40.9167358 10.5051039,51.465364 C21.051148,62.0139923 37.8791605,62.8421533 49.41,53.38 C57.1851447,43.9095003 58.1774665,30.5771767 51.89,20.06 Z" id="Shape" fill="#599AD3"/>
            <path d="M31.005,61 C18.8706779,61.0020224 7.93005479,53.6940394 3.28504934,42.4839679 C-1.3599561,31.2738965 1.20548224,18.3695416 9.78502872,9.78856497 C18.3645752,1.20758832 31.2685023,-1.36000089 42.4793478,3.28313599 C53.6901934,7.92627287 60.9999998,18.8656777 61,31 C61.0173022,38.9609194 57.8628404,46.6008351 52.2340762,52.2305376 C46.605312,57.8602401 38.9659222,61.0159753 31.005,61 Z M31.005,3 C19.6796024,2.99797761 9.46825188,9.81867621 5.13280843,20.2813989 C0.797364977,30.7441216 3.1916918,42.7882408 11.1992423,50.7972214 C19.2067928,58.8062021 31.2504842,61.2026798 41.7139809,56.8691049 C52.1774777,52.53553 58.9999998,42.3253978 59,31 C58.9807223,15.5459706 46.4590257,3.02203762 31.005,3 Z" id="Shape" fill="#464C63" fill-rule="nonzero"/>
            <path d="M47.406,27.269 C47.0349982,24.0285389 45.3076353,21.0972614 42.6526493,19.202722 C39.9976633,17.3081825 36.6639682,16.6280006 33.479,17.331 C33.489,17.354 33.495,17.379 33.504,17.402 C30.3605257,9.73980645 22.0876705,5.52686494 14.042,7.491 C3.90163847,14.7957132 -0.41134804,27.7798222 3.343,39.7 C52.411,39.7 49.496,39.875 51.011,39.294 C53.4896413,38.3974869 55.1481759,36.0527173 55.168,33.417 C55.1456384,31.4956589 54.2578635,29.6868955 52.7516332,28.4938649 C51.2454029,27.3008342 49.2814135,26.850818 47.406,27.269 Z" id="Shape" fill="#F9FAFD" fill-rule="nonzero"/>
            <path d="M59.033,13.117 C59.0237053,14.981126 57.5151232,16.4901541 55.651,16.5 C45.562,16.5 45.928,16.51 45.831,16.49 C44.2663251,16.4219611 42.9537522,15.2870538 42.6604541,13.7486088 C42.367156,12.2101637 43.1701077,10.6719405 44.6,10.033 C44.3689648,8.76253023 44.7137847,7.45505168 45.541313,6.46375577 C46.3688414,5.47245986 47.5936942,4.89962791 48.885,4.9 C49.2663262,4.90461401 49.6458425,4.95326995 50.016,5.045 C50.8648201,3.66422503 52.4114725,2.87052097 54.0281625,2.98605655 C55.6448526,3.10159213 57.0629207,4.10716777 57.7067654,5.59461495 C58.3506101,7.08206213 58.1132382,8.80419862 57.091,10.062 C58.2752244,10.6184452 59.0317552,11.8085593 59.033,13.117 Z" id="Shape" fill="#777E8C" fill-rule="nonzero"/>
            <path d="M56.134,11.067 C56.1252471,12.9319043 54.6159016,14.4416959 52.751,14.451 C44.82,14.451 44.963,14.461 44.864,14.441 C44.0192969,14.4058288 43.2188295,14.0537945 42.622,13.455 C42.4749056,12.0072434 43.2720563,10.6281484 44.6,10.033 C44.3354511,8.57325437 44.8316578,7.07919171 45.9169355,6.0677493 C47.0022132,5.05630689 48.5274792,4.66642479 49.965,5.033 C49.9806622,5.03778758 49.9967289,5.04113482 50.013,5.043 C50.9559389,3.48822638 52.7749212,2.69464882 54.556,3.061 C55.4862962,4.62425487 55.3392272,6.60249272 54.188,8.011 C55.3742801,8.56624627 56.1326603,9.75720725 56.134,11.067 Z" id="Shape" fill="#9298A3" fill-rule="nonzero"/>
            <path d="M47.406,27.269 C47.0938329,24.108977 45.4443087,21.2335929 42.874,19.369 C43.0629423,19.8539029 43.2176549,20.3514561 43.337,20.858 C43.3475915,20.8757489 43.3544005,20.8954952 43.357,20.916 C44.4890528,26.056836 41.9079319,31.2959092 37.142,33.531 C36.9690176,31.3036763 36.0219326,29.2071407 34.465,27.605 C33.987,27.127 34.172,27.705 34.426,26.029 C35.3599528,20.5336622 33.3772687,14.9470957 29.188,11.27 C29.7709896,14.0342622 29.6073845,16.9039092 28.714,19.584 C25.314,30.157 11.7,34.714 2.27,27.172 C1.70189249,31.3760909 2.06826565,35.6537451 3.343,39.7 C52.412,39.7 49.496,39.875 51.011,39.294 C53.4896413,38.3974869 55.1481759,36.0527173 55.168,33.417 C55.1456384,31.4956589 54.2578635,29.6868955 52.7516332,28.4938649 C51.2454029,27.3008342 49.2814135,26.850818 47.406,27.269 Z" id="Shape" fill="#D3D6D9" fill-rule="nonzero"/>
            <path d="M3.343,40.7 C2.90662907,40.6995901 2.52091114,40.4162716 2.39,40 C-1.45906374,27.6689573 2.9959337,14.2572736 13.458,6.68 C13.5624132,6.60440974 13.6806482,6.55004885 13.806,6.52 C22.0088791,4.51355597 30.4890271,8.56789666 34.078,16.212 C37.3792493,15.7402643 40.7342645,16.57552 43.429,18.54 L43.446,18.552 C45.9552117,20.3834178 47.674335,23.1002689 48.255,26.152 C50.68375,25.9519574 53.0521493,26.9770674 54.5686305,28.8847173 C56.0851118,30.7923672 56.5496549,33.3309426 55.807,35.652 C55.0421876,37.9274987 53.2277454,39.6950349 50.933,40.4 C49.72,40.822 49.537,40.731 3.343,40.7 Z M50.129,38.553 C50.757,39.761 50.711,39.773 50.267,38.516 C51.4360065,38.1585522 52.4583765,37.4332483 53.182,36.448 C54.4452605,34.6405101 54.4591383,32.2401523 53.2168619,30.4181764 C51.9745854,28.5962006 49.7350371,27.7322947 47.591,28.248 C47.3158165,28.2998279 47.0315093,28.2339017 46.8072186,28.066254 C46.582928,27.8986062 46.4392045,27.6445976 46.411,27.366 C46.0671703,24.4763004 44.5444468,21.8571491 42.2033344,20.1286307 C39.8622221,18.4001123 36.910866,17.7159068 34.048,18.238 C33.8004938,18.3982999 33.4948554,18.441188 33.2127892,18.3551992 C32.9307231,18.2692105 32.7009889,18.0631125 32.585,17.792 C31.8918168,16.040466 30.873968,14.4356578 29.585,13.062 C25.7429211,8.91652446 19.9759992,7.14440536 14.469,8.417 C5.02900793,15.3565183 0.890757198,27.4284427 4.088,38.7 C43.977,38.727 49.019,38.787 50.129,38.553 Z" id="Shape" fill="#464C63" fill-rule="nonzero"/>
            <path d="M59.4,45.945 C58.4829864,43.5293153 56.0855297,42.0052149 53.509,42.2 C53.348,42.146 53.546,42.407 53.219,41.629 C51.8614205,38.3372361 48.6606646,36.181979 45.1,36.162 C44.984,36.162 44.888,36.162 44.781,36.172 C42.3722433,31.8622114 37.5187534,29.5266538 32.6478639,30.3333893 C27.7769744,31.1401248 23.9356425,34.9157522 23.045,39.772 C17.108,38.347 12.165,45.172 15.409,50.647 C16.677575,52.8381139 19.0141668,54.1908776 21.546,54.2 L53.934,54.2 C55.9123547,54.1666557 57.7473121,53.1608945 58.839691,51.5111346 C59.9320698,49.8613748 60.1416515,47.7793806 59.4,45.945 Z" id="Shape" fill="#9298A3" fill-rule="nonzero"/>
            <path d="M59.8,47.7 C59.6942782,46.122397 58.9612324,44.6528214 57.7645417,43.6194098 C56.5678509,42.5859981 55.007178,42.0748147 53.431,42.2 C53.411,42.2 53.247,42.789 53.218,42.847 C52.532,44.452 50.918,45.235 49.381,45.767 C49.159,45.844 47.197,46.356 47.197,46.443 C47.1807045,45.0224901 46.3278455,43.7453582 45.022,43.186 C44.742,43.079 44.094,42.77 43.833,43.031 C44.9910034,41.8343826 45.5744825,40.1951708 45.433,38.536 C45.3229812,37.7202916 45.1015841,36.923531 44.775,36.168 C44.277315,35.2992489 43.6770093,34.4934694 42.987,33.768 C42.881,37.229 40.726,47.321 28.693,47.321 C16.843,47.321 14.546,46.766 14.393,46.47 C14.2603877,48.457942 14.951941,50.4128147 16.3051176,51.8751458 C17.6582942,53.337477 19.5537579,54.1783043 21.546,54.2 L53.683,54.2 C55.376938,54.2128559 56.9995635,53.519008 58.1604972,52.2853855 C59.3214308,51.051763 59.9155795,49.3900393 59.8,47.7 Z" id="Shape" fill="#777E8C" fill-rule="nonzero"/>
            <path d="M53.935,55.2 C19.435,55.2 20.985,55.313 19.535,54.937 C18.4928705,54.6659642 17.5151769,54.1900355 16.659,53.537 C9.989,48.111 14.374,37.926 22.286,38.637 C23.5814613,33.739536 27.6635663,30.080382 32.6730148,29.3261944 C37.6824633,28.5720068 42.6609916,30.867055 45.341,35.166 C49.1844821,35.286242 52.6071578,37.6306207 54.108,41.171 C56.9367045,41.2718282 59.4194041,43.0837633 60.378,45.747 C61.1755848,47.8778028 60.887832,50.2633107 59.6064395,52.143336 C58.325047,54.0233614 56.2098886,55.1633415 53.935,55.2 Z M15.923,49.447 C16.5743647,50.9479827 17.7860798,52.1352984 19.3,52.756 C20.786,53.356 18.759,53.2 53.937,53.2 C56.6477021,53.1562921 58.8215378,50.9450533 58.819,48.234 C58.819,48.234 58.819,48.195 58.819,48.156 C58.8139844,46.5581962 58.0538453,45.0568287 56.769,44.107 C57.421,42.926 57.455,42.954 56.669,44.027 C55.5304595,43.2357754 54.1086469,42.9673441 52.76,43.289 C52.46,42.436 52.394,42.228 52.306,42.019 C51.0995742,39.1003849 48.2640153,37.1867765 45.106,37.16 C44.816213,37.1615944 44.5268732,37.1829775 44.24,37.224 C43.7142067,36.2190776 43.0534142,35.2908055 42.276,34.465 C39.4921057,31.5657529 35.3182383,30.4712226 31.4698607,31.6312619 C27.6214831,32.7913011 24.7478396,36.0102045 24.03,39.965 L23.83,40.984 L22.821,40.742 C18.221,39.642 13.886,44.548 15.881,49.328 C14.717,50.024 14.7,49.983 15.923,49.447 Z" id="Shape" fill="#464C63" fill-rule="nonzero"/>
            <path d="M45.745,17.487 C43.8685805,17.3824055 42.2680155,16.0924262 41.7671728,14.2810602 C41.2663301,12.4696942 41.9768489,10.5407002 43.533,9.487 C43.4673351,7.90869743 44.1007021,6.3816947 45.2641924,5.31321859 C46.4276827,4.24474248 48.002988,3.74343987 49.57,3.943 C51.303696,1.8317454 54.3495578,1.36580728 56.6351332,2.86221721 C58.9207087,4.35862713 59.7117413,7.33665322 58.47,9.77 C59.8687131,10.9585489 60.3796358,12.8922207 59.7505769,14.6165559 C59.121518,16.340891 57.4854758,17.4913233 55.65,17.5 C49.482,17.5 46.033,17.511 45.745,17.487 Z M48.885,5.9 C47.8922878,5.89979536 46.9505473,6.3396217 46.3135106,7.10097696 C45.676474,7.86233223 45.4096761,8.86689253 45.585,9.844 C45.673201,10.3041924 45.4300358,10.7639202 45,10.95 C43.9978651,11.4023147 43.4367143,12.4828869 43.6431403,13.562818 C43.8495663,14.6427492 44.7696921,15.4401793 45.868,15.491 L55.647,15.5 C56.9558906,15.4827684 58.0127684,14.4258906 58.03,13.117 C58.030434,12.1941084 57.4961916,11.3545288 56.66,10.964 C56.3830937,10.8316192 56.1823161,10.5794099 56.115384,10.2798738 C56.0484518,9.98033774 56.1227794,9.66665545 56.317,9.429 C57.1059445,8.46094198 57.290329,7.1341723 56.79525,5.98767039 C56.3001711,4.84116847 55.207981,4.06564531 53.9623649,3.97614506 C52.7167487,3.8866448 51.5249044,4.49805507 50.871,5.562 C50.6901173,5.86148379 50.3658699,6.04465514 50.016,6.045 C49.6418117,5.9768142 49.2642873,5.92841362 48.885,5.9 Z" id="Shape" fill="#464C63" fill-rule="nonzero"/>
        </g>
    </g>
</svg>
