<?xml version="1.0" encoding="UTF-8"?>
<svg xmlns="http://www.w3.org/2000/svg" xmlns:xlink="http://www.w3.org/1999/xlink" width="60px" height="61px" viewBox="0 0 60 61" version="1.1">
    <!-- Generator: Sketch 51.1 (57501) - http://www.bohemiancoding.com/sketch -->
    <title>04 - Sun and Cloud</title>
    <desc>Created with Sketch.</desc>
    <defs/>
    <g id="Page-1" stroke="none" stroke-width="1" fill="none" fill-rule="evenodd">
        <g id="04---Sun-and-Cloud">
            <path d="M30,1.97 C13.9837423,1.97 1,14.9537423 1,30.97 C1,46.9862577 13.9837423,59.97 30,59.97 C46.0162577,59.97 59,46.9862577 59,30.97 C58.9933778,14.9564861 46.0135139,1.97662217 30,1.97 Z" id="Shape" fill="#A8BFE5"/>
            <path d="M50.89,20.06 C46.5493906,12.825602 39.2750152,7.83863712 30.96218,6.39843698 C22.6493448,4.95823685 14.1213038,7.20743031 7.6,12.56 C-1.86497816,24.0885208 -1.04094017,40.9167358 9.50510391,51.465364 C20.051148,62.0139923 36.8791605,62.8421533 48.41,53.38 C56.1851447,43.9095003 57.1774665,30.5771767 50.89,20.06 Z" id="Shape" fill="#8DA5CD"/>
            <circle id="Oval" fill="#FDEA8E" fill-rule="nonzero" cx="19.454" cy="24.29" r="12.655"/>
            <path d="M19.454,37.945 C11.9125517,37.945 5.799,31.8314483 5.799,24.29 C5.799,16.7485517 11.9125517,10.635 19.454,10.635 C26.9954483,10.635 33.109,16.7485517 33.109,24.29 C33.1001832,31.8277932 26.9917932,37.9361832 19.454,37.945 Z M19.454,12.635 C13.0171212,12.635 7.799,17.8531212 7.799,24.29 C7.799,30.7268788 13.0171212,35.945 19.454,35.945 C25.8908788,35.945 31.109,30.7268788 31.109,24.29 C31.1018356,17.8560912 25.8879088,12.6421644 19.454,12.635 Z" id="Shape" fill="#464C63" fill-rule="nonzero"/>
            <path d="M42.39,26.265 C40.2966815,20.2725403 34.0125521,16.831916 27.8363124,18.2967092 C21.6600727,19.7615023 17.5903218,25.6577135 18.411,31.952 C14.7922319,32.8232041 12.397469,36.2639451 12.8374045,39.9600154 C13.27734,43.6560857 16.4128404,46.438571 20.135,46.436 L43.1,46.436 C46.8060755,46.4564733 50.2256883,44.4455321 52.0092732,41.1968031 C53.7928581,37.9480741 53.6538964,33.9834398 51.6472299,30.8675603 C49.6405635,27.7516808 46.0885473,25.9850974 42.393,26.265 L42.39,26.265 Z" id="Shape" fill="#D3D6D9" fill-rule="nonzero"/>
            <path d="M32.109,24.29 C32.1016832,28.691839 29.8100379,32.7743795 26.0561169,35.0731438 C22.3021959,37.3719081 17.6241216,37.5573696 13.7,35.563 C14.6912133,33.748906 16.4037256,32.4389104 18.414,31.957 C17.9535772,28.4690899 19.0003652,24.9501586 21.2923469,22.2810153 C23.5843287,19.611872 26.9045718,18.0451467 30.422,17.973 C31.5315827,19.893045 32.1135965,22.0724054 32.109,24.29 Z" id="Shape" fill="#F9FAFD" fill-rule="nonzero"/>
            <path d="M30,60.969 C13.4314575,60.969 2.02906125e-15,47.5375425 0,30.969 C-2.02906125e-15,14.4004575 13.4314575,0.969 30,0.969 C46.5685425,0.969 60,14.4004575 60,30.969 C59.981263,47.5297751 46.5607751,60.950263 30,60.969 Z M30,2.969 C14.536027,2.969 2,15.505027 2,30.969 C2,46.432973 14.536027,58.969 30,58.969 C45.463973,58.969 58,46.432973 58,30.969 C57.9829154,15.5121092 45.4568908,2.98608463 30,2.969 Z" id="Shape" fill="#464C63" fill-rule="nonzero"/>
            <path d="M43.1,47.436 L20.135,47.436 C16.074614,47.4356782 12.6037883,44.5128677 11.9124952,40.5117618 C11.221202,36.5106559 13.5101115,32.5927041 17.335,31.23 C16.9049593,24.6897738 21.2725069,18.7995538 27.6556419,17.3112388 C34.0387769,15.8229238 40.5610656,19.1740299 43.068,25.23 C47.0347199,25.2242837 50.7031698,27.3352215 52.6914802,30.7676435 C54.6797906,34.2000656 54.6858897,38.4325053 52.7074802,41.8706436 C50.7290707,45.3087819 47.0667199,47.4302838 43.1,47.436 Z M30.7,18.962 C27.4220547,18.9617226 24.3027819,20.37321 22.1392831,22.8357693 C19.9757844,25.2983287 18.9776704,28.5733749 19.4,31.824 C19.4652938,32.3301066 19.1390374,32.8041913 18.643,32.924 C15.5163817,33.6762228 13.4471773,36.6489118 13.82745,39.8421819 C14.2077227,43.0354519 16.9171686,45.4390721 20.133,45.436 L43.1,45.436 C46.4283531,45.4529061 49.5004008,43.6513504 51.1105469,40.7383365 C52.7206929,37.8253226 52.612023,34.2656498 50.8271837,31.4562781 C49.0423444,28.6469065 45.8661238,27.0360983 42.545,27.256 C42.0747269,27.294703 41.6321553,27.02916 41.445,26.596 C39.8439642,22.0306973 35.5378938,18.9713635 30.7,18.962 Z" id="Shape" fill="#464C63" fill-rule="nonzero"/>
        </g>
    </g>
</svg>
