<?xml version="1.0" encoding="UTF-8"?>
<svg xmlns="http://www.w3.org/2000/svg" xmlns:xlink="http://www.w3.org/1999/xlink" width="60px" height="60px" viewBox="0 0 60 60" version="1.1">
    <!-- Generator: Sketch 51.1 (57501) - http://www.bohemiancoding.com/sketch -->
    <title>05 - Crescent Moon</title>
    <desc>Created with Sketch.</desc>
    <defs/>
    <g id="Page-1" stroke="none" stroke-width="1" fill="none" fill-rule="evenodd">
        <g id="05---Crescent-Moon">
            <path d="M59,30 C59,46.0162577 46.0162577,59 30,59 C13.9837423,59 1,46.0162577 1,30 C1,13.9837423 13.9837423,1 30,1 C37.6912782,1 45.0675417,4.05534837 50.5060967,9.49390335 C55.9446516,14.9324583 59,22.3087218 59,30 Z" id="Shape" fill="#797B82" fill-rule="nonzero"/>
            <path d="M59,30 C59.0055488,41.2085461 52.5484127,51.4157545 42.4179969,56.2122338 C32.2875811,61.0087131 20.2997101,59.5347193 11.633,52.427 C20.8080226,54.7426888 30.5124129,51.8126606 36.8728692,44.8063741 C43.2333255,37.8000876 45.2141311,27.8584245 42.0246893,18.9493889 C38.8352476,10.0403532 30.9949173,3.61466446 21.633,2.237 C30.415208,-0.403583259 39.9288249,1.26339686 47.2900264,6.73263538 C54.6512278,12.2018739 58.9932822,20.8294051 59,30 Z" id="Shape" fill="#D3D5D8" fill-rule="nonzero"/>
            <path d="M59,30 C59.0021177,41.0114126 52.7658348,51.0734609 42.9035646,55.971097 C33.0412945,60.868733 21.255765,59.7563766 12.484,53.1 C31.563,64.319 56.1,50.6 56.1,28.067 C56.1105379,18.9972148 51.8661216,10.4476684 44.635,4.973 C53.5343016,10.1661117 59.0044478,19.6963134 59,30 Z" id="Shape" fill="#B5B9BE" fill-rule="nonzero"/>
            <circle id="Oval" fill="#B5B9BE" fill-rule="nonzero" cx="41.922" cy="8.411" r="2.9"/>
            <path d="M39.776,8.952 C39.7784277,9.72019159 40.084303,10.4563051 40.627,11 C39.5940893,10.4903577 38.9606895,9.41774444 39.0131927,8.26714321 C39.065696,7.11654198 39.7941492,6.10607165 40.8691819,5.69261715 C41.9442145,5.27916265 43.1620331,5.54110234 43.972,6.36 C43.0734036,5.91109946 42.0064999,5.95917554 41.1519195,6.4870765 C40.2973391,7.01497747 39.7767959,7.9475168 39.776,8.952 Z" id="Shape" fill="#777E8C" fill-rule="nonzero"/>
            <path d="M51.025,28.289 C51.0222353,30.4314927 50.0412244,32.4554353 48.3611143,33.7849137 C46.6810042,35.1143921 44.4857454,35.6038456 42.4,35.114 C43.768463,30.6569001 43.8956929,25.911018 42.768,21.387 C43.6214333,21.2259923 44.4980295,21.2324453 45.349,21.406 C45.8559028,21.4995954 46.3493047,21.6554418 46.818,21.87 C47.4342137,22.1342908 48.0072648,22.4895826 48.518,22.924 C50.1086869,24.2514794 51.0272303,26.2171695 51.025,28.289 Z" id="Shape" fill="#B5B9BE" fill-rule="nonzero"/>
            <path d="M48.521,22.924 C46.8273424,22.0224749 44.8353187,21.864924 43.021,22.489 C42.953,22.122 42.866,21.754 42.77,21.389 C44.1378015,21.1373808 45.549735,21.305767 46.82,21.872 C47.4364403,22.135587 48.0098273,22.4902037 48.521,22.924 Z" id="Shape" fill="#777E8C" fill-rule="nonzero"/>
            <path d="M39.705,47.69 C39.7052099,49.7124425 38.2711818,51.4509701 36.2856209,51.8354453 C34.3000599,52.2199206 32.3207331,51.1423399 31.566,49.266 C33.8224157,47.8358777 35.8439919,46.0652697 37.559,44.017 C38.8848549,44.7642472 39.7050576,46.1680705 39.705,47.69 Z" id="Shape" fill="#B5B9BE" fill-rule="nonzero"/>
            <path d="M31.711,49.169 C31.785,49.734 32.011,50.248 31.566,49.269 C31.6166777,49.2392009 31.6651371,49.2057806 31.711,49.169 Z" id="Shape" fill="#87BFC1" fill-rule="nonzero"/>
            <circle id="Oval" fill="#B5B9BE" fill-rule="nonzero" cx="27.594" cy="55.241" r="1.736"/>
            <path d="M29.036,54.3 C28.5043442,53.9492575 27.8227916,53.9196179 27.2626941,54.222882 C26.7025967,54.5261461 26.3548864,55.1130789 26.358,55.75 C26.355867,56.0791471 26.4500691,56.4017283 26.629,56.678 C26.0437806,56.2892374 25.7522032,55.5848482 25.8914364,54.896203 C26.0306697,54.2075579 26.5729916,53.67177 27.2632737,53.5408939 C27.9535559,53.4100177 28.6543593,53.7101115 29.036,54.3 Z" id="Shape" fill="#777E8C" fill-rule="nonzero"/>
            <circle id="Oval" fill="#B5B9BE" fill-rule="nonzero" cx="53.132" cy="18.471" r="1.736"/>
            <path d="M54.574,17.527 C54.0423442,17.1762575 53.3607916,17.1466179 52.8006941,17.449882 C52.2405967,17.7531461 51.8928864,18.3400789 51.896,18.977 C51.8936914,19.3061716 51.9879079,19.6288021 52.167,19.905 C51.5817806,19.5162374 51.2902032,18.8118482 51.4294364,18.123203 C51.5686697,17.4345579 52.1109916,16.89877 52.8012737,16.7678939 C53.4915559,16.6370177 54.1923593,16.9371115 54.574,17.527 Z" id="Shape" fill="#777E8C" fill-rule="nonzero"/>
            <circle id="Oval" fill="#B5B9BE" fill-rule="nonzero" cx="48.808" cy="43.104" r="3.114"/>
            <path d="M51.394,41.411 C50.4403367,40.7855928 49.2202941,40.7343116 48.2175127,41.2774849 C47.2147312,41.8206582 46.5911636,42.8705616 46.594,44.011 C46.5900224,44.6012259 46.7589748,45.1796967 47.08,45.675 C46.027848,44.9785766 45.5027706,43.713939 45.7522271,42.4770879 C46.0016836,41.2402368 46.9758949,40.2779859 48.2157331,40.0438265 C49.4555712,39.8096671 50.7136263,40.3503258 51.397,41.411 L51.394,41.411 Z" id="Shape" fill="#777E8C" fill-rule="nonzero"/>
            <path d="M23.378,47.226 C22.9573142,47.6582191 22.4831441,48.034934 21.967,48.347 C19.51,49.8 19.091,49.5 8.55,49.5 C2.97203795,43.3900592 0.28268088,35.1810753 1.164,26.955 C1.203,26.868 1.232,26.781 1.271,26.694 C2.66477615,25.7103087 4.40811385,25.3584218 6.07432919,25.7244641 C7.74054453,26.0905064 9.17586708,27.1406968 10.029,28.618 C11.763029,27.6726441 13.8993537,27.8874454 15.4104695,29.1590912 C16.9215854,30.430737 17.498208,32.4989558 16.863,34.369 C20.0957585,33.8939362 23.2703537,35.5383459 24.7472807,38.4529814 C26.2242077,41.3676168 25.6728686,44.9000612 23.378,47.226 Z" id="Shape" fill="#8DA5CD"/>
            <path d="M16.863,34.369 C15.989711,34.4879678 15.1449334,34.7630117 14.369,35.181 C13.0703789,32.9468811 10.9239507,31.3324378 8.4173024,30.7044104 C5.91065411,30.0763831 3.25658536,30.4880875 1.058,31.846 C0.953766023,30.2156275 0.989228706,28.5793258 1.164,26.955 C1.203,26.868 1.232,26.781 1.271,26.694 C2.66477615,25.7103087 4.40811385,25.3584218 6.07432919,25.7244641 C7.74054453,26.0905064 9.17586708,27.1406968 10.029,28.618 C11.7632936,27.6796635 13.8950199,27.8974372 15.4037504,29.1670757 C16.912481,30.4367141 17.4912466,32.4998943 16.863,34.369 Z" id="Shape" fill="#A8BFE5"/>
            <path d="M30.483,11.633 C30.483,11.633 30.483,15.258 28.067,16.467 C30.483,17.675 30.483,21.3 30.483,21.3 C30.483,21.3 30.483,17.675 32.9,16.467 C30.483,15.258 30.483,11.633 30.483,11.633 Z" id="Shape" fill="#F9FAFD" fill-rule="nonzero"/>
            <path d="M14.417,15.473 C14.417,15.473 14.258,17.788 12.662,18.453 C14.152,19.33 13.993,21.644 13.993,21.644 C13.993,21.644 14.152,19.33 15.748,18.665 C14.258,17.788 14.417,15.473 14.417,15.473 Z" id="Shape" fill="#F9FAFD" fill-rule="nonzero"/>
            <circle id="Oval" fill="#D3D6D9" fill-rule="nonzero" cx="35.317" cy="26.617" r="1"/>
            <circle id="Oval" fill="#D3D6D9" fill-rule="nonzero" cx="23.717" cy="26.617" r="1"/>
            <circle id="Oval" fill="#D3D6D9" fill-rule="nonzero" cx="31.45" cy="41.117" r="1"/>
            <circle id="Oval" fill="#D3D6D9" fill-rule="nonzero" cx="8.25" cy="20.817" r="1"/>
            <circle id="Oval" fill="#D3D6D9" fill-rule="nonzero" cx="22.75" cy="8.25" r="1"/>
            <path d="M30,60 C13.4314575,60 2.02906125e-15,46.5685425 0,30 C-2.02906125e-15,13.4314575 13.4314575,3.04359188e-15 30,0 C46.5685425,-3.04359188e-15 60,13.4314575 60,30 C59.981263,46.5607751 46.5607751,59.981263 30,60 Z M30,2 C14.536027,2 2,14.536027 2,30 C2,45.463973 14.536027,58 30,58 C45.463973,58 58,45.463973 58,30 C57.9851158,14.5421964 45.4578036,2.01488422 30,2 Z" id="Shape" fill="#464C63" fill-rule="nonzero"/>
            <path d="M11.391,53.4 C11.0370644,53.3203551 10.754024,53.0552677 10.6513894,52.7073025 C10.5487548,52.3593372 10.6426258,51.9830774 10.8966829,51.7241012 C11.15074,51.4651249 11.5251307,51.3640565 11.875,51.46 C20.6929451,53.6887978 30.0213771,50.8747225 36.1357354,44.1413492 C42.2500938,37.4079758 44.154312,27.8522123 41.0880933,19.2893858 C38.0218746,10.7265592 30.4847249,4.55160679 21.486,3.23 C20.9506955,3.13966086 20.5852382,2.63873207 20.6626203,2.10140161 C20.7400024,1.56407114 21.2319571,1.18662009 21.771,1.251 C42.636,4.251 51.522,28.919 38.326,44.662 C31.7674595,52.5007457 21.3021752,55.895795 11.391,53.4 Z" id="Shape" fill="#464C63" fill-rule="nonzero"/>
            <path d="M18.071,50.5 L8.55,50.5 C8.26913471,50.4997945 8.00130318,50.3814841 7.812,50.174 C2.04309555,43.8518617 -0.739165439,35.3601768 0.17,26.85 C0.202256395,26.6540993 0.265017994,26.4644648 0.356,26.288 C0.429011126,26.1244093 0.544300502,25.9832315 0.69,25.879 C3.79741799,23.6876859 8.08109807,24.343928 10.39,27.365 C12.2406854,26.7213864 14.2909694,27.0515214 15.8460838,28.2435341 C17.4011982,29.4355468 18.2526829,31.3296502 18.112,33.284 C22.0860758,33.3444437 25.5010497,36.1202808 26.3721287,39.9981866 C27.2432077,43.8760924 25.3434498,47.8457572 21.777,49.6 C21.747,49.616 21.714,49.632 21.677,49.647 C20.5479021,50.1804473 19.3194348,50.4710415 18.071,50.5 Z M8.995,48.5 C18.595,48.5 19.278,48.835 21.588,47.4 C24.0322309,45.7980284 25.1319278,42.7793849 24.2909036,39.9805894 C23.4498794,37.1817939 20.8684072,35.2693234 17.946,35.28 C17.065,35.28 16.574,35.58 16.096,35.01 C15.553,34.361 16.134,33.897 16.134,32.859 C16.1359673,31.5131397 15.4286454,30.2658185 14.2726458,29.5766097 C13.1166462,28.8874008 11.6830261,28.8582888 10.5,29.5 C10.0246802,29.751094 9.43589447,29.5814813 9.167,29.116 C8.48324464,27.9341115 7.35249317,27.077235 6.02972904,26.7385954 C4.7069649,26.3999557 3.3035669,26.6080669 2.136,27.316 C1.38212885,35.0233554 3.86677054,42.6971635 8.995,48.5 Z" id="Shape" fill="#464C63" fill-rule="nonzero"/>
            <path d="M44.007,36.3 C43.0328021,36.2721437 42.0659352,36.1223096 41.129,35.854 C42.0497341,33.1943981 42.5228244,30.4004619 42.529,27.586 C42.5271329,25.2263979 42.1904434,22.8789985 41.529,20.614 C43.081225,20.1774618 44.723775,20.1774618 46.276,20.614 C47.3226037,20.9169018 48.2941388,21.4357124 49.128,22.137 C51.710248,24.2982793 52.6664477,27.8430094 51.5214394,31.0097253 C50.3764312,34.1764412 47.374348,36.2899514 44.007,36.3 Z M43.676,34.291 C46.5977627,34.4433093 49.2054735,32.4715316 49.8550397,29.6188207 C50.5046058,26.7661099 49.0076655,23.8596976 46.308,22.732 C45.5750436,22.4327586 44.7916707,22.2762876 44,22.271 C44.8091759,26.2490174 44.6983535,30.3593639 43.676,34.288 L43.676,34.291 Z" id="Shape" fill="#464C63" fill-rule="nonzero"/>
            <path d="M48.808,47.218 C46.5364215,47.2179989 44.6947377,45.3769104 44.6940022,43.105332 C44.6932667,40.8337536 46.5337579,38.9914729 48.8053359,38.9900009 C51.076914,38.9885288 52.9197914,40.8284225 52.922,43.1 C52.9220011,45.3727474 51.0807463,47.2157924 48.808,47.218 Z M48.808,40.99 C47.9526031,40.9900015 47.1815102,41.505495 46.8545389,42.2959338 C46.5275676,43.0863727 46.7091668,43.9959547 47.3145963,44.6002386 C47.9200257,45.2045225 48.8299501,45.3843987 49.6197683,45.055931 C50.4095864,44.7274632 50.9236185,43.9553953 50.922,43.1 C50.9186957,41.9344894 49.9735147,40.9910969 48.808,40.99 Z" id="Shape" fill="#464C63" fill-rule="nonzero"/>
            <path d="M35.481,52.915 C33.5488905,52.9115815 31.7763114,51.842419 30.872,50.135 C30.598,49.559 30.731,49.846 30.286,48.865 C32.992281,47.3040747 35.3696321,45.232383 37.286,42.765 C38.5957418,43.2679945 39.6562218,44.2642139 40.24,45.54 C40.9703606,47.1564383 40.8305975,49.0330479 39.8688496,50.5234641 C38.9071017,52.0138804 37.254781,52.9144545 35.481,52.915 Z M32.887,49.591 C33.8365888,50.8808365 35.5902024,51.2759804 37.0012145,50.518061 C38.4122266,49.7601416 39.0510583,48.0799055 38.5,46.576 C38.335506,46.1197655 38.0658978,45.708673 37.713,45.376 C36.2804564,46.9707392 34.6599837,48.3860506 32.887,49.591 Z" id="Shape" fill="#464C63" fill-rule="nonzero"/>
            <path d="M41.922,12.311 C39.7680895,12.311 38.022,10.5649105 38.022,8.411 C38.022,6.25708948 39.7680895,4.511 41.922,4.511 C44.0759105,4.511 45.822,6.25708948 45.822,8.411 C45.822,9.44534431 45.4111083,10.4373246 44.6797164,11.1687164 C43.9483246,11.9001083 42.9563443,12.311 41.922,12.311 Z M41.922,6.511 C41.1535217,6.511 40.4607128,6.97392014 40.1666289,7.68390148 C39.872545,8.39388282 40.0351009,9.21110669 40.5784971,9.75450288 C41.1218933,10.2978991 41.9391172,10.460455 42.6490985,10.1663711 C43.3590799,9.87228721 43.822,9.17947827 43.822,8.411 C43.822,7.36165898 42.971341,6.511 41.922,6.511 Z" id="Shape" fill="#464C63" fill-rule="nonzero"/>
        </g>
    </g>
</svg>
