<?xml version="1.0" encoding="UTF-8"?>
<svg xmlns="http://www.w3.org/2000/svg" xmlns:xlink="http://www.w3.org/1999/xlink" width="60px" height="60px" viewBox="0 0 60 60" version="1.1">
    <!-- Generator: Sketch 51.1 (57501) - http://www.bohemiancoding.com/sketch -->
    <title>06 - Raining</title>
    <desc>Created with Sketch.</desc>
    <defs/>
    <g id="Page-1" stroke="none" stroke-width="1" fill="none" fill-rule="evenodd">
        <g id="06---Raining">
            <path d="M30,0.97 C13.9837423,0.97 1,13.9537423 1,29.97 C1,45.9862577 13.9837423,58.97 30,58.97 C46.0162577,58.97 59,45.9862577 59,29.97 C58.9933778,13.9564861 46.0135139,0.976622172 30,0.97 Z" id="Shape" fill="#D3D5D8"/>
            <path d="M50.89,19.06 C46.5493906,11.825602 39.2750152,6.83863712 30.96218,5.39843698 C22.6493448,3.95823685 14.1213038,6.20743031 7.6,11.56 C-1.86497816,23.0885208 -1.04094017,39.9167358 9.50510391,50.465364 C20.051148,61.0139923 36.8791605,61.8421533 48.41,52.38 C56.1851447,42.9095003 57.1774665,29.5771767 50.89,19.06 Z" id="Shape" fill="#B5B9BE"/>
            <path d="M9.751,37.357 C9.76880172,38.2320503 9.31215249,39.048357 8.55716449,39.4911018 C7.80217649,39.9338467 6.86682351,39.9338467 6.11183551,39.4911018 C5.35684751,39.048357 4.90019828,38.2320503 4.918,37.357 C4.918,36.023 6.851,32.041 7.335,32.041 C7.819,32.041 9.751,36.028 9.751,37.357 Z" id="Shape" fill="#599AD3" fill-rule="nonzero"/>
            <path d="M50.609,21.3 C46.456774,22.6115538 42.001226,22.6115538 37.849,21.3 C36.989,11.952 33.673,1 30,1 C39.647,1 48.357,11.952 50.609,21.3 Z" id="Shape" fill="#F9FAFD" fill-rule="nonzero"/>
            <ellipse id="Oval" fill="#F9FAFD" fill-rule="nonzero" transform="translate(6.245215, 37.859353) rotate(-23.644000) translate(-6.245215, -37.859353) " cx="6.2452151" cy="37.8593531" rx="1" ry="1.246"/>
            <path d="M54.917,37.357 C54.9348017,38.2320503 54.4781525,39.048357 53.7231645,39.4911018 C52.9681765,39.9338467 52.0328235,39.9338467 51.2778355,39.4911018 C50.5228475,39.048357 50.0661983,38.2320503 50.084,37.357 C50.084,36.023 52.017,32.041 52.5,32.041 C52.983,32.041 54.917,36.028 54.917,37.357 Z" id="Shape" fill="#599AD3" fill-rule="nonzero"/>
            <ellipse id="Oval" fill="#F9FAFD" fill-rule="nonzero" transform="translate(51.410756, 37.859410) rotate(-23.644000) translate(-51.410756, -37.859410) " cx="51.4107558" cy="37.85941" rx="1" ry="1.246"/>
            <path d="M23.276,47.024 C23.2938017,47.8990503 22.8371525,48.715357 22.0821645,49.1581018 C21.3271765,49.6008467 20.3918235,49.6008467 19.6368355,49.1581018 C18.8818475,48.715357 18.4251983,47.8990503 18.443,47.024 C18.443,45.69 20.376,41.707 20.86,41.707 C21.344,41.707 23.276,45.7 23.276,47.024 Z" id="Shape" fill="#599AD3" fill-rule="nonzero"/>
            <ellipse id="Oval" fill="#F9FAFD" fill-rule="nonzero" transform="translate(19.770751, 47.526219) rotate(-23.644000) translate(-19.770751, -47.526219) " cx="19.770751" cy="47.526219" rx="1" ry="1.246"/>
            <path d="M41.3,47.024 C41.3178017,47.8990503 40.8611525,48.715357 40.1061645,49.1581018 C39.3511765,49.6008467 38.4158235,49.6008467 37.6608355,49.1581018 C36.9058475,48.715357 36.4491983,47.8990503 36.467,47.024 C36.467,45.69 38.4,41.707 38.884,41.707 C39.368,41.707 41.3,45.7 41.3,47.024 Z" id="Shape" fill="#599AD3" fill-rule="nonzero"/>
            <ellipse id="Oval" fill="#F9FAFD" fill-rule="nonzero" transform="translate(37.791978, 47.525850) rotate(-23.644000) translate(-37.791978, -47.525850) " cx="37.7919784" cy="47.5258496" rx="1" ry="1.246"/>
            <path d="M30,60 C13.4314575,60 2.02906125e-15,46.5685425 0,30 C-2.02906125e-15,13.4314575 13.4314575,3.04359188e-15 30,0 C46.5685425,-3.04359188e-15 60,13.4314575 60,30 C59.985114,46.5623726 46.5623726,59.985114 30,60 Z M30,2 C17.2718955,1.99636905 6.14359536,10.579972 2.91472095,22.8917154 C-0.31415346,35.2034589 5.16931964,48.1436608 16.261,54.387 C34.881,64.959 58,51.344 58,30 C57.9823655,14.5433374 45.4566626,2.01763454 30,2 Z" id="Shape" fill="#464C63" fill-rule="nonzero"/>
            <path d="M31.933,18.4 C31.933,56.286 32.078,53.809 31.595,55.133 C30.845645,57.2381973 28.9535441,58.7256741 26.7309481,58.9568788 C24.5083521,59.1880834 22.3506067,58.1218902 21.184,56.216 C20.7888322,55.6219416 20.751439,54.8589727 21.0866228,54.2291197 C21.4218065,53.5992667 22.0755252,53.2040812 22.789,53.2 C23.463353,53.1824395 24.0934745,53.5345098 24.432,54.118 C24.8652664,54.9133304 25.7918171,55.3022585 26.6629464,55.05446 C27.5340757,54.8066614 28.1172034,53.9882953 28.067,53.084 L28.067,18.4 L31.933,18.4 Z" id="Shape" fill="#CDCD8D" fill-rule="nonzero"/>
            <path d="M28.067,18.4 L28.067,53.084 C28.0958674,54.0585307 27.4178403,54.9118732 26.462,55.104 C25.6441567,55.242898 24.8284417,54.8466936 24.432,54.118 C24.0934745,53.5345098 23.463353,53.1824395 22.789,53.2 C22.0755252,53.2040812 21.4218065,53.5992667 21.0866228,54.2291197 C20.751439,54.8589727 20.7888322,55.6219416 21.184,56.216 C22.6746598,57.1262768 24.4965792,57.3149998 26.1421693,56.7295906 C27.7877593,56.1441813 29.0811496,54.8472047 29.662,53.2 C30.145,51.876 30,54.156 30,18.4 L28.067,18.4 Z" id="Shape" fill="#E5E5A8" fill-rule="nonzero"/>
            <path d="M20.756,56.476 C20.260063,55.7030333 20.2331124,54.7189517 20.686,53.92 C21.113983,53.1728708 21.9060451,52.70871 22.7670351,52.7004807 C23.628025,52.6922514 24.4288144,53.1411879 24.871,53.88 C25.1933555,54.4805389 25.8930226,54.7722821 26.5465263,54.5786513 C27.2000301,54.3850206 27.6278303,53.759213 27.571,53.08 L27.571,17.9 L32.439,17.9 C32.439,56.012 32.597,53.863 32.069,55.305 C31.2549812,57.5934028 29.1979514,59.2100446 26.7819885,59.460119 C24.3660257,59.7101935 22.0214804,58.5491554 20.756,56.476 Z M22.789,53.7 C22.2707381,53.7027078 21.7939688,53.9838969 21.5408353,54.4361426 C21.2877019,54.8883884 21.2973142,55.4418175 21.566,55.885 C22.608245,57.6612329 24.5861442,58.6716624 26.6361838,58.4751537 C28.6862235,58.2786451 30.4361585,56.9108804 31.122,54.969 C31.568,53.754 31.434,56.323 31.434,18.9 L28.566,18.9 L28.566,53.084 C28.5911116,54.3026489 27.7377369,55.3634645 26.542,55.6 C25.513493,55.7764821 24.4871429,55.2765892 23.992,54.358 C23.7420864,53.934572 23.2803499,53.6820178 22.789,53.7 Z" id="Shape" fill="#464C63" fill-rule="nonzero"/>
            <path d="M57.608,21.126 C57.4428521,21.239301 57.2472771,21.2999606 57.047,21.3 C55.1696784,21.9266894 53.1494654,21.9872019 51.238,21.474 L50.609,21.3 C48.357,11.952 39.647,1 30,0.999977522 C38.7527128,0.989096444 47.0387823,4.945508 52.533,11.759 C52.552,11.759 52.552,11.769 52.552,11.778 C54.8022204,14.5536528 56.5166947,17.7235313 57.608,21.126 Z" id="Shape" fill="#BF4D73" fill-rule="nonzero"/>
            <path d="M29.961,1 C20.278,1.057 11.754,11.856 9.391,21.3 L8.762,21.474 C6.85053462,21.9872019 4.83032162,21.9266894 2.953,21.3 C2.75272287,21.2999606 2.55714788,21.239301 2.392,21.126 C6.24365467,9.14779612 17.3787802,1.01890002 29.961,1 Z" id="Shape" fill="#BF4D73" fill-rule="nonzero"/>
            <path d="M25.176,1.9 C17.647,4.65 11.38,13.349 9.391,21.3 C7.9933159,21.7609568 6.51281397,21.9157939 5.05,21.754 C7.85881081,12.0918946 15.4765718,4.57708652 25.176,1.9 Z" id="Shape" fill="#FF6699" fill-rule="nonzero"/>
            <path d="M34.833,1.9 C42.363,4.651 48.633,13.35 50.619,21.3 C52.0163503,21.7609054 53.4965156,21.9157429 54.959,21.754 C52.1505333,12.0916895 44.5326286,4.57673968 34.833,1.9 Z" id="Shape" fill="#FF6699" fill-rule="nonzero"/>
            <path d="M30,1 C29.0499951,1.12261666 28.1982716,1.64697833 27.661,2.44 C25.172,5.494 23.572,12.091 22.876,15.954 C22.418,18.495 22.254,20.31 22.151,21.3 C17.9988441,22.6120085 13.5431559,22.6120085 9.391,21.3 C11.739,11.914 20.328,1 30,1 Z" id="Shape" fill="#F9FAFD" fill-rule="nonzero"/>
            <path d="M37.849,21.3 C32.7836953,23.1754729 27.2143047,23.1754729 22.149,21.3 C22.668,16.3 23.849,9.969 25.841,5.582 C26.563,3.877 28.146,1 30,1 C33.673,1 36.989,11.952 37.849,21.3 Z" id="Shape" fill="#FF6699" fill-rule="nonzero"/>
            <path d="M22.115,22.351 C17.9603253,23.6018189 13.5289031,23.5986881 9.376,22.342 C7.21828842,22.9944003 4.913388,22.9766166 2.766,22.291 C1.924,22.213 1.181,21.629 1.439,20.821 C4.81374199,10.3309039 13.6679008,2.53534254 24.5009341,0.516335681 C35.3339675,-1.50267117 46.4019148,2.57990714 53.329,11.15 C55.6588216,14.0207442 57.432817,17.3008213 58.56,20.822 C58.818,21.63 58.075,22.214 57.23,22.293 C56.3207204,22.5639806 55.3838171,22.7317041 54.437,22.793 L54.247,21.944 L54.228,21.949 L54.302,22.802 C53.0603039,22.8500682 51.8191375,22.6939933 50.628,22.34 C46.4729856,23.5998124 42.038379,23.6039871 37.881,22.352 C32.7805883,24.1569651 27.2151827,24.1566121 22.115,22.351 Z M22.15,20.3 C27.0997101,22.1314797 32.5376585,22.1534412 37.502,20.362 C37.8792232,20.270787 38.2764641,20.314296 38.625,20.485 C42.447119,21.5994983 46.5144765,21.5511106 50.309,20.346 C50.4934499,20.2882238 50.6906307,20.2847523 50.877,20.336 C52.1525802,20.7652514 53.5084034,20.9019615 54.844,20.736 C55.3454195,20.6855555 55.8422174,20.5966267 56.33,20.47 C55.2703019,17.5366917 53.7236242,14.8030446 51.755,12.384 C45.4019633,4.53078755 35.3105279,0.709694488 25.3493298,2.3855688 C15.3881318,4.06144311 7.10257616,10.9742855 3.669,20.474 C4.15155917,20.6136524 4.6459969,20.7083889 5.146,20.757 C7.83,21.074 8.952,20.111 9.691,20.344 C13.7533784,21.5863029 18.0964974,21.5709648 22.15,20.3 Z" id="Shape" fill="#464C63" fill-rule="nonzero"/>
            <path d="M32.9,48.85 C32.9005318,49.2347267 32.7479351,49.6038489 32.475892,49.875892 C32.2038489,50.1479351 31.8347267,50.3005318 31.45,50.3 L28.55,50.3 C27.7491871,50.3 27.1,49.6508129 27.1,48.85 C27.1,48.0491871 27.7491871,47.4 28.55,47.4 L31.45,47.4 C31.8347267,47.3994682 32.2038489,47.5520649 32.475892,47.824108 C32.7479351,48.0961511 32.9005318,48.4652733 32.9,48.85 Z" id="Shape" fill="#575A63" fill-rule="nonzero"/>
            <path d="M30.967,48.85 C30.9675318,49.2347267 30.8149351,49.6038489 30.542892,49.875892 C30.2708489,50.1479351 29.9017267,50.3005318 29.517,50.3 L28.55,50.3 C27.7491871,50.3 27.1,49.6508129 27.1,48.85 C27.1,48.0491871 27.7491871,47.4 28.55,47.4 L29.517,47.4 C29.9017267,47.3994682 30.2708489,47.5520649 30.542892,47.824108 C30.8149351,48.0961511 30.9675318,48.4652733 30.967,48.85 Z" id="Shape" fill="#797B82" fill-rule="nonzero"/>
            <path d="M21.708,25.149 C21.6812391,26.4644406 20.6072128,27.5168395 19.2915,27.5168395 C17.9757872,27.5168395 16.9017609,26.4644406 16.875,25.149 C16.875,23.815 18.808,19.832 19.292,19.832 C19.776,19.832 21.708,23.819 21.708,25.149 Z" id="Shape" fill="#599AD3" fill-rule="nonzero"/>
            <path d="M31.45,50.8 L28.55,50.8 C27.4730447,50.8 26.6,49.9269553 26.6,48.85 C26.6,47.7730447 27.4730447,46.9 28.55,46.9 L31.45,46.9 C32.5269553,46.9 33.4,47.7730447 33.4,48.85 C33.4,49.9269553 32.5269553,50.8 31.45,50.8 Z M28.55,47.9 C28.0253295,47.9 27.6000001,48.3253295 27.6000001,48.85 C27.6000001,49.3746705 28.0253295,49.8 28.55,49.8 L31.45,49.8 C31.9746705,49.8 32.3999999,49.3746705 32.3999999,48.85 C32.3999999,48.3253295 31.9746705,47.9 31.45,47.9 L28.55,47.9 Z" id="Shape" fill="#464C63" fill-rule="nonzero"/>
            <ellipse id="Oval" fill="#F9FAFD" fill-rule="nonzero" transform="translate(18.202434, 25.650767) rotate(-23.644000) translate(-18.202434, -25.650767) " cx="18.2024344" cy="25.6507672" rx="1" ry="1.246"/>
            <path d="M41.3,25.149 C41.2732391,26.4644406 40.1992128,27.5168395 38.8835,27.5168395 C37.5677872,27.5168395 36.4937609,26.4644406 36.467,25.149 C36.467,23.815 38.4,19.832 38.884,19.832 C39.368,19.832 41.3,23.819 41.3,25.149 Z" id="Shape" fill="#599AD3" fill-rule="nonzero"/>
            <ellipse id="Oval" fill="#F9FAFD" fill-rule="nonzero" transform="translate(37.791952, 25.651146) rotate(-23.644000) translate(-37.791952, -25.651146) " cx="37.7919521" cy="25.6511461" rx="1" ry="1.246"/>
        </g>
    </g>
</svg>
