<?xml version="1.0" encoding="UTF-8"?>
<svg xmlns="http://www.w3.org/2000/svg" xmlns:xlink="http://www.w3.org/1999/xlink" width="61px" height="60px" viewBox="0 0 61 60" version="1.1">
    <!-- Generator: Sketch 51.1 (57501) - http://www.bohemiancoding.com/sketch -->
    <title>07 - Hot Air Balloon</title>
    <desc>Created with Sketch.</desc>
    <defs/>
    <g id="Page-1" stroke="none" stroke-width="1" fill="none" fill-rule="evenodd">
        <g id="07---Hot-Air-Balloon">
            <path d="M30,0.97 C13.9837423,0.97 1,13.9537423 1,29.97 C1,45.9862577 13.9837423,58.97 30,58.97 C46.0162577,58.97 59,45.9862577 59,29.97 C58.9933778,13.9564861 46.0135139,0.976622172 30,0.97 Z" id="Shape" fill="#7AAEDC"/>
            <path d="M50.89,19.06 C46.5493906,11.825602 39.2750152,6.83863712 30.96218,5.39843698 C22.6493448,3.95823685 14.1213038,6.20743031 7.6,11.56 C-1.86497816,23.0885208 -1.04094017,39.9167358 9.50510391,50.465364 C20.051148,61.0139923 36.8791605,61.8421533 48.41,52.38 C56.1851447,42.9095003 57.1774665,29.5771767 50.89,19.06 Z" id="Shape" fill="#599AD3"/>
            <path d="M30.154,60 C13.5854575,60 0.154,46.5685425 0.154,30 C0.154,13.4314575 13.5854575,3.04359188e-15 30.154,0 C46.7225425,-3.04359188e-15 60.154,13.4314575 60.154,30 C60.135263,46.5607751 46.7147751,59.981263 30.154,60 Z M30.154,2 C14.690027,2 2.154,14.536027 2.154,30 C2.154,45.463973 14.690027,58 30.154,58 C45.617973,58 58.154,45.463973 58.154,30 C58.1363655,14.5433374 45.6106626,2.01763454 30.154,2 Z" id="Shape" fill="#464C63" fill-rule="nonzero"/>
            <path d="M49.488,15.935 C49.488,22.363 45.031,29.343 39.947,33.867 C38.661485,35.0174995 37.5881606,36.3849642 36.776,37.907 L23.533,37.907 C22.7230227,36.3835417 21.6494154,35.0157166 20.362,33.867 C5.258,20.428 7.483,0.271 31.092,1.01 L31.15,1.01 C41.368,1.271 49.488,5.6 49.488,15.935 Z" id="Shape" fill="#BF4D73" fill-rule="nonzero"/>
            <rect id="Rectangle-path" fill="#464C63" fill-rule="nonzero" transform="translate(26.787674, 44.497732) rotate(-7.125000) translate(-26.787674, -44.497732) " x="26.2876738" y="40.6007322" width="1" height="7.794"/>
            <rect id="Rectangle-path" fill="#464C63" fill-rule="nonzero" transform="translate(33.555103, 44.501625) rotate(-82.875000) translate(-33.555103, -44.501625) " x="29.6581032" y="44.0016251" width="7.794" height="1"/>
            <rect id="Rectangle-path" fill="#464C63" fill-rule="nonzero" x="29.671" y="40.633" width="1" height="7.733"/>
            <path d="M21.454,49.817 C21.4447005,51.6815137 19.9355137,53.1907005 18.071,53.2 C11.653,53.2 8.353,53.211 8.25,53.19 C6.68583614,53.1207145 5.37442567,51.9853698 5.08190255,50.4472413 C4.78937942,48.9091128 5.59246839,47.3716301 7.022,46.733 C6.7911826,45.4637343 7.13512204,44.1574622 7.96106954,43.1664411 C8.78701703,42.1754199 10.0099189,41.6017022 11.3,41.6 C11.6813262,41.604614 12.0608425,41.6532699 12.431,41.745 C13.2782149,40.3603128 14.8263687,39.5630486 16.445634,39.6775542 C18.0648993,39.7920598 19.4854516,40.7992546 20.129375,42.289387 C20.7732984,43.7795193 20.5332934,45.5042824 19.507,46.762 C20.6933431,47.3168023 21.4520911,48.5073391 21.454,49.817 Z" id="Shape" fill="#D3D6D9" fill-rule="nonzero"/>
            <path d="M18.554,47.767 C18.5452471,49.6319043 17.0359016,51.1416959 15.171,51.151 C7.233,51.151 7.383,51.161 7.283,51.141 C6.43794705,51.106077 5.63707988,50.754024 5.04,50.155 C4.89387216,48.7063323 5.69270666,47.3271135 7.022,46.733 C6.75745105,45.2732544 7.2536578,43.7791917 8.33893551,42.7677493 C9.42421321,41.7563069 10.9494792,41.3664248 12.387,41.733 C12.4027178,41.7375676 12.4187658,41.7409109 12.435,41.743 C13.3780749,40.1878276 15.1975955,39.3941899 16.979,39.761 C17.9098978,41.3241131 17.7628012,43.3027219 16.611,44.711 C17.7962797,45.2669245 18.5534522,46.4578248 18.554,47.767 Z" id="Shape" fill="#F9FAFD" fill-rule="nonzero"/>
            <path d="M54.321,39.326 C54.3133416,40.8614819 53.0704819,42.1043416 51.535,42.112 C43.666,42.112 43.547,42.124 43.447,42.104 C42.1584494,42.0473599 41.0779446,41.1121742 40.8370573,39.8450736 C40.59617,38.577973 41.2581252,37.3115299 42.436,36.786 C42.2456426,35.7402066 42.5291951,34.6638627 43.2100951,33.8475938 C43.8909951,33.0313249 44.8990232,32.5593105 45.962,32.559 C46.2762003,32.5628214 46.5889198,32.6027502 46.894,32.678 C47.5941291,31.5432314 48.8670304,30.8917466 50.1969591,30.9875097 C51.5268877,31.0832727 52.6933195,31.9104044 53.2236482,33.1337736 C53.753977,34.3571427 53.5602653,35.7738946 52.721,36.81 C53.6963386,37.2683109 54.3195741,38.2483487 54.321,39.326 Z" id="Shape" fill="#D3D6D9" fill-rule="nonzero"/>
            <path d="M51.933,37.638 C51.9253416,39.1734819 50.6824819,40.4163416 49.147,40.424 C43.881,40.424 42.754,40.437 42.647,40.416 C41.950479,40.3865693 41.290782,40.0951169 40.8,39.6 C40.6790153,38.4069363 41.3369733,37.2708299 42.432,36.782 C42.2142947,35.580057 42.6230306,34.3499246 43.5167678,33.5172804 C44.410505,32.6846361 45.6664526,32.3638773 46.85,32.666 C46.8630899,32.669765 46.8764689,32.6724408 46.89,32.674 C47.6665281,31.3937637 49.1643717,30.7403339 50.631,31.042 C51.398241,32.3285321 51.2783343,33.9576633 50.331,35.118 C51.3082566,35.5765389 51.9325128,36.5585148 51.933,37.638 Z" id="Shape" fill="#F9FAFD" fill-rule="nonzero"/>
            <path d="M43.971,52.556 L35.954,52.556 C35.6778576,52.556 35.454,52.3321424 35.454,52.056 C35.454,51.7798576 35.6778576,51.556 35.954,51.556 L43.971,51.556 C45.266766,51.6134164 46.4711274,50.8899331 47.029,49.719 C47.6528735,48.5057888 47.5654609,47.0489111 46.801,45.919 C45.519,44.252 42.345,44.96 42.541,46.933 C42.608,47.619 43.16,48.351 44.505,48.351 C44.6706854,48.351 44.805,48.2166854 44.805,48.051 C44.805,47.8853146 44.6706854,47.751 44.505,47.751 C44.2288576,47.751 44.005,47.5271424 44.005,47.251 C44.005,46.357 45.805,46.684 45.805,48.051 C45.8141755,48.3985131 45.6801602,48.7345312 45.4343457,48.9803457 C45.1885312,49.2261602 44.8525131,49.3601755 44.505,49.351 C40.742,49.351 40.586,44.751 43.872,44.094 C49.845,42.912 50.009,52.556 43.971,52.556 Z" id="Shape" fill="#D3D6D9" fill-rule="nonzero"/>
            <path d="M52.505,55.222 L40.621,55.222 C40.3448576,55.222 40.121,54.9981424 40.121,54.722 C40.121,54.4458576 40.3448576,54.222 40.621,54.222 L52.505,54.222 C57.105,54.222 57.141,46.84 52.605,47.746 C50.54,48.159 50.433,51.022 53.04,51.022 C53.2056854,51.022 53.34,50.8876854 53.34,50.722 C53.34,50.5563146 53.2056854,50.422 53.04,50.422 C52.7638576,50.422 52.54,50.1981424 52.54,49.922 C52.54,49.029 54.34,49.356 54.34,50.722 C54.3491755,51.0695131 54.2151602,51.4055312 53.9693457,51.6513457 C53.7235312,51.8971602 53.3875131,52.0311755 53.04,52.022 C49.288,52.022 49.108,47.422 52.409,46.766 C58.352,45.571 58.556,55.222 52.505,55.222 Z" id="Shape" fill="#D3D6D9" fill-rule="nonzero"/>
            <path d="M33.9,45.467 L26.413,45.467 C26.137264,45.4685329 25.8752399,45.5874657 25.6925581,45.7940088 C25.5098762,46.0005519 25.4238403,46.2751415 25.456,46.549 L25.969,50.658 C26.1646043,52.1820838 27.5082668,53.2935677 29.042,53.2 L31.41,53.2 C32.8915201,53.2225134 34.1532406,52.127874 34.34,50.658 L34.852,46.549 C34.8843967,46.2759339 34.7991285,46.0019757 34.6174855,45.7955285 C34.4358424,45.5890812 34.1749686,45.4696301 33.9,45.467 Z" id="Shape" fill="#E5956C" fill-rule="nonzero"/>
            <path d="M34.021,48.367 L26.366,48.367 C25.9958567,48.3387796 25.6419613,48.5238471 25.4539674,48.8439421 C25.2659735,49.164037 25.276713,49.563257 25.4816444,49.8727818 C25.6865758,50.1823066 26.0499093,50.3480798 26.418,50.3 L33.969,50.3 C34.318194,50.3155595 34.648604,50.1414612 34.8331993,49.8446394 C35.0177946,49.5478177 35.0278378,49.1744812 34.8594676,48.8681643 C34.6910975,48.5618474 34.3705255,48.3702369 34.021,48.367 Z" id="Shape" fill="#EAAA89" fill-rule="nonzero"/>
            <path d="M49.488,15.935 C49.488,22.363 45.031,29.343 39.947,33.867 C38.661485,35.0174995 37.5881606,36.3849642 36.776,37.907 L25.466,37.907 C24.6563429,36.3833333 23.5826939,35.0154551 22.295,33.867 C8.333,21.444 8.631,2.156 30.135,1.048 C30.193,1.048 30.854,1.01 31.15,1.01 C41.368,1.271 49.488,5.6 49.488,15.935 Z" id="Shape" fill="#BF4D73" fill-rule="nonzero"/>
            <path d="M47.554,15.935 C47.554,22.363 43.098,29.343 38.013,33.867 C36.7280704,35.0177966 35.6551221,36.3852133 34.843,37.907 L25.466,37.907 C24.6563429,36.3833333 23.5826939,35.0154551 22.295,33.867 C8.333,21.444 8.631,2.156 30.135,1.048 L30.174,1.048 C39.937,1.551 47.554,5.92 47.554,15.935 Z" id="Shape" fill="#FF6699" fill-rule="nonzero"/>
            <path d="M30.154,1 C20.139,1 15.145,7.5 15.7,17.008 C15.7,17.03 15.709,17.264 15.711,17.283 C15.7104316,17.2933255 15.7104316,17.3036745 15.711,17.314 C15.7104316,17.3243255 15.7104316,17.3346745 15.711,17.345 C15.8272533,18.8859436 16.0952172,20.4116631 16.511,21.9 C17.1441313,24.1554668 18.0216659,26.335052 19.128,28.4 C21.645,33.1 23.833,34.364 25.184,37.911 L35.121,37.911 C35.6939996,36.4465494 36.4967341,35.0827785 37.499,33.871 C41.199,29.478 44.241,23.118 44.609,17.012 C45.185,7.405 40.062,1 30.154,1 Z" id="Shape" fill="#F9FAFD" fill-rule="nonzero"/>
            <path d="M29.913,1 C24.163,1 23.146,10.208 23.146,15.935 C23.160586,18.3832027 23.3571275,20.8269349 23.734,23.246 C24.968,31.317 26.695,33.191 27.593,37.907 L32.233,37.907 C32.5175535,36.4308181 32.9253137,34.9810786 33.452,33.573 C35.5201075,27.9192058 36.6113404,21.9547907 36.679,15.935 C36.679,10.208 35.662,1 29.913,1 Z" id="Shape" fill="#FF6699" fill-rule="nonzero"/>
            <path d="M23.533,37.907 C25.3,41.262 24.063,41.426 26.561,41.426 L34.7,41.426 C35.1319301,41.4232666 35.5101263,41.1355441 35.628,40.72 C35.9191459,39.7472383 36.3042955,38.8051288 36.778,37.907 L23.533,37.907 Z" id="Shape" fill="#BF4D73" fill-rule="nonzero"/>
            <path d="M34.7,42.426 L25.711,42.426 C24.8042948,42.4582851 23.9894438,41.8761901 23.726,41.008 C22.966,38.447 22.19,38.198 22.677,37.391 C22.8578206,37.0908277 23.1825725,36.9072063 23.533,36.907 L36.776,36.907 C37.1266712,36.9067395 37.4518565,37.0901815 37.6329973,37.3904454 C37.814138,37.6907093 37.8247636,38.0639164 37.661,38.374 C37.2175326,39.214696 36.8568365,40.0965093 36.584,41.007 C36.341257,41.8462117 35.5736119,42.4243902 34.7,42.426 Z M25.1,38.907 C25.3066667,39.411 25.4866667,39.9206667 25.64,40.436 C27.552,40.422 25.981,40.426 34.695,40.426 C34.8363615,39.9101356 35.0076516,39.4029432 35.208,38.907 L25.1,38.907 Z" id="Shape" fill="#464C63" fill-rule="nonzero"/>
            <path d="M36.776,38.907 L23.533,38.907 C23.1611702,38.9072563 22.8199008,38.701185 22.647,38.372 C21.8929432,36.9560131 20.8953696,35.6839122 19.7,34.614 C15.144,30.561 9.823,23.236 9.823,15.935 C9.821,5.808 17.232,0 30.154,0 C41.433,0 50.487,4.683 50.487,15.935 C50.487,23.235 45.168,30.56 40.612,34.614 C39.4130064,35.6859977 38.412658,36.9612303 37.657,38.381 C37.4825237,38.7051156 37.1440935,38.9071749 36.776,38.907 Z M24.122,36.907 L36.191,36.907 C37.0153402,35.4890963 38.0589193,34.2106107 39.283,33.119 C43.528,29.341 48.483,22.573 48.483,15.935 C48.483,4.204 37.605,2.175 31.121,2.009 C20.628,1.741 11.821,5.409 11.821,15.935 C11.821,22.574 16.78,29.341 21.027,33.12 C22.2497667,34.2132803 23.2940484,35.4910493 24.122,36.907 Z" id="Shape" fill="#464C63" fill-rule="nonzero"/>
            <path d="M10.138,30.733 L2.121,30.733 C1.84485763,30.733 1.621,30.5091424 1.621,30.233 C1.621,29.9568576 1.84485763,29.733 2.121,29.733 L10.138,29.733 C11.4343273,29.7930374 12.6405732,29.0709444 13.2,27.9 C13.8108265,26.6856885 13.723412,25.2370502 12.971,24.105 C12.3144897,23.2975376 11.2367478,22.9641951 10.239,23.26 C8.175,23.673 8.068,26.536 10.675,26.536 C10.8406854,26.536 10.975,26.4016854 10.975,26.236 C10.975,26.0703146 10.8406854,25.936 10.675,25.936 C10.3988576,25.936 10.175,25.7121424 10.175,25.436 C10.175,24.542 11.975,24.869 11.975,26.236 C11.9841755,26.5835131 11.8501602,26.9195312 11.6043457,27.1653457 C11.3585312,27.4111602 11.0225131,27.5451755 10.675,27.536 C6.923,27.536 6.742,22.936 10.044,22.279 C16.006,21.085 16.179,30.733 10.138,30.733 Z" id="Shape" fill="#D3D6D9" fill-rule="nonzero"/>
            <path d="M17.493,33.4 L5.61,33.4 C5.33385763,33.4 5.11,33.1761424 5.11,32.9 C5.11,32.6238576 5.33385763,32.4 5.61,32.4 L17.493,32.4 C18.7891221,32.4578264 19.9939841,31.734279 20.552,30.563 C21.1619287,29.348734 21.0741456,27.9006943 20.322,26.769 C19.6654997,25.9621731 18.5884419,25.6289201 17.591,25.924 C15.526,26.337 15.419,29.2 18.026,29.2 C18.1916854,29.2 18.326,29.0656854 18.326,28.9 C18.326,28.7343146 18.1916854,28.6 18.026,28.6 C17.7498576,28.6 17.526,28.3761424 17.526,28.1 C17.526,27.207 19.326,27.533 19.326,28.9 C19.3351755,29.2475131 19.2011602,29.5835312 18.9553457,29.8293457 C18.7095312,30.0751602 18.3735131,30.2091755 18.026,30.2 C14.275,30.2 14.094,25.6 17.396,24.943 C23.363,23.754 23.532,33.4 17.493,33.4 Z" id="Shape" fill="#D3D6D9" fill-rule="nonzero"/>
            <path d="M18.071,54.2 C9.217,54.2 8.336,54.207 8.161,54.188 C6.43748826,54.0889156 4.93285557,52.9869037 4.31837013,51.3736096 C3.70388469,49.7603154 4.09412833,47.9365666 5.315,46.716 C6.05,45.983 5.954,46.386 5.954,45.95 C5.94755722,44.4103855 6.60781072,42.9433399 7.76448941,41.9271959 C8.9211681,40.9110518 10.4610431,40.4452811 11.987,40.65 C13.7191782,38.5348329 16.7675772,38.0662977 19.0549964,39.5636577 C21.3424156,41.0610178 22.1325515,44.0422837 20.887,46.476 C22.2850757,47.6631176 22.7961732,49.5951954 22.167955,51.3183337 C21.5397368,53.041472 19.905063,54.1912489 18.071,54.2 Z M10.463,42.709 C8.76304155,43.1419257 7.68741117,44.8158564 8,46.542 C8.08929574,47.0015023 7.84788916,47.4614629 7.419,47.649 C7.15717481,47.7659704 6.91970709,47.9311801 6.719,48.136 C6.05439876,48.8020603 5.84502374,49.7973521 6.1849393,50.6747281 C6.52485486,51.552104 7.35013022,52.1465486 8.29,52.191 C9.09,52.22 7.23,52.212 18.071,52.2 C19.1872538,52.2020514 20.1548212,51.427727 20.3974798,50.3381658 C20.6401384,49.2486047 20.0926232,48.1368528 19.081,47.665 C18.8035957,47.5328745 18.6023321,47.2805549 18.5351816,46.9807198 C18.468031,46.6808846 18.542449,46.3668239 18.737,46.129 C19.4693541,45.2225086 19.6774811,44.0003459 19.2864454,42.9025479 C18.8954097,41.8047499 17.9615123,40.9893764 16.821,40.75 C15.4426976,40.4509429 14.0262419,41.0578233 13.292,42.262 C13.0549592,42.6391645 12.6017974,42.82051 12.17,42.711 C11.6649705,42.5894187 11.140144,42.5744334 10.629,42.667 C10.5758675,42.6885859 10.520005,42.7027197 10.463,42.709 Z" id="Shape" fill="#464C63" fill-rule="nonzero"/>
            <path d="M51.535,43.112 C43.035,43.112 43.507,43.112 43.36,43.101 C41.758314,43.0070374 40.3898903,41.913447 39.945051,40.3719072 C39.5002118,38.8303673 40.0756191,37.1758493 41.381,36.243 C41.3462855,34.9237753 41.8841722,33.6540772 42.8559855,32.7612513 C43.8277987,31.8684254 45.1384371,31.4398436 46.45,31.586 C47.9408885,29.8332003 50.5005329,29.4580428 52.4317122,30.7092829 C54.3628916,31.9605231 55.0665015,34.449992 54.076,36.527 C55.2296599,37.5792059 55.6192507,39.2316132 55.0571288,40.6883518 C54.4950069,42.1450904 53.096425,43.1074829 51.535,43.112 Z M43.417,36.6 C43.5061498,37.0597579 43.2642821,37.5198052 42.835,37.707 C42.0867847,38.0474143 41.6687432,38.8556806 41.8233268,39.6630293 C41.9779103,40.4703781 42.6649566,41.0670526 43.486,41.107 C44.186,41.134 42.104,41.127 51.535,41.114 C52.369763,41.1115463 53.091348,40.5308738 53.2723074,39.7159572 C53.4532669,38.9010407 53.0452686,38.0695342 52.29,37.714 C52.0130937,37.5816192 51.8123161,37.3294099 51.745384,37.0298738 C51.6784518,36.7303377 51.7527794,36.4166555 51.947,36.179 C52.5097823,35.4815189 52.670288,34.5419493 52.3709642,33.6971955 C52.0716404,32.8524417 51.3553745,32.2235409 50.479,32.036 C49.4140375,31.800737 48.3173129,32.2685228 47.75,33.2 C47.4887359,33.6176996 46.9716056,33.7967382 46.508,33.63 C45.6674168,33.4469446 44.7908845,33.6947364 44.170551,34.2907864 C43.5502175,34.8868364 43.2676394,35.7527806 43.417,36.6 Z" id="Shape" fill="#464C63" fill-rule="nonzero"/>
            <path d="M31.459,54.2 L28.914,54.2 C26.9263763,54.220534 25.236361,52.7537363 24.977,50.783 L24.464,46.673 C24.3962906,46.1145784 24.5706511,45.5538603 24.9430926,45.1323078 C25.3155341,44.7107552 25.8504908,44.4686237 26.413,44.467 L33.9,44.467 C34.4613983,44.4688598 34.9953354,44.7101504 35.3677172,45.1302734 C35.740099,45.5503964 35.9155474,46.1094383 35.85,46.667 L35.336,50.782 C35.0866324,52.7339425 33.426805,54.1972622 31.459,54.2 Z M26.479,46.467 L26.961,50.534 C27.0830276,51.4848674 27.8913371,52.1977545 28.85,52.2 L31.36,52.2 C32.3522216,52.2356726 33.2107577,51.5153314 33.348,50.532 L33.855,46.467 L26.479,46.467 Z" id="Shape" fill="#464C63" fill-rule="nonzero"/>
        </g>
    </g>
</svg>
