<?xml version="1.0" encoding="UTF-8"?>
<svg xmlns="http://www.w3.org/2000/svg" xmlns:xlink="http://www.w3.org/1999/xlink" width="60px" height="60px" viewBox="0 0 60 60" version="1.1">
    <!-- Generator: Sketch 51.1 (57501) - http://www.bohemiancoding.com/sketch -->
    <title>08 -  Sunny</title>
    <desc>Created with Sketch.</desc>
    <defs/>
    <g id="Page-1" stroke="none" stroke-width="1" fill="none" fill-rule="evenodd">
        <g id="08----Sunny" transform="translate(-1.000000, -1.000000)">
            <path d="M31,1.97 C15.6535084,1.97483961 2.96765743,13.9350409 2.05992037,29.2546636 C1.15218331,44.5742863 12.3368652,57.9488937 27.5754009,59.7659948 C42.8139366,61.5830959 56.8299658,51.2135175 59.55,36.11 C61.0684689,27.6544255 58.7614411,18.9606861 53.250337,12.3705252 C47.7392329,5.78036429 39.5908373,1.97154139 31,1.97 Z" id="Shape" fill="#7AAEDC"/>
            <path d="M51.89,20.06 C47.5493906,12.825602 40.2750152,7.83863712 31.96218,6.39843698 C23.6493448,4.95823685 15.1213038,7.20743031 8.6,12.56 C-0.864978159,24.0885208 -0.0409401668,40.9167358 10.5051039,51.465364 C21.051148,62.0139923 37.8791605,62.8421533 49.41,53.38 C57.1851447,43.9095003 58.1774665,30.5771767 51.89,20.06 Z" id="Shape" fill="#599AD3"/>
            <circle id="Oval" fill="#FDEA8E" fill-rule="nonzero" cx="31" cy="30.999" r="20.3"/>
            <path d="M31,52.3 C19.2363348,52.3 9.7,42.7636652 9.7,31 C9.7,19.2363348 19.2363348,9.7 31,9.7 C42.7636652,9.7 52.3,19.2363348 52.3,31 C52.2867737,42.7581823 42.7581823,52.2867737 31,52.3 Z M31,11.7 C20.3409043,11.7 11.7,20.3409043 11.7,31 C11.7,41.6590957 20.3409043,50.3 31,50.3 C41.6590957,50.3 50.3,41.6590957 50.3,31 C50.2878762,20.3459302 41.6540698,11.7121238 31,11.7 Z" id="Shape" fill="#464C63" fill-rule="nonzero"/>
            <path d="M25.683,49.588 C25.6333983,49.6654654 25.575011,49.7369394 25.509,49.801 C24.3413286,51.1983521 22.6129991,52.0044418 20.792,52.001 L11.048,52.001 C8.07353382,49.2005667 5.73337991,45.7955285 4.185,42.015 C4.6809548,41.9131065 5.18988734,41.8901573 5.693,41.947 C5.38305736,38.1408215 8.06643638,34.7418997 11.8406282,34.1600616 C15.61482,33.5782235 19.1972568,36.0111926 20.048,39.734 C20.2934546,39.6899771 20.5426884,39.6705476 20.792,39.676 C23.1378446,39.6762213 25.2801515,41.0081788 26.3181944,43.1118551 C27.3562373,45.2155314 27.1099952,47.7261 25.683,49.588 Z" id="Shape" fill="#B5B9BE" fill-rule="nonzero"/>
            <path d="M20.792,53.005 L11.048,53.005 C10.7935009,53.0051237 10.5485298,52.9082082 10.363,52.734 C7.28567925,49.8349003 4.86357211,46.3115254 3.259,42.4 C3.14801046,42.1279178 3.16230774,41.8207898 3.29809418,41.5601954 C3.43388063,41.299601 3.67741145,41.1119185 3.964,41.047 C4.20091942,40.9932167 4.44163263,40.9577784 4.684,40.941 C4.8855843,36.9776181 7.87154711,33.7149028 11.8015891,33.1637205 C15.7316311,32.6125382 19.4999218,34.92798 20.784,38.683 C23.36305,38.6512912 25.7600048,40.0085866 27.0594961,42.2365514 C28.3589873,44.4645161 28.3603333,47.2190835 27.0630201,49.4483172 C25.7657069,51.6775509 23.3700798,53.0371882 20.791,53.008 L20.792,53.005 Z M11.447,51.005 C22.797,51.005 20.698,51.022 20.941,51.005 C23.7514456,50.9101266 25.9688977,48.5831783 25.9283056,45.7714248 C25.8877135,42.9596713 23.6040131,40.6977043 20.792,40.684 C20.6085472,40.6795131 20.4250777,40.6922355 20.244,40.722 C19.7121311,40.8287741 19.1921261,40.4920132 19.072,39.963 C18.3634818,36.8442473 15.4236912,34.7566224 12.2456617,35.1154321 C9.06763216,35.4742419 6.66731189,38.1647827 6.672,41.363 C6.672,41.845 6.786,42.277 6.38,42.663 C6.19318503,42.8429643 5.94534549,42.9458141 5.686,42.951 C7.10755258,45.9595727 9.05899363,48.6877286 11.447,51.005 Z" id="Shape" fill="#464C63" fill-rule="nonzero"/>
            <path d="M25.877,59.516 C18.3648639,58.1658414 11.6866634,53.9115378 7.288,47.674 C8.45132576,44.6970882 11.4198391,42.8267014 14.6072871,43.0622984 C17.7947352,43.2978954 20.455996,45.5844011 21.169,48.7 C22.0317918,48.5797844 22.9105859,48.6556663 23.74,48.922 C23.74,48.922 23.74,48.912 23.75,48.922 C24.3762974,49.1275296 24.9689697,49.4240342 25.509,49.802 C27.0553197,50.9086788 28.0025225,52.6686064 28.0745076,54.5687802 C28.1464928,56.4689541 27.3351581,58.2955011 25.877,59.516 Z" id="Shape" fill="#D3D5D8" fill-rule="nonzero"/>
            <path d="M25.877,60.516 C23.5189104,60.1390857 21.2197084,59.4577286 19.037,58.489 C13.9937889,56.2844737 9.64869548,52.7440144 6.471,48.25 C6.27769201,47.9764882 6.23414566,47.6243634 6.355,47.312 C7.61579518,44.070178 10.7685131,41.9621559 14.2460987,42.0357236 C17.7236844,42.1092914 20.7844319,44.3487584 21.907,47.641 C22.6699639,47.6417422 23.4278888,47.7646307 24.152,48.005 C24.556347,48.1429491 24.9492239,48.3124713 25.327,48.512 C27.4124607,49.6386611 28.8038885,51.7257403 29.0418482,54.0841055 C29.2798079,56.4424707 28.3333556,58.7654427 26.515,60.286 C26.3356167,60.4346421 26.1099653,60.5159898 25.877,60.516 Z M8.433,47.552 C12.5841697,53.1969409 18.6992465,57.082191 25.573,58.442 C26.7231579,57.2886062 27.2602668,55.659319 27.0215026,54.0480548 C26.7827384,52.4367907 25.7962166,51.0332817 24.361,50.263 C24.065851,50.105434 23.7568946,49.9752237 23.438,49.874 C22.7739625,49.6363142 22.06122,49.567583 21.364,49.674 C20.833441,49.7796806 20.3150358,49.4442681 20.194,48.917 C19.6866807,46.6985827 18.0191026,44.9280961 15.835,44.289 C12.9043246,43.4593908 9.79756145,44.8289352 8.433,47.552 Z" id="Shape" fill="#464C63" fill-rule="nonzero"/>
            <path d="M59.55,36.11 C59.3332403,37.3002319 59.0426796,38.4758336 58.68,39.63 C57.3301066,43.1108705 55.3122013,46.2939971 52.74,49 L36.88,49 C34.6982484,48.9991225 32.6960861,47.7910997 31.6781111,45.8613931 C30.660136,43.9316866 30.7934828,41.597122 32.0245642,39.7958782 C33.2556455,37.9946343 35.3823382,37.0224455 37.55,37.27 C37.1762163,32.8203776 40.309119,28.8401359 44.7220321,28.1581881 C49.1349451,27.4762404 53.3231823,30.3251125 54.31,34.68 C56.1776782,34.4358555 58.0652479,34.9509747 59.55,36.11 Z" id="Shape" fill="#B5B9BE" fill-rule="nonzero"/>
            <path d="M52.74,50 L36.88,50 C33.1503057,49.9958206 30.1031357,47.0205932 30.0098614,43.2920631 C29.9165871,39.5635329 32.81118,36.4396643 36.536,36.249 C36.70249,31.6512039 40.1397178,27.8335172 44.6948802,27.187032 C49.2500426,26.5405467 53.6137809,29.251092 55.053,33.621 C56.8967111,33.5921606 58.6953348,34.1917019 60.153,35.321 C60.4350612,35.5407183 60.5784781,35.8942243 60.5292271,36.2483556 C60.479976,36.602487 60.2455393,36.9034427 59.9142271,37.0378556 C59.5829148,37.1722686 59.2050612,37.1197183 58.923,36.9 C57.6558906,35.9104888 56.045579,35.4690215 54.451,35.674 C53.9361517,35.7474206 53.4509645,35.4139631 53.335,34.907 C52.4608146,31.0715575 48.7717932,28.5632869 44.8836104,29.1606598 C40.9954277,29.7580328 38.2295048,33.2580286 38.547,37.179 C38.5601561,37.4716594 38.4498625,37.7564021 38.2429975,37.9638376 C38.0361325,38.171273 37.7516945,38.2823502 37.459,38.27 C35.6521224,38.0435275 33.8693059,38.8410975 32.8339019,40.3391078 C31.7984978,41.8371181 31.6824813,43.7867572 32.5329242,45.3969879 C33.3833672,47.0072187 35.0590156,48.0105905 36.88,48 L52.307,48 C54.6140051,45.5035308 56.4390711,42.6016657 57.69,39.441 C57.8937931,38.9273752 58.4753752,38.6762069 58.989,38.88 C59.5026248,39.0837931 59.7537931,39.6653752 59.55,40.179 C58.1516585,43.7105869 56.0856306,46.9394982 53.465,49.689 C53.276163,49.8876383 53.014074,50.0000654 52.74,50 Z" id="Shape" fill="#464C63" fill-rule="nonzero"/>
            <path d="M45.964,55.8 C37.9287687,60.6447954 28.0464244,61.3038667 19.439,57.569 C18.8750775,55.9302838 19.1908371,54.1168655 20.2754568,52.7652 C21.3600765,51.4135346 23.0620364,50.7124478 24.784,50.908 C24.4665119,47.1286365 27.1065433,43.7397511 30.8487333,43.1229842 C34.5909233,42.5062173 38.178854,44.8686447 39.091,48.55 C39.191,48.8 38.937,48.637 39.884,48.637 C41.6934142,48.6363523 43.4116084,49.4312646 44.5825164,50.8107407 C45.7534245,52.1902168 46.2586174,54.0147323 45.964,55.8 Z" id="Shape" fill="#F9FAFD" fill-rule="nonzero"/>
            <path d="M19.037,58.489 C18.7850095,58.3785094 18.5896788,58.1690714 18.497,57.91 C17.8805877,56.1355551 18.1244067,54.1753625 19.1567396,52.6059972 C20.1890724,51.0366318 21.8925101,50.0365804 23.766,49.9 C23.7770163,49.6725657 23.8003841,49.4458982 23.836,49.221 C24.3410963,45.4122243 27.4022345,42.4526244 31.225876,42.076247 C35.0495175,41.6998696 38.6289652,44.0058082 39.867,47.643 C41.9759329,47.6350844 43.9808806,48.5582231 45.346032,50.1657125 C46.7111834,51.773202 47.2973932,53.9011959 46.948,55.981 C46.8976644,56.264126 46.7278803,56.5118796 46.482,56.661 C38.1680492,61.6742322 27.9423818,62.3553224 19.037,58.489 Z M20.263,56.837 C28.326116,60.1745969 37.4836564,59.5668544 45.035,55.193 C45.2468121,52.4239611 43.228645,49.9841271 40.469,49.673 C40.0875321,49.6165698 39.6996459,49.6192682 39.319,49.681 C38.7799003,49.7851948 38.2576237,49.4352248 38.149,48.897 C38.1365762,48.862398 38.1265525,48.8269807 38.119,48.791 C37.3298718,45.6227394 34.2423599,43.5895773 31.0200634,44.1162688 C27.7977669,44.6429602 25.5182923,47.5533679 25.779,50.808 C25.8045951,51.109901 25.6945166,51.4075346 25.4786381,51.6201275 C25.2627596,51.8327205 24.963473,51.9382218 24.662,51.908 C23.357932,51.7631742 22.0644346,52.2585984 21.1907743,53.237519 C20.317114,54.2164396 19.9713936,55.5577293 20.263,56.837 Z" id="Shape" fill="#464C63" fill-rule="nonzero"/>
            <path d="M58.386,40.511 C55.3874946,49.0925932 48.5436786,55.775056 39.893,58.568 C37.7899588,56.9093402 37.0425829,54.056745 38.0621455,51.5799675 C39.0817081,49.10319 41.6207242,47.6034342 44.282,47.906 C44.0021902,44.4473531 45.8155588,41.156054 48.888703,39.544745 C51.9618473,37.933436 55.7003345,38.3137897 58.386,40.511 Z" id="Shape" fill="#D3D5D8" fill-rule="nonzero"/>
            <path d="M39.276,59.355 C36.9913552,57.5472007 36.0652732,54.5133606 36.950858,51.7378463 C37.8364427,48.9623321 40.3485176,47.0255064 43.258,46.875 C43.3953909,43.2130337 45.5913708,39.9435039 48.9292949,38.4311758 C52.2672189,36.9188478 56.1732753,37.423701 59.017,39.735 C59.3417614,39.9996868 59.4670967,40.4387592 59.331,40.835 C56.2266771,49.7148039 49.1451456,56.6298156 40.194,59.522 C39.8791919,59.6212535 39.5356841,59.5587635 39.276,59.355 Z M43.586,48.867 C41.5588598,48.8789737 39.7395621,50.1137422 38.9798908,51.9931943 C38.2202195,53.8726464 38.6705341,56.0247882 40.12,57.442 C47.9841038,54.7183568 54.2363359,48.6488721 57.192,40.869 C54.7483583,39.2190091 51.5742817,39.1191655 49.0317697,40.6123123 C46.4892577,42.1054592 45.0303246,44.9261408 45.281,47.864 C45.2931215,48.1509354 45.1812927,48.4292323 44.974,48.628 C44.549,49.036 44.147,48.867 43.586,48.867 Z" id="Shape" fill="#464C63" fill-rule="nonzero"/>
            <path d="M31,60.97 C18.1780755,60.9707594 6.7730164,52.8227138 2.61749051,40.69286 C-1.53803539,28.5630062 2.47468367,15.1330358 12.6035007,7.27117768 C22.7323178,-0.590680477 36.7379343,-1.14631148 47.4577299,5.88844022 C58.1775255,12.9231919 63.2415469,25.9930697 60.06,38.414 C56.6622502,51.6875715 44.7015474,60.9713158 31,60.97 Z M31,2.97 C16.4429274,2.96871974 4.31310753,14.1221643 3.09563532,28.6282364 C1.87816311,43.1343084 11.9792063,56.153555 26.3328472,58.5787062 C40.6864881,61.0038575 54.5041271,52.0258449 58.12,37.925 C60.2546726,29.5460518 58.4033964,20.650874 53.1030904,13.8193034 C47.8027845,6.98773282 39.6465829,2.98426073 31,2.97 Z" id="Shape" fill="#464C63" fill-rule="nonzero"/>
        </g>
    </g>
</svg>
