<?xml version="1.0" encoding="UTF-8"?>
<svg xmlns="http://www.w3.org/2000/svg" xmlns:xlink="http://www.w3.org/1999/xlink" width="61px" height="60px" viewBox="0 0 61 60" version="1.1">
    <!-- Generator: Sketch 51.1 (57501) - http://www.bohemiancoding.com/sketch -->
    <title>09 - Rainbow</title>
    <desc>Created with Sketch.</desc>
    <defs/>
    <g id="Page-1" stroke="none" stroke-width="1" fill="none" fill-rule="evenodd">
        <g id="09---Rainbow" transform="translate(-1.000000, -1.000000)" fill-rule="nonzero">
            <path d="M60,31 C60.0065496,38.2683663 57.2727753,45.272056 52.344,50.614 C52.209,50.629 53.42,50.623 34.132,50.623 C31.2260807,50.6155011 28.7831807,48.4396344 28.4408405,45.5539409 C28.0985003,42.6682475 29.9644954,39.9812011 32.788,39.294 C32.1251527,34.2903697 35.4209636,29.6181474 40.357,28.564 C39.2598286,24.3391105 35.464985,21.3754842 31.1001461,21.3347548 C26.7353073,21.2940253 22.8858206,24.1863203 21.71,28.39 C25.2621757,28.4956229 28.0748446,31.4276357 28.0328494,34.9811332 C27.9908543,38.5346308 25.1096798,41.3993539 21.556,41.421 L6.737,41.421 C5.51688829,41.4246817 4.34383003,40.9505049 3.469,40.1 C2.91356349,38.4587694 2.51871284,36.7675092 2.29,35.05 C0.75865484,24.3025975 5.35815579,13.5999262 14.2094144,7.31447486 C23.0606731,1.02902348 34.6812375,0.21350994 44.3236215,5.20110562 C53.9660054,10.1887013 60.0152554,20.1440594 60,31 Z" id="Shape" fill="#FF6699"/>
            <path d="M56.133,31 C56.1318326,38.638815 52.6521383,45.8613705 46.679,50.623 L34.132,50.623 C31.2179812,50.6282657 28.7619077,48.4503094 28.4186139,45.5565778 C28.0753201,42.6628462 29.9536342,39.9706858 32.788,39.294 C32.1251527,34.2903697 35.4209636,29.6181474 40.357,28.564 C39.2598286,24.3391105 35.464985,21.3754842 31.1001461,21.3347548 C26.7353073,21.2940253 22.8858206,24.1863203 21.71,28.39 C25.1356664,28.4698476 27.9133957,31.1907977 28.0639654,34.6140848 C28.2145352,38.0373718 25.686427,40.9916937 22.281,41.372 C21.849,41.441 22.781,41.421 8.129,41.421 C3.87030592,32.0739065 5.72798164,21.075999 12.8204805,13.6462553 C19.9129794,6.21651167 30.8127974,3.85031295 40.3475043,7.67052177 C49.8822112,11.4907306 56.1327609,20.7284553 56.133,31 Z" id="Shape" fill="#FDEA8E"/>
            <path d="M52.267,31 C52.2563016,39.5778509 47.1012007,47.3122758 39.188,50.623 L34.132,50.623 C31.2179812,50.6282657 28.7619077,48.4503094 28.4186139,45.5565778 C28.0753201,42.6628462 29.9536342,39.9706858 32.788,39.294 C32.1251527,34.2903697 35.4209636,29.6181474 40.357,28.564 C39.2598286,24.3391105 35.464985,21.3754842 31.1001461,21.3347548 C26.7353073,21.2940253 22.8858206,24.1863203 21.71,28.39 C25.1356664,28.4698476 27.9133957,31.1907977 28.0639654,34.6140848 C28.2145352,38.0373718 25.686427,40.9916937 22.281,41.372 C21.81,41.448 22.154,41.421 12.459,41.421 C8.09272364,33.6529218 9.03208389,23.9865027 14.8123095,17.2044381 C20.592535,10.4223735 29.9878935,7.96284203 38.3498032,11.0427565 C46.711713,14.122671 52.2669796,22.0889166 52.267,31 Z" id="Shape" fill="#E5956C"/>
            <path d="M48.4,31 C48.3943332,35.8651892 46.3544597,40.5063523 42.7740136,43.8003627 C39.1935676,47.094373 34.3987969,48.7410826 29.55,48.342 C28.3787952,46.7976118 28.0664305,44.7663258 28.7195135,42.9414044 C29.3725966,41.116483 30.9028462,39.7446118 32.788,39.294 C32.1251527,34.2903697 35.4209636,29.6181474 40.357,28.564 C39.2598286,24.3391105 35.464985,21.3754842 31.1001461,21.3347548 C26.7353073,21.2940253 22.8858206,24.1863203 21.71,28.39 C25.1356664,28.4698476 27.9133957,31.1907977 28.0639654,34.6140848 C28.2145352,38.0373718 25.686427,40.9916937 22.281,41.372 C20.5363075,41.4775577 18.7873614,41.4939124 17.041,41.421 C8.575,30.013 16.662,13.6 31,13.6 C40.6051857,13.6110215 48.3889785,21.3948143 48.4,31 Z" id="Shape" fill="#8DCD9C"/>
            <path d="M52.344,50.614 C37.484,66.831 10.413,61.174 3.469,40.1 C4.34318912,40.9519678 5.5163244,41.4276117 6.737,41.425 L21.556,41.425 C25.1555158,41.4675258 28.1079739,38.5840158 28.1504998,34.9845 C28.1930258,31.3849842 25.3095158,28.432526 21.71,28.39 C22.8858206,24.1863203 26.7353073,21.2940253 31.1001461,21.3347548 C35.464985,21.3754842 39.2598286,24.3391105 40.357,28.564 C35.4209636,29.6181474 32.1251527,34.2903697 32.788,39.294 C29.9644954,39.9812011 28.0985003,42.6682475 28.4408405,45.5539409 C28.7831807,48.4396344 31.2260807,50.6155011 34.132,50.623 C53.634,50.623 52.209,50.629 52.344,50.614 Z" id="Shape" fill="#599AD3"/>
            <path d="M44.533,31 C44.5281936,35.0421365 42.7195444,38.8711928 39.6005683,41.4423556 C36.4815922,44.0135185 32.3778108,45.0584407 28.409,44.292 C28.6643356,41.8669561 30.4177909,39.8648377 32.788,39.292 C32.1251527,34.2883697 35.4209636,29.6161474 40.357,28.562 C39.2593632,24.337245 35.4642098,21.3740433 31.0993798,21.3337821 C26.7345499,21.2935208 22.8853817,24.1862114 21.71,28.39 C25.1356664,28.4698476 27.9133957,31.1907977 28.0639654,34.6140848 C28.2145352,38.0373718 25.686427,40.9916937 22.281,41.372 C17.4791414,37.335925 16.07818,30.530126 18.8955479,24.9256469 C21.7129158,19.3211678 28.0108552,16.3856012 34.114648,17.8317899 C40.2184408,19.2779785 44.5297436,24.7272225 44.533,31 Z" id="Shape" fill="#7AAEDC"/>
            <path d="M26.244,39.42 C22.3588575,37.238601 20.4821753,32.673139 21.71,28.39 C24.2908385,28.4564534 26.589228,30.0399151 27.57077,32.4277422 C28.552312,34.8155694 28.0319991,37.557689 26.244,39.42 Z" id="Shape" fill="#0091FF"/>
            <path d="M30.265,40.638 C30.9783112,39.9831423 31.8465683,39.5206225 32.788,39.294 C32.1251527,34.2903697 35.4209636,29.6181474 40.357,28.564 C41.1369806,31.5856084 40.4125723,34.7979211 38.4112299,37.1923135 C36.4098874,39.586706 33.377054,40.8695317 30.265,40.638 Z" id="Shape" fill="#0091FF"/>
            <path d="M31,60.97 C18.1780755,60.9707594 6.7730164,52.8227138 2.61749051,40.69286 C-1.53803539,28.5630062 2.47468367,15.1330358 12.6035007,7.27117768 C22.7323178,-0.590680477 36.7379343,-1.14631148 47.4577299,5.88844022 C58.1775255,12.9231919 63.2415469,25.9930697 60.06,38.414 C56.6622502,51.6875715 44.7015474,60.9713158 31,60.97 Z M31,2.97 C16.4429274,2.96871974 4.31310753,14.1221643 3.09563532,28.6282364 C1.87816311,43.1343084 11.9792063,56.153555 26.3328472,58.5787062 C40.6864881,61.0038575 54.5041271,52.0258449 58.12,37.925 C60.2546726,29.5460518 58.4033964,20.650874 53.1030904,13.8193034 C47.8027845,6.98773282 39.6465829,2.98426073 31,2.97 Z" id="Shape" fill="#464C63"/>
            <path d="M40.356,29.564 C39.9017012,29.5633337 39.5049372,29.2565194 39.39,28.817 C38.4070604,25.0287584 35.004781,22.3711407 31.0912645,22.3346205 C27.1777481,22.2981002 23.7264647,24.8917618 22.673,28.661 C22.5763597,29.0050468 22.3035135,29.2714021 21.9572401,29.3597325 C21.6109667,29.4480629 21.2438732,29.3449488 20.9942401,29.0892325 C20.7446071,28.8335161 20.6503597,28.4640468 20.747,28.12 C22.0445304,23.480957 26.2926665,20.2890913 31.1095415,20.3340344 C35.9264166,20.3789776 40.1142558,23.6495539 41.325,28.312 C41.4030886,28.6118738 41.3377467,28.9310069 41.1480854,29.1760593 C40.9584242,29.4211118 40.6658741,29.5643945 40.356,29.564 Z" id="Shape" fill="#464C63"/>
            <path d="M60,42.726 C60.0000008,44.8224237 59.166721,46.8328811 57.6836692,48.3146199 C56.2006175,49.7963587 54.1894228,50.6278576 52.093,50.626 L34.132,50.626 C31.2179812,50.6312657 28.7619077,48.4533094 28.4186139,45.5595778 C28.0753201,42.6658462 29.9536342,39.9736858 32.788,39.297 C32.1432952,34.3728074 35.3265311,29.7585446 40.1587553,28.6127144 C44.9909794,27.4668841 49.9071043,30.1606042 51.542,34.85 C53.7286725,34.6921715 55.8824222,35.4512823 57.486874,36.9453308 C59.0913258,38.4393793 60.0017983,40.5336398 60,42.726 Z" id="Shape" fill="#F9FAFD"/>
            <path d="M60,42.726 C59.99989,45.4644526 58.5801952,48.0071105 56.249,49.444 C58.2578537,47.0073735 58.6237707,43.6089318 57.179661,40.8005178 C55.7355513,37.9921038 52.7585279,36.3126297 49.608,36.529 C48.6220684,33.7124939 46.3939092,31.5070202 43.5674615,30.5499616 C40.7410138,29.5929031 37.6312894,29.9909255 35.137,31.629 C37.415208,29.053782 40.8873633,27.878511 44.2613341,28.5405538 C47.635305,29.2025966 50.4058745,31.6028192 51.542,34.848 C53.7293926,34.6886182 55.8843365,35.4474764 57.4892068,36.9422941 C59.0940771,38.4371118 60.0038519,40.5328119 60,42.726 Z" id="Shape" fill="#D3D6D9"/>
            <path d="M28.071,34.905 C28.0676206,38.21988 25.5753435,41.0035684 22.281,41.372 C21.839,41.443 22.836,41.421 6.737,41.421 C4.33798348,41.4173628 2.31975957,39.6222508 2.03637995,37.2400271 C1.75300033,34.8578035 3.29378403,32.6393264 5.625,32.073 C5.0964681,28.0130302 7.72238682,24.2104977 11.706355,23.2667298 C15.6903233,22.3229618 19.7430287,24.5433853 21.092,28.409 C22.89659,28.275649 24.6750881,28.9005783 25.9996177,30.1334403 C27.3241473,31.3663024 28.0748068,33.0954937 28.071,34.905 Z" id="Shape" fill="#F9FAFD"/>
            <path d="M28.071,34.905 C28.0664242,37.5640292 26.4487794,39.9542982 23.982,40.947 C26.0660197,39.0939306 26.7382695,36.1192936 25.6536475,33.5501305 C24.5690254,30.9809673 21.9684755,29.3880063 19.187,29.589 C18.4516323,27.4888258 16.8747709,25.7898224 14.8351887,24.9001024 C12.7956065,24.0103823 10.4776107,24.0103452 8.438,24.9 C10.4534037,23.2292713 13.1587285,22.6503084 15.6813909,23.3498518 C18.2040533,24.0493952 20.2248548,25.93893 21.092,28.409 C22.89659,28.275649 24.6750881,28.9005783 25.9996177,30.1334403 C27.3241473,31.3663024 28.0748068,33.0954937 28.071,34.905 Z" id="Shape" fill="#D3D6D9"/>
            <path d="M52.093,51.624 L34.132,51.624 C30.8823148,51.6243809 28.0944958,49.3071974 27.5007361,46.1122164 C26.9069764,42.9172355 28.6761532,39.7531736 31.709,38.586 C31.4522598,33.4199433 34.9296812,28.8106212 39.9676958,27.6390984 C45.0057105,26.4675757 50.1600561,29.0696962 52.209,33.819 C57.125715,33.8521371 61.0846371,37.864785 61.0515,42.7815 C61.0183629,47.698215 57.005715,51.6571371 52.089,51.624 L52.093,51.624 Z M42.4,29.352 C39.9019757,29.3526008 37.5249624,30.4279238 35.8752373,32.303699 C34.2255121,34.1794742 33.4625679,36.6743546 33.781,39.152 C33.8536541,39.6621044 33.5268219,40.1439112 33.026,40.265 C30.6855536,40.824471 29.1347237,43.0476353 29.4179186,45.4373001 C29.7011135,47.8269649 31.7286152,49.6260675 34.135,49.623 L52.093,49.623 C54.6264045,49.6412232 56.9660484,48.2696297 58.187594,46.0501035 C59.4091396,43.8305772 59.316103,41.1201259 57.9452409,38.9895843 C56.5743787,36.8590428 54.1461922,35.6511056 51.62,35.843 C51.1683211,35.8782074 50.7494013,35.6053557 50.599,35.178 C49.382014,31.6907884 46.0934666,29.3540306 42.4,29.352 Z" id="Shape" fill="#464C63"/>
            <path d="M21.556,42.42 L6.736,42.42 C5.25441091,42.4256988 3.83010055,41.8480718 2.771,40.812 C1.37069599,39.4695228 0.744256385,37.5099755 1.1061259,35.6041563 C1.46799541,33.6983371 2.76908437,32.1047814 4.564,31.369 C4.40032467,27.0607325 7.3188891,23.2431085 11.5192784,22.2711579 C15.7196677,21.2992074 20.0185438,23.4467493 21.764,27.389 L21.79,27.389 C25.888215,27.5225161 29.1231335,30.9161224 29.0603853,35.0160316 C28.9976372,39.1159408 25.6603815,42.4089615 21.56,42.417 L21.556,42.42 Z M13.556,24.054 C11.5420043,24.0503613 9.62453779,24.9165812 8.29597864,26.4302266 C6.96741949,27.943872 6.35719421,29.9574856 6.622,31.954 C6.67976901,32.4548107 6.35571787,32.9203127 5.866,33.04 C4.02407451,33.4836846 2.80488797,35.2346359 3.02782521,37.1160833 C3.25076245,38.9975308 4.84539064,40.4150664 6.74,40.416 L21.56,40.416 C24.5745319,40.4074226 27.0238367,37.9803579 27.0599102,34.9660296 C27.0959838,31.9517013 24.7054633,29.4667166 21.692,29.386 C21.6321734,29.3848895 21.5725813,29.3781937 21.514,29.366 C21.4561357,29.379063 21.3972492,29.387093 21.338,29.39 L21.155,29.403 C20.7107396,29.431126 20.3020455,29.1601618 20.155,28.74 C19.1723001,25.9343919 16.5247317,24.0554724 13.552,24.054 L13.556,24.054 Z" id="Shape" fill="#464C63"/>
        </g>
    </g>
</svg>
