<?xml version="1.0" encoding="UTF-8"?>
<svg xmlns="http://www.w3.org/2000/svg" xmlns:xlink="http://www.w3.org/1999/xlink" width="60px" height="61px" viewBox="0 0 60 61" version="1.1">
    <!-- Generator: Sketch 51.1 (57501) - http://www.bohemiancoding.com/sketch -->
    <title>02 - Weather Balloon</title>
    <desc>Created with Sketch.</desc>
    <defs/>
    <g id="Page-1" stroke="none" stroke-width="1" fill="none" fill-rule="evenodd">
        <g id="02---Weather-Balloon">
            <path d="M30,1.97 C13.9837423,1.97 1,14.9537423 1,30.97 C1,46.9862577 13.9837423,59.97 30,59.97 C46.0162577,59.97 59,46.9862577 59,30.97 C58.9933778,14.9564861 46.0135139,1.97662217 30,1.97 Z" id="Shape" fill="#9298A3"/>
            <path d="M50.89,20.06 C46.5493906,12.825602 39.2750152,7.83863712 30.96218,6.39843698 C22.6493448,4.95823685 14.1213038,7.20743031 7.6,12.56 C-1.86497816,24.0885208 -1.04094017,40.9167358 9.50510391,51.465364 C20.051148,62.0139923 36.8791605,62.8421533 48.41,53.38 C56.1851447,43.9095003 57.1774665,30.5771767 50.89,20.06 Z" id="Shape" fill="#777E8C"/>
            <path d="M5.105,45.852 C16.286,64.512 43.448,64.735 54.811,45.994 C39.5462882,36.7483098 20.4222883,36.6936764 5.105,45.852 Z" id="Shape" fill="#7AAEDC"/>
            <path d="M52.233,47.4 C52.233,47.4 45.447,43.987 38.7,45.791 C31.953,47.595 28.067,48.691 28.067,48.691 C25.442,53.191 25.919,52.235 25.489,53.524 C25.489,53.524 24.548,55.599 27.422,56.747 C30.448,57.955 36.538,57.923 41.371,57.655 C46.1777076,55.5995204 50.3419369,52.287136 53.426,48.066 L52.233,47.4 Z" id="Shape" fill="#A8E5B6"/>
            <path d="M26.961,39.108 C24.5954631,39.2472418 22.2434168,39.5607588 19.924,40.046 C20.1963203,40.1474197 20.4633291,40.2625672 20.724,40.391 C23.4555316,41.8298701 26.3489809,42.9376996 29.343,43.691 L26.961,39.108 Z" id="Shape" fill="#A8E5B6"/>
            <path d="M18.722,45.147 C16.245605,44.8137779 13.8465074,44.0502902 11.633,42.891 L11.369,42.691 C9.20686396,43.589681 7.11328906,44.6451583 5.105,45.849 C8.02848553,50.7275458 12.3151721,54.6443788 17.437,57.117 C17.478,55.957 17.878,51.398 21.622,49.335 C25.55,47.173 23.066,45.791 18.722,45.147 Z" id="Shape" fill="#A8E5B6"/>
            <path d="M4.247,46.366 L3.733,45.509 C6.86701708,43.5562953 10.2068833,41.9552789 13.692,40.735 C27.5361487,35.9413904 42.7953445,37.5557033 55.33,45.14 L56.184,45.658 L55.666,46.513 C50.2068629,55.5080976 40.4370188,60.9887255 29.9149917,60.9586444 C19.3929646,60.9285634 9.65461674,55.3921642 4.247,46.366 Z M6.5,46.2 C11.6503792,54.1383459 20.4600102,58.9403391 29.9227272,58.9673651 C39.3854441,58.9943911 48.2223606,54.2427972 53.418,46.334 C38.9093393,37.9711297 21.0561931,37.9201403 6.5,46.2 Z" id="Shape" fill="#464C63" fill-rule="nonzero"/>
            <polygon id="Shape" fill="#F9FAFD" points="24.6 40.456 24.449 40.171 29.927 37.271 30.077 37.556"/>
            <polygon id="Shape" fill="#F9FAFD" points="35.559 40.5 35.396 40.777 29.918 37.555 30.082 37.277"/>
            <polygon id="Shape" fill="#F9FAFD" points="29.678 24.524 30.322 24.524 30.322 43.858 29.678 43.858"/>
            <path d="M14.05,14.213 C14.4951415,14.213 14.856,14.5738585 14.856,15.019 C14.856,15.4641415 14.4951415,15.825 14.05,15.825 C13.6048585,15.825 13.244,15.4641415 13.244,15.019 C13.244,14.5738585 13.6048585,14.213 14.05,14.213 Z" id="Shape" fill="#F9FAFD"/>
            <path d="M24.039,9.7 C24.4841415,9.7 24.845,10.0608585 24.845,10.506 C24.845,10.9511415 24.4841415,11.312 24.039,11.312 C23.5938585,11.312 23.233,10.9511415 23.233,10.506 C23.2327342,10.2921541 23.3175664,10.0869904 23.4687784,9.93577842 C23.6199904,9.78456644 23.8251541,9.69973419 24.039,9.7 Z" id="Shape" fill="#9294D2"/>
            <path d="M21.139,23.558 C21.4655406,23.558009 21.7598099,23.7550402 21.8842037,24.056959 C22.0085974,24.3588778 21.9385326,24.7060185 21.7067725,24.9360533 C21.4750124,25.1660882 21.127358,25.2335572 20.826377,25.106911 C20.5253961,24.9802649 20.3305692,24.6845316 20.333,24.358 C20.332994,24.1447831 20.4181026,23.9403854 20.5694319,23.7901826 C20.7207612,23.6399799 20.9257891,23.5564009 21.139,23.558 Z" id="Shape" fill="#9294D2"/>
            <path d="M34.994,20.658 C35.3210759,20.6555741 35.6171861,20.8510549 35.7434758,21.1527757 C35.8697655,21.4544965 35.8011898,21.802622 35.5699059,22.0339059 C35.338622,22.2651898 34.9904965,22.3337655 34.6887757,22.2074758 C34.3870549,22.0811861 34.1915741,21.7850759 34.194,21.458 C34.1967288,21.0173075 34.5533075,20.6607288 34.994,20.658 Z" id="Shape" fill="#9294D2"/>
            <path d="M38.217,12.28 C38.5430875,12.2800003 38.8370474,12.4764842 38.9617421,12.7777886 C39.0864368,13.0790929 39.0172953,13.4258462 38.7865736,13.6562817 C38.5558518,13.8867173 38.2090129,13.9554281 37.9078636,13.8303595 C37.6067143,13.7052909 37.4105954,13.4110873 37.411,13.085 C37.4109998,12.8713274 37.4959493,12.6664208 37.6471325,12.5154252 C37.7983156,12.3644296 38.0033275,12.2797346 38.217,12.28 Z" id="Shape" fill="#9294D2"/>
            <path d="M44.983,14.536 C45.3100759,14.5335741 45.6061861,14.7290549 45.7324758,15.0307757 C45.8587655,15.3324965 45.7901898,15.680622 45.5589059,15.9119059 C45.327622,16.1431898 44.9794965,16.2117655 44.6777757,16.0854758 C44.3760549,15.9591861 44.1805741,15.6630759 44.183,15.336 C44.1857288,14.8953075 44.5423075,14.5387288 44.983,14.536 Z" id="Shape" fill="#F9FAFD"/>
            <path d="M40.15,29.358 C40.4765406,29.358009 40.7708099,29.5550402 40.8952037,29.856959 C41.0195974,30.1588778 40.9495326,30.5060185 40.7177725,30.7360533 C40.4860124,30.9660882 40.138358,31.0335572 39.837377,30.906911 C39.5363961,30.7802649 39.3415692,30.4845316 39.344,30.158 C39.3467514,29.7149743 39.7069661,29.3574411 40.15,29.358 Z" id="Shape" fill="#F9FAFD"/>
            <path d="M48.206,24.847 C48.5325406,24.847009 48.8268099,25.0440402 48.9512037,25.345959 C49.0755974,25.6478778 49.0055326,25.9950185 48.7737725,26.2250533 C48.5420124,26.4550882 48.194358,26.5225572 47.893377,26.395911 C47.5923961,26.2692649 47.3975692,25.9735316 47.4,25.647 C47.4027514,25.2039743 47.7629661,24.8464411 48.206,24.847 Z" id="Shape" fill="#F9FAFD"/>
            <path d="M53.361,34.836 C53.6880759,34.8335741 53.9841861,35.0290549 54.1104758,35.3307757 C54.2367655,35.6324965 54.1681898,35.980622 53.9369059,36.2119059 C53.705622,36.4431898 53.3574965,36.5117655 53.0557757,36.3854758 C52.7540549,36.2591861 52.5585741,35.9630759 52.561,35.636 C52.5637288,35.1953075 52.9203075,34.8387288 53.361,34.836 Z" id="Shape" fill="#F9FAFD"/>
            <path d="M15.017,33.224 C15.4621415,33.224 15.823,33.5848585 15.823,34.03 C15.823,34.4751415 15.4621415,34.836 15.017,34.836 C14.5718585,34.836 14.211,34.4751415 14.211,34.03 C14.2107342,33.8161541 14.2955664,33.6109904 14.4467784,33.4597784 C14.5979904,33.3085664 14.8031541,33.2237342 15.017,33.224 Z" id="Shape" fill="#F9FAFD"/>
            <path d="M8.25,41.28 C8.69514151,41.28 9.056,41.6408585 9.056,42.086 C9.056,42.5311415 8.69514151,42.892 8.25,42.892 C7.80485849,42.892 7.444,42.5311415 7.444,42.086 C7.444,41.6408585 7.80485849,41.28 8.25,41.28 Z" id="Shape" fill="#F9FAFD"/>
            <path d="M4.706,23.558 C5.03254063,23.558009 5.32680995,23.7550402 5.45120369,24.056959 C5.57559744,24.3588778 5.50553264,24.7060185 5.27377252,24.9360533 C5.04201241,25.1660882 4.69435795,25.2335572 4.39337701,25.106911 C4.09239606,24.9802649 3.89756918,24.6845316 3.9,24.358 C3.90275141,23.9149743 4.26296613,23.5574411 4.706,23.558 Z" id="Shape" fill="#F9FAFD"/>
            <path d="M13.406,26.458 C13.7320875,26.4580003 14.0260474,26.6544842 14.1507421,26.9557886 C14.2754368,27.2570929 14.2062953,27.6038462 13.9755736,27.8342817 C13.7448518,28.0647173 13.3980129,28.1334281 13.0968636,28.0083595 C12.7957143,27.8832909 12.5995954,27.5890873 12.6,27.263 C12.5999998,27.0493274 12.6849493,26.8444208 12.8361325,26.6934252 C12.9873156,26.5424296 13.1923275,26.4577346 13.406,26.458 Z" id="Shape" fill="#F9FAFD"/>
            <polygon id="Shape" fill="#FEF2BB" points="24.2 40.152 35.8 40.152 35.8 48.53 24.2 48.53"/>
            <polygon id="Shape" fill="#FDEA8E" points="33.753 40.152 35.8 40.152 35.8 48.53 33.753 48.53"/>
            <path d="M30,3.258 C23.4156612,3.258 18.078,8.59566121 18.078,15.18 C18.078,21.78 23.429,29.035 30,29.035 C36.571,29.035 41.922,21.763 41.922,15.18 C41.9208958,8.59611865 36.5838814,3.25910421 30,3.258 Z" id="Shape" fill="#BF4D73"/>
            <path d="M26.932,3.654 C20.765,5.3 16.323,11.822 18.777,19.446 C20.43,22.014 22.966,23.88 25.811,23.88 C30.793,23.88 34.833,18.154 34.833,12.969 C34.9073099,8.32221198 31.5286401,4.33887969 26.932,3.654 Z" id="Shape" fill="#FF6699"/>
            <path d="M30,60.969 C13.4314575,60.969 2.02906125e-15,47.5375425 0,30.969 C-2.02906125e-15,14.4004575 13.4314575,0.969 30,0.969 C46.5685425,0.969 60,14.4004575 60,30.969 C60.0018573,38.9260639 56.8417485,46.5577605 51.2152545,52.1842545 C45.5887605,57.8107485 37.9570639,60.9708573 30,60.969 Z M30,2.969 C8.134,2.969 -5.074,26.923 5.963,45.338 C12.908231,56.9537726 27.1674527,61.939437 39.8374794,57.1820396 C52.5075061,52.4246422 59.9613554,39.2860584 57.5449861,25.9697689 C55.1286168,12.6534795 43.5337504,2.97146902 30,2.969 Z" id="Shape" fill="#464C63" fill-rule="nonzero"/>
            <path d="M30,30.036 C22.753,30.036 17.078,22.206 17.078,15.18 C17.0779999,10.563414 19.5409192,6.29751259 23.5389999,3.98921957 C27.5370807,1.68092655 32.4629193,1.68092655 36.4610001,3.98921957 C40.4590808,6.29751259 42.9220001,10.563414 42.922,15.18 C42.922,22.05 37.277,30.036 30,30.036 Z M30,4.258 C27.1031429,4.25746939 24.3247811,5.40800641 22.2763938,7.45639377 C20.2280064,9.50478112 19.0774694,12.2831429 19.078,15.18 C19.078,21.217 24.047,28.036 30,28.036 C36.151,28.036 40.922,21.125 40.922,15.18 C40.9148366,9.15091563 36.0290844,4.26516339 30,4.258 Z" id="Shape" fill="#464C63" fill-rule="nonzero"/>
            <path d="M34.8,49.53 L25.2,49.53 C24.0954305,49.53 23.2,48.6345695 23.2,47.53 L23.2,41.152 C23.2,40.0474305 24.0954305,39.152 25.2,39.152 L34.8,39.152 C35.9045695,39.152 36.8,40.0474305 36.8,41.152 L36.8,47.53 C36.8,48.6345695 35.9045695,49.53 34.8,49.53 Z M25.2,41.152 L25.2,47.53 L34.8,47.53 L34.8,41.152 L25.2,41.152 Z" id="Shape" fill="#464C63" fill-rule="nonzero"/>
        </g>
    </g>
</svg>
